#N struct 1018-square-template float x float x1 float x2 float x3 float
x4 float y float y1 float y2 float y3 float y4 float rgb;
#N canvas 526 146 1802 1009 12;
#X floatatom 412 91 5 0 0 0 - - - 0;
#X floatatom 614 89 5 0 0 0 - - - 0;
#X obj 412 60 loadfloat 36;
#X obj 614 60 loadfloat 42;
#X text 357 183 Carrier;
#X text 526 182 Modulator;
#X text 507 254 Attack time is mostly to prevent the clicking and the
popping \, kids nowadays..., f 82;
#X text 690 218 Modulation amount in Hz.;
#X text 380 91 Note;
#X msg 313 82 mode \$1;
#X obj 303 60 hradio 15 1 0 7 empty empty empty 0 -8 0 10 #fcfcfc #000000
#000000 0;
#X msg 515 82 mode \$1;
#X obj 505 60 hradio 15 1 0 7 empty empty empty 0 -8 0 10 #fcfcfc #000000
#000000 0;
#X obj 1337 365 keyboard2midi;
#X obj 1117 56 keyboard;
#X obj 1270 179 unpack f s;
#X obj 1270 205 sel 1 0;
#X obj 1337 390 t a a;
#X obj 1330 450 spigot;
#X msg 1337 415 0;
#X msg 1369 415 1;
#X obj 1270 450 spigot;
#X obj 1277 415 - 36;
#X obj 1375 302 spigot;
#X obj 1442 301 spigot;
#X obj 1442 240 t a a;
#X obj 1481 269 ==;
#X text 1512 269 == and != don't work for symbols...;
#X text 1399 206 Trying to filter out repeated note-on events...;
#X obj 251 469 toggle_filter;
#X msg 1270 476 1;
#X msg 1330 476 0;
#X obj 252 869 output~;
#X msg 192 387 level \$1;
#X obj 192 361 loadfloat 92;
#X obj 331 511 bng 15 250 50 0 empty empty empty 17 7 0 10 #fcfcfc
#000000 #000000;
#X obj 251 511 bng 15 250 50 0 empty empty empty 17 7 0 10 #fcfcfc
#000000 #000000;
#X msg 251 541 1;
#X obj 493 360 ADSR_T_gui;
#X obj 493 304 loadbang;
#X msg 493 330 42 112 0.9 69 1.2 1.6 3;
#X text 414 26 loadfloats cause a division by 0 somewhere...;
#X obj 74 44 metroma;
#X obj 124 250 random 12;
#X obj 124 230 bng 15 250 50 0 empty empty empty 17 7 0 10 #fcfcfc
#000000 #000000;
#X floatatom 124 205 5 0 0 0 - - - 0;
#X floatatom 202 205 5 0 0 0 - - - 0;
#X obj 202 230 bng 15 250 50 0 empty empty empty 17 7 0 10 #fcfcfc
#000000 #000000;
#X obj 202 250 random 1200;
#X msg 202 276 mod \$1;
#X obj 1270 517 tgl 15 0 empty empty empty 17 7 0 10 #fcfcfc #000000
#000000 0 1;
#X obj 656 360 ADSR_T_graph;
#X obj 251 579 ADSR_T_guts 80 120 0.9 69 1 1.6 3, f 35;
#X obj 463 778 voice, f 30;
#X msg 545 747 fun m 69;
#X obj 477 221 frequency_modulator_gui;
#X obj 412 275 frequency_modulator;
#X obj 412 121 tuning_block;
#X obj 614 121 tuning_block;
#X obj 545 614 tuning_gui;
#X msg 545 679 fun \$1;
#X msg 600 679 tpo \$1;
#X msg 725 679 slide \$1;
#X msg 655 679 chrom \$1;
#X obj 825 614 tuning_gui;
#X msg 825 679 fun \$1;
#X msg 880 679 tpo \$1;
#X msg 1005 679 slide \$1;
#X msg 935 679 chrom \$1;
#X text 576 805 Still need to link up the UI for the modulation;
#X msg 823 581 0;
#X connect 0 0 53 2;
#X connect 1 0 53 3;
#X connect 9 0 53 2;
#X connect 10 0 9 0;
#X connect 11 0 53 3;
#X connect 12 0 11 0;
#X connect 13 0 17 0;
#X connect 13 1 19 0;
#X connect 14 5 15 0;
#X connect 15 0 16 0;
#X connect 15 1 13 0;
#X connect 16 0 21 0;
#X connect 16 1 18 0;
#X connect 17 0 22 0;
#X connect 17 1 20 0;
#X connect 18 0 31 0;
#X connect 19 0 18 1;
#X connect 19 0 21 1;
#X connect 20 0 18 1;
#X connect 20 0 21 1;
#X connect 21 0 30 0;
#X connect 22 0 0 0;
#X connect 24 0 26 1;
#X connect 25 0 24 0;
#X connect 25 1 26 0;
#X connect 26 0 24 1;
#X connect 26 0 23 1;
#X connect 29 0 36 0;
#X connect 29 1 35 0;
#X connect 30 0 50 0;
#X connect 31 0 50 0;
#X connect 33 0 32 0;
#X connect 34 0 33 0;
#X connect 35 0 52 1;
#X connect 35 0 53 1;
#X connect 36 0 37 0;
#X connect 37 0 52 0;
#X connect 37 0 53 0;
#X connect 38 0 51 0;
#X connect 38 0 52 3;
#X connect 38 0 53 5;
#X connect 39 0 40 0;
#X connect 40 0 38 0;
#X connect 42 0 29 0;
#X connect 42 1 45 0;
#X connect 42 2 46 0;
#X connect 43 0 0 0;
#X connect 44 0 43 0;
#X connect 45 0 44 0;
#X connect 46 0 47 0;
#X connect 47 0 48 0;
#X connect 48 0 49 0;
#X connect 49 0 55 0;
#X connect 50 0 29 0;
#X connect 53 0 32 0;
#X connect 53 0 32 1;
#X connect 54 0 53 2;
#X connect 54 0 53 3;
#X connect 55 0 56 1;
#X connect 55 0 53 4;
#X connect 56 0 52 2;
#X connect 57 0 56 0;
#X connect 59 0 60 0;
#X connect 59 1 61 0;
#X connect 59 2 63 0;
#X connect 59 3 62 0;
#X connect 60 0 53 2;
#X connect 61 0 53 2;
#X connect 62 0 53 2;
#X connect 63 0 53 2;
#X connect 64 0 65 0;
#X connect 64 1 66 0;
#X connect 64 2 68 0;
#X connect 64 3 67 0;
#X connect 65 0 53 3;
#X connect 66 0 53 3;
#X connect 67 0 53 3;
#X connect 68 0 53 3;
#X connect 70 0 53 2;
#X connect 70 0 53 3;
