#N canvas 130 130 450 300 12;
#X obj 64 144 range_invert 10 20;
#X floatatom 64 170 5 0 0 0 - - - 0;
#X floatatom 64 116 5 0 0 0 - - - 0;
#X floatatom 125 116 5 0 0 0 - - - 0;
#X obj 125 24 loadbang;
#X msg 125 50 set 10;
#X obj 187 24 loadbang;
#X floatatom 187 116 5 0 0 0 - - - 0;
#X msg 187 50 set 20;
#X msg 64 75 12;
#X msg 29 75 0;
#X text 201 168 both min and max are inclusive;
#X connect 0 0 1 0;
#X connect 2 0 0 0;
#X connect 3 0 0 1;
#X connect 4 0 5 0;
#X connect 5 0 3 0;
#X connect 6 0 8 0;
#X connect 7 0 0 2;
#X connect 8 0 7 0;
#X connect 9 0 2 0;
#X connect 10 0 2 0;
