#N canvas 104 104 450 300 12;
#X obj 99 59 inlet;
#X obj 236 59 inlet;
#X obj 131 225 outlet;
#X obj 268 225 outlet;
#X obj 201 225 outlet;
#X obj 99 85 t f f;
#X obj 236 85 t f f;
#X obj 201 135 t b f;
#X obj 201 169 + \$1;
#X connect 0 0 5 0;
#X connect 1 0 6 0;
#X connect 5 0 8 0;
#X connect 5 1 2 0;
#X connect 6 0 7 0;
#X connect 6 1 3 0;
#X connect 7 0 8 0;
#X connect 7 1 8 1;
#X connect 8 0 4 0;
