#N canvas 798 309 1291 832 12;
#X obj 0 0 cnv 15 242 185 empty empty empty 20 12 0 14 #c4fcc4 #404040
0;
#X obj 0 125 cnv 15 140 60 empty empty empty 20 12 0 14 #ffffff #404040
0;
#X obj 185 2 vsl 19 120 10 1000 1 1 empty empty R 5 23 0 10 #fcfcfc
#000000 #000000 6343 1;
#X obj 0 -66 inlet;
#X obj 136 2 vsl 19 120 0 1 0 1 empty empty S 5 23 0 10 #fcfcfc #000000
#000000 10610 1;
#X obj 68 2 vsl 19 120 0 500 0 1 empty empty D 5 23 0 10 #fcfcfc #000000
#000000 2566 1;
#X obj 0 2 vsl 19 120 0 300 0 1 empty empty A 5 23 0 10 #fcfcfc #000000
#000000 3573 1;
#X obj 0 347 outlet;
#X msg 0 244 a \$1;
#X msg 40 244 d \$1;
#X msg 80 244 s \$1;
#X msg 120 244 r \$1;
#X text 2 -88 ADSR;
#X msg 181 244 at \$1;
#X msg 230 244 dt \$1;
#X msg 280 244 rt \$1;
#X obj 19 17 vsl 19 105 0.1 10 1 0 empty empty T 5 45 0 10 #c6feff
#000000 #000000 0 1;
#X obj 87 17 vsl 19 105 0.1 10 1 0 empty empty T 5 45 0 10 #c6feff
#000000 #000000 0 1;
#X obj 204 17 vsl 19 105 0.1 10 1 0 empty empty T 5 45 0 10 #c6feff
#000000 #000000 0 1;
#X floatatom 56 125 8 0 0 0 - - - 0;
#X text 115 125 ms.;
#X text 3 125 Attack;
#X floatatom 56 145 8 0 0 0 - - - 0;
#X text 115 145 ms.;
#X floatatom 56 165 8 0 0 0 - - - 0;
#X text 115 165 ms.;
#X text 3 145 Decay;
#X text 3 165 Release;
#X text 51 349 Labeled values;
#X obj 38 17 vsl 19 105 0 2 0 0 empty empty V 5 45 0 10 #e3c6ff #000000
#000000 0 1;
#X obj 106 17 vsl 19 105 0 2 0 0 empty empty V 5 45 0 10 #e3c6ff #000000
#000000 0 1;
#X obj 155 17 vsl 19 105 0 2 0 0 empty empty V 5 45 0 10 #e3c6ff #000000
#000000 0 1;
#X obj 223 17 vsl 19 105 0 2 0 0 empty empty V 5 45 0 10 #e3c6ff #000000
#000000 0 1;
#X msg 350 244 av \$1;
#X msg 400 244 dv \$1;
#X msg 450 244 sv \$1;
#X msg 500 244 rv \$1;
#N canvas 338 338 821 618 input_routing 0;
#X obj 22 379 outlet;
#X obj 72 379 outlet;
#X obj 122 379 outlet;
#X obj 202 379 outlet;
#X obj 252 379 outlet;
#X obj 302 379 outlet;
#X obj 382 379 outlet;
#X obj 432 379 outlet;
#X obj 512 379 outlet;
#X obj 562 379 outlet;
#X obj 612 379 outlet;
#X obj 27 38 inlet;
#X obj 385 140 route a A d D s S r R list;
#X obj 27 83 route av AV dv DV sv SV rv RV;
#X obj 227 112 route at AT dt DT rt RT;
#X obj 544 168 unpack f f f f f f f f f f f, f 29;
#X obj 40 127 f;
#X obj 90 127 f;
#X obj 140 127 f;
#X obj 190 127 f;
#X obj 240 147 f;
#X obj 290 147 f;
#X obj 340 147 f;
#X connect 11 0 13 0;
#X connect 12 0 0 0;
#X connect 12 1 0 0;
#X connect 12 2 3 0;
#X connect 12 3 3 0;
#X connect 12 4 6 0;
#X connect 12 5 6 0;
#X connect 12 6 8 0;
#X connect 12 7 8 0;
#X connect 12 8 15 0;
#X connect 13 0 16 0;
#X connect 13 1 16 0;
#X connect 13 2 17 0;
#X connect 13 3 17 0;
#X connect 13 4 18 0;
#X connect 13 5 18 0;
#X connect 13 6 19 0;
#X connect 13 7 19 0;
#X connect 13 8 14 0;
#X connect 14 0 20 0;
#X connect 14 1 20 0;
#X connect 14 2 21 0;
#X connect 14 3 21 0;
#X connect 14 4 22 0;
#X connect 14 5 22 0;
#X connect 14 6 12 0;
#X connect 15 0 0 0;
#X connect 15 1 3 0;
#X connect 15 2 6 0;
#X connect 15 3 8 0;
#X connect 15 4 1 0;
#X connect 15 5 4 0;
#X connect 15 6 9 0;
#X connect 15 7 2 0;
#X connect 15 8 5 0;
#X connect 15 9 7 0;
#X connect 15 10 10 0;
#X connect 16 0 2 0;
#X connect 17 0 5 0;
#X connect 18 0 7 0;
#X connect 19 0 10 0;
#X connect 20 0 1 0;
#X connect 21 0 4 0;
#X connect 22 0 9 0;
#X restore 0 -38 pd input_routing;
#X f 34;
#X obj 141 137 cnv 15 100 15 empty empty empty 20 12 0 14 #c6feff #404040
0;
#N canvas 52 52 450 300 tension_reset 0;
#X obj 65 27 r \$0-tension_reset;
#X obj 65 53 t b b b;
#X msg 65 89 at 1;
#X msg 105 89 dt 1;
#X msg 145 89 rt 1;
#X obj 65 133 outlet;
#X connect 0 0 1 0;
#X connect 1 0 2 0;
#X connect 1 1 3 0;
#X connect 1 2 4 0;
#X connect 2 0 5 0;
#X connect 3 0 5 0;
#X connect 4 0 5 0;
#X restore 56 -66 pd tension_reset;
#X obj 141 137 bng 15 250 50 0 \$0-tension_reset empty Reset\\\ Tension
17 7 0 10 #fcfcfc #000000 #000000;
#X obj 141 157 cnv 15 100 15 empty empty empty 20 12 0 14 #e3c6ff #404040
0;
#X obj 141 157 bng 15 250 50 0 \$0-velocity_reset empty Reset\\\ Velocity
17 7 0 10 #fcfcfc #000000 #000000;
#N canvas 1703 570 450 300 velocity_reset 0;
#X obj 65 133 outlet;
#X obj 65 27 r \$0-velocity_reset;
#X obj 65 53 t b b b b;
#X msg 65 89 av 0;
#X msg 105 89 dv 0;
#X msg 185 89 rv 0;
#X msg 145 89 sv 1;
#X connect 1 0 2 0;
#X connect 2 0 3 0;
#X connect 2 1 4 0;
#X connect 2 2 6 0;
#X connect 2 3 5 0;
#X connect 3 0 0 0;
#X connect 4 0 0 0;
#X connect 5 0 0 0;
#X connect 6 0 0 0;
#X restore 177 -66 pd velocity_reset;
#X connect 2 0 24 0;
#X connect 2 0 11 0;
#X connect 3 0 37 0;
#X connect 4 0 10 0;
#X connect 5 0 22 0;
#X connect 5 0 9 0;
#X connect 6 0 19 0;
#X connect 6 0 8 0;
#X connect 8 0 7 0;
#X connect 9 0 7 0;
#X connect 10 0 7 0;
#X connect 11 0 7 0;
#X connect 13 0 7 0;
#X connect 14 0 7 0;
#X connect 15 0 7 0;
#X connect 16 0 13 0;
#X connect 17 0 14 0;
#X connect 18 0 15 0;
#X connect 29 0 33 0;
#X connect 30 0 34 0;
#X connect 31 0 35 0;
#X connect 32 0 36 0;
#X connect 33 0 7 0;
#X connect 34 0 7 0;
#X connect 35 0 7 0;
#X connect 36 0 7 0;
#X connect 37 0 6 0;
#X connect 37 1 16 0;
#X connect 37 2 29 0;
#X connect 37 3 5 0;
#X connect 37 4 17 0;
#X connect 37 5 30 0;
#X connect 37 6 4 0;
#X connect 37 7 31 0;
#X connect 37 8 2 0;
#X connect 37 9 18 0;
#X connect 37 10 32 0;
#X connect 39 0 37 0;
#X connect 43 0 37 0;
#X coords 0 0 1 1 242 185 1 0 0;
