#N canvas 497 254 1596 971 12;
#X obj 431 275 unpack f f f f;
#X obj 481 78 inlet;
#X obj 332 579 pack f f;
#X msg 332 608 0 \$2;
#X obj 67 811 outlet~;
#X obj 67 78 inlet;
#X obj 332 78 inlet;
#X text 61 56 Note on;
#X text 326 56 Note off;
#X obj 431 811 outlet;
#X msg 431 778 a \$1;
#X msg 471 778 d \$1;
#X msg 511 778 s \$1;
#X msg 551 778 r \$1;
#X obj 187 580 pack f f f f;
#X obj 67 735 vline~;
#X obj 187 735 vline~;
#X obj 67 580 pack f f;
#X text 126 812 Attack;
#X text 482 813 Slider values;
#X obj 431 251 route a A d D s S r R list;
#X text 483 56 ADSR;
#X text 578 580 Note off inlet can also be used for a secondary decay...
(or even more decay stages);
#X obj 187 811 outlet~;
#X text 247 812 decay;
#X msg 187 609 1 0 \, 0 \$3 \$2;
#X msg 67 609 \$1 \$2;
#X msg 376 608 0 0 \$2;
#X obj 297 735 vline~;
#X obj 297 811 outlet~;
#X text 357 812 release;
#X obj 67 526 t f f b;
#X msg 297 706 1 0;
#X obj 431 342 loadfloat \$1;
#X obj 551 402 loadfloat \$4;
#X obj 511 382 loadfloat \$3;
#X obj 471 362 loadfloat \$2;
#X obj 355 159 f;
#X obj 405 159 f;
#X obj 455 159 f;
#X obj 182 459 x_mul 1;
#X obj 182 525 t f f;
#X obj 241 459 x_mul 1;
#X obj 385 459 x_mul 1;
#X obj 355 113 route av AV dv DV rv RV;
#X obj 67 104 t f f f f;
#X obj 200 277 pack f f;
#X obj 200 303 pow;
#X obj 270 277 pack f f;
#X obj 270 303 pow;
#X obj 340 277 pack f f;
#X obj 340 303 pow;
#X obj 182 485 change;
#X obj 241 485 change;
#X obj 385 485 change;
#X connect 0 0 33 0;
#X connect 0 1 36 0;
#X connect 0 2 35 0;
#X connect 0 3 34 0;
#X connect 1 0 44 0;
#X connect 2 0 3 0;
#X connect 2 0 27 0;
#X connect 3 0 28 0;
#X connect 5 0 45 0;
#X connect 6 0 2 0;
#X connect 10 0 9 0;
#X connect 11 0 9 0;
#X connect 12 0 9 0;
#X connect 13 0 9 0;
#X connect 14 0 25 0;
#X connect 15 0 4 0;
#X connect 16 0 23 0;
#X connect 17 0 26 0;
#X connect 20 0 33 0;
#X connect 20 1 33 0;
#X connect 20 2 36 0;
#X connect 20 3 36 0;
#X connect 20 4 35 0;
#X connect 20 5 35 0;
#X connect 20 6 34 0;
#X connect 20 7 34 0;
#X connect 20 8 0 0;
#X connect 25 0 16 0;
#X connect 26 0 15 0;
#X connect 27 0 16 0;
#X connect 27 0 15 0;
#X connect 28 0 29 0;
#X connect 31 0 17 0;
#X connect 31 1 14 0;
#X connect 31 2 32 0;
#X connect 32 0 28 0;
#X connect 33 0 10 0;
#X connect 33 0 40 0;
#X connect 34 0 13 0;
#X connect 34 0 43 0;
#X connect 35 0 12 0;
#X connect 35 0 14 3;
#X connect 36 0 11 0;
#X connect 36 0 42 0;
#X connect 37 0 46 1;
#X connect 38 0 48 1;
#X connect 39 0 50 1;
#X connect 40 0 52 0;
#X connect 41 0 17 1;
#X connect 41 1 14 1;
#X connect 42 0 53 0;
#X connect 43 0 54 0;
#X connect 44 0 37 0;
#X connect 44 1 37 0;
#X connect 44 2 38 0;
#X connect 44 3 38 0;
#X connect 44 4 39 0;
#X connect 44 5 39 0;
#X connect 44 6 20 0;
#X connect 45 0 31 0;
#X connect 45 1 46 0;
#X connect 45 2 48 0;
#X connect 45 3 50 0;
#X connect 46 0 47 0;
#X connect 47 0 40 1;
#X connect 48 0 49 0;
#X connect 49 0 42 1;
#X connect 50 0 51 0;
#X connect 51 0 43 1;
#X connect 52 0 41 0;
#X connect 53 0 14 2;
#X connect 54 0 2 1;
#X coords 0 971 1 970 76 125 0;
