#N canvas 961 308 835 851 12;
#X obj 274 144 inlet;
#X text 270 122 ADSR in;
#X obj 197 632 outlet~;
#X obj 65 144 inlet;
#X obj 138 144 inlet;
#X text 59 122 Note on;
#X text 132 122 Note off;
#X obj 223 94 inlet~;
#X text 205 72 Waveform in;
#X obj 425 516 route a d s r, f 14;
#X obj 65 202 t f f;
#X obj 197 560 ADSR_Tension, f 30;
#X obj 274 354 route at AT dt DT rt RT;
#X obj 393 484 t a a;
#X obj 393 632 outlet;
#X obj 274 380 loadfloat \$5;
#X obj 326 400 loadfloat \$6;
#X obj 379 420 loadfloat \$7;
#X text 471 635 Koen Riksen 2022;
#X obj 249 450 ADSRV_guts \$1 \$2 \$3 \$4;
#X obj 274 233 f;
#X obj 274 187 route sv SV;
#X obj 117 280 pow;
#X obj 65 174 / 100;
#X obj 117 254 pack f f;
#X connect 0 0 21 0;
#X connect 3 0 23 0;
#X connect 4 0 19 1;
#X connect 7 0 11 1;
#X connect 9 2 11 8;
#X connect 10 0 19 0;
#X connect 10 1 24 0;
#X connect 11 0 2 0;
#X connect 12 0 15 0;
#X connect 12 1 15 0;
#X connect 12 2 16 0;
#X connect 12 3 16 0;
#X connect 12 4 17 0;
#X connect 12 5 17 0;
#X connect 12 6 19 2;
#X connect 13 0 14 0;
#X connect 13 1 9 0;
#X connect 15 0 11 3;
#X connect 16 0 11 5;
#X connect 17 0 11 7;
#X connect 19 0 11 2;
#X connect 19 1 11 4;
#X connect 19 2 11 6;
#X connect 19 3 13 0;
#X connect 20 0 24 1;
#X connect 21 0 20 0;
#X connect 21 1 20 0;
#X connect 21 2 12 0;
#X connect 22 0 11 0;
#X connect 23 0 10 0;
#X connect 24 0 22 0;
#X coords 0 851 1 850 426 140 0;
