#N canvas 1026 233 1291 832 12;
#X obj 0 0 cnv 15 163 125 empty empty empty 20 12 0 14 #c4fcc4 #404040
0;
#X obj 125 2 vsl 19 120 10 1000 1 1 empty empty R 5 23 0 10 #fcfcfc
#000000 #000000 6343 1;
#X obj 0 -76 inlet;
#X obj 96 2 vsl 19 120 0 1 0 1 empty empty S 5 23 0 10 #fcfcfc #000000
#000000 10610 1;
#X obj 48 2 vsl 19 120 0 500 0 1 empty empty D 5 23 0 10 #fcfcfc #000000
#000000 2566 1;
#X obj 0 2 vsl 19 120 0 300 0 1 empty empty A 5 23 0 10 #fcfcfc #000000
#000000 1273 1;
#X obj 0 507 outlet;
#X msg 0 394 a \$1;
#X msg 40 394 d \$1;
#X msg 80 394 s \$1;
#X msg 120 394 r \$1;
#X obj 0 -53 route a A d D s S r R list;
#X text 2 -98 ADSR;
#X msg 161 394 at \$1;
#X msg 210 394 dt \$1;
#X msg 260 394 rt \$1;
#X obj 19 17 vsl 19 105 0.1 10 1 0 empty empty T 5 45 0 10 #fcfcfc
#000000 #000000 0 1;
#X obj 67 17 vsl 19 105 0.1 10 1 0 empty empty T 5 45 0 10 #fcfcfc
#000000 #000000 0 1;
#X obj 144 17 vsl 19 105 0.1 10 1 0 empty empty T 5 45 0 10 #fcfcfc
#000000 #000000 0 1;
#X floatatom 58 125 9 0 0 0 - - - 0;
#X text 124 125 ms.;
#X text 5 125 Attack;
#X floatatom 58 145 9 0 0 0 - - - 0;
#X text 124 145 ms.;
#X floatatom 58 165 9 0 0 0 - - - 0;
#X text 124 165 ms.;
#X text 5 145 Decay;
#X text 5 165 Release;
#X obj 0 -29 unpack f f f f f f f;
#X obj 0 273 t f f;
#X obj 350 394 pack f f f f f f f;
#X obj 50 273 t f b f;
#X obj 110 273 t f b f;
#X obj 170 273 t f b f;
#X obj 233 273 t f b f;
#X obj 293 273 t f b f;
#X obj 353 273 t f b f;
#X obj 350 507 outlet;
#X text 51 509 Labeled values;
#X text 401 509 Setting list;
#X connect 1 0 24 0;
#X connect 1 0 33 0;
#X connect 2 0 11 0;
#X connect 3 0 32 0;
#X connect 4 0 22 0;
#X connect 4 0 31 0;
#X connect 5 0 19 0;
#X connect 5 0 29 0;
#X connect 7 0 6 0;
#X connect 8 0 6 0;
#X connect 9 0 6 0;
#X connect 10 0 6 0;
#X connect 11 0 5 0;
#X connect 11 1 5 0;
#X connect 11 2 4 0;
#X connect 11 3 4 0;
#X connect 11 4 3 0;
#X connect 11 5 3 0;
#X connect 11 6 1 0;
#X connect 11 7 1 0;
#X connect 11 8 28 0;
#X connect 13 0 6 0;
#X connect 14 0 6 0;
#X connect 15 0 6 0;
#X connect 16 0 34 0;
#X connect 17 0 35 0;
#X connect 18 0 36 0;
#X connect 28 0 5 0;
#X connect 28 1 4 0;
#X connect 28 2 3 0;
#X connect 28 3 1 0;
#X connect 28 4 16 0;
#X connect 28 5 17 0;
#X connect 28 6 18 0;
#X connect 29 0 7 0;
#X connect 29 1 30 0;
#X connect 30 0 37 0;
#X connect 31 0 8 0;
#X connect 31 1 30 0;
#X connect 31 2 30 1;
#X connect 32 0 9 0;
#X connect 32 1 30 0;
#X connect 32 2 30 2;
#X connect 33 0 10 0;
#X connect 33 1 30 0;
#X connect 33 2 30 3;
#X connect 34 0 13 0;
#X connect 34 1 30 0;
#X connect 34 2 30 4;
#X connect 35 0 14 0;
#X connect 35 1 30 0;
#X connect 35 2 30 5;
#X connect 36 0 15 0;
#X connect 36 1 30 0;
#X connect 36 2 30 6;
#X coords 0 0 1 1 163 185 1 0 0;
