#N canvas 1290 221 968 902 12;
#X obj 176 67 inlet~;
#X obj 236 67 inlet~;
#X obj 296 67 inlet~;
#X obj 76 589 outlet~;
#X obj 76 556 *~;
#X obj 186 148 pow~ 1;
#X obj 237 148 pow~ 1;
#X obj 219 396 *~;
#X obj 263 334 * 1;
#X obj 238 365 +~ 1;
#X obj 256 210 t b f;
#X msg 256 236 1;
#X obj 256 266 - 1;
#X obj 238 302 *~;
#X obj 270 432 *~;
#X obj 289 148 pow~ 1;
#X obj 216 37 inlet;
#X obj 276 37 inlet;
#X obj 336 37 inlet;
#X obj 392 67 inlet;
#X obj 29 67 inlet;
#X obj 93 67 inlet~;
#X text 168 587 Koen Riksen 2022;
#X connect 0 0 5 0;
#X connect 1 0 6 0;
#X connect 2 0 15 0;
#X connect 4 0 3 0;
#X connect 5 0 7 0;
#X connect 6 0 13 0;
#X connect 7 0 14 0;
#X connect 8 0 9 1;
#X connect 9 0 7 1;
#X connect 10 0 11 0;
#X connect 10 1 12 1;
#X connect 11 0 12 0;
#X connect 12 0 13 1;
#X connect 13 0 9 0;
#X connect 14 0 4 0;
#X connect 15 0 14 1;
#X connect 16 0 5 1;
#X connect 17 0 6 1;
#X connect 18 0 15 1;
#X connect 19 0 8 1;
#X connect 19 0 10 0;
#X connect 20 0 8 0;
#X connect 21 0 4 1;
