#N canvas 1622 915 442 300 10;
#X obj 15 50 inlet;
#X obj 56 50 inlet;
#X obj 55 226 outlet;
#X obj 116 50 inlet;
#X text 154 49 Mix;
#X obj 103 130 -;
#X obj 76 78 t f f;
#X obj 55 203 +;
#X obj 55 182 * 1;
#X obj 88 182 * 0;
#X text 19 29 Dry;
#X text 59 29 Wet;
#X msg 103 109 1 \$1;
#X connect 0 0 8 0;
#X connect 1 0 9 0;
#X connect 3 0 6 0;
#X connect 5 0 8 1;
#X connect 6 0 9 1;
#X connect 6 1 12 0;
#X connect 7 0 2 0;
#X connect 8 0 7 0;
#X connect 9 0 7 1;
#X connect 12 0 5 0;
