#N canvas 696 160 1321 1071 12;
#N canvas 1026 269 979 617 file_opening_temp 0;
#X obj 108 143 pdcontrol;
#X msg 108 115 dir;
#X text 184 142 <= get currently directory;
#X obj 108 378 file handle;
#X obj 108 431 print data, f 5;
#X obj 214 451 print INFO;
#X text 52 423 list of bytes read, f 7;
#X text 315 489 when seeking \, the position from the start of the
file (or -1 on error) is output here., f 44;
#X obj 182 424 t a a;
#X obj 182 485 route bang seek;
#X obj 182 510 bng 20 250 50 0 empty empty close -35 10 0 10 #fcfcfc
#000000 #000000;
#X floatatom 233 510 5 0 0 1 pos - - 0;
#X text 299 445 if the file cannot be opened \, a bang is sent to the
2nd outlet. when the end of the file is reached or a read error occurred
\, the file is closed and a bang is sent too., f 85;
#X listbox 108 288 57 0 0 0 - - - 0;
#X obj 48 24 tgl 15 0 empty empty Opened 17 7 0 10 #fcfcfc #000000
#000000 0 1;
#X obj 48 44 sel 0 1;
#X msg 108 316 open \$1 r;
#X msg 48 316 close;
#X obj 108 260 file join;
#X obj 108 233 pack s s;
#X msg 161 205 symbol Toneblock.txt;
#X obj 161 178 loadbang;
#X connect 0 0 19 0;
#X connect 1 0 0 0;
#X connect 3 0 4 0;
#X connect 3 1 8 0;
#X connect 8 0 9 0;
#X connect 8 1 5 0;
#X connect 9 0 10 0;
#X connect 9 1 11 0;
#X connect 13 0 16 0;
#X connect 14 0 15 0;
#X connect 15 0 17 0;
#X connect 15 1 1 0;
#X connect 16 0 3 0;
#X connect 17 0 3 0;
#X connect 18 0 13 0;
#X connect 19 0 18 0;
#X connect 20 0 19 1;
#X connect 21 0 20 0;
#X restore 385 29 pd file_opening_temp;
#X obj 117 204 text search \$0-properties-file;
#X msg 117 174 symbol param;
#X obj 84 416 text get \$0-properties-file 2 1;
#X obj 61 34 bng 15 250 50 0 empty empty empty 17 7 0 10 #fcfcfc #000000
#000000;
#N canvas 156 156 732 499 load_textfile 0;
#X obj 47 20 inlet;
#X obj 47 300 text define \$0-properties-file;
#X obj 47 88 pdcontrol;
#X msg 47 60 dir;
#X text 123 87 <= get currently directory;
#X listbox 47 233 57 0 0 0 - - - 0;
#X obj 47 205 file join;
#X obj 47 178 pack s s;
#X msg 100 150 symbol Toneblock.txt;
#X obj 100 123 loadbang;
#X msg 47 261 read \$1;
#X connect 0 0 3 0;
#X connect 2 0 7 0;
#X connect 3 0 2 0;
#X connect 5 0 10 0;
#X connect 6 0 5 0;
#X connect 7 0 6 0;
#X connect 8 0 7 1;
#X connect 9 0 8 0;
#X connect 10 0 1 0;
#X restore 107 97 pd load_textfile;
#X obj 84 381 for 0 128;
#X obj 353 174 text size \$0-properties-file;
#X obj 84 129 t b b b, f 10;
#X obj 117 236 s \$0-first_param_line;
#X obj 114 305 r \$0-first_param_line;
#X obj 144 330 r \$0-last_param_line;
#X obj 353 276 s \$0-last_param_line;
#X text 360 221 missing some steps here;
#X listbox 84 516 56 0 0 0 - - - 0;
#X obj 184 486 list store;
#X obj 353 248 - 1;
#X obj 84 486 list prepend;
#X obj 182 543 list length;
#X floatatom 182 569 5 0 0 0 - - - 0;
#X obj 84 596 text fromlist \$0-properties-list;
#X obj 318 596 text define \$0-properties-list;
#X obj 184 453 t b b;
#X obj 648 153 text get \$0-properties-list;
#X msg 648 123 0;
#X floatatom 648 26 5 0 0 0 - - - 0;
#X obj 648 91 t b f;
#X listbox 648 179 20 0 0 0 - - - 0;
#X obj 710 123 clip 0 0;
#X obj 263 564 s \$0-param_count;
#X obj 763 70 r \$0-param_count;
#X obj 763 96 - 1;
#X text 688 26 get property by its index;
#X text 320 415 Changing the 2 would allow us to select alternate properties
\, as long as all the params are uniform;
#X obj 84 270 t b b;
#X obj 61 62 t b b b;
#X connect 1 0 9 0;
#X connect 2 0 1 0;
#X connect 3 0 17 0;
#X connect 4 0 35 0;
#X connect 6 0 3 0;
#X connect 7 0 16 0;
#X connect 8 0 34 0;
#X connect 8 1 2 0;
#X connect 8 2 7 0;
#X connect 10 0 6 1;
#X connect 11 0 6 2;
#X connect 14 0 18 0;
#X connect 14 0 20 0;
#X connect 15 0 14 0;
#X connect 15 0 17 1;
#X connect 16 0 12 0;
#X connect 17 0 15 0;
#X connect 18 0 19 0;
#X connect 18 0 29 0;
#X connect 22 0 15 0;
#X connect 22 1 15 1;
#X connect 23 0 27 0;
#X connect 24 0 23 0;
#X connect 25 0 26 0;
#X connect 26 0 24 0;
#X connect 26 1 28 0;
#X connect 28 0 23 1;
#X connect 30 0 31 0;
#X connect 31 0 28 2;
#X connect 34 0 6 0;
#X connect 34 1 22 0;
#X connect 35 1 8 0;
#X connect 35 2 5 0;
