#N canvas 1719 968 364 324 10;
#X obj 154 24 inlet;
#X obj 154 238 outlet;
#X obj 154 45 t f f;
#X obj 191 66 mod 2;
#X obj 191 87 change;
#X obj 179 213 -;
#X obj 154 121 swap;
#X obj 154 169 route 0 1;
#X obj 154 145 pack f f;
#X msg 179 192 1 \$1;
#X obj 102 87 floatmod 1 24;
#X connect 0 0 2 0;
#X connect 2 0 10 0;
#X connect 2 1 3 0;
#X connect 3 0 4 0;
#X connect 4 0 6 1;
#X connect 5 0 1 0;
#X connect 6 0 8 0;
#X connect 6 1 8 1;
#X connect 7 0 1 0;
#X connect 7 1 9 0;
#X connect 8 0 7 0;
#X connect 9 0 5 0;
#X connect 10 0 6 0;
