#N canvas 324 249 450 300 10;
#X obj 54 78 inlet;
#X obj 54 184 outlet;
#X obj 54 98 / 60;
#X msg 54 142 1000;
#X obj 54 162 / 1000;
#X obj 54 121 t b f;
#X connect 0 0 2 0;
#X connect 2 0 5 0;
#X connect 3 0 4 0;
#X connect 4 0 1 0;
#X connect 5 0 3 0;
#X connect 5 1 4 1;
