#N canvas 781 835 363 300 10;
#X obj 40 25 inlet;
#X text 77 25 Frequency;
#X obj 160 25 inlet;
#X text 197 25 Cents up or down;
#X obj 160 90 f 2;
#X obj 160 115 pow;
#X obj 160 58 t b f;
#X obj 192 90 / 1200;
#X obj 160 135 t b f;
#X obj 145 165 f 440;
#X obj 145 188 * 1;
#X obj 145 209 outlet;
#X text 189 209 Result frequency;
#X text 24 258 Koen Riksen 2020;
#X connect 0 0 9 0;
#X connect 2 0 6 0;
#X connect 4 0 5 0;
#X connect 5 0 8 0;
#X connect 6 0 4 0;
#X connect 6 1 7 0;
#X connect 7 0 5 1;
#X connect 8 0 9 0;
#X connect 8 1 10 1;
#X connect 9 0 10 0;
#X connect 10 0 11 0;
