#N canvas 1459 717 450 300 12;
#X obj 62 45 inlet;
#X obj 62 170 outlet;
#X obj 129 170 outlet;
#X obj 62 106 t f f;
#X obj 62 79 f;
#X obj 62 138 sel;
#X text 55 192 Changes;
#X text 122 192 Repeats;
#X text 34 25 Floats in;
#X connect 0 0 4 0;
#X connect 3 0 5 1;
#X connect 3 1 5 0;
#X connect 4 0 3 0;
#X connect 5 0 2 0;
#X connect 5 1 1 0;
