#N canvas 1285 940 366 280 10;
#X obj 60 29 inlet;
#N canvas 1603 853 342 389 sqrt_modulator 1;
#X obj 174 28 inlet;
#X obj 174 139 -;
#X obj 51 88 sqrt;
#X obj 51 111 cos;
#X obj 102 111 cos;
#X obj 51 26 inlet;
#X obj 51 218 * 0;
#X obj 51 254 +;
#X obj 51 296 outlet;
#X obj 102 218 * 1;
#X msg 174 109 1 \$1;
#X obj 51 49 t f f;
#X connect 0 0 6 1;
#X connect 0 0 10 0;
#X connect 1 0 9 1;
#X connect 2 0 3 0;
#X connect 3 0 6 0;
#X connect 4 0 9 0;
#X connect 5 0 11 0;
#X connect 6 0 7 0;
#X connect 7 0 8 0;
#X connect 9 0 7 1;
#X connect 10 0 1 0;
#X connect 11 0 2 0;
#X connect 11 1 4 0;
#X restore 60 172 pd sqrt_modulator;
#X obj 159 29 inlet;
#X obj 205 29 inlet;
#X text 205 15 Phase;
#X text 159 15 Curve;
#X obj 60 143 +;
#X obj 205 89 f 0;
#X obj 60 215 outlet;
#X text 60 15 Point;
#X msg 216 58 0;
#X connect 0 0 6 0;
#X connect 1 0 8 0;
#X connect 2 0 1 1;
#X connect 3 0 7 0;
#X connect 6 0 1 0;
#X connect 7 0 6 1;
#X connect 10 0 7 0;
