#N canvas 1161 758 366 256 10;
#X obj 80 62 phasor~ \$1;
#X obj 80 30 inlet;
#X obj 137 30 inlet;
#X obj 80 216 outlet~;
#N canvas 1355 942 342 389 sqrt_modulator 0;
#X obj 52 27 inlet~;
#X obj 52 267 outlet~;
#X obj 54 81 cos~;
#X obj 53 58 sqrt~;
#X obj 102 81 cos~;
#X obj 52 224 +~;
#X obj 177 28 inlet;
#X obj 177 109 -;
#X msg 177 89 1;
#X obj 177 69 t b f;
#X obj 103 188 *~ 1;
#X obj 53 188 *~ 0;
#X connect 0 0 3 0;
#X connect 0 0 4 0;
#X connect 2 0 11 0;
#X connect 3 0 2 0;
#X connect 4 0 10 0;
#X connect 5 0 1 0;
#X connect 6 0 9 0;
#X connect 6 0 11 1;
#X connect 7 0 10 1;
#X connect 8 0 7 0;
#X connect 9 0 8 0;
#X connect 9 1 7 1;
#X connect 10 0 5 1;
#X connect 11 0 5 0;
#X restore 81 163 pd sqrt_modulator;
#X obj 180 30 inlet;
#X obj 226 30 inlet;
#X obj 81 104 +~;
#X obj 81 125 wrap~;
#X obj 226 90 sig~ 0;
#X text 263 30 Phase;
#X text 19 30 Frequency;
#X text 180 16 Curve;
#X connect 0 0 7 0;
#X connect 1 0 0 0;
#X connect 2 0 0 1;
#X connect 4 0 3 0;
#X connect 5 0 4 1;
#X connect 6 0 9 0;
#X connect 7 0 8 0;
#X connect 8 0 4 0;
#X connect 9 0 7 1;
