#N canvas 1884 748 450 300 10;
#X obj 47 13 inlet;
#X obj 47 264 outlet;
#X obj 47 136 sqrt;
#X obj 47 112 / 2;
#X obj 47 71 -;
#X obj 47 193 -;
#X obj 47 228 * 2;
#X msg 47 47 1 \$1;
#X msg 47 169 0.5 \$1;
#X connect 0 0 7 0;
#X connect 2 0 8 0;
#X connect 3 0 2 0;
#X connect 4 0 3 0;
#X connect 5 0 6 0;
#X connect 6 0 1 0;
#X connect 7 0 4 0;
#X connect 8 0 5 0;
