#N canvas 1821 667 450 300 10;
#X obj 40 21 inlet;
#X obj 138 21 inlet;
#X obj 40 93 f;
#X obj 40 201 outlet;
#X obj 132 201 outlet;
#X obj 40 176 i;
#X obj 132 176 i;
#X obj 138 115 t f f;
#X obj 40 115 t f f;
#X obj 132 148 mod \$1;
#X obj 40 148 / \$1;
#X obj 138 93 f \$1;
#X connect 0 0 2 0;
#X connect 1 0 11 0;
#X connect 2 0 8 0;
#X connect 5 0 3 0;
#X connect 6 0 4 0;
#X connect 7 0 10 1;
#X connect 7 1 9 1;
#X connect 8 0 10 0;
#X connect 8 1 9 0;
#X connect 9 0 6 0;
#X connect 10 0 5 0;
#X connect 11 0 7 0;
