#N canvas 1121 643 450 300 12;
#X obj 50 26 inlet;
#X obj 50 256 outlet;
#X obj 153 256 outlet;
#X obj 153 26 inlet;
#X text 72 53 get min/max;
#X obj 153 52 route bang reset;
#X obj 68 145 sel 1;
#X obj 113 145 sel 1;
#X obj 50 81 t f f f f f;
#X obj 68 119 < \$1;
#X obj 113 119 > \$2;
#X obj 153 205 f \$1;
#X obj 153 231 pack \$1 \$2;
#X obj 207 113 f \$1;
#X obj 259 113 f \$2;
#X obj 207 83 t b b;
#X obj 68 175 f;
#X obj 113 175 f;
#X obj 259 139 t f f;
#X obj 207 139 t f f;
#X connect 0 0 8 0;
#X connect 3 0 5 0;
#X connect 5 0 11 0;
#X connect 5 1 15 0;
#X connect 6 0 16 0;
#X connect 7 0 17 0;
#X connect 8 0 1 0;
#X connect 8 1 9 0;
#X connect 8 2 16 1;
#X connect 8 3 10 0;
#X connect 8 4 17 1;
#X connect 9 0 6 0;
#X connect 10 0 7 0;
#X connect 11 0 12 0;
#X connect 12 0 2 0;
#X connect 13 0 19 0;
#X connect 14 0 18 0;
#X connect 15 0 13 0;
#X connect 15 1 14 0;
#X connect 16 0 9 1;
#X connect 16 0 11 1;
#X connect 17 0 10 1;
#X connect 17 0 12 1;
#X connect 18 0 10 1;
#X connect 18 1 12 1;
#X connect 19 0 9 1;
#X connect 19 1 11 1;
