#N canvas 442 396 1321 816 12;
#X obj 190 281 t b f;
#X msg 35 527 gui resize;
#X obj 35 558 s camomile;
#X msg 133 537 \; pd-\$1 donecanvasdialog \$2 \$3 \$4 \$5 \$6 \$7 \$8
\$9 \$10 \$11 \$12;
#X text 136 579 donecanvasdialog <xunit> <yunits> <gopmode>, f 44
;
#X text 255 599 <xfrom> <yfrom> <xto> <yto>;
#X text 255 619 <width> <height> <xoffset> <yoffset>;
#X obj 238 281 t b a;
#X obj 35 428 t b b;
#X obj 270 306 unpack f f;
#X obj 140 281 t b f;
#X obj 133 466 symbol \$1;
#X obj 26 20 inlet;
#X obj 26 43 route width height size;
#X text 68 20 Size inlet;
#X obj 536 20 inlet;
#X text 578 20 Settings inlet;
#X obj 536 43 route gop GOP xoff xOff yoff yOff;
#X obj 487 281 t b f;
#X obj 437 281 t b f;
#X obj 387 281 t b f;
#X obj 536 75 f 2;
#X obj 612 75 f 0;
#X obj 688 75 f 0;
#X obj 764 110 sel 0 1;
#X obj 854 110 sel 0 1;
#X msg 764 133 1;
#X msg 787 133 -1;
#X msg 854 133 -1;
#X msg 877 133 1;
#X obj 764 281 t b f;
#X obj 854 281 t b f;
#X obj 764 257 * 1;
#X obj 854 256 * 1;
#X obj 764 163 f 1;
#X obj 854 163 f -1;
#X obj 764 186 t b f;
#X obj 854 186 t b f;
#X obj 821 219 f 1;
#X obj 914 219 f 1;
#X obj 764 75 route flipX flipY zoomX zoomY zoom, f 36;
#X obj 963 107 t f f;
#X obj 133 506 pack s 1 -1 2 0 1 1 1 100 100 0 0, f 36;
#X obj 26 75 f \$2;
#X obj 79 75 f \$3;
#X obj 131 75 t f f;
#X obj 131 98 unpack f f;
#X connect 0 0 8 0;
#X connect 0 1 42 9;
#X connect 1 0 2 0;
#X connect 7 0 8 0;
#X connect 7 1 9 0;
#X connect 8 0 1 0;
#X connect 8 1 11 0;
#X connect 9 0 42 8;
#X connect 9 1 42 9;
#X connect 10 0 8 0;
#X connect 10 1 42 8;
#X connect 11 0 42 0;
#X connect 12 0 13 0;
#X connect 13 0 43 0;
#X connect 13 1 44 0;
#X connect 13 2 45 0;
#X connect 15 0 17 0;
#X connect 17 0 21 0;
#X connect 17 1 21 0;
#X connect 17 2 22 0;
#X connect 17 3 22 0;
#X connect 17 4 23 0;
#X connect 17 5 23 0;
#X connect 17 6 40 0;
#X connect 18 0 8 0;
#X connect 18 1 42 11;
#X connect 19 0 8 0;
#X connect 19 1 42 10;
#X connect 20 0 8 0;
#X connect 20 1 42 3;
#X connect 21 0 20 0;
#X connect 22 0 19 0;
#X connect 23 0 18 0;
#X connect 24 0 26 0;
#X connect 24 1 27 0;
#X connect 25 0 28 0;
#X connect 25 1 29 0;
#X connect 26 0 34 0;
#X connect 27 0 34 0;
#X connect 28 0 35 0;
#X connect 29 0 35 0;
#X connect 30 0 8 0;
#X connect 30 1 42 1;
#X connect 31 0 8 0;
#X connect 31 1 42 2;
#X connect 32 0 30 0;
#X connect 33 0 31 0;
#X connect 34 0 36 0;
#X connect 35 0 37 0;
#X connect 36 0 38 0;
#X connect 36 1 32 1;
#X connect 37 0 39 0;
#X connect 37 1 33 1;
#X connect 38 0 32 0;
#X connect 39 0 33 0;
#X connect 40 0 24 0;
#X connect 40 1 25 0;
#X connect 40 2 38 0;
#X connect 40 3 39 0;
#X connect 40 4 41 0;
#X connect 41 0 39 0;
#X connect 41 1 38 0;
#X connect 42 0 3 0;
#X connect 43 0 10 0;
#X connect 44 0 0 0;
#X connect 45 0 46 0;
#X connect 45 1 7 0;
#X connect 46 0 43 1;
#X connect 46 1 44 1;
