#N canvas 1205 565 927 542 12;
#X obj 261 44 inlet;
#X obj 261 212 symbol \$1;
#X obj 261 177 t b f;
#N canvas 1447 762 450 300 filter_input 0;
#X obj 43 22 inlet;
#X obj 43 208 outlet;
#X obj 43 125 change \$2;
#X obj 43 99 f \$2;
#X obj 43 73 max 1;
#X obj 43 151 max 1;
#X connect 0 0 4 0;
#X connect 2 0 5 0;
#X connect 3 0 2 0;
#X connect 4 0 3 0;
#X connect 5 0 1 0;
#X restore 261 101 pd filter_input;
#X msg 261 283 \; \$1 size \$2 \$3;
#X obj 261 252 pack s f f;
#X connect 1 0 5 0;
#X connect 2 0 1 0;
#X connect 2 1 5 1;
#X connect 2 1 5 2;
#X connect 3 0 2 0;
#X connect 5 0 4 0;
