#N canvas 1205 565 927 542 12;
#X obj 77 237 symbol \$1;
#X msg 77 308 \; \$1 bounds \$2 \$3 \$4 \$5;
#X msg 347 308 \; \$1 resize \$2;
#X obj 192 48 inlet;
#X obj 347 237 symbol \$1;
#X obj 347 277 pack s f;
#X obj 192 102 t f f;
#X obj 192 182 t b f;
#X obj 347 182 t b f;
#X obj 77 277 pack s 0 1 514 -1, f 36;
#X obj 192 155 - 1;
#N canvas 1447 762 450 300 filter_input 0;
#X obj 43 22 inlet;
#X obj 43 208 outlet;
#X obj 43 125 change \$2;
#X obj 43 99 f \$2;
#X obj 43 73 max 1;
#X obj 43 151 max 1;
#X connect 0 0 4 0;
#X connect 2 0 5 0;
#X connect 3 0 2 0;
#X connect 4 0 3 0;
#X connect 5 0 1 0;
#X restore 192 75 pd filter_input;
#X connect 0 0 9 0;
#X connect 3 0 11 0;
#X connect 4 0 5 0;
#X connect 5 0 2 0;
#X connect 6 0 10 0;
#X connect 6 1 8 0;
#X connect 7 0 0 0;
#X connect 7 1 9 3;
#X connect 8 0 4 0;
#X connect 8 1 5 1;
#X connect 9 0 1 0;
#X connect 10 0 7 0;
#X connect 11 0 6 0;
