#N canvas 260 260 450 300 12;
#X obj 55 158 symbol \$1;
#X obj 55 198 pack s f;
#X obj 55 123 t b f;
#X obj 55 67 inlet;
#X msg 55 229 \; \$1 vis \$2;
#X obj 55 93 f \$2;
#X connect 0 0 1 0;
#X connect 1 0 4 0;
#X connect 2 0 0 0;
#X connect 2 1 1 1;
#X connect 3 0 5 0;
#X connect 5 0 2 0;
