#N canvas 360 394 723 587 10;
#X floatatom 116 120 5 0 0 0 - - - 0;
#X obj 34 222 expr $f2 * pow(2 \, ($f1/$f3));
#X floatatom 199 170 5 0 0 0 - - - 0;
#X text 234 170 # Tones;
#X obj 189 136 loadbang;
#X msg 152 153 12;
#X text 131 240 Chromatic equal temperament;
#X obj 116 58 f;
#X text 150 120 Fundamental;
#X obj 34 25 inlet;
#X obj 116 25 inlet;
#X obj 34 281 outlet;
#X obj 253 153 inlet;
#X connect 0 0 1 1;
#X connect 1 0 11 0;
#X connect 2 0 1 2;
#X connect 4 0 5 0;
#X connect 5 0 2 0;
#X connect 7 0 0 0;
#X connect 9 0 1 0;
#X connect 10 0 7 0;
#X connect 12 0 2 0;
