#N canvas 1542 759 450 300 12;
#X obj 76 49 inlet;
#X obj 76 235 outlet;
#X obj 126 49 inlet;
#X obj 126 167 t b f;
#X obj 126 90 clip 0 1;
#X obj 76 205 pow \$1;
#X connect 0 0 5 0;
#X connect 2 0 4 0;
#X connect 3 0 5 0;
#X connect 3 1 5 1;
#X connect 4 0 3 0;
#X connect 5 0 1 0;
