#N canvas 402 331 1016 404 10;
#X obj 25 42 inlet~;
#X obj 175 42 inlet~;
#X obj 194 322 outlet~;
#X obj 384 322 outlet~;
#X obj 275 44 inlet;
#X obj 59 111 hradio 15 1 0 3 empty empty empty 0 -8 0 10 -262144 -1
-1 2;
#X obj 209 112 hradio 15 1 0 3 empty empty empty 0 -8 0 10 -262144
-1 -1 2;
#X text 24 26 Signal Left;
#X text 174 26 Signal Right;
#X text 274 28 High/Low/Band Pass;
#X obj 415 44 inlet;
#X text 414 28 High/Low Cutoff Frequency;
#X obj 585 44 inlet;
#X text 584 28 BandPass Pair;
#X text 659 66 Frequency;
#X text 659 81 Fade factor;
#X text 679 93 try negative?;
#X obj 585 72 unpack f f;
#X obj 124 270 hip~ 0;
#X obj 193 270 lop~ 40000;
#X obj 314 270 hip~ 0;
#X obj 383 270 lop~ 40000;
#X obj 453 270 bp~ 0 0;
#X obj 263 270 bp~ 0 0;
#X obj 93 56 loadbang;
#X msg 93 73 2;
#N canvas 384 581 450 300 signalSwap 0;
#X obj 83 214 *~;
#X msg 98 171 0;
#X msg 130 171 1;
#X obj 163 214 *~;
#X msg 178 171 0;
#X msg 210 171 1;
#X obj 243 214 *~;
#X msg 258 171 0;
#X msg 290 171 1;
#X obj 170 103 inlet;
#X obj 170 130 sel 0 1 2;
#X obj 83 103 inlet~;
#X obj 83 254 outlet~;
#X obj 164 253 outlet~;
#X obj 244 255 outlet~;
#X connect 0 0 12 0;
#X connect 1 0 0 1;
#X connect 2 0 0 1;
#X connect 3 0 13 0;
#X connect 4 0 3 1;
#X connect 5 0 3 1;
#X connect 6 0 14 0;
#X connect 7 0 6 1;
#X connect 8 0 6 1;
#X connect 9 0 10 0;
#X connect 10 0 2 0;
#X connect 10 0 4 0;
#X connect 10 0 7 0;
#X connect 10 1 5 0;
#X connect 10 1 1 0;
#X connect 10 1 7 0;
#X connect 10 2 8 0;
#X connect 10 2 4 0;
#X connect 10 2 1 0;
#X connect 11 0 0 0;
#X connect 11 0 3 0;
#X connect 11 0 6 0;
#X restore 24 126 pd signalSwap;
#N canvas 384 581 450 300 signalSwap 0;
#X obj 83 214 *~;
#X msg 98 171 0;
#X msg 130 171 1;
#X obj 163 214 *~;
#X msg 178 171 0;
#X msg 210 171 1;
#X obj 243 214 *~;
#X msg 258 171 0;
#X msg 290 171 1;
#X obj 170 103 inlet;
#X obj 170 130 sel 0 1 2;
#X obj 83 103 inlet~;
#X obj 83 254 outlet~;
#X obj 164 253 outlet~;
#X obj 244 255 outlet~;
#X connect 0 0 12 0;
#X connect 1 0 0 1;
#X connect 2 0 0 1;
#X connect 3 0 13 0;
#X connect 4 0 3 1;
#X connect 5 0 3 1;
#X connect 6 0 14 0;
#X connect 7 0 6 1;
#X connect 8 0 6 1;
#X connect 9 0 10 0;
#X connect 10 0 2 0;
#X connect 10 0 4 0;
#X connect 10 0 7 0;
#X connect 10 1 5 0;
#X connect 10 1 1 0;
#X connect 10 1 7 0;
#X connect 10 2 8 0;
#X connect 10 2 4 0;
#X connect 10 2 1 0;
#X connect 11 0 0 0;
#X connect 11 0 3 0;
#X connect 11 0 6 0;
#X restore 175 127 pd signalSwap;
#X connect 0 0 26 0;
#X connect 1 0 27 0;
#X connect 4 0 5 0;
#X connect 4 0 6 0;
#X connect 5 0 26 1;
#X connect 6 0 27 1;
#X connect 10 0 18 1;
#X connect 10 0 19 1;
#X connect 12 0 17 0;
#X connect 17 0 22 1;
#X connect 17 0 23 1;
#X connect 17 1 22 2;
#X connect 17 1 23 2;
#X connect 18 0 2 0;
#X connect 19 0 2 0;
#X connect 20 0 3 0;
#X connect 21 0 3 0;
#X connect 22 0 3 0;
#X connect 23 0 2 0;
#X connect 24 0 25 0;
#X connect 25 0 6 0;
#X connect 25 0 5 0;
#X connect 26 0 18 0;
#X connect 26 1 19 0;
#X connect 26 2 23 0;
#X connect 27 0 20 0;
#X connect 27 1 21 0;
#X connect 27 2 22 0;
