#N canvas 1553 515 450 300 12;
#X msg 74 210 1;
#X obj 74 82 spigot 1;
#X msg 144 81 0;
#X obj 106 210 f;
#X obj 74 172 t b b;
#X obj 106 239 outlet;
#X obj 74 10 inlet;
#X obj 74 146 del \$1;
#X obj 74 115 t b b;
#X obj 74 37 t b a;
#X obj 244 10 inlet;
#X text 115 10 float inlet;
#X text 287 9 time grain;
#X obj 207 79 route bang;
#X msg 207 105 0;
#X connect 0 0 1 1;
#X connect 1 0 8 0;
#X connect 2 0 1 1;
#X connect 3 0 5 0;
#X connect 4 0 0 0;
#X connect 4 1 3 0;
#X connect 6 0 9 0;
#X connect 7 0 4 0;
#X connect 8 0 7 0;
#X connect 8 1 2 0;
#X connect 9 0 1 0;
#X connect 9 1 13 0;
#X connect 10 0 7 1;
#X connect 13 0 14 0;
#X connect 13 1 3 1;
#X connect 14 0 3 1;
