#N canvas 546 834 866 396 10;
#X obj 47 13 inlet;
#X obj 47 264 outlet;
#X obj 417 238 sqrt;
#X obj 417 217 / 2;
#X obj 417 42 moses 0.5;
#X obj 453 73 t b f;
#X obj 480 188 sqrt;
#X obj 480 167 / 2;
#X obj 480 104 t b f;
#X msg 480 125 1;
#X obj 480 146 -;
#X obj 453 237 -;
#X msg 453 216 1;
#X obj 287 238 sqrt;
#X obj 287 217 / 2;
#X obj 287 42 moses 0.5;
#X obj 323 73 t b f;
#X obj 350 188 sqrt;
#X obj 350 167 / 2;
#X obj 350 104 t b f;
#X msg 350 125 1;
#X obj 350 146 -;
#X obj 323 237 -;
#X msg 323 216 0.5;
#X obj 323 258 * 2;
#X obj 47 81 moses 0;
#X obj 47 109 * -1;
#X obj 47 157 * -1;
#X obj 47 228 f;
#X obj 233 239 sqrt;
#X obj 233 218 / 2;
#X obj 47 133 pow 0.5;
#X obj 97 133 pow 0.5;
#X obj 136 13 inlet;
#X msg 136 36 1 \$1;
#X obj 136 59 /;
#X connect 0 0 25 0;
#X connect 3 0 2 0;
#X connect 4 0 3 0;
#X connect 4 1 5 0;
#X connect 5 0 12 0;
#X connect 5 1 8 0;
#X connect 6 0 11 1;
#X connect 7 0 6 0;
#X connect 8 0 9 0;
#X connect 8 1 10 1;
#X connect 9 0 10 0;
#X connect 10 0 7 0;
#X connect 12 0 11 0;
#X connect 14 0 13 0;
#X connect 15 0 14 0;
#X connect 15 1 16 0;
#X connect 16 0 23 0;
#X connect 16 1 19 0;
#X connect 17 0 22 1;
#X connect 18 0 17 0;
#X connect 19 0 20 0;
#X connect 19 1 21 1;
#X connect 20 0 21 0;
#X connect 21 0 18 0;
#X connect 22 0 24 0;
#X connect 23 0 22 0;
#X connect 25 0 26 0;
#X connect 25 1 32 0;
#X connect 26 0 31 0;
#X connect 27 0 28 0;
#X connect 28 0 1 0;
#X connect 30 0 29 0;
#X connect 31 0 27 0;
#X connect 32 0 28 0;
#X connect 33 0 34 0;
#X connect 34 0 35 0;
#X connect 35 0 31 1;
#X connect 35 0 32 1;
