#N canvas 260 260 450 300 12;
#X obj 39 17 inlet;
#X obj 99 17 inlet;
#X obj 163 17 inlet;
#X obj 71 237 outlet;
#X obj 39 53 f \$1;
#X obj 39 87 f;
#X obj 99 87 + 1;
#X obj 99 176 spigot;
#X obj 99 113 t f f, f 6;
#X obj 39 113 t f f;
#X obj 138 146 < \$2;
#X connect 0 0 4 0;
#X connect 1 0 4 1;
#X connect 2 0 10 1;
#X connect 4 0 5 0;
#X connect 5 0 9 0;
#X connect 6 0 8 0;
#X connect 7 0 5 0;
#X connect 8 0 7 0;
#X connect 8 1 10 0;
#X connect 9 0 6 0;
#X connect 9 1 3 0;
#X connect 10 0 7 1;
