#N canvas 209 252 1955 1053 12;
#X obj 222 120 hsl 128 21 0 127 0 0 empty empty empty -2 8 0 12 #fcfcfc
#000000 #000000 0 1;
#X obj 376 40 mtof;
#X obj 200 121 bng 19 250 50 0 empty empty empty 17 7 0 10 #fcfcfc
#000000 #000000;
#X obj 352 121 bng 19 250 50 0 empty empty empty 17 7 0 10 #fcfcfc
#000000 #000000;
#X obj 215 13 inlet;
#N canvas 974 624 784 471 frequency_inlet 0;
#X obj 120 47 route m midi f frequency;
#X obj 120 80 f;
#X obj 165 80 f;
#X obj 120 22 inlet;
#X obj 165 103 ftom;
#X obj 120 171 outlet;
#X obj 165 129 t f f;
#X connect 0 0 1 0;
#X connect 0 1 1 0;
#X connect 0 2 2 0;
#X connect 0 3 2 0;
#X connect 0 4 2 0;
#X connect 1 0 5 0;
#X connect 2 0 4 0;
#X connect 3 0 0 0;
#X connect 4 0 6 0;
#X connect 6 0 1 1;
#X connect 6 1 5 0;
#X restore 215 63 pd frequency_inlet;
#X obj 376 212 outlet;
#X text 309 213 Frequency;
#X text 256 13 Midi note or frequency;
#X obj 235 159 gearshift_lin 12;
#X text 140 159 Octave jumper;
#X text 125 211 Koen Riksen 2022;
#X floatatom 371 121 7 0 0 0 - - - 0;
#X msg 634 80 set 69;
#X obj 426 40 * 100;
#X obj 426 63 i;
#X obj 426 86 * 0.01;
#X obj 376 63 t f f;
#X obj 534 10 inlet;
#X obj 534 33 route reset reset_ui;
#X obj 602 57 t b b;
#X msg 602 102 set 440;
#X msg 534 79 m 69;
#X text 575 10 Resets;
#X connect 0 0 1 0;
#X connect 0 0 9 2;
#X connect 1 0 17 0;
#X connect 2 0 9 1;
#X connect 3 0 9 0;
#X connect 4 0 5 0;
#X connect 5 0 0 0;
#X connect 9 0 0 0;
#X connect 13 0 0 0;
#X connect 14 0 15 0;
#X connect 15 0 16 0;
#X connect 16 0 12 0;
#X connect 17 0 6 0;
#X connect 17 1 14 0;
#X connect 18 0 19 0;
#X connect 19 0 22 0;
#X connect 19 1 20 0;
#X connect 20 0 21 0;
#X connect 20 1 13 0;
#X connect 21 0 12 0;
#X connect 22 0 5 0;
#X coords 0 -1 1 1 222 21 1 200 120;
