#N canvas 52 52 450 300 12;
#X obj 38 120 frequency_modulator;
#X obj 238 120 frequency_modulator;
#X obj 37 59 inlet~;
#X obj 102 59 inlet~;
#X obj 167 59 inlet~;
#X obj 248 57 inlet;
#X obj 303 57 inlet;
#X obj 37 204 outlet~;
#X obj 237 204 outlet~;
#X text 47 34 L;
#X text 113 36 R;
#X text 173 37 Mod.;
#X text 254 33 mod controls;
#X text 48 226 L;
#X text 250 225 R;
#X text 350 36 -mod;
#X text 350 51 -modulation;
#X text 350 64 -attack;
#X text 351 78 -speed;
#X connect 0 0 7 0;
#X connect 1 0 8 0;
#X connect 2 0 0 0;
#X connect 3 0 1 0;
#X connect 4 0 0 2;
#X connect 4 0 1 2;
#X connect 5 0 0 1;
#X connect 6 0 1 1;
