#N canvas 1357 630 615 448 12;
#X obj 400 13 cnv 15 207 33 empty empty empty 20 12 0 14 #ffffff #404040
0;
#X obj 112 17 inlet~;
#X obj 302 16 inlet~;
#X text 59 17 Carrier;
#X text 355 16 Modulator;
#X obj 112 336 +~;
#X obj 302 255 osc~;
#X obj 319 183 vline~;
#X obj 112 391 outlet~;
#X text 200 254 Modulator osc.;
#X obj 319 158 pack 0 500;
#X obj 302 283 *~;
#X obj 181 17 inlet;
#X obj 181 64 route mod modulation attack speed;
#X obj 319 131 f;
#X obj 386 131 f;
#X connect 1 0 5 0;
#X connect 2 0 6 0;
#X connect 5 0 8 0;
#X connect 6 0 11 0;
#X connect 7 0 11 1;
#X connect 10 0 7 0;
#X connect 11 0 5 1;
#X connect 12 0 13 0;
#X connect 13 0 14 0;
#X connect 13 1 14 0;
#X connect 13 2 15 0;
#X connect 13 3 15 0;
#X connect 13 4 7 0;
#X connect 14 0 10 0;
#X connect 15 0 10 1;
#X coords 0 448 1 447 209 35 0;
