#N canvas 209 252 1955 1053 12;
#X obj 222 120 hsl 129 21 0 127 0 0 empty empty Fundamental:3520 -2
8 0 12 #fcfcfc #000000 #000000 0 1;
#X msg 408 143 label Fundamental:\$1;
#X obj 376 96 mtof;
#X obj 200 121 bng 19 250 50 0 empty empty empty 17 7 0 10 #fcfcfc
#000000 #000000;
#X obj 353 121 bng 19 250 50 0 empty empty empty 17 7 0 10 #fcfcfc
#000000 #000000;
#X obj 215 33 inlet;
#N canvas 974 624 784 471 frequency_inlet 1;
#X obj 120 47 route m midi f frequency;
#X obj 120 80 f;
#X obj 165 80 f;
#X obj 120 22 inlet;
#X obj 165 103 ftom;
#X obj 120 151 outlet;
#X connect 0 0 1 0;
#X connect 0 1 1 0;
#X connect 0 2 2 0;
#X connect 0 3 2 0;
#X connect 0 4 2 0;
#X connect 1 0 5 0;
#X connect 2 0 4 0;
#X connect 3 0 0 0;
#X connect 4 0 5 0;
#X restore 215 83 pd frequency_inlet;
#X obj 376 212 outlet;
#X obj 376 120 t f f;
#X text 309 213 Frequency;
#X text 256 33 Midi note or frequency;
#X obj 215 159 gearshift_lin 12;
#X text 120 159 Octave jumper;
#X text 125 211 Koen Riksen 2022;
#X obj 640 191 loadbang;
#X obj 640 217 t b b;
#X obj 640 276 mtof;
#X msg 640 246 69;
#X msg 674 246 set 69;
#X text 639 166 initial values;
#X connect 0 0 2 0;
#X connect 0 0 11 2;
#X connect 1 0 0 0;
#X connect 2 0 8 0;
#X connect 3 0 11 1;
#X connect 4 0 11 0;
#X connect 5 0 6 0;
#X connect 6 0 0 0;
#X connect 8 0 7 0;
#X connect 8 1 1 0;
#X connect 11 0 0 0;
#X connect 14 0 15 0;
#X connect 15 0 17 0;
#X connect 15 1 18 0;
#X connect 16 0 1 0;
#X connect 17 0 16 0;
#X connect 18 0 0 0;
#X coords 0 -1 1 1 172 21 1 200 120;
