#N canvas 1444 343 450 300 12;
#X obj 57 63 i;
#X obj 95 63 i;
#X obj 113 28 inlet;
#X text 126 9 set;
#X obj 19 28 inlet;
#X obj 66 28 inlet;
#X text 39 9 up;
#X text 72 9 down;
#X obj 57 112 outlet;
#X text 105 112 get;
#X obj 95 83 - \$1;
#X obj 57 83 + \$1;
#X connect 0 0 11 0;
#X connect 1 0 10 0;
#X connect 2 0 1 1;
#X connect 2 0 0 1;
#X connect 4 0 0 0;
#X connect 5 0 1 0;
#X connect 10 0 8 0;
#X connect 11 0 8 0;
