#N canvas 169 504 617 477 10;
#X obj 67 27 inlet;
#X obj 79 265 outlet;
#X obj 454 219 ratio 1;
#X text 479 102 Magnitude;
#X obj 454 133 + 1;
#X obj 454 164 + 0;
#X obj 454 195 t f f;
#X obj 338 165 *;
#X obj 353 143 pi;
#X obj 353 121 loadbang;
#X obj 118 59 inlet;
#X obj 454 102 / 1;
#X obj 338 212 ratio 1;
#X obj 338 186 * 2;
#X obj 379 172 * 2;
#X obj 320 58 t f f;
#X obj 94 141 lowpass;
#X obj 79 209 -;
#X obj 153 89 inlet;
#X text 154 60 Lowpass magnitude;
#X text 189 90 Highpass magnitude;
#X text 104 29 Values in;
#X obj 79 237 lowpass;
#X obj 67 48 t f f;
#X obj 153 110 t f f;
#X obj 94 178 * 0;
#X obj 180 143 log 100;
#X obj 180 164 max 0;
#X connect 0 0 23 0;
#X connect 4 0 5 0;
#X connect 5 0 6 0;
#X connect 6 0 5 1;
#X connect 6 1 2 0;
#X connect 7 0 13 0;
#X connect 8 0 7 1;
#X connect 9 0 8 0;
#X connect 10 0 22 1;
#X connect 11 0 4 0;
#X connect 13 0 12 0;
#X connect 14 0 13 1;
#X connect 15 0 14 0;
#X connect 15 1 11 1;
#X connect 16 0 25 0;
#X connect 17 0 22 0;
#X connect 18 0 24 0;
#X connect 22 0 1 0;
#X connect 23 0 17 0;
#X connect 23 1 16 0;
#X connect 24 0 16 1;
#X connect 24 1 26 0;
#X connect 25 0 17 1;
#X connect 26 0 27 0;
#X connect 27 0 25 1;
