#N canvas 208 208 450 300 10;
#X obj 82 37 loadbang;
#X obj 82 57 f \$1;
#X obj 82 77 outlet;
#X obj 42 37 inlet;
#X obj 142 37 inlet;
#X connect 0 0 1 0;
#X connect 1 0 2 0;
#X connect 3 0 1 0;
#X connect 4 0 1 1;
