#N canvas 1691 676 577 489 10;
#X obj 47 29 inlet;
#X obj 183 29 inlet;
#X text 220 29 Magnitude;
#X obj 204 372 outlet;
#X obj 204 321 + 0;
#X obj 204 342 f;
#X obj 234 220 f;
#X obj 47 77 t f f;
#X obj 234 72 ratio 1;
#X text 260 221 Stored;
#X text 84 29 Values in;
#X obj 47 107 / 1;
#X obj 74 107 / 0;
#X obj 74 194 f;
#X obj 354 195 -;
#X obj 219 243 +;
#X obj 219 287 t f f;
#X obj 74 158 * 0;
#X obj 183 50 t f f f f;
#X obj 89 131 - 1;
#X text 101 193 add to stored \, then scale down;
#X msg 354 174 1 \$1;
#X obj 234 96 t b f;
#X obj 47 50 t f b b f;
#X msg 234 119 1;
#X obj 189 149 spigot 1;
#X msg 202 119 0;
#X obj 219 265 * 0;
#X connect 0 0 23 0;
#X connect 1 0 18 0;
#X connect 4 0 5 0;
#X connect 5 0 3 0;
#X connect 6 0 15 1;
#X connect 7 0 11 0;
#X connect 7 1 12 0;
#X connect 8 0 22 0;
#X connect 11 0 4 0;
#X connect 12 0 17 0;
#X connect 13 0 15 0;
#X connect 14 0 27 1;
#X connect 15 0 27 0;
#X connect 16 0 4 1;
#X connect 16 1 6 1;
#X connect 17 0 13 0;
#X connect 18 0 11 1;
#X connect 18 1 12 1;
#X connect 18 2 19 0;
#X connect 18 3 8 0;
#X connect 19 0 17 1;
#X connect 21 0 14 0;
#X connect 22 0 24 0;
#X connect 22 1 21 0;
#X connect 23 0 7 0;
#X connect 23 1 6 0;
#X connect 23 2 26 0;
#X connect 23 3 25 0;
#X connect 24 0 25 1;
#X connect 25 0 6 1;
#X connect 26 0 25 1;
#X connect 27 0 16 0;
