#N canvas 429 742 1015 559 12;
#X obj 0 0 frequency_picker;
#X text 61 36 Tones/Oct.;
#X floatatom 135 36 5 1 128 0 - - - 12;
#X obj 42 21 hsl 128 15 1 2001 1 0 empty empty Millis:18 18 7 0 12
#fcfcfc #000000 #000000 0 1;
#X msg 185 19 label Millis:\$1;
#X text 0 17 Slide;
#X obj 138 90 - 1;
#X obj 0 171 outlet;
#X msg 22 133 fun \$1;
#X msg 77 133 tpo \$1;
#X msg 138 133 slide \$1;
#X obj 158 -88 loadbang;
#X obj 31 -79 f 440;
#X obj 75 -79 f 12;
#X obj -4 -139 inlet;
#X text 191 169 Koen Riksen 2022;
#X obj 157 -54 t b b b;
#X obj -7 -79 f 18;
#X obj -7 -52 + 1;
#X obj -4 -114 route fun tpo slide bang;
#X connect 0 0 7 0;
#X connect 0 0 8 0;
#X connect 2 0 9 0;
#X connect 3 0 6 0;
#X connect 4 0 3 0;
#X connect 6 0 4 0;
#X connect 6 0 10 0;
#X connect 8 0 7 0;
#X connect 9 0 7 0;
#X connect 10 0 7 0;
#X connect 12 0 0 0;
#X connect 13 0 2 0;
#X connect 14 0 19 0;
#X connect 16 0 17 0;
#X connect 16 1 12 0;
#X connect 16 2 13 0;
#X connect 17 0 18 0;
#X connect 18 0 3 0;
#X connect 19 0 12 0;
#X connect 19 1 13 0;
#X connect 19 2 17 0;
#X connect 19 3 16 0;
#X coords 0 -1 1 1 172 56 1 0 0;
