#N canvas 429 554 1858 641 12;
#X obj 199 17 inlet;
#X text 243 16 Note triggers \, scale setters (mode | list);
#X text 409 153 Tones/Oct.;
#X obj 336 410 frequency_slide;
#X obj 336 439 outlet~;
#X text 637 153 Slide;
#X text 393 439 Frequency signal;
#X obj 304 302 equal_temperament 0 440 12;
#X obj 676 153 f 10;
#X obj 483 153 f 12;
#X obj 199 153 route m midi f frequency;
#X obj 244 192 f;
#X obj 199 192 f 36;
#X obj 199 228 mtof;
#X obj 199 254 f;
#X obj 574 410 frequency_slide;
#X obj 574 439 outlet~;
#X obj 574 354 * 1;
#X obj 574 382 + 0;
#X text 631 439 Derivative signal;
#X obj 846 153 f 1;
#X obj 1006 153 f 0;
#X text 723 153 Derivative factor;
#X text 883 153 Derivative offset;
#X obj 304 328 t f f;
#X obj 676 179 t f f;
#X obj 199 62 route fun fundamental tpo tonesperoctave tonesPerOctave
speed slide, f 80;
#X connect 0 0 26 0;
#X connect 3 0 4 0;
#X connect 7 0 24 0;
#X connect 8 0 25 0;
#X connect 9 0 7 2;
#X connect 10 0 12 0;
#X connect 10 1 12 0;
#X connect 10 2 11 0;
#X connect 10 3 11 0;
#X connect 10 4 11 0;
#X connect 11 0 14 0;
#X connect 12 0 13 0;
#X connect 13 0 14 0;
#X connect 14 0 7 1;
#X connect 15 0 16 0;
#X connect 17 0 18 0;
#X connect 18 0 15 0;
#X connect 20 0 17 1;
#X connect 21 0 18 1;
#X connect 24 0 17 0;
#X connect 24 1 3 0;
#X connect 25 0 15 1;
#X connect 25 1 3 1;
#X connect 26 0 10 0;
#X connect 26 1 10 0;
#X connect 26 2 9 0;
#X connect 26 3 9 0;
#X connect 26 4 9 0;
#X connect 26 5 8 0;
#X connect 26 6 8 0;
#X connect 26 7 7 0;
#X coords 0 641 1 640 172 51 0;
