#N canvas 464 612 1858 641 12;
#X obj 126 17 inlet;
#X text 386 153 Tones/Oct.;
#X obj 37 303 frequency_slide;
#X obj 37 332 outlet~;
#X text 588 153 Slide;
#X text 94 332 Frequency signal;
#X obj 37 275 equal_temperament 0 440 12;
#X obj 627 153 f 10;
#X obj 460 153 f 12;
#X obj 126 153 route m midi f frequency;
#X obj 171 182 f;
#X obj 126 182 f 36;
#X obj 126 208 mtof;
#X obj 126 234 f;
#X obj 126 64 route fun fundamental tpo tonesperoctave tonesPerOctave
speed slide, f 84;
#X text 170 16 Note triggers;
#X connect 0 0 14 0;
#X connect 2 0 3 0;
#X connect 6 0 2 0;
#X connect 7 0 2 1;
#X connect 8 0 6 2;
#X connect 9 0 11 0;
#X connect 9 1 11 0;
#X connect 9 2 10 0;
#X connect 9 3 10 0;
#X connect 9 4 10 0;
#X connect 10 0 13 0;
#X connect 11 0 12 0;
#X connect 12 0 13 0;
#X connect 13 0 6 1;
#X connect 14 0 9 0;
#X connect 14 1 9 0;
#X connect 14 2 8 0;
#X connect 14 3 8 0;
#X connect 14 4 8 0;
#X connect 14 5 7 0;
#X connect 14 6 7 0;
#X connect 14 7 6 0;
#X coords 0 641 1 640 172 51 0;
