#N canvas 1319 361 459 400 10;
#X obj 29 330 outlet~;
#X obj 94 30 inlet;
#X obj 180 171 * -1;
#X obj 180 196 + 1;
#X text 66 30 0-1;
#X text 133 31 Time for transform;
#X text 83 10 List f f;
#X text 12 46 0 for wave 1;
#X text 12 62 1 for wave 2;
#X obj 94 115 line 1;
#X obj 158 88 inlet~;
#X obj 50 146 loadfloat \$1;
#X obj 29 246 *~ 1;
#X obj 180 146 loadfloat \$1;
#X obj 159 246 *~ 0;
#X text 249 260 This version might be choppy;
#X text 230 280 vline~ would probably be better;
#X obj 50 222 clip 0 1;
#X obj 180 222 clip 0 1;
#X obj 28 88 inlet~ fwd;
#X obj 29 302 +~;
#X connect 1 0 9 0;
#X connect 2 0 3 0;
#X connect 3 0 18 0;
#X connect 9 0 11 0;
#X connect 9 0 13 0;
#X connect 10 0 14 0;
#X connect 11 0 17 0;
#X connect 12 0 20 0;
#X connect 13 0 2 0;
#X connect 14 0 20 1;
#X connect 17 0 12 1;
#X connect 18 0 14 1;
#X connect 19 0 12 0;
#X connect 19 1 9 0;
#X connect 20 0 0 0;
