#N canvas 974 712 450 300 12;
#X obj 39 40 inlet;
#X obj 39 96 t f b;
#X obj 39 162 outlet;
#X obj 71 129 f \$1;
#X obj 99 162 outlet;
#X obj 96 40 inlet;
#X obj 39 66 f;
#X connect 0 0 6 0;
#X connect 1 0 2 0;
#X connect 1 1 3 0;
#X connect 3 0 4 0;
#X connect 5 0 3 1;
#X connect 6 0 1 0;
