#N canvas 259 886 431 291 10;
#X obj 63 37 inlet~;
#X obj 163 37 inlet~;
#X obj 267 37 inlet;
#X text 62 21 L;
#X text 164 21 R;
#X text 267 21 %;
#X obj 63 228 outlet~;
#X obj 163 228 outlet~;
#X text 216 21 Phase;
#X obj 218 37 inlet~;
#X obj 93 104 -~;
#X obj 202 155 -~;
#X obj 163 188 *~;
#X obj 79 155 -~;
#X obj 63 188 *~;
#X obj 93 83 sig~ 0;
#X obj 218 89 *~ 0;
#X text 304 59 2 to wrap phase;
#X obj 267 58 / 200;
#X obj 79 124 sig~ 1;
#X obj 202 124 sig~ 1;
#X connect 0 0 14 0;
#X connect 1 0 12 0;
#X connect 2 0 18 0;
#X connect 9 0 16 0;
#X connect 10 0 13 1;
#X connect 11 0 12 1;
#X connect 12 0 7 0;
#X connect 13 0 14 1;
#X connect 14 0 6 0;
#X connect 15 0 10 0;
#X connect 16 0 10 1;
#X connect 16 0 11 1;
#X connect 18 0 16 1;
#X connect 19 0 13 0;
#X connect 20 0 11 0;
