#N canvas 473 214 450 300 10;
#X obj 84 67 atan;
#X obj 84 88 * 4;
#X obj 36 16 inlet;
#X msg 84 46 1;
#X obj 36 36 bng 15 250 50 0 empty empty empty 17 7 0 10 -262144 -1
-1;
#X obj 36 139 outlet;
#X obj 36 113 f;
#X obj 84 16 loadbang;
#X connect 0 0 1 0;
#X connect 1 0 6 1;
#X connect 2 0 4 0;
#X connect 3 0 0 0;
#X connect 4 0 6 0;
#X connect 6 0 5 0;
#X connect 7 0 3 0;
