#N canvas 961 771 450 300 12;
#X obj 104 219 -;
#X obj 104 166 t b f;
#X obj 51 11 inlet;
#X text 93 11 point;
#X obj 231 11 inlet;
#X text 273 11 high;
#X obj 104 140 moses \$2;
#X obj 51 113 moses \$1;
#X obj 157 212 f \$1;
#X obj 104 192 f \$2;
#X obj 157 11 inlet;
#X text 198 11 low;
#X obj 104 285 outlet;
#X obj 157 37 t b f;
#X obj 231 37 t b f;
#X obj 51 83 f 0;
#X obj 157 181 sel \$2;
#X obj 221 77 t f f;
#X obj 104 246 + \$1;
#X obj 150 77 t f f f;
#X connect 0 0 18 0;
#X connect 1 0 9 0;
#X connect 1 1 0 1;
#X connect 2 0 15 0;
#X connect 4 0 14 0;
#X connect 6 0 1 0;
#X connect 6 1 16 0;
#X connect 7 0 12 0;
#X connect 7 1 6 0;
#X connect 8 0 12 0;
#X connect 9 0 0 0;
#X connect 10 0 13 0;
#X connect 13 0 15 0;
#X connect 13 1 19 0;
#X connect 14 0 15 0;
#X connect 14 1 17 0;
#X connect 15 0 7 0;
#X connect 16 0 8 0;
#X connect 16 1 12 0;
#X connect 17 0 6 1;
#X connect 17 1 9 1;
#X connect 18 0 12 0;
#X connect 19 0 7 1;
#X connect 19 1 8 1;
#X connect 19 2 18 1;
