#N canvas 1198 969 450 300 10;
#X obj 115 87 inlet;
#X obj 127 222 outlet;
#X obj 127 200 /;
#X obj 115 109 t b f;
#X obj 115 129 \$1;
#X obj 100 152 sel 0;
#X msg 60 153 1;
#X connect 0 0 3 0;
#X connect 2 0 1 0;
#X connect 3 0 4 0;
#X connect 3 1 2 1;
#X connect 4 0 5 0;
#X connect 5 0 6 0;
#X connect 5 1 2 0;
#X connect 6 0 4 0;
