#N canvas 535 360 441 250 12;
#X obj 221 109 list;
#X obj 40 37 inlet;
#X obj 40 76 route float symbol bang list, f 35;
#X obj 40 150 outlet;
#X obj 100 150 outlet;
#X obj 161 150 outlet;
#X obj 221 150 outlet;
#X obj 282 150 outlet;
#X text 42 173 float;
#X text 222 173 list;
#X text 162 173 bang;
#X text 102 173 symbol;
#X text 282 173 misc. control messages, f 14;
#X connect 0 0 6 0;
#X connect 1 0 2 0;
#X connect 2 0 3 0;
#X connect 2 1 4 0;
#X connect 2 2 5 0;
#X connect 2 3 0 0;
#X connect 2 4 7 0;
