#N canvas 932 248 1292 663 12;
#X obj 311 325 modes;
#X obj 311 364 unpack f f f f f f f f;
#X obj 452 469 f;
#X obj 482 469 f;
#X obj 512 469 f;
#X obj 542 469 f;
#X obj 572 469 f;
#X obj 602 469 f;
#X obj 632 469 f;
#X obj 662 469 f;
#X obj 656 364 route 0 1 2 3 4 5 6 7;
#X obj 340 44 inlet;
#X obj 554 44 inlet;
#X text 315 44 Hot;
#X text 522 45 Cold;
#X obj 392 539 outlet;
#X obj 442 539 outlet;
#X obj 492 539 outlet;
#X obj 542 539 outlet;
#X obj 592 539 outlet;
#X obj 642 539 outlet;
#X obj 692 539 outlet;
#X obj 742 539 outlet;
#X obj 349 278 % 7;
#X obj 340 184 route mode list;
#X obj 554 194 route mode list;
#X text 477 567 Individual step outlets;
#X obj 71 245 route a A b B c C d D e E f F g G;
#X msg 71 278 0;
#X msg 111 278 1;
#X msg 151 278 2;
#X msg 191 278 3;
#X msg 231 278 4;
#X msg 271 278 5;
#X msg 311 278 6;
#X obj 488 364 sel 0 1 2 3 4 5 6 7;
#X text 383 44 get;
#X text 596 44 set;
#X obj 156 325 loadfloat 2;
#X text 117 325 Major;
#X obj 442 278 * 12;
#X obj 311 559 outlet;
#X text 286 560 All;
#X obj 311 531 +;
#X obj 442 245 divmo 7;
#X obj 488 335 % 7;
#X obj 656 335 % 7;
#X obj 355 325 list;
#X obj 502 182 tgl 15 0 empty empty empty 17 7 0 10 #fcfcfc #000000
#000000 0 1;
#X obj 442 216 demux 0 1;
#X obj 453 44 inlet;
#X text 419 23 chromatic bypass;
#X text 244 533 Oct. join;
#X floatatom 241 183 5 0 0 0 - - - 0;
#X connect 0 0 47 0;
#X connect 1 0 2 1;
#X connect 1 1 3 1;
#X connect 1 2 4 1;
#X connect 1 3 5 1;
#X connect 1 4 6 1;
#X connect 1 5 7 1;
#X connect 1 6 8 1;
#X connect 1 7 9 1;
#X connect 2 0 15 0;
#X connect 2 0 43 1;
#X connect 3 0 16 0;
#X connect 3 0 43 1;
#X connect 4 0 17 0;
#X connect 4 0 43 1;
#X connect 5 0 18 0;
#X connect 5 0 43 1;
#X connect 6 0 19 0;
#X connect 6 0 43 1;
#X connect 7 0 20 0;
#X connect 7 0 43 1;
#X connect 8 0 21 0;
#X connect 8 0 43 1;
#X connect 9 0 22 0;
#X connect 9 0 43 1;
#X connect 10 0 2 1;
#X connect 10 1 3 1;
#X connect 10 2 4 1;
#X connect 10 3 5 1;
#X connect 10 4 6 1;
#X connect 10 5 7 1;
#X connect 10 6 8 1;
#X connect 10 7 9 1;
#X connect 11 0 24 0;
#X connect 12 0 25 0;
#X connect 23 0 0 0;
#X connect 24 0 27 0;
#X connect 24 0 53 0;
#X connect 24 1 47 0;
#X connect 24 2 49 0;
#X connect 25 0 27 0;
#X connect 25 1 47 0;
#X connect 25 2 46 0;
#X connect 27 0 28 0;
#X connect 27 1 28 0;
#X connect 27 2 29 0;
#X connect 27 3 29 0;
#X connect 27 4 30 0;
#X connect 27 5 30 0;
#X connect 27 6 31 0;
#X connect 27 7 31 0;
#X connect 27 8 32 0;
#X connect 27 9 32 0;
#X connect 27 10 33 0;
#X connect 27 11 33 0;
#X connect 27 12 34 0;
#X connect 27 13 34 0;
#X connect 27 14 23 0;
#X connect 28 0 0 0;
#X connect 29 0 0 0;
#X connect 30 0 0 0;
#X connect 31 0 0 0;
#X connect 32 0 0 0;
#X connect 33 0 0 0;
#X connect 34 0 0 0;
#X connect 35 0 2 0;
#X connect 35 1 3 0;
#X connect 35 2 4 0;
#X connect 35 3 5 0;
#X connect 35 4 6 0;
#X connect 35 5 7 0;
#X connect 35 6 8 0;
#X connect 35 7 9 0;
#X connect 38 0 0 0;
#X connect 40 0 43 0;
#X connect 43 0 41 0;
#X connect 44 0 40 0;
#X connect 44 1 45 0;
#X connect 45 0 35 0;
#X connect 46 0 10 0;
#X connect 47 0 1 0;
#X connect 48 0 49 1;
#X connect 49 0 44 0;
#X connect 49 1 41 0;
#X connect 50 0 48 0;
#X coords 0 663 1 662 180 35 0;
