#N canvas 406 282 1834 837 12;
#X text 491 211 Odd partials;
#X text 822 209 Even partials;
#X obj 487 53 inlet;
#X obj 557 53 inlet;
#X obj 717 238 route 0 1 2 3 4 5 6 7 8 9 10 11;
#X obj 557 95 route 0 1;
#X obj 487 95 route 0 1;
#X obj 487 181 pack f f;
#X obj 487 155 swap;
#X obj 487 238 route 0 1 2 3 4 5 6 7 8 9 10 11;
#X obj 717 182 pack f f;
#X obj 717 156 swap;
#X obj 52 397 x_add;
#X obj 92 397 x_add;
#X obj 132 397 x_add;
#X obj 172 397 x_add;
#X obj 212 397 x_add;
#X obj 252 397 x_add;
#X obj 292 397 x_add;
#X obj 332 397 x_add;
#X obj 372 397 x_add;
#X obj 412 397 x_add;
#X obj 452 397 x_add;
#X obj 492 397 x_add;
#X obj 532 397 x_add;
#X obj 572 397 x_add;
#X obj 612 397 x_add;
#X obj 652 397 x_add;
#X obj 692 397 x_add;
#X obj 732 397 x_add;
#X obj 772 397 x_add;
#X obj 812 397 x_add;
#X obj 852 397 x_add;
#X obj 892 397 x_add;
#X obj 932 397 x_add;
#X obj 973 397 x_add;
#X obj 52 347 unpack f f f f f f f f f f f f f f f f f f f f f f f
f, f 132;
#X obj 52 54 inlet;
#X text 99 55 Previous stage;
#X obj 52 477 pack f f f f f f f f f f f f f f f f f f f f f f f f
, f 132;
#X obj 52 533 outlet;
#X obj 52 437 floatgrain 16;
#X connect 2 0 6 0;
#X connect 3 0 5 0;
#X connect 4 0 13 1;
#X connect 4 1 15 1;
#X connect 4 2 17 1;
#X connect 4 3 19 1;
#X connect 4 4 21 1;
#X connect 4 5 23 1;
#X connect 4 6 25 1;
#X connect 4 7 27 1;
#X connect 4 8 29 1;
#X connect 4 9 31 1;
#X connect 4 10 33 1;
#X connect 4 11 35 1;
#X connect 5 0 8 1;
#X connect 5 1 11 1;
#X connect 6 0 8 0;
#X connect 6 1 11 0;
#X connect 7 0 9 0;
#X connect 8 0 7 0;
#X connect 8 1 7 1;
#X connect 9 0 12 1;
#X connect 9 1 14 1;
#X connect 9 2 16 1;
#X connect 9 3 18 1;
#X connect 9 4 20 1;
#X connect 9 5 22 1;
#X connect 9 6 24 1;
#X connect 9 7 26 1;
#X connect 9 8 28 1;
#X connect 9 9 30 1;
#X connect 9 10 32 1;
#X connect 9 11 34 1;
#X connect 10 0 4 0;
#X connect 11 0 10 0;
#X connect 11 1 10 1;
#X connect 12 0 41 0;
#X connect 13 0 39 1;
#X connect 14 0 39 2;
#X connect 15 0 39 3;
#X connect 16 0 39 4;
#X connect 17 0 39 5;
#X connect 18 0 39 6;
#X connect 19 0 39 7;
#X connect 20 0 39 8;
#X connect 21 0 39 9;
#X connect 22 0 39 10;
#X connect 23 0 39 11;
#X connect 24 0 39 12;
#X connect 25 0 39 13;
#X connect 26 0 39 14;
#X connect 27 0 39 15;
#X connect 28 0 39 16;
#X connect 29 0 39 17;
#X connect 30 0 39 18;
#X connect 31 0 39 19;
#X connect 32 0 39 20;
#X connect 33 0 39 21;
#X connect 34 0 39 22;
#X connect 35 0 39 23;
#X connect 36 0 12 0;
#X connect 36 1 13 0;
#X connect 36 2 14 0;
#X connect 36 3 15 0;
#X connect 36 4 16 0;
#X connect 36 5 17 0;
#X connect 36 6 18 0;
#X connect 36 7 19 0;
#X connect 36 8 20 0;
#X connect 36 9 21 0;
#X connect 36 10 22 0;
#X connect 36 11 23 0;
#X connect 36 12 24 0;
#X connect 36 13 25 0;
#X connect 36 14 26 0;
#X connect 36 15 27 0;
#X connect 36 16 28 0;
#X connect 36 17 29 0;
#X connect 36 18 30 0;
#X connect 36 19 31 0;
#X connect 36 20 32 0;
#X connect 36 21 33 0;
#X connect 36 22 34 0;
#X connect 36 23 35 0;
#X connect 37 0 36 0;
#X connect 39 0 40 0;
#X connect 41 0 39 0;
