#N canvas 153 214 2284 997 12;
#X obj 687 38 inlet;
#X obj 732 38 inlet;
#X obj 687 203 route 0 1 2 3 4 5 6 7 8 9 10 11 12 13 14 15 16 17 18
19 20 21 22 23;
#X obj 687 156 pack f f;
#X obj 687 130 swap;
#X obj 103 27 inlet;
#X text 99 7 Get value;
#X obj 207 578 f;
#X obj 247 578 f;
#X obj 287 578 f;
#X obj 327 578 f;
#X obj 367 578 f;
#X obj 407 578 f;
#X obj 447 578 f;
#X obj 487 578 f;
#X obj 527 578 f;
#X obj 567 578 f;
#X obj 607 578 f;
#X obj 647 578 f;
#X obj 687 578 f;
#X obj 727 578 f;
#X obj 767 578 f;
#X obj 807 578 f;
#X obj 847 578 f;
#X obj 887 578 f;
#X obj 927 578 f;
#X obj 967 578 f;
#X obj 1007 578 f;
#X obj 1047 578 f;
#X obj 1088 578 f;
#X obj 153 518 t f f;
#X obj 193 518 t f f;
#X obj 233 518 t f f;
#X obj 273 518 t f f;
#X obj 313 518 t f f;
#X obj 353 518 t f f;
#X obj 393 518 t f f;
#X obj 433 518 t f f;
#X obj 473 518 t f f;
#X obj 513 518 t f f;
#X obj 553 518 t f f;
#X obj 593 518 t f f;
#X obj 633 518 t f f;
#X obj 673 518 t f f;
#X obj 713 518 t f f;
#X obj 753 518 t f f;
#X obj 793 518 t f f;
#X obj 833 518 t f f;
#X obj 873 518 t f f;
#X obj 913 518 t f f;
#X obj 953 518 t f f;
#X obj 993 518 t f f;
#X obj 1033 518 t f f;
#X obj 1073 518 t f f;
#X obj 33 682 outlet;
#X obj 167 203 sel 0 1 2 3 4 5 6 7 8 9 10 11 12 13 14 15 16 17 18 19
20 21 22 23;
#X text 776 39 Factor and Partial ID.;
#X obj 103 107 route bang;
#X obj 103 771 outlet;
#X obj 103 744 route 0;
#X obj 103 718 pack f f f f f f f f f f f f f f f f f f f f f f f f
f, f 172;
#X obj 153 686 / 100;
#X obj 203 685 / 100;
#X obj 253 685 / 100;
#X obj 303 685 / 100;
#X obj 353 685 / 100;
#X obj 403 685 / 100;
#X obj 453 685 / 100;
#X obj 503 685 / 100;
#X obj 553 685 / 100;
#X obj 603 685 / 100;
#X obj 653 685 / 100;
#X obj 703 685 / 100;
#X obj 753 685 / 100;
#X obj 803 685 / 100;
#X obj 853 685 / 100;
#X obj 903 685 / 100;
#X obj 953 685 / 100;
#X obj 1003 685 / 100;
#X obj 1053 685 / 100;
#X obj 1103 685 / 100;
#X obj 1153 685 / 100;
#X obj 1203 685 / 100;
#X obj 1253 685 / 100;
#X obj 1304 685 / 100;
#X obj 167 578 f 1;
#X connect 0 0 4 0;
#X connect 1 0 4 1;
#X connect 2 0 30 0;
#X connect 2 1 31 0;
#X connect 2 2 32 0;
#X connect 2 3 33 0;
#X connect 2 4 34 0;
#X connect 2 5 35 0;
#X connect 2 6 36 0;
#X connect 2 7 37 0;
#X connect 2 8 38 0;
#X connect 2 9 39 0;
#X connect 2 10 40 0;
#X connect 2 11 41 0;
#X connect 2 12 42 0;
#X connect 2 13 43 0;
#X connect 2 14 44 0;
#X connect 2 15 45 0;
#X connect 2 16 46 0;
#X connect 2 17 47 0;
#X connect 2 18 48 0;
#X connect 2 19 49 0;
#X connect 2 20 50 0;
#X connect 2 21 51 0;
#X connect 2 22 52 0;
#X connect 2 23 53 0;
#X connect 3 0 2 0;
#X connect 4 0 3 0;
#X connect 4 1 3 1;
#X connect 5 0 57 0;
#X connect 7 0 54 0;
#X connect 8 0 54 0;
#X connect 9 0 54 0;
#X connect 10 0 54 0;
#X connect 11 0 54 0;
#X connect 12 0 54 0;
#X connect 13 0 54 0;
#X connect 14 0 54 0;
#X connect 15 0 54 0;
#X connect 16 0 54 0;
#X connect 17 0 54 0;
#X connect 18 0 54 0;
#X connect 19 0 54 0;
#X connect 20 0 54 0;
#X connect 21 0 54 0;
#X connect 22 0 54 0;
#X connect 23 0 54 0;
#X connect 24 0 54 0;
#X connect 25 0 54 0;
#X connect 26 0 54 0;
#X connect 27 0 54 0;
#X connect 28 0 54 0;
#X connect 29 0 54 0;
#X connect 30 0 61 0;
#X connect 30 1 85 1;
#X connect 31 0 62 0;
#X connect 31 1 7 1;
#X connect 32 0 63 0;
#X connect 32 1 8 1;
#X connect 33 0 64 0;
#X connect 33 1 9 1;
#X connect 34 0 65 0;
#X connect 34 1 10 1;
#X connect 35 0 66 0;
#X connect 35 1 11 1;
#X connect 36 0 67 0;
#X connect 36 1 12 1;
#X connect 37 0 68 0;
#X connect 37 1 13 1;
#X connect 38 0 69 0;
#X connect 38 1 14 1;
#X connect 39 0 70 0;
#X connect 39 1 15 1;
#X connect 40 0 71 0;
#X connect 40 1 16 1;
#X connect 41 0 72 0;
#X connect 41 1 17 1;
#X connect 42 0 73 0;
#X connect 42 1 18 1;
#X connect 43 0 74 0;
#X connect 43 1 19 1;
#X connect 44 0 75 0;
#X connect 44 1 20 1;
#X connect 45 0 76 0;
#X connect 45 1 21 1;
#X connect 46 0 77 0;
#X connect 46 1 22 1;
#X connect 47 0 78 0;
#X connect 47 1 23 1;
#X connect 48 0 79 0;
#X connect 48 1 24 1;
#X connect 49 0 80 0;
#X connect 49 1 25 1;
#X connect 50 0 81 0;
#X connect 50 1 26 1;
#X connect 51 0 82 0;
#X connect 51 1 27 1;
#X connect 52 0 83 0;
#X connect 52 1 28 1;
#X connect 53 0 84 0;
#X connect 53 1 29 1;
#X connect 55 0 85 0;
#X connect 55 1 7 0;
#X connect 55 2 8 0;
#X connect 55 3 9 0;
#X connect 55 4 10 0;
#X connect 55 5 11 0;
#X connect 55 6 12 0;
#X connect 55 7 13 0;
#X connect 55 8 14 0;
#X connect 55 9 15 0;
#X connect 55 10 16 0;
#X connect 55 11 17 0;
#X connect 55 12 18 0;
#X connect 55 13 19 0;
#X connect 55 14 20 0;
#X connect 55 15 21 0;
#X connect 55 16 22 0;
#X connect 55 17 23 0;
#X connect 55 18 24 0;
#X connect 55 19 25 0;
#X connect 55 20 26 0;
#X connect 55 21 27 0;
#X connect 55 22 28 0;
#X connect 55 23 29 0;
#X connect 57 0 60 0;
#X connect 57 1 55 0;
#X connect 59 0 58 0;
#X connect 60 0 59 0;
#X connect 61 0 60 1;
#X connect 62 0 60 2;
#X connect 63 0 60 3;
#X connect 64 0 60 4;
#X connect 65 0 60 5;
#X connect 66 0 60 6;
#X connect 67 0 60 7;
#X connect 68 0 60 8;
#X connect 69 0 60 9;
#X connect 70 0 60 10;
#X connect 71 0 60 11;
#X connect 72 0 60 12;
#X connect 73 0 60 13;
#X connect 74 0 60 14;
#X connect 75 0 60 15;
#X connect 76 0 60 16;
#X connect 77 0 60 17;
#X connect 78 0 60 18;
#X connect 79 0 60 19;
#X connect 80 0 60 20;
#X connect 81 0 60 21;
#X connect 82 0 60 22;
#X connect 83 0 60 23;
#X connect 84 0 60 24;
#X connect 85 0 54 0;
