#N canvas 342 237 1686 983 12;
#X msg 684 730 512 1 0.01 0 0 0 0 0 0 0 0 0 0 0 0 0 0 0 0 0 0 0 0 0
0 0;
#X obj 204 270 unpack;
#X text 256 270 SineFactor - Partial;
#X obj 1202 431 f;
#X obj 1225 374 hradio 15 1 0 3 empty empty empty 0 -8 0 10 #fcfcfc
#000000 #000000 0;
#X obj 1217 218 hradio 15 1 0 9 empty empty empty 0 -8 0 10 #fcfcfc
#000000 #000000 0;
#X obj 1216 192 hradio 15 1 0 9 empty empty empty 0 -8 0 10 #fcfcfc
#000000 #000000 0;
#X obj 1180 259 / 10;
#X obj 1217 244 hradio 15 1 0 9 empty empty empty 0 -8 0 10 #fcfcfc
#000000 #000000 0;
#X obj 1202 324 +;
#X obj 1217 279 / 100;
#X floatatom 1164 363 5 0 0 0 - - - 0;
#X obj 1175 304 +;
#X obj 1217 299 t b f;
#X obj 1180 279 t b f;
#X text 1354 219 0.4 and 0.5 are great for reverse scaling;
#X obj 1181 211 t b f;
#X obj 1175 238 +;
#X obj 1216 162 hradio 15 1 0 9 empty empty empty 0 -8 0 10 #fcfcfc
#000000 #000000 0;
#X obj 1175 181 * 10;
#X text 1316 288 backwards[0] followed by odd[30] is also cool;
#X obj 1202 480 pack f f;
#X obj 1202 454 swap;
#X obj 1229 536 route 0 1 2;
#X obj 1225 394 t b f;
#X obj 1202 511 t b a;
#N canvas 1603 394 840 569 half_scaling_sinesums 0;
#X obj 271 518 outlet;
#X obj 218 518 outlet;
#X text 241 43 Not linear;
#X obj 186 27 inlet;
#X obj 186 263 f;
#X obj 115 263 + 1;
#X obj 186 127 t b b f;
#X obj 244 422 *;
#X obj 186 97 - 1;
#X obj 186 67 abs;
#X obj 115 295 moses 12;
#X text 222 29 Scaling (take in positive values);
#X obj 218 483 +;
#X obj 476 27 inlet;
#X text 521 30 Start partial;
#X msg 204 194 0;
#X obj 218 329 t f f f, f 8;
#X obj 186 295 t f f;
#X obj 271 443 + 0;
#X obj 271 482 % 12;
#X obj 476 63 t b f;
#X text 309 482 mod bad \, disables sliding between start partials
;
#X connect 3 0 9 0;
#X connect 4 0 17 0;
#X connect 5 0 10 0;
#X connect 6 0 4 0;
#X connect 6 1 15 0;
#X connect 6 2 7 1;
#X connect 7 0 12 1;
#X connect 8 0 6 0;
#X connect 9 0 8 0;
#X connect 10 0 4 0;
#X connect 12 0 1 0;
#X connect 13 0 20 0;
#X connect 15 0 4 1;
#X connect 16 0 12 0;
#X connect 16 1 7 0;
#X connect 16 2 18 0;
#X connect 17 0 5 0;
#X connect 17 1 16 0;
#X connect 18 0 19 0;
#X connect 19 0 0 0;
#X connect 20 0 8 0;
#X connect 20 1 18 1;
#X restore 659 283 pd half_scaling_sinesums;
#N canvas 891 344 1125 773 backwards_scaling_sinesums 0;
#X obj 113 31 inlet;
#X obj 113 232 f;
#X obj 113 259 t f f f;
#X obj 113 131 t b b f;
#X obj 280 331 bng 15 250 50 0 empty empty Done 17 7 0 10 #fcfcfc #000000
#000000;
#X obj 151 381 + 1;
#X obj 151 467 +;
#X obj 169 434 *;
#X obj 113 101 - 1;
#X obj 113 71 abs;
#X msg 131 197 23;
#X obj 280 228 - 1;
#X obj 280 258 moses 0;
#X obj 119 381 -;
#X msg 119 350 23;
#X obj 345 549 outlet;
#X obj 151 549 outlet;
#X obj 159 298 t b f f;
#X obj 151 503 - 1;
#X connect 0 0 9 0;
#X connect 1 0 2 0;
#X connect 2 0 11 0;
#X connect 2 1 5 0;
#X connect 2 2 17 0;
#X connect 3 0 1 0;
#X connect 3 1 10 0;
#X connect 3 2 7 1;
#X connect 5 0 6 0;
#X connect 6 0 18 0;
#X connect 7 0 6 1;
#X connect 8 0 3 0;
#X connect 9 0 8 0;
#X connect 10 0 1 1;
#X connect 11 0 12 0;
#X connect 12 0 4 0;
#X connect 12 1 1 0;
#X connect 13 0 7 0;
#X connect 14 0 13 0;
#X connect 17 0 14 0;
#X connect 17 1 13 1;
#X connect 17 2 15 0;
#X connect 18 0 16 0;
#X restore 501 248 pd backwards_scaling_sinesums;
#N canvas 260 260 1129 684 forward_scaling_sinesums 0;
#X obj 174 46 inlet;
#X msg 192 220 0;
#X obj 174 252 f;
#X obj 326 252 + 1;
#X obj 174 166 t b b f;
#X obj 326 282 moses 24;
#X obj 379 325 bng 15 250 50 0 empty empty Done 17 7 0 10 #fcfcfc #000000
#000000;
#X obj 197 336 + 1;
#X obj 197 422 +;
#X obj 215 389 *;
#X obj 174 126 - 1;
#X obj 174 86 abs;
#X obj 197 499 outlet;
#X obj 327 499 outlet;
#X obj 174 284 t f f f f;
#X obj 197 458 - 1;
#X connect 0 0 11 0;
#X connect 1 0 2 1;
#X connect 2 0 14 0;
#X connect 3 0 5 0;
#X connect 4 0 2 0;
#X connect 4 1 1 0;
#X connect 4 2 9 1;
#X connect 5 0 2 0;
#X connect 5 1 6 0;
#X connect 7 0 8 0;
#X connect 8 0 15 0;
#X connect 9 0 8 1;
#X connect 10 0 4 0;
#X connect 11 0 10 0;
#X connect 14 0 3 0;
#X connect 14 1 7 0;
#X connect 14 2 9 0;
#X connect 14 3 13 0;
#X connect 15 0 12 0;
#X restore 442 273 pd forward_scaling_sinesums;
#X obj 821 30 inlet;
#X text 867 29 Array name;
#X obj 505 701 t b a;
#X obj 410 593 sinesum_memory;
#X obj 204 242 t b a;
#X obj 410 336 t b a;
#X msg 684 693 set 512 1 \$1 \$2 \$3 \$4 \$5 \$6 \$7 \$8 \$9 \$10 \$11
\$12 \$13 \$14 \$15 \$16 \$17 \$18 \$19 \$20 \$21 \$22 \$23 \$24;
#X obj 469 221 t b a;
#X obj 627 194 t b a;
#X obj 410 196 t b a;
#X obj 457 30 inlet;
#X text 504 30 Normalize toggle;
#X obj 821 61 s \$0-arrayname;
#X obj 639 788 r \$0-arrayname;
#X obj 505 728 s \$0-normalize;
#X obj 457 58 s \$0-normalize_toggle;
#N canvas 156 156 450 300 normalizing_node 0;
#X msg 74 193 \; \$1 normalize 1;
#X obj 134 134 r \$0-arrayname;
#X obj 74 29 r \$0-normalize;
#X obj 134 66 r \$0-normalize_toggle;
#X obj 74 165 symbol \$1;
#X obj 74 109 spigot \$3;
#X connect 1 0 4 1;
#X connect 2 0 5 0;
#X connect 3 0 5 1;
#X connect 4 0 0 0;
#X connect 5 0 4 0;
#X restore 467 86 pd normalizing_node;
#X obj 1229 569 s \$0-forward_scaling;
#X obj 1253 599 s \$0-backward_scaling;
#X obj 1278 629 s \$0-half_scaling;
#X obj 627 140 r \$0-half_scaling;
#X obj 410 170 r \$0-forward_scaling;
#X obj 469 195 r \$0-backward_scaling;
#X obj 652 664 t a a;
#X obj 410 858 outlet;
#X obj 37 30 inlet;
#X obj 167 116 route list float bang, f 24;
#X obj 410 313 r \$0-get_sine_partial;
#X obj 222 148 s \$0-get_sine_partial;
#X obj 204 209 r \$0-sinefactor_partial;
#X obj 167 178 s \$0-sinefactor_partial;
#X text 83 30 Main input;
#X text 618 88 Arg 2 goes in here;
#X obj 537 815 list prepend \$1;
#X obj 659 348 swap;
#X obj 824 348 swap;
#X obj 659 374 pack f f;
#X obj 824 374 pack f f;
#X obj 37 537 s \$0-half_scaling;
#X obj 37 446 t f b;
#X msg 69 475 0;
#X msg 119 475 1;
#X obj 87 446 t f b;
#X obj 684 310 r \$0-half_odd;
#X obj 849 310 r \$0-half_odd;
#X obj 69 509 s \$0-half_odd;
#X obj 505 636 sinesum_scales;
#X obj 792 148 t b f;
#X obj 810 178 r \$0-half_odd;
#X obj 792 209 f;
#X obj 792 235 sel 1 0;
#X obj 37 379 f;
#X obj 102 409 f;
#X obj 682 31 inlet;
#X text 728 30 Time grain;
#X obj 682 62 s \$0-time_grain;
#X obj 193 27 route points;
#X obj 37 63 route half_0 half_1 half_chrom points;
#X obj 231 418 f \$2;
#X obj 231 444 change \$2;
#X obj 537 765 list prepend \$2;
#X msg 537 849 \; \$1 sinesum \$2 1 \$3 \$4 \$5 \$6 \$7 \$8 \$9 \$10
\$11 \$12 \$13 \$14 \$15 \$16 \$17 \$18 \$19 \$20 \$21 \$22 \$23 \$24
\$25 \$26 \;;
#X obj 231 528 t b f;
#X text 703 664 this probably hinders performance \, taken out of the
loop;
#X connect 1 0 32 1;
#X connect 1 1 32 2;
#X connect 3 0 22 0;
#X connect 4 0 24 0;
#X connect 5 0 7 0;
#X connect 6 0 16 0;
#X connect 7 0 14 0;
#X connect 8 0 10 0;
#X connect 9 0 11 0;
#X connect 9 0 3 0;
#X connect 10 0 13 0;
#X connect 12 0 9 0;
#X connect 13 0 9 0;
#X connect 13 1 9 1;
#X connect 14 0 12 0;
#X connect 14 1 12 1;
#X connect 16 0 17 0;
#X connect 16 1 17 1;
#X connect 17 0 12 0;
#X connect 18 0 19 0;
#X connect 19 0 17 0;
#X connect 21 0 25 0;
#X connect 22 0 21 0;
#X connect 22 1 21 1;
#X connect 23 0 46 0;
#X connect 23 1 47 0;
#X connect 23 2 48 0;
#X connect 24 0 3 0;
#X connect 24 1 22 1;
#X connect 25 1 23 0;
#X connect 26 0 63 0;
#X connect 26 1 64 0;
#X connect 27 0 32 1;
#X connect 27 1 32 2;
#X connect 28 0 32 1;
#X connect 28 1 32 2;
#X connect 29 0 41 0;
#X connect 31 0 43 0;
#X connect 31 1 89 0;
#X connect 32 0 53 0;
#X connect 32 1 75 0;
#X connect 33 0 32 0;
#X connect 33 1 1 0;
#X connect 34 0 32 0;
#X connect 34 1 32 0;
#X connect 35 0 0 0;
#X connect 36 0 32 0;
#X connect 36 1 27 0;
#X connect 37 0 32 0;
#X connect 37 1 26 0;
#X connect 38 0 32 0;
#X connect 38 1 28 0;
#X connect 39 0 44 0;
#X connect 42 0 62 1;
#X connect 49 0 37 0;
#X connect 50 0 38 0;
#X connect 51 0 36 0;
#X connect 52 1 35 0;
#X connect 54 0 86 0;
#X connect 55 0 59 0;
#X connect 55 1 57 0;
#X connect 55 2 57 0;
#X connect 56 0 34 0;
#X connect 58 0 33 0;
#X connect 62 0 90 0;
#X connect 63 0 65 0;
#X connect 63 1 65 1;
#X connect 64 0 66 0;
#X connect 64 1 66 1;
#X connect 65 0 75 1;
#X connect 66 0 75 2;
#X connect 68 0 67 0;
#X connect 68 1 69 0;
#X connect 69 0 74 0;
#X connect 70 0 74 0;
#X connect 71 0 67 0;
#X connect 71 1 70 0;
#X connect 72 0 63 1;
#X connect 73 0 64 1;
#X connect 75 0 31 0;
#X connect 76 0 78 0;
#X connect 76 1 26 1;
#X connect 77 0 78 1;
#X connect 78 0 79 0;
#X connect 79 0 80 0;
#X connect 79 1 81 0;
#X connect 80 0 68 0;
#X connect 81 0 71 0;
#X connect 82 0 84 0;
#X connect 86 0 80 0;
#X connect 86 1 81 0;
#X connect 86 2 76 0;
#X connect 86 3 87 0;
#X connect 86 4 55 0;
#X connect 87 0 88 0;
#X connect 88 0 91 0;
#X connect 89 0 62 0;
#X connect 91 0 32 0;
#X connect 91 1 89 1;
