#N canvas 1492 807 450 300 10;
#X obj 58 245 tabwrite branchwave_temp, f 31;
#X obj 58 174 line 0 12;
#X obj 13 18 inlet;
#X obj 150 18 inlet;
#X obj 58 147 pack f 20;
#X obj 109 18 inlet;
#X obj 291 18 inlet;
#X obj 241 220 float \$1;
#X obj 241 199 loadbang;
#X obj 58 18 inlet;
#X obj 58 68 unpack f f;
#X obj 58 124 * 0;
#X obj 73 101 + 0;
#X connect 1 0 0 0;
#X connect 2 0 12 1;
#X connect 3 0 1 2;
#X connect 4 0 1 0;
#X connect 5 0 4 1;
#X connect 6 0 0 0;
#X connect 7 0 0 1;
#X connect 8 0 7 0;
#X connect 9 0 10 0;
#X connect 10 0 11 0;
#X connect 10 1 12 0;
#X connect 11 0 4 0;
#X connect 12 0 11 1;
