#N canvas 463 180 1837 1058 10;
#X obj 0 0 cnv 15 356 420 empty empty empty 20 12 0 14 #c4fcfc #404040
0;
#X obj 0 0 cnv 15 254 180 empty empty Input 28 12 0 14 #b8d4fc #404040
0;
#X obj 0 181 cnv 15 356 239 empty empty Output 20 12 0 14 #b8d4fc #404040
0;
#X obj 0 101 cnv 15 110 80 empty empty Midi_In 20 12 0 14 #68fc6c #404040
0;
#X obj 111 42 cnv 15 244 152 empty empty Tuning 20 12 0 14 #c8fc6c
#404040 0;
#X obj 974 57 cnv 15 300 420 empty empty Audio_Core 20 12 0 14 #fcd4a8
#404040 0;
#X obj 356 0 cnv 15 606 420 empty empty empty 20 12 0 14 #fce0c4 #404040
0;
#X obj 1 420 cnv 15 961 440 empty empty empty 20 12 0 14 #ffe3c6 #404040
0;
#X obj 975 700 cnv 15 300 160 empty empty Debugging 20 12 0 14 #fcfcc4
#404040 0;
#X floatatom 52 243 4 0 0 0 - mid_voice_dis - 0;
#X floatatom 62 141 5 0 0 0 - \$0-mid_note_dis - 0;
#X floatatom 62 158 5 0 0 0 - \$0-mid_velocity_dis - 0;
#X text 18 243 Voice;
#X text 10 157 Velocity;
#X floatatom 52 263 6 0 0 0 - note_out_v - 0;
#X obj 989 415 hsl 240 22 0 1 0 1 vol_slider vol_from_daw Volume -2
-8 0 10 #fcfcfc #000000 #000000 23900 1;
#X obj 12 399 bng 15 250 50 0 be_quiet empty empty 17 7 0 10 #fcfcfc
#000000 #000000;
#X floatatom 226 397 7 0 0 0 - \$0-rms_amplitude - 0;
#X text 144 397 RMS amplitude;
#N canvas 1034 377 820 815 synth 0;
#X obj 188 641 outlet~;
#X obj 240 641 outlet~;
#X obj 188 614 *~ 1;
#X obj 187 582 clone voice 32, f 47;
#X msg 59 564 all 0 0;
#X obj 59 540 bng 15 250 50 0 empty empty empty 17 7 0 10 #fcfcfc #000000
#000000;
#X text 77 538 Mute;
#X obj 466 532 r adsr_to_synth;
#X obj 187 397 pack f f f;
#X msg 260 162 \$1 1;
#X msg 310 162 \$1 0;
#X obj 160 334 - 1;
#X obj 260 104 t f f;
#X obj 160 226 poly 32 1, f 10;
#X text 240 226 Voice numbers don't match for on and off when voice
stealing is turned off!, f 76;
#X text 355 162 These can be replaced with the midi input;
#X obj 188 334 + 0;
#X obj 203 306 r course;
#X text 360 132 preset note length \, not ideal;
#N canvas 837 706 1359 300 ADSR_routing 0;
#X msg 55 169 all a \$1;
#X msg 115 169 all d \$1;
#X msg 175 169 all s \$1;
#X msg 235 169 all r \$1;
#X msg 298 169 all at \$1;
#X msg 358 169 all dt \$1;
#X msg 418 169 all rt \$1;
#X obj 55 242 outlet;
#X obj 55 67 inlet;
#X msg 488 169 all av \$1;
#X msg 548 169 all dv \$1;
#X msg 608 169 all sv \$1;
#X msg 668 169 all rv \$1;
#X obj 55 106 route a d s r at dt rt av dv sv rv, f 114;
#X connect 0 0 7 0;
#X connect 1 0 7 0;
#X connect 2 0 7 0;
#X connect 3 0 7 0;
#X connect 4 0 7 0;
#X connect 5 0 7 0;
#X connect 6 0 7 0;
#X connect 8 0 13 0;
#X connect 9 0 7 0;
#X connect 10 0 7 0;
#X connect 11 0 7 0;
#X connect 12 0 7 0;
#X connect 13 0 0 0;
#X connect 13 1 1 0;
#X connect 13 2 2 0;
#X connect 13 3 3 0;
#X connect 13 4 4 0;
#X connect 13 5 5 0;
#X connect 13 6 6 0;
#X connect 13 7 9 0;
#X connect 13 8 10 0;
#X connect 13 9 11 0;
#X connect 13 10 12 0;
#X restore 466 553 pd ADSR_routing;
#X obj 59 513 r be_quiet;
#X msg 58 614 all arr1 Wave;
#X msg 58 638 all arr2 Wave;
#X obj 73 591 loadbang;
#X obj 292 133 pipe 300;
#X obj 298 461 r tuning_one;
#N canvas 338 338 931 300 tuning_routing 0;
#X obj 55 242 outlet;
#X obj 55 67 inlet;
#X msg 52 173 all fun \$1;
#X msg 107 173 all tpo \$1;
#X obj 55 106 route fun tpo slide, f 29;
#X obj 258 241 outlet;
#X obj 258 66 inlet;
#X msg 255 172 all fun \$1;
#X msg 310 172 all tpo \$1;
#X obj 258 105 route fun tpo slide, f 29;
#X msg 371 172 all slide \$1;
#X msg 168 173 all slide \$1;
#X connect 1 0 4 0;
#X connect 2 0 0 0;
#X connect 3 0 0 0;
#X connect 4 0 2 0;
#X connect 4 1 3 0;
#X connect 4 2 11 0;
#X connect 6 0 9 0;
#X connect 7 0 5 0;
#X connect 8 0 5 0;
#X connect 9 0 7 0;
#X connect 9 1 8 0;
#X connect 9 2 10 0;
#X connect 10 0 5 0;
#X connect 11 0 0 0;
#X restore 298 510 pd tuning_routing;
#X obj 328 485 r tuning_two;
#N canvas 26 26 450 300 modulation_routing 0;
#X obj 95 133 route mod modulation attack speed;
#X obj 99 70 inlet;
#X obj 91 258 outlet;
#X msg 87 203 all mod \$1;
#X msg 168 203 all attack \$1;
#X connect 0 0 3 0;
#X connect 0 1 3 0;
#X connect 0 2 4 0;
#X connect 0 3 4 0;
#X connect 1 0 0 0;
#X connect 3 0 2 0;
#X connect 4 0 2 0;
#X restore 410 510 pd modulation_routing;
#X obj 160 46 inlet;
#X obj 260 56 hradio 15 1 0 8 empty empty empty 0 -8 0 10 #fcfcfc #000000
#000000 0;
#X msg 160 93 stop;
#X obj 160 70 route stop;
#X obj 90 397 s mid_voice_dis;
#X obj 160 365 t f f;
#X text 364 602 Note off inlet is not needed;
#X obj 260 27 inlet;
#X text 438 372 The phase input is for phase reset...;
#X text 438 356 tabosc4~ doesn't support floats for phase;
#X text 219 270 Midi 69 is 440 Hz.;
#X obj 410 485 r \$0-modulation;
#X obj 188 270 - 69;
#X obj 260 80 + 69;
#X connect 2 0 0 0;
#X connect 2 0 1 0;
#X connect 3 0 2 0;
#X connect 4 0 3 0;
#X connect 5 0 4 0;
#X connect 7 0 19 0;
#X connect 8 0 3 0;
#X connect 9 0 13 0;
#X connect 10 0 13 0;
#X connect 11 0 34 0;
#X connect 12 0 9 0;
#X connect 12 1 24 0;
#X connect 13 0 11 0;
#X connect 13 1 41 0;
#X connect 13 2 8 2;
#X connect 16 0 8 1;
#X connect 17 0 16 1;
#X connect 19 0 3 5;
#X connect 20 0 5 0;
#X connect 21 0 3 0;
#X connect 22 0 3 0;
#X connect 23 0 21 0;
#X connect 23 0 22 0;
#X connect 24 0 10 0;
#X connect 25 0 26 0;
#X connect 26 0 3 2;
#X connect 26 1 3 3;
#X connect 27 0 26 1;
#X connect 28 0 3 4;
#X connect 29 0 32 0;
#X connect 30 0 42 0;
#X connect 31 0 13 0;
#X connect 32 0 31 0;
#X connect 32 1 13 0;
#X connect 34 0 33 0;
#X connect 34 1 8 0;
#X connect 36 0 30 0;
#X connect 40 0 28 0;
#X connect 41 0 16 0;
#X connect 42 0 12 0;
#X restore 992 114 pd synth;
#N canvas 861 1068 450 300 midi_through 0;
#X obj 39 28 cnv 15 240 200 empty empty Midi_through 20 12 0 14 #c4fcc4
#404040 0;
#X obj 45 209 unpack f f f;
#X obj 45 131 bng 15 250 50 0 empty empty empty 17 7 0 10 #fcfcfc #000000
#000000;
#X text 63 132 Test midi out;
#X obj 218 208 noteout;
#X floatatom 144 111 5 0 0 0 - - - 0;
#X obj 45 187 pack f f f;
#X floatatom 95 111 5 0 0 0 - - - 0;
#X floatatom 45 111 5 0 0 0 - - - 0;
#X obj 45 166 f;
#X obj 45 58 loadbang;
#X msg 45 86 42;
#X msg 95 86 64;
#X msg 144 86 0;
#X obj 156 143 r velocity_through;
#X obj 158 171 r channel_through;
#X obj 183 115 r note_through;
#X connect 1 0 4 0;
#X connect 1 1 4 1;
#X connect 1 2 4 2;
#X connect 2 0 9 0;
#X connect 5 0 6 2;
#X connect 6 0 1 0;
#X connect 7 0 6 1;
#X connect 8 0 9 1;
#X connect 9 0 6 0;
#X connect 10 0 11 0;
#X connect 10 0 12 0;
#X connect 10 0 13 0;
#X connect 11 0 8 0;
#X connect 12 0 7 0;
#X connect 13 0 5 0;
#X connect 14 0 4 1;
#X connect 15 0 4 2;
#X connect 16 0 4 0;
#X restore 1014 449 pd midi_through;
#X obj 1014 149 filterbox_stereo;
#N canvas 286 286 450 300 filter_settings 0;
#X obj 111 85 r filter_freq;
#X obj 135 105 r filter_mag;
#X obj 88 65 r filter_x;
#X obj 88 169 outlet;
#X obj 111 149 outlet;
#X obj 135 129 outlet;
#X connect 0 0 4 0;
#X connect 1 0 5 0;
#X connect 2 0 3 0;
#X restore 1060 114 pd filter_settings;
#X obj 12 307 cnv 15 180 84 empty empty Filter 20 12 0 14 #c4fcfc #404040
0;
#X obj 18 340 hsl 116 15 32 32000 1 0 \$0-filter_freq daw_filter_freq
Frequency -2 -8 0 10 #fcfcc4 #000000 #000000 0 1;
#X obj 18 371 hsl 116 15 1 1201 1 0 \$0-filter_mag daw_filter_mag Filter_Magnitude
-2 -8 0 10 #fcfcc4 #000000 #000000 0 1;
#X floatatom 139 341 8 0 0 0 - \$0-filter_freq - 0;
#X obj 111 323 hradio 15 1 0 3 \$0-filter_x_radio daw_filter_x empty
0 -8 0 10 #fcfcfc #000000 #000000 0;
#X floatatom 139 372 8 0 0 0 - \$0-filter_mag_dis - 0;
#X text 109 309 hi;
#X text 124 309 lo;
#X text 141 309 bp;
#X obj 1014 371 dac~;
#N canvas 1365 863 502 300 echo_stereo 0;
#X obj 182 135 tgl 15 1 empty empty empty 17 7 0 10 #fcfcfc #000000
#000000 0 1;
#X obj 216 135 hsl 80 15 0 0.9 0 0 empty empty empty -2 -8 0 10 #fcfcfc
#000000 #000000 0 1;
#X obj 11 17 inlet~;
#X obj 132 17 inlet~;
#X obj 11 279 outlet~;
#X obj 132 279 outlet~;
#X text 257 115 Delay between 0-1000 ms;
#N canvas 0 50 641 455 echo_chamber2 0;
#X obj 172 88 inlet;
#X obj 112 88 inlet~;
#X obj 111 160 *~ 0.5;
#X obj 172 135 * 0.5;
#X obj 172 113 tgl 15 0 empty empty empty 17 7 0 10 #fcfcfc #000000
#000000 0 1;
#X obj 111 305 outlet~;
#X obj 231 88 inlet;
#X text 171 71 On/Off;
#X text 94 71 Signal in;
#X text 229 71 Echo Magnitude;
#X obj 331 88 inlet;
#X text 329 71 Reflection Time;
#X text 33 22 Creates an echo of the signal in (does not output the
signal in!);
#X obj 331 209 f 1000;
#X obj 28 125 r~ \$0-echo_b2;
#X obj 28 264 s~ \$0-echo_b2;
#X obj 112 226 delread~ \$0-echo_a2 1000;
#X obj 112 184 delwrite~ \$0-echo_a2 1000;
#X connect 0 0 4 0;
#X connect 1 0 2 0;
#X connect 2 0 17 0;
#X connect 3 0 2 1;
#X connect 4 0 3 0;
#X connect 6 0 3 1;
#X connect 10 0 13 0;
#X connect 13 0 16 0;
#X connect 14 0 2 0;
#X connect 16 0 5 0;
#X connect 16 0 15 0;
#X restore 151 210 pd echo_chamber2;
#N canvas 0 50 450 300 echo_chamber1 0;
#X obj 172 88 inlet;
#X obj 112 88 inlet~;
#X obj 111 160 *~ 0.5;
#X obj 172 135 * 0.5;
#X obj 172 113 tgl 15 0 empty empty empty 17 7 0 10 #fcfcfc #000000
#000000 0 1;
#X obj 111 305 outlet~;
#X obj 231 88 inlet;
#X text 171 71 On/Off;
#X text 94 71 Signal in;
#X text 229 71 Echo Magnitude;
#X text 33 22 Creates an echo of the signal in (does not output the
signal in!);
#X obj 341 88 inlet;
#X text 339 71 Reflection Time;
#X obj 341 209 f 1000;
#X obj 28 264 s~ \$0-echo_b;
#X obj 28 125 r~ \$0-echo_b;
#X obj 112 184 delwrite~ \$0-echo_a 1000;
#X obj 112 226 delread~ \$0-echo_a 1000;
#X connect 0 0 4 0;
#X connect 1 0 2 0;
#X connect 2 0 16 0;
#X connect 3 0 2 1;
#X connect 4 0 3 0;
#X connect 6 0 3 1;
#X connect 11 0 13 0;
#X connect 13 0 17 0;
#X connect 15 0 2 0;
#X connect 17 0 5 0;
#X connect 17 0 14 0;
#X restore 31 210 pd echo_chamber1;
#X obj 172 54 r echo_x;
#X obj 203 74 r echo_percent;
#X obj 244 94 r echo_ms;
#X obj 203 95 t f f;
#N canvas 337 827 450 300 onOff 0;
#X obj 52 73 inlet;
#X obj 54 168 outlet;
#X obj 50 106 sel 0;
#X msg 50 127 0;
#X msg 80 127 1;
#X connect 0 0 2 0;
#X connect 2 0 3 0;
#X connect 2 1 4 0;
#X connect 3 0 1 0;
#X connect 4 0 1 0;
#X restore 285 180 pd onOff;
#X connect 0 0 8 1;
#X connect 0 0 7 1;
#X connect 1 0 8 2;
#X connect 1 0 7 2;
#X connect 2 0 4 0;
#X connect 2 0 8 0;
#X connect 3 0 5 0;
#X connect 3 0 7 0;
#X connect 7 0 5 0;
#X connect 8 0 4 0;
#X connect 9 0 0 0;
#X connect 10 0 12 0;
#X connect 11 0 7 3;
#X connect 11 0 8 3;
#X connect 12 0 13 0;
#X connect 12 1 1 0;
#X connect 13 0 0 0;
#X restore 1014 244 pd echo_stereo;
#X text 1043 371 Speaker output;
#X text 1106 244 Echoes;
#X obj 1014 307 *~ 1;
#X obj 1095 307 *~ 1;
#X obj 1035 283 r vol_to_synth;
#X obj 339 210 vsl 15 201 0 100 0 0 empty \$0-rms_amplitude empty 0
-9 0 10 #fc90fc #000000 #000000 0 1;
#X obj 1014 193 pan_pingpong~;
#N canvas 1813 758 521 399 pingpong_control 0;
#X obj 133 303 outlet~;
#X obj 202 303 outlet;
#X obj 224 34 r bar_start;
#X obj 202 278 r pingpong_percent;
#X obj 134 278 -~;
#X obj 38 11 r bpm_from_DAW;
#X obj 150 11 r numerator_from_DAW;
#X obj 38 34 bpmtoms;
#X obj 150 34 t b f;
#X msg 224 55 0;
#X obj 39 84 r daw_playing;
#X obj 150 81 / 1;
#X obj 38 54 ratio 1000;
#X obj 235 84 r pingpong_speed;
#X obj 150 138 * 1;
#X obj 235 107 t b f;
#X obj 150 113 f;
#X obj 225 162 r dawOffset;
#X obj 150 204 curvor~;
#X obj 216 143 r dawSynchCurve;
#X obj 39 105 sel 0;
#X floatatom 39 126 5 0 0 0 - - - 0;
#X obj 134 257 sig~ 0;
#X connect 2 0 9 0;
#X connect 3 0 1 0;
#X connect 4 0 0 0;
#X connect 5 0 7 0;
#X connect 6 0 8 0;
#X connect 7 0 12 0;
#X connect 8 0 11 0;
#X connect 8 1 11 1;
#X connect 9 0 18 1;
#X connect 10 0 20 0;
#X connect 11 0 16 0;
#X connect 12 0 11 0;
#X connect 13 0 15 0;
#X connect 14 0 18 0;
#X connect 15 0 16 0;
#X connect 15 1 14 1;
#X connect 16 0 14 0;
#X connect 17 0 18 3;
#X connect 18 0 4 1;
#X connect 19 0 18 2;
#X connect 20 0 21 0;
#X connect 21 0 18 0;
#X connect 22 0 4 0;
#X restore 1130 149 pd pingpong_control;
#X obj 138 238 hsl 190 15 0 100 0 1 pingpong_percent daw_autopan DAW_synched_panning_%
30 7 0 10 #c4fcfc #000000 #000000 0 1;
#X obj 135 253 hradio 15 1 0 13 pingpong_speed_r daw_autopan_speed
Frequency 9 7 0 10 #fcfcfc #000000 #000000 0;
#N canvas 1637 360 656 678 midi_in_core 0;
#X obj 146 89 notein, f 12;
#X obj 166 418 poly 12 1, f 11;
#X msg 91 244 stop;
#X obj 215 466 t f f;
#N canvas 1462 445 450 300 midi_wip 0;
#X obj 117 84 pgmin;
#X floatatom 149 111 0 0 0 0 - - - 0;
#X floatatom 117 111 0 0 0 0 - - - 0;
#X floatatom 80 112 0 0 0 0 - - - 0;
#X floatatom 34 112 5 0 0 0 - - - 0;
#X floatatom 234 111 0 0 0 0 - - - 0;
#X floatatom 188 111 0 0 0 0 - - - 0;
#X floatatom 304 132 0 0 0 0 - - - 0;
#X floatatom 267 153 0 0 0 0 - - - 0;
#X floatatom 341 109 2 0 0 0 - - - 0;
#X text 111 44 program change, f 7;
#X text 39 44 pitch bend, f 5;
#X obj 188 84 touchin;
#X obj 267 82 polytouchin;
#X text 360 110 channel;
#X text 181 44 channel aftertouch, f 10;
#X text 268 39 polyphonic aftertouch, f 10;
#X text 298 155 aftertouch value;
#X text 333 134 note;
#X obj 34 84 bendin, f 7;
#X text 89 85 *;
#X text 59 184 * Known bug: [bendin] and [bendout] are inconsistent.
While [bendin] outputs values from 0 to 16383 \, [bendout] takes values
from -8192 to 8191 - this won't change.;
#X obj 117 148 bng 15 250 50 0 empty empty empty 17 7 0 10 #fcfcfc
#000000 #000000;
#X obj 149 153 bng 15 250 50 0 empty empty empty 17 7 0 10 #fcfcfc
#000000 #000000;
#X connect 0 0 2 0;
#X connect 0 1 1 0;
#X connect 1 0 23 0;
#X connect 2 0 22 0;
#X connect 12 0 6 0;
#X connect 12 1 5 0;
#X connect 13 0 8 0;
#X connect 13 1 7 0;
#X connect 13 2 9 0;
#X connect 19 0 4 0;
#X connect 19 1 3 0;
#X restore 151 12 pd midi_wip;
#X obj 91 222 r stopPoly;
#X obj 166 442 - 1;
#X obj 324 466 t f f;
#X obj 351 543 s velocity_to_synth;
#X obj 207 201 s velocity_through;
#X obj 289 135 s channel_through;
#X obj 262 115 t f f;
#X obj 242 495 t f f;
#X obj 269 520 s note_select;
#X obj 242 543 s note_out_v;
#X text 54 418 voice \, pitch \, vel.;
#X obj 173 280 outlet;
#X obj 173 248 pack f f;
#X obj 146 115 t f f;
#X obj 207 115 t f f f;
#X text 90 372 Old stuff:;
#X obj 67 179 s \$0-mid_note_dis;
#X obj 226 179 s \$0-mid_velocity_dis;
#X obj 262 157 s \$0-mid_channel_dis;
#X connect 0 0 18 0;
#X connect 0 1 19 0;
#X connect 0 2 11 0;
#X connect 1 0 6 0;
#X connect 1 2 7 0;
#X connect 2 0 16 0;
#X connect 3 1 12 0;
#X connect 5 0 2 0;
#X connect 7 1 8 0;
#X connect 11 0 23 0;
#X connect 11 1 10 0;
#X connect 12 0 14 0;
#X connect 12 1 13 0;
#X connect 17 0 16 0;
#X connect 18 0 21 0;
#X connect 18 1 17 0;
#X connect 19 0 9 0;
#X connect 19 1 22 0;
#X connect 19 2 17 1;
#X restore 992 88 pd midi_in_core;
#N canvas 1172 332 1057 661 receiver_core 0;
#X obj 741 171 / 100;
#N canvas 658 124 1245 972 ADSR_SIGNALS 0;
#X obj 103 843 outlet;
#X obj 153 843 outlet;
#X obj 203 843 outlet;
#X obj 253 843 outlet;
#X obj 665 427 cnv 15 450 200 empty empty empty 20 12 0 14 #e0e0e0
#404040 0;
#X obj 707 477 receive load;
#X text 707 450 Loads the internal value, f 15;
#X obj 707 579 value Attack;
#X obj 707 498 route Attack Decay Sustain Release;
#X obj 787 579 value Decay;
#X obj 861 579 value Sustain;
#X obj 948 579 value Release;
#X obj 707 538 t b f;
#X obj 787 538 t b f;
#X obj 861 538 t b f;
#X obj 948 538 t b f;
#X text 897 457 This block might be useless...;
#X obj 239 307 unpack f f f f;
#X text 260 291 ADSR in;
#X obj 239 210 inlet;
#X obj 798 64 r Attack;
#X obj 817 80 r Decay;
#X obj 839 96 r Sustain;
#X obj 864 112 r Release;
#X obj 580 70 r \$0-Attack;
#X obj 589 86 r \$0-Decay;
#X obj 601 102 r \$0-Sustain;
#X obj 616 118 r \$0-Release;
#N canvas 1627 652 517 300 receive_save 0;
#X obj 21 26 cnv 15 450 200 empty empty empty 20 12 0 14 #e0e0e0 #404040
0;
#X obj 60 61 receive save;
#X text 60 34 Saves the internal value, f 15;
#X obj 360 129 value Attack;
#X msg 360 150 save Attack \$1;
#X obj 60 98 t b b b b;
#X obj 267 129 value Decay;
#X msg 267 150 save Decay \$1;
#X obj 159 129 value Sustain;
#X msg 159 150 save Sustain \$1;
#X obj 52 129 value Release;
#X msg 52 150 save Release \$1;
#X text 260 62 This block might be useless...;
#X obj 52 201 outlet;
#X connect 1 0 5 0;
#X connect 3 0 4 0;
#X connect 4 0 13 0;
#X connect 5 0 10 0;
#X connect 5 1 8 0;
#X connect 5 2 6 0;
#X connect 5 3 3 0;
#X connect 6 0 7 0;
#X connect 7 0 13 0;
#X connect 8 0 9 0;
#X connect 9 0 13 0;
#X connect 10 0 11 0;
#X connect 11 0 13 0;
#X restore 968 476 pd receive_save;
#X obj 968 502 send camomile;
#X text 1056 501 uncoupled for now;
#X connect 5 0 8 0;
#X connect 7 0 0 0;
#X connect 8 0 12 0;
#X connect 8 1 13 0;
#X connect 8 2 14 0;
#X connect 8 3 15 0;
#X connect 9 0 1 0;
#X connect 10 0 2 0;
#X connect 11 0 3 0;
#X connect 12 0 7 0;
#X connect 12 1 7 0;
#X connect 13 0 9 0;
#X connect 13 1 9 0;
#X connect 14 0 10 0;
#X connect 14 1 10 0;
#X connect 15 0 11 0;
#X connect 15 1 11 0;
#X connect 17 0 0 0;
#X connect 17 1 1 0;
#X connect 17 2 2 0;
#X connect 17 3 3 0;
#X connect 19 0 17 0;
#X connect 20 0 0 0;
#X connect 21 0 1 0;
#X connect 22 0 2 0;
#X connect 23 0 3 0;
#X connect 24 0 0 0;
#X connect 25 0 1 0;
#X connect 26 0 2 0;
#X connect 27 0 3 0;
#X restore 839 199 pd ADSR_SIGNALS;
#X f 16;
#X msg 857 175 10 80 0.1 50;
#X obj 741 200 s vol_from_daw;
#X floatatom 312 443 5 0 0 0 - - - 0;
#X obj 360 27 loadbang;
#N canvas 708 587 1447 602 waveshaper_setting_receiving 0;
#X obj 169 40 inlet;
#X obj 778 450 outlet;
#X obj 169 74 unpack f f;
#X obj 823 30 inlet;
#X obj 169 97 - 0;
#X obj 169 120 pack f f;
#X text 861 31 Offset;
#X obj 823 450 outlet;
#X obj 169 146 route 0 1 2 3 4 5 6 7 8 9 10 11 12 13 14 15 16 17 18
19 20 21 22 23, f 91;
#X obj 169 334 unpack f f;
#X obj 169 357 - 0;
#X obj 169 380 pack f f;
#X obj 169 412 route 0 1 2 3 4 5 6 7 8 9 10 11 12 13 14 15 16 17 18
19 20 21 22 23 24 25 26, f 102;
#X obj 169 206 s w_00_from_DAW;
#X obj 189 226 s w_01_from_DAW;
#X obj 209 246 s w_02_from_DAW;
#X obj 229 266 s w_03_from_DAW;
#X obj 249 286 s w_04_from_DAW;
#X obj 269 306 s w_05_from_DAW;
#X obj 304 206 s w_06_from_DAW;
#X obj 325 226 s w_07_from_DAW;
#X obj 345 246 s w_08_from_DAW;
#X obj 365 266 s w_09_from_DAW;
#X obj 385 286 s w_10_from_DAW;
#X obj 405 306 s w_11_from_DAW;
#X obj 440 206 s w_12_from_DAW;
#X obj 460 226 s w_13_from_DAW;
#X obj 480 246 s w_14_from_DAW;
#X obj 500 266 s w_15_from_DAW;
#X obj 520 286 s w_16_from_DAW;
#X obj 540 306 s w_17_from_DAW;
#X obj 576 206 s w_18_from_DAW;
#X obj 596 226 s w_19_from_DAW;
#X obj 616 246 s w_20_from_DAW;
#X obj 636 266 s w_21_from_DAW;
#X obj 656 286 s w_22_from_DAW;
#X obj 676 306 s w_23_from_DAW;
#X msg 823 112 24;
#X obj 823 53 t b f;
#X obj 823 162 t b f;
#X msg 823 232 27;
#X obj 236 456 s s_00_from_DAW;
#X obj 256 476 s s_01_from_DAW;
#X obj 276 496 s s_02_from_DAW;
#X obj 296 516 s s_03_from_DAW;
#X obj 316 536 s s_04_from_DAW;
#X obj 336 556 s s_05_from_DAW;
#X obj 372 456 s s_06_from_DAW;
#X obj 393 476 s s_07_from_DAW;
#X obj 413 496 s s_08_from_DAW;
#X obj 433 516 s s_09_from_DAW;
#X obj 453 536 s s_10_from_DAW;
#X obj 472 556 s s_11_from_DAW;
#X obj 507 456 s s_12_from_DAW;
#X obj 527 476 s s_13_from_DAW;
#X obj 547 496 s s_14_from_DAW;
#X obj 567 516 s s_15_from_DAW;
#X obj 587 536 s s_16_from_DAW;
#X obj 608 556 s s_17_from_DAW;
#X obj 642 456 s s_18_from_DAW;
#X obj 663 476 s s_19_from_DAW;
#X obj 682 496 s s_20_from_DAW;
#X obj 702 516 s s_21_from_DAW;
#X obj 722 536 s s_22_from_DAW;
#X obj 743 556 s s_23_from_DAW;
#X obj 185 556 s sine_half_0_from_DAW;
#X obj 205 576 s sine_half_1_from_DAW;
#X obj 169 536 s sine_seq_from_DAW;
#X connect 0 0 2 0;
#X connect 2 0 4 0;
#X connect 2 1 5 1;
#X connect 3 0 38 0;
#X connect 4 0 5 0;
#X connect 5 0 8 0;
#X connect 8 0 13 0;
#X connect 8 1 14 0;
#X connect 8 2 15 0;
#X connect 8 3 16 0;
#X connect 8 4 17 0;
#X connect 8 5 18 0;
#X connect 8 6 19 0;
#X connect 8 7 20 0;
#X connect 8 8 21 0;
#X connect 8 9 22 0;
#X connect 8 10 23 0;
#X connect 8 11 24 0;
#X connect 8 12 25 0;
#X connect 8 13 26 0;
#X connect 8 14 27 0;
#X connect 8 15 28 0;
#X connect 8 16 29 0;
#X connect 8 17 30 0;
#X connect 8 18 31 0;
#X connect 8 19 32 0;
#X connect 8 20 33 0;
#X connect 8 21 34 0;
#X connect 8 22 35 0;
#X connect 8 23 36 0;
#X connect 8 24 9 0;
#X connect 9 0 10 0;
#X connect 9 1 11 1;
#X connect 10 0 11 0;
#X connect 11 0 12 0;
#X connect 12 0 67 0;
#X connect 12 1 65 0;
#X connect 12 2 66 0;
#X connect 12 3 41 0;
#X connect 12 4 42 0;
#X connect 12 5 43 0;
#X connect 12 6 44 0;
#X connect 12 7 45 0;
#X connect 12 8 46 0;
#X connect 12 9 47 0;
#X connect 12 10 48 0;
#X connect 12 11 49 0;
#X connect 12 12 50 0;
#X connect 12 13 51 0;
#X connect 12 14 52 0;
#X connect 12 15 53 0;
#X connect 12 16 54 0;
#X connect 12 17 55 0;
#X connect 12 18 56 0;
#X connect 12 19 57 0;
#X connect 12 20 58 0;
#X connect 12 21 59 0;
#X connect 12 22 60 0;
#X connect 12 23 61 0;
#X connect 12 24 62 0;
#X connect 12 25 63 0;
#X connect 12 26 64 0;
#X connect 12 27 1 0;
#X connect 37 0 39 0;
#X connect 38 0 37 0;
#X connect 38 1 4 1;
#X connect 39 0 40 0;
#X connect 39 1 10 1;
#X connect 40 0 7 0;
#X restore 147 171 pd waveshaper_setting_receiving;
#N canvas 796 705 1430 456 filter_and_echo_setting_receiving 0;
#X obj 437 16 inlet;
#X obj 572 186 outlet;
#X obj 552 211 s daw_echo_x;
#X obj 552 231 s daw_echo_percent;
#X obj 552 251 s daw_echo_ms;
#X obj 437 211 s daw_filter_x;
#X obj 437 231 s daw_filter_freq;
#X obj 437 251 s daw_filter_mag;
#X obj 359 118 loadbang;
#X obj 299 118 loadbang;
#X msg 299 139 440;
#X obj 437 50 unpack f f;
#X obj 513 16 inlet;
#X obj 437 73 - 0;
#X obj 437 96 pack f f;
#X text 551 17 Offset;
#X obj 631 186 outlet;
#X msg 359 138 2;
#X obj 437 162 route 0 1 2 3 4 5, f 23;
#X msg 614 97 6;
#X obj 513 39 t b f;
#X connect 0 0 11 0;
#X connect 8 0 17 0;
#X connect 9 0 10 0;
#X connect 11 0 13 0;
#X connect 11 1 14 1;
#X connect 12 0 20 0;
#X connect 13 0 14 0;
#X connect 14 0 18 0;
#X connect 18 0 5 0;
#X connect 18 1 6 0;
#X connect 18 2 7 0;
#X connect 18 3 2 0;
#X connect 18 4 3 0;
#X connect 18 5 4 0;
#X connect 18 6 1 0;
#X connect 19 0 16 0;
#X connect 20 0 19 0;
#X connect 20 1 13 1;
#X restore 147 282 pd filter_and_echo_setting_receiving;
#N canvas 1354 776 770 421 panning_setting_receiving 0;
#X obj 59 27 inlet;
#X obj 158 183 outlet;
#X obj 59 198 s daw_autopan;
#X obj 75 218 s daw_autopan_speed;
#X obj 92 248 s daw_sidechain;
#X obj 108 268 s daw_sidechain_speed;
#X obj 125 300 s daw_dawOffset;
#X obj 141 320 s daw_dawSynchCurve;
#X obj 59 149 route 0 1 2 3 4 5;
#X obj 59 61 unpack f f;
#X obj 135 27 inlet;
#X obj 59 84 - 0;
#X obj 59 107 pack f f;
#X text 173 28 Offset;
#X obj 225 183 outlet;
#X msg 204 91 6;
#X obj 135 50 t b f;
#X connect 0 0 9 0;
#X connect 8 0 2 0;
#X connect 8 1 3 0;
#X connect 8 2 4 0;
#X connect 8 3 5 0;
#X connect 8 4 6 0;
#X connect 8 5 7 0;
#X connect 8 6 1 0;
#X connect 9 0 11 0;
#X connect 9 1 12 1;
#X connect 10 0 16 0;
#X connect 11 0 12 0;
#X connect 12 0 8 0;
#X connect 15 0 14 0;
#X connect 16 0 15 0;
#X connect 16 1 11 1;
#X restore 147 361 pd panning_setting_receiving;
#N canvas 1043 682 1297 509 envelope_setting_receiving 0;
#X obj 170 66 inlet;
#X obj 335 236 outlet;
#X obj 170 100 unpack f f;
#X obj 246 66 inlet;
#X obj 170 123 - 0;
#X obj 170 146 pack f f;
#X text 284 67 Offset;
#X obj 394 236 outlet;
#X obj 170 212 route 0 1 2 3 4 5 6 7 8 9 10;
#X obj 95 358 s attack_from_DAW;
#X obj 105 378 s decay_from_DAW;
#X obj 115 398 s sustain_from_DAW;
#X obj 125 418 s release_from_DAW;
#X obj 230 358 s attack_T_from_DAW;
#X obj 245 378 s decay_T_from_DAW;
#X obj 260 418 s release_T_from_DAW;
#X obj 375 358 s attack_V_from_DAW;
#X obj 405 378 s decay_V_from_DAW;
#X obj 435 398 s sustain_V_from_DAW;
#X obj 465 418 s release_V_from_DAW;
#X msg 260 136 11;
#X obj 246 89 t b f;
#X connect 0 0 2 0;
#X connect 2 0 4 0;
#X connect 2 1 5 1;
#X connect 3 0 21 0;
#X connect 4 0 5 0;
#X connect 5 0 8 0;
#X connect 8 0 9 0;
#X connect 8 1 10 0;
#X connect 8 2 11 0;
#X connect 8 3 12 0;
#X connect 8 4 13 0;
#X connect 8 5 14 0;
#X connect 8 6 15 0;
#X connect 8 7 16 0;
#X connect 8 8 17 0;
#X connect 8 9 18 0;
#X connect 8 10 19 0;
#X connect 8 11 1 0;
#X connect 20 0 7 0;
#X connect 21 0 20 0;
#X connect 21 1 4 1;
#X restore 147 127 pd envelope_setting_receiving;
#N canvas 1137 713 1297 509 tuning_setting_receiving 0;
#X obj 170 66 inlet;
#X obj 335 236 outlet;
#X obj 170 100 unpack f f;
#X obj 246 66 inlet;
#X obj 170 123 - 0;
#X obj 170 146 pack f f;
#X text 284 67 Offset;
#X obj 394 236 outlet;
#X obj 170 212 route 0 1 2 3 4, f 28;
#X obj 269 270 s course_from_DAW;
#X obj 302 291 s fine_from_DAW;
#X obj 170 291 s fun_from_DAW;
#X obj 203 317 s freq_attack_from_DAW;
#X obj 236 348 s tpo_from_DAW;
#X msg 246 135 5;
#X obj 246 89 t b f;
#X connect 0 0 2 0;
#X connect 2 0 4 0;
#X connect 2 1 5 1;
#X connect 3 0 15 0;
#X connect 4 0 5 0;
#X connect 5 0 8 0;
#X connect 8 0 11 0;
#X connect 8 1 12 0;
#X connect 8 2 13 0;
#X connect 8 3 9 0;
#X connect 8 4 10 0;
#X connect 8 5 1 0;
#X connect 14 0 7 0;
#X connect 15 0 14 0;
#X connect 15 1 4 1;
#X restore 147 70 pd tuning_setting_receiving;
#N canvas 1050 505 1297 509 modulation_setting_receiving 0;
#X obj 170 66 inlet;
#X obj 335 236 outlet;
#X obj 170 100 unpack f f;
#X obj 246 66 inlet;
#X obj 170 123 - 0;
#X obj 170 146 pack f f;
#X text 284 67 Offset;
#X obj 394 236 outlet;
#X obj 170 212 route 0 1, f 28;
#X obj 170 249 s modulation_from_DAW;
#X obj 252 279 s modulation_attack_from_DAW;
#X msg 309 153 2;
#X obj 246 89 t b f;
#X connect 0 0 2 0;
#X connect 2 0 4 0;
#X connect 2 1 5 1;
#X connect 3 0 12 0;
#X connect 4 0 5 0;
#X connect 5 0 8 0;
#X connect 8 0 9 0;
#X connect 8 1 10 0;
#X connect 8 2 1 0;
#X connect 11 0 7 0;
#X connect 12 0 11 0;
#X connect 12 1 4 1;
#X restore 147 243 pd modulation_setting_receiving;
#X text 756 137 Old stuff:;
#X obj 147 454 unpack f f;
#X text 138 499 Probably print out if these get triggered by anything...
;
#X floatatom 147 477 5 0 0 0 - - - 0;
#X floatatom 204 477 5 0 0 0 - - - 0;
#X msg 360 52 1;
#X obj 312 387 - 6;
#X text 505 84 We seem to be reducing the index of the values we're
passing through... bad design?;
#X text 351 445 should be 0;
#X obj 147 26 param.get.multi 81 camo_multi;
#X obj 502 121 cnv 15 220 400 empty empty Routing\\\ tests 20 12 0
14 #c6ffc7 #404040 0;
#X msg 520 199 6 22;
#X text 557 199 Attack;
#X msg 518 225 17 1;
#X text 553 226 Phase;
#X msg 525 395 68 1;
#X text 562 395 Modulation;
#X msg 527 427 70 2;
#X text 562 427 Filter select;
#X msg 523 279 40 \$1;
#X obj 522 260 tgl 15 0 empty empty empty 17 7 0 10 #fcfcfc #000000
#000000 0 1;
#X text 562 279 remove DC;
#X obj 523 345 hradio 15 1 0 8 empty empty empty 0 -8 0 10 #fcfcfc
#000000 #000000 0;
#X text 565 371 Sine Seq;
#X msg 521 170 3 12;
#X text 555 172 TpO;
#X msg 609 198 9 120;
#X text 654 199 Release;
#X msg 523 369 41 \$1;
#X msg 524 303 44 1;
#X text 560 323 SinePartial 1;
#X msg 524 323 45 \$1;
#X obj 667 308 hsl 128 15 0 100 0 0 empty empty empty -2 -8 0 10 #fcfcfc
#000000 #000000 0 1;
#X text 560 302 SinePartial 0;
#X connect 0 0 3 0;
#X connect 2 0 1 0;
#X connect 5 0 17 0;
#X connect 6 0 11 0;
#X connect 6 1 11 1;
#X connect 7 0 8 0;
#X connect 7 1 8 1;
#X connect 8 0 13 0;
#X connect 8 1 18 0;
#X connect 9 0 6 0;
#X connect 9 1 6 1;
#X connect 10 0 9 0;
#X connect 10 1 9 1;
#X connect 11 0 7 0;
#X connect 11 1 7 1;
#X connect 13 0 15 0;
#X connect 13 1 16 0;
#X connect 17 0 10 1;
#X connect 18 0 4 0;
#X connect 21 0 10 0;
#X connect 23 0 10 0;
#X connect 25 0 10 0;
#X connect 27 0 10 0;
#X connect 29 0 10 0;
#X connect 31 0 10 0;
#X connect 32 0 31 0;
#X connect 34 0 40 0;
#X connect 36 0 10 0;
#X connect 38 0 10 0;
#X connect 40 0 10 0;
#X connect 41 0 10 0;
#X connect 43 0 10 0;
#X connect 44 0 43 0;
#X restore 975 8 pd receiver_core;
#N canvas 1118 925 353 243 be_quiet 0;
#X obj 94 106 s stopPoly;
#X msg 67 106 0;
#X obj 67 140 s vol_from_daw;
#X obj 67 63 r be_quiet;
#X connect 1 0 2 0;
#X connect 3 0 1 0;
#X connect 3 0 0 0;
#X restore 1128 283 pd be_quiet;
#X obj 138 272 hsl 190 15 0 100 0 1 sidechain_percent daw_sidechain
DAW_synched_volume_% 30 7 0 10 #c4fcfc #000000 #000000 0 1;
#X obj 135 287 hradio 15 1 0 13 sidechain_speed_r daw_sidechain_speed
Frequency 9 7 0 10 #fcfcfc #000000 #000000 0;
#N canvas 1913 861 521 421 sidechain_and_control 0;
#N canvas 1480 858 536 367 sidechaining 0;
#X obj 63 37 inlet~;
#X obj 163 37 inlet~;
#X obj 267 37 inlet;
#X text 62 21 L;
#X text 164 21 R;
#X text 267 21 %;
#X obj 63 228 outlet~;
#X obj 163 228 outlet~;
#X text 216 21 Phase;
#X obj 218 37 inlet~;
#X obj 202 124 sig~ 1;
#X obj 202 155 -~;
#X obj 163 188 *~;
#X obj 79 124 sig~ 1;
#X obj 79 155 -~;
#X obj 63 188 *~;
#X obj 218 89 *~ 0;
#X obj 267 58 / 200;
#X obj 218 58 +~ 1;
#X text 304 59 2 to wrap phase;
#X connect 0 0 15 0;
#X connect 1 0 12 0;
#X connect 2 0 17 0;
#X connect 9 0 18 0;
#X connect 10 0 11 0;
#X connect 11 0 12 1;
#X connect 12 0 7 0;
#X connect 13 0 14 0;
#X connect 14 0 15 1;
#X connect 15 0 6 0;
#X connect 16 0 11 1;
#X connect 16 0 14 1;
#X connect 17 0 16 1;
#X connect 18 0 16 0;
#X restore 51 357 pd sidechaining;
#X obj 336 40 r bar_start;
#X obj 246 294 -~;
#X obj 246 273 sig~ 1;
#X obj 150 17 r bpm_from_DAW;
#X obj 262 17 r numerator_from_DAW;
#X obj 150 40 bpmtoms;
#X obj 262 40 t b f;
#X msg 336 61 0;
#X obj 151 90 r daw_playing;
#X obj 262 87 / 1;
#X obj 150 60 ratio 1000;
#X obj 262 144 * 1;
#X obj 347 113 t b f;
#X obj 262 119 f;
#X obj 168 343 r sidechain_percent;
#X obj 51 381 outlet~;
#X obj 137 381 outlet~;
#X obj 52 17 inlet~;
#X obj 81 17 inlet~;
#X obj 347 90 r sidechain_speed;
#X obj 327 174 r dawOffset;
#X obj 262 200 curvor~;
#X obj 314 154 r dawSynchCurve;
#X obj 151 111 sel 0;
#X floatatom 151 132 5 0 0 0 - - - 0;
#X connect 0 0 16 0;
#X connect 0 1 17 0;
#X connect 1 0 8 0;
#X connect 2 0 0 2;
#X connect 3 0 2 0;
#X connect 4 0 6 0;
#X connect 5 0 7 0;
#X connect 6 0 11 0;
#X connect 7 0 10 0;
#X connect 7 1 10 1;
#X connect 8 0 22 1;
#X connect 9 0 24 0;
#X connect 10 0 14 0;
#X connect 11 0 10 0;
#X connect 12 0 22 0;
#X connect 13 0 14 0;
#X connect 13 1 12 1;
#X connect 14 0 12 0;
#X connect 15 0 0 3;
#X connect 18 0 0 0;
#X connect 19 0 0 1;
#X connect 20 0 13 0;
#X connect 21 0 22 3;
#X connect 22 0 2 1;
#X connect 23 0 22 2;
#X connect 24 0 25 0;
#X connect 25 0 22 0;
#X restore 1014 219 pd sidechain_and_control;
#X obj 12 208 hsl 121 15 0 1 0 0 dawOffset daw_dawOffset Synch_Phase
18 7 0 10 #c4fccc #000000 #000000 0 1;
#X obj 290 208 bng 15 250 50 0 btn_1_2 empty 1/2 17 7 0 10 #fcfcfc
#000000 #000000;
#X obj 208 208 bng 15 250 50 0 btn_1_4 empty 1/4 17 7 0 10 #fcfcfc
#000000 #000000;
#X obj 168 208 bng 15 250 50 0 btn_1_8 empty 1/8 17 7 0 10 #fcfcfc
#000000 #000000;
#X obj 209 223 bng 15 250 50 0 btn_3_4 empty 3/4 17 7 0 10 #fcfcfc
#000000 #000000;
#X obj 250 208 bng 15 250 50 0 btn_3_8 empty 3/8 17 7 0 10 #fcfcfc
#000000 #000000;
#X obj 168 223 bng 15 250 50 0 btn_5_8 empty 5/8 17 7 0 10 #fcfcfc
#000000 #000000;
#X obj 250 223 bng 15 250 50 0 btn_7_8 empty 7/8 17 7 0 10 #fcfcfc
#000000 #000000;
#X obj 12 223 hsl 121 15 0 1 0 0 dawSynchCurve daw_dawSynchCurve Synch_Curve
18 7 0 10 #c4fccc #000000 #000000 0 1;
#X text 1165 219 AutoVol;
#X text 1098 193 AutoPan;
#X obj 6 49 tgl 15 0 empty daw_playing DAW_Playing 18 8 0 10 #fcfcfc
#000000 #000000 0 1;
#X obj 6 64 tgl 15 0 empty daw_recording DAW_Recording 18 8 0 10 #fcfcfc
#000000 #000000 0 1;
#X obj 6 79 tgl 15 0 empty daw_looping DAW_Looping 18 8 0 10 #fcfcfc
#000000 #000000 0 1;
#X floatatom 182 4 4 0 0 0 - numerator_from_DAW - 0;
#X floatatom 182 21 4 0 0 0 - denumerator_from_DAW - 0;
#X floatatom 21 32 7 0 0 0 - bpm_from_DAW - 0;
#X text 124 14 Time Sig.;
#X floatatom 62 124 4 0 0 0 - \$0-mid_channel_dis - 0;
#X text 16 124 Channel;
#X text 24 264 Note;
#X text 34 141 Note;
#N canvas 1564 701 733 509 canvas_control 0;
#X obj 31 151 s new_gui_size;
#X obj 141 151 s new_gui_width;
#X obj 261 151 s new_gui_height;
#X obj 141 63 tgl 15 0 empty empty empty 17 7 0 10 #fcfcfc #000000
#000000 0 1;
#X obj 141 83 sel 0 1;
#X obj 141 41 r show_hide_waves;
#X msg 31 129 893 520;
#X obj 141 104 t b b;
#X obj 261 63 tgl 15 0 empty empty empty 17 7 0 10 #fcfcfc #000000
#000000 0 1;
#X obj 261 83 sel 0 1;
#X obj 261 41 r show_hide_waves_2;
#X msg 195 104 0;
#X msg 141 129 356;
#X msg 301 129 860;
#X msg 261 129 420;
#X msg 191 129 963;
#X obj 25 9 r minimaximize_ui_panel;
#X obj 25 36 tgl 15 0 empty empty empty 17 7 0 10 #fcfcfc #000000 #000000
0 1;
#X obj 31 186 r new_gui_size;
#X obj 141 186 r new_gui_width;
#X obj 261 186 r new_gui_height;
#X msg 165 246 width \$1;
#X msg 235 246 height \$1;
#X msg 95 246 size \$1;
#X obj 165 289 dynamic_canvas_manager Toneblock.pd 356 420;
#X connect 3 0 4 0;
#X connect 4 0 7 0;
#X connect 4 1 15 0;
#X connect 5 0 3 0;
#X connect 6 0 0 0;
#X connect 7 0 12 0;
#X connect 7 1 11 0;
#X connect 8 0 9 0;
#X connect 9 0 14 0;
#X connect 9 1 13 0;
#X connect 10 0 8 0;
#X connect 11 0 8 0;
#X connect 12 0 1 0;
#X connect 13 0 2 0;
#X connect 14 0 2 0;
#X connect 15 0 1 0;
#X connect 16 0 17 0;
#X connect 17 0 3 0;
#X connect 17 0 8 0;
#X connect 18 0 23 0;
#X connect 19 0 21 0;
#X connect 20 0 22 0;
#X connect 21 0 24 0;
#X connect 22 0 24 0;
#X connect 23 0 24 0;
#X restore 1105 8 pd canvas_control;
#X text 917 711 vvvv;
#X text 923 699 0 0;
#X obj 8 439 wavebranch;
#X obj 668 895 r \$0-array_name_sines;
#X msg 471 916 symbol Wave;
#N canvas 551 271 1744 726 persister_core 0;
#X obj 256 480 * 100;
#X obj 256 456 r vol_persist;
#X obj 98 82 unpack f f;
#X obj 149 110 t f f;
#X obj 176 134 s \$0-param_change;
#X obj 98 135 pack f \$1;
#X text 164 81 param number;
#X text 40 82 new value;
#X obj 98 164 s \$0-param_set;
#X obj 199 349 s camomile;
#X msg 98 248 param set \$2 \$1;
#X obj 199 183 r \$0-param_change;
#N canvas 1796 736 304 393 param.change 0;
#X obj 55 43 r gui;
#X obj 55 65 route mouse;
#X msg 43 265 param change \$1 \$2;
#X obj 92 159 t b f, f 8;
#X obj 55 131 t b f, f 16;
#X obj 16 183 t b f;
#X msg 92 109 0;
#X msg 55 109 1;
#N canvas 0 23 156 140 once 0;
#X obj 15 84 t f b, f 8;
#X obj 78 84 f 0;
#X obj 15 19 inlet;
#X obj 60 19 inlet;
#X obj 15 106 outlet;
#X obj 60 41 f 1;
#X obj 15 62 spigot 0;
#X connect 0 0 4 0;
#X connect 0 1 1 0;
#X connect 1 0 6 1;
#X connect 2 0 6 0;
#X connect 3 0 5 0;
#X connect 5 0 6 1;
#X connect 6 0 0 0;
#X restore 16 159 pd once;
#N canvas 0 23 156 140 once 0;
#X obj 89 69 f 0;
#X obj 15 19 inlet;
#X obj 60 19 inlet;
#X obj 15 106 outlet;
#X obj 60 41 f 1;
#X obj 15 62 spigot 0;
#X obj 15 84 t b b, f 8;
#X connect 0 0 5 1;
#X connect 1 0 5 0;
#X connect 2 0 4 0;
#X connect 4 0 5 1;
#X connect 5 0 6 0;
#X connect 6 0 3 0;
#X connect 6 1 0 0;
#X restore 92 211 pd once;
#X obj 55 87 sel 1 0, f 13;
#X obj 16 18 inlet;
#X obj 43 289 outlet;
#X obj 43 242 pack f 1, f 18;
#X connect 0 0 1 0;
#X connect 1 0 10 0;
#X connect 2 0 12 0;
#X connect 3 0 9 0;
#X connect 3 1 13 1;
#X connect 4 0 8 1;
#X connect 4 1 13 1;
#X connect 5 0 9 1;
#X connect 5 1 13 0;
#X connect 6 0 3 0;
#X connect 7 0 4 0;
#X connect 8 0 5 0;
#X connect 9 0 13 0;
#X connect 10 0 7 0;
#X connect 10 1 6 0;
#X connect 11 0 8 0;
#X connect 13 0 2 0;
#X restore 199 237 pd param.change;
#X obj 98 217 r \$0-param_set;
#X obj 98 53 r \$0-param_persist_pair;
#X text 254 412 OLD below here;
#X obj 328 52 loadbang;
#N canvas -42 389 835 499 ADSR_persistence_stackable 0;
#N canvas 130 130 1258 849 ADSR_Setting_manager 0;
#X obj 51 129 pair 0;
#X obj 101 129 pair 1;
#X obj 151 129 pair 2;
#X obj 202 129 pair 3;
#X obj 252 129 pair 4;
#X obj 303 129 pair 5;
#X obj 353 129 pair 6;
#X obj 51 415 outlet;
#X obj 594 419 outlet;
#X obj 51 41 inlet;
#X obj 51 91 route a d s r at dt rt av dv sv rv, f 93;
#X obj 404 129 pair 7;
#X obj 454 129 pair 8;
#X obj 505 129 pair 9;
#X obj 555 129 pair 10;
#X connect 0 0 7 0;
#X connect 0 1 8 0;
#X connect 1 0 7 0;
#X connect 1 1 8 0;
#X connect 2 0 7 0;
#X connect 2 1 8 0;
#X connect 3 0 7 0;
#X connect 3 1 8 0;
#X connect 4 0 7 0;
#X connect 4 1 8 0;
#X connect 5 0 7 0;
#X connect 5 1 8 0;
#X connect 6 0 7 0;
#X connect 6 1 8 0;
#X connect 9 0 10 0;
#X connect 10 0 0 0;
#X connect 10 1 1 0;
#X connect 10 2 2 0;
#X connect 10 3 3 0;
#X connect 10 4 4 0;
#X connect 10 5 5 0;
#X connect 10 6 6 0;
#X connect 10 7 11 0;
#X connect 10 8 12 0;
#X connect 10 9 13 0;
#X connect 10 10 14 0;
#X connect 11 0 7 0;
#X connect 11 1 8 0;
#X connect 12 0 7 0;
#X connect 12 1 8 0;
#X connect 13 0 7 0;
#X connect 13 1 8 0;
#X connect 14 0 7 0;
#X connect 14 1 8 0;
#X restore 102 123 pd ADSR_Setting_manager;
#X obj 102 92 r adsr_to_synth;
#X obj 102 273 s \$0-param_persist_pair;
#X obj 102 205 pack f f;
#X text 177 179 Setting ID offset for persistence;
#X obj 518 159 t f f;
#X obj 147 178 +;
#X obj 518 182 + 11;
#X obj 518 43 inlet;
#X obj 518 322 outlet;
#X obj 147 153 clip 0 10;
#X obj 134 229 tgl 15 0 empty \$0-persistEnvelopeData empty 17 7 0
10 #fcfcfc #000000 #000000 0 1;
#X obj 102 244 spigot 0;
#X connect 0 0 3 0;
#X connect 0 1 10 0;
#X connect 1 0 0 0;
#X connect 3 0 12 0;
#X connect 5 0 7 0;
#X connect 5 1 6 1;
#X connect 6 0 3 1;
#X connect 7 0 9 0;
#X connect 8 0 5 0;
#X connect 10 0 6 0;
#X connect 11 0 12 1;
#X connect 12 0 2 0;
#X restore 328 137 pd ADSR_persistence_stackable;
#X floatatom 252 207 5 0 0 0 - - - 0;
#X text 649 297 Make sure there's also a change somewhere in the persist
chain so we don't repeat setting and/or getting;
#X text 628 267 Floatgrain on the pack inlets?? May be a good idea...
(NOT HERE \, BEFORE THEY GET SENT HERE);
#X text 393 64 The next open setting slot goes into each stage and
comes out incremented by the number of settings in that stage.;
#X obj 328 170 s waveform_persistence_slot;
#X obj 328 193 r post_waveform_persistence_slot;
#X floatatom 328 256 5 0 0 0 - - - 0;
#N canvas 889 527 847 456 Tuning_persistence_stackable 0;
#X obj 227 38 r tuning_one;
#X obj 311 38 r tuning_two;
#N canvas 1261 537 693 469 tuning_one_Setting_manager 0;
#X obj 53 36 inlet;
#X obj 53 167 pair 0;
#X obj 102 167 pair 1;
#X obj 152 167 pair 2;
#X obj 53 270 outlet;
#X obj 304 270 outlet;
#X obj 53 131 change;
#X obj 102 131 change;
#X obj 152 131 change;
#X obj 202 167 pair 3;
#X obj 271 167 pair 4;
#X obj 202 131 change -1;
#X obj 271 131 change -1;
#X obj 53 89 route fun slide tpo course fine, f 42;
#X connect 0 0 13 0;
#X connect 1 0 4 0;
#X connect 1 1 5 0;
#X connect 2 0 4 0;
#X connect 2 1 5 0;
#X connect 3 0 4 0;
#X connect 3 1 5 0;
#X connect 6 0 1 0;
#X connect 7 0 2 0;
#X connect 8 0 3 0;
#X connect 9 0 4 0;
#X connect 9 1 5 0;
#X connect 10 0 4 0;
#X connect 10 1 5 0;
#X connect 11 0 9 0;
#X connect 12 0 10 0;
#X connect 13 0 6 0;
#X connect 13 1 7 0;
#X connect 13 2 8 0;
#X connect 13 3 11 0;
#X connect 13 4 12 0;
#X restore 227 68 pd tuning_one_Setting_manager;
#X obj 227 295 s \$0-param_persist_pair;
#X obj 227 228 pack f f;
#X text 302 202 Setting ID offset for persistence;
#X obj 573 183 t f f;
#X obj 272 201 +;
#X obj 573 14 inlet;
#X obj 573 305 outlet;
#X obj 573 212 + 5;
#X obj 35 66 t f f;
#X obj 62 89 s course;
#X obj 84 66 t f f;
#X obj 118 89 s fine_cents;
#X obj 129 38 r cents_select;
#X obj 35 38 r course_select;
#X obj 35 111 pair 3;
#X obj 84 111 pair 4;
#X obj 272 171 clip 0 4;
#X obj 259 255 tgl 15 0 empty \$0-persistTuningData empty 17 7 0 10
#fcfcfc #000000 #000000 0 1;
#X obj 227 270 spigot 0;
#X connect 0 0 2 0;
#X connect 2 0 4 0;
#X connect 2 1 19 0;
#X connect 4 0 21 0;
#X connect 6 0 10 0;
#X connect 6 1 7 1;
#X connect 7 0 4 1;
#X connect 8 0 6 0;
#X connect 10 0 9 0;
#X connect 11 0 17 0;
#X connect 11 1 12 0;
#X connect 13 0 18 0;
#X connect 13 1 14 0;
#X connect 15 0 13 0;
#X connect 16 0 11 0;
#X connect 19 0 7 0;
#X connect 20 0 21 1;
#X connect 21 0 3 0;
#X restore 328 106 pd Tuning_persistence_stackable;
#N canvas 992 325 1227 487 effects_persistence_stackable 0;
#X obj 102 282 s \$0-param_persist_pair;
#X obj 102 205 pack f f;
#X text 177 179 Setting ID offset for persistence;
#X obj 518 159 t f f;
#X obj 147 178 +;
#X obj 518 43 inlet;
#X obj 518 322 outlet;
#N canvas 757 309 1258 849 effects_Setting_manager 0;
#X obj 51 129 pair 0;
#X obj 101 129 pair 1;
#X obj 151 129 pair 2;
#X obj 202 129 pair 3;
#X obj 252 129 pair 4;
#X obj 303 129 pair 5;
#X obj 353 129 pair 6;
#X obj 51 415 outlet;
#X obj 754 419 outlet;
#X obj 404 129 pair 7;
#X obj 454 129 pair 8;
#X obj 505 129 pair 9;
#X obj 555 129 pair 10;
#X obj 343 55 r echo_x;
#X obj 353 75 r echo_percent;
#X obj 363 95 r echo_ms;
#X obj 192 14 r filter_x_persist;
#X obj 485 13 r pingpong_speed_r;
#X obj 453 33 r pingpong_percent;
#X obj 587 48 r sidechain_speed_r;
#X obj 555 68 r sidechain_percent;
#X obj 660 96 r dawOffset;
#X obj 692 76 r dawSynchCurve;
#X obj 51 47 route mod attack;
#X obj 610 129 pair 11;
#X obj 660 129 pair 12;
#X obj 715 129 pair 13;
#X obj 202 34 r \$0-filter_freq;
#X obj 212 54 r \$0-filter_mag;
#X obj 51 24 r \$0-modulation;
#X connect 0 0 7 0;
#X connect 0 1 8 0;
#X connect 1 0 7 0;
#X connect 1 1 8 0;
#X connect 2 0 7 0;
#X connect 2 1 8 0;
#X connect 3 0 7 0;
#X connect 3 1 8 0;
#X connect 4 0 7 0;
#X connect 4 1 8 0;
#X connect 5 0 7 0;
#X connect 5 1 8 0;
#X connect 6 0 7 0;
#X connect 6 1 8 0;
#X connect 9 0 7 0;
#X connect 9 1 8 0;
#X connect 10 0 7 0;
#X connect 10 1 8 0;
#X connect 11 0 7 0;
#X connect 11 1 8 0;
#X connect 12 0 7 0;
#X connect 12 1 8 0;
#X connect 13 0 5 0;
#X connect 14 0 6 0;
#X connect 15 0 9 0;
#X connect 16 0 2 0;
#X connect 17 0 11 0;
#X connect 18 0 10 0;
#X connect 19 0 24 0;
#X connect 20 0 12 0;
#X connect 21 0 25 0;
#X connect 22 0 26 0;
#X connect 23 0 0 0;
#X connect 23 1 1 0;
#X connect 24 0 7 0;
#X connect 24 1 8 0;
#X connect 25 0 7 0;
#X connect 25 1 8 0;
#X connect 26 0 7 0;
#X connect 26 1 8 0;
#X connect 27 0 3 0;
#X connect 28 0 4 0;
#X connect 29 0 23 0;
#X restore 102 113 pd effects_Setting_manager;
#X obj 518 182 + 14;
#X obj 147 151 clip 0 13;
#X obj 134 229 tgl 15 0 empty \$0-persistEffectData empty 17 7 0 10
#fcfcfc #000000 #000000 0 1;
#X obj 102 244 spigot 0;
#X connect 1 0 11 0;
#X connect 3 0 8 0;
#X connect 3 1 4 1;
#X connect 4 0 1 1;
#X connect 5 0 3 0;
#X connect 7 0 1 0;
#X connect 7 1 9 0;
#X connect 8 0 6 0;
#X connect 9 0 4 0;
#X connect 10 0 11 1;
#X connect 11 0 0 0;
#X restore 328 217 pd effects_persistence_stackable;
#X msg 328 77 1;
#X obj 498 171 tgl 15 1 \$0-persistWaveformData empty Persist\\\ Waveform\\\ Data
17 7 0 10 #fcfcfc #000000 #000000 1 1;
#X obj 199 322 spigot 1;
#X obj 244 295 <= 81;
#X obj 284 295 > 81;
#X obj 199 206 t f f f;
#X obj 284 321 s CamoIndexOutOfRange;
#X obj 523 108 tgl 15 1 \$0-persistTuningData empty Persist\\\ Tuning\\\ Data
17 7 0 10 #fcfcfc #000000 #000000 1 1;
#X obj 511 138 tgl 15 1 \$0-persistEnvelopeData empty Persist\\\ Envelope\\\ Data
17 7 0 10 #fcfcfc #000000 #000000 1 1;
#X obj 528 219 tgl 15 1 \$0-persistEffectData empty Persist\\\ Effect\\\ Data
17 7 0 10 #fcfcfc #000000 #000000 1 1;
#X obj 43 275 unpack f f;
#X floatatom 43 298 5 0 0 0 - - - 0;
#X floatatom 100 298 5 0 0 0 - - - 0;
#X connect 1 0 0 0;
#X connect 2 0 5 0;
#X connect 2 1 3 0;
#X connect 3 0 5 1;
#X connect 3 1 4 0;
#X connect 5 0 8 0;
#X connect 10 0 29 0;
#X connect 11 0 18 0;
#X connect 11 0 32 0;
#X connect 12 0 29 0;
#X connect 13 0 10 0;
#X connect 13 0 37 0;
#X connect 14 0 2 0;
#X connect 16 0 27 0;
#X connect 17 0 22 0;
#X connect 23 0 26 0;
#X connect 25 0 17 0;
#X connect 26 0 24 0;
#X connect 27 0 25 0;
#X connect 29 0 9 0;
#X connect 30 0 29 1;
#X connect 31 0 33 0;
#X connect 32 0 12 0;
#X connect 32 1 30 0;
#X connect 32 2 31 0;
#X connect 37 0 38 0;
#X connect 37 1 39 0;
#X restore 975 31 pd persister_core;
#N canvas 709 232 1095 981 internal_gui_links 0;
#X obj -2 0 cnv 15 356 420 empty empty empty 20 12 0 14 #c4fcfc #404040
0;
#X obj -2 0 cnv 15 254 180 empty empty Input 28 12 0 14 #b8d4fc #404040
0;
#X obj 98 100 cnv 15 154 80 empty empty Tuning 20 12 0 14 #c8fc6c #404040
0;
#X obj 355 0 cnv 15 536 420 empty empty Waveform 20 12 0 14 #fce0c4
#404040 0;
#X obj 0 421 cnv 15 891 440 empty empty empty 20 12 0 14 #fcc4c4 #404040
0;
#N canvas 1148 370 741 462 playhead 0;
#N canvas 1192 671 599 300 daw_playhead_sends 0;
#X obj 35 52 inlet;
#X obj 35 111 route playing recording looping edittime framerate bpm
lastbar timesig position, f 79;
#X obj 109 144 unpack f f f;
#X obj 371 144 unpack f f;
#X obj 447 144 unpack f f f;
#X obj 269 171 s numerator_from_DAW;
#X obj 173 171 s bpm_from_DAW;
#X obj 35 171 s daw_playing;
#X obj 399 171 s denumerator_from_DAW;
#X obj 87 201 s daw_recording;
#X obj 109 231 s daw_looping;
#X obj 203 201 s framerate_from_DAW;
#X connect 0 0 1 0;
#X connect 1 0 7 0;
#X connect 1 1 9 0;
#X connect 1 2 2 0;
#X connect 1 4 11 0;
#X connect 1 5 6 0;
#X connect 1 7 3 0;
#X connect 1 8 4 0;
#X connect 2 0 10 0;
#X connect 3 0 5 0;
#X connect 3 1 8 0;
#X restore 34 328 pd daw_playhead_sends;
#X obj 34 264 r playhead;
#X obj 52 50 tgl 15 0 empty \$0-playing Playing 0 -7 0 10 #fcfcfc #000000
#000000 0 1;
#X obj 52 80 tgl 15 0 empty \$0-recording Recording 0 -7 0 10 #fcfcfc
#000000 #000000 0 1;
#X obj 171 328 unpack f f f;
#X obj 52 110 tgl 15 0 empty \$0-looping Looping 0 -7 0 10 #fcfcfc
#000000 #000000 0 1;
#X floatatom 52 130 8 0 0 0 - \$0-looping-start - 0;
#X floatatom 52 150 8 0 0 0 - \$0-looping-end - 0;
#X obj 205 370 s \$0-looping-start;
#X obj 240 349 s \$0-looping-end;
#X obj 224 397 s \$0-edittime;
#X floatatom 52 183 5 0 0 2 - \$0-edittime - 0;
#X text 51 168 Edit Time;
#X floatatom 52 216 5 0 0 2 - \$0-framerate - 0;
#X text 51 201 Frame Rate;
#X obj 328 325 s \$0-bpm;
#X floatatom 185 50 5 0 0 2 - \$0-bpm - 0;
#X text 184 35 BPM;
#X obj 391 325 s \$0-lastbar;
#X floatatom 185 80 5 0 0 2 - \$0-lastbar - 0;
#X floatatom 185 113 5 0 0 2 - \$0-numerator - 0;
#X text 184 96 Time Signature;
#X floatatom 185 133 5 0 0 2 - \$0-denumerator - 0;
#X text 221 114 Numerator;
#X text 221 134 Denumerator;
#X text 184 65 Last Bar (PPQ);
#X text 183 156 Play Head Position;
#X floatatom 185 176 8 0 0 2 - \$0-pos-ppq - 0;
#X floatatom 185 196 8 0 0 2 - \$0-pos-samples - 0;
#X floatatom 185 216 8 0 0 2 - \$0-pos-seconds - 0;
#X text 238 177 PPQ;
#X text 238 197 Samples;
#X text 238 217 Seconds;
#X obj 67 297 route playing recording looping edittime framerate bpm
lastbar timesig position, f 79;
#X obj 485 325 unpack f f f;
#X obj 485 391 s \$0-pos-ppq;
#X obj 519 371 s \$0-pos-samples;
#X obj 554 350 s \$0-pos-seconds;
#X text 107 130 Start (PPQ);
#X text 107 150 End (PPQ);
#X text 314 135 Remaining PPQ in the bar, f 12;
#X text 314 85 PPQ position in the bar, f 12;
#X floatatom 316 115 8 0 0 2 - \$0-pos-ppq-bar - 0;
#X floatatom 316 175 8 0 0 2 - \$0-rem-ppq-bar - 0;
#X obj 481 122 r \$0-lastbar;
#X obj 466 99 r \$0-pos-ppq;
#X obj 466 144 -;
#X obj 568 137 / 4;
#X obj 553 159 *;
#X obj 466 200 swap, f 15;
#X obj 466 221 -, f 15;
#X obj 476 180 s \$0-pos-ppq-bar;
#X obj 466 242 s \$0-rem-ppq-bar;
#X obj 581 242 s bar_start;
#X obj 581 221 sel 0;
#X obj 553 98 r numerator_from_DAW;
#X obj 568 116 r denumerator_from_DAW;
#X connect 1 0 0 0;
#X connect 1 0 33 0;
#X connect 4 1 8 0;
#X connect 4 2 9 0;
#X connect 33 2 4 0;
#X connect 33 3 10 0;
#X connect 33 5 15 0;
#X connect 33 6 18 0;
#X connect 33 8 34 0;
#X connect 34 0 35 0;
#X connect 34 1 36 0;
#X connect 34 2 37 0;
#X connect 44 0 46 1;
#X connect 45 0 46 0;
#X connect 46 0 49 0;
#X connect 46 0 51 0;
#X connect 46 0 54 0;
#X connect 47 0 48 1;
#X connect 48 0 49 1;
#X connect 49 0 50 0;
#X connect 49 1 50 1;
#X connect 50 0 52 0;
#X connect 54 0 53 0;
#X connect 55 0 48 0;
#X connect 56 0 47 0;
#X restore 14 37 pd playhead;
#X obj -3 201 cnv 15 356 219 empty empty Output 20 12 0 14 #b8d4fc
#404040 0;
#N canvas 1710 850 450 300 pingpong_radio_guts 0;
#X obj 61 131 pow;
#X msg 61 110 2;
#X obj 61 89 t b f;
#X obj 61 67 + 1;
#X obj 61 152 / 32;
#X obj 61 42 r pingpong_speed_r;
#X obj 61 173 s pingpong_speed;
#X connect 0 0 4 0;
#X connect 1 0 0 0;
#X connect 2 0 1 0;
#X connect 2 1 0 1;
#X connect 3 0 2 0;
#X connect 4 0 6 0;
#X connect 5 0 3 0;
#X restore 205 342 pd pingpong_radio_guts;
#N canvas 1469 1112 450 300 sidechain_radio_guts 0;
#X obj 61 131 pow;
#X msg 61 110 2;
#X obj 61 89 t b f;
#X obj 61 67 + 1;
#X obj 61 152 / 32;
#X obj 61 42 r sidechain_speed_r;
#X obj 61 173 s sidechain_speed;
#X connect 0 0 4 0;
#X connect 1 0 0 0;
#X connect 2 0 1 0;
#X connect 2 1 0 1;
#X connect 3 0 2 0;
#X connect 4 0 6 0;
#X connect 5 0 3 0;
#X restore 204 263 pd sidechain_radio_guts;
#X obj 205 364 loadfloat 4;
#X obj 204 285 loadfloat 4;
#X obj 204 307 s daw_sidechain_speed;
#X obj 205 388 s daw_autopan_speed;
#N canvas 837 1004 450 300 synch_buttons_out 0;
#X obj 162 210 outlet;
#X msg 63 105 0.5;
#X obj 63 82 r btn_1_2;
#X obj 63 132 r btn_1_4;
#X obj 63 182 r btn_1_8;
#X msg 63 155 0.25;
#X msg 63 205 0.125;
#X obj 143 82 r btn_3_4;
#X msg 143 105 0.75;
#X obj 143 132 r btn_3_8;
#X msg 143 155 0.375;
#X obj 223 82 r btn_5_8;
#X obj 223 132 r btn_7_8;
#X msg 223 155 0.875;
#X msg 223 105 0.625;
#X obj 217 187 loadfloat 0;
#X obj 291 131 r btn_0_0;
#X msg 291 154 0;
#X connect 1 0 0 0;
#X connect 2 0 1 0;
#X connect 3 0 5 0;
#X connect 4 0 6 0;
#X connect 5 0 0 0;
#X connect 6 0 0 0;
#X connect 7 0 8 0;
#X connect 8 0 0 0;
#X connect 9 0 10 0;
#X connect 10 0 0 0;
#X connect 11 0 14 0;
#X connect 12 0 13 0;
#X connect 13 0 0 0;
#X connect 14 0 0 0;
#X connect 15 0 0 0;
#X connect 16 0 17 0;
#X connect 17 0 0 0;
#X restore 204 208 pd synch_buttons_out;
#X obj 204 233 s daw_dawOffset;
#N canvas 1007 997 383 217 vol_send 0;
#X obj 54 87 s vol_persist;
#X obj 113 64 t f f;
#X obj 140 137 s vol_to_synth;
#X obj 113 41 r vol_slider;
#X obj 140 111 sqrt;
#X connect 1 0 0 0;
#X connect 1 1 4 0;
#X connect 3 0 1 0;
#X connect 4 0 2 0;
#X restore 26 384 pd vol_send;
#N canvas 104 104 450 300 echo_links 0;
#N canvas -4 657 450 300 echo_signals 0;
#X obj 41 249 outlet;
#X obj 91 249 outlet;
#X obj 141 249 outlet;
#X obj 41 189 r daw_echo_x;
#X obj 91 209 r daw_echo_percent;
#X obj 141 229 r daw_echo_ms;
#X obj 41 72 s echo_x;
#X obj 91 91 s echo_percent;
#X obj 141 110 s echo_ms;
#X obj 41 53 inlet;
#X obj 91 53 inlet;
#X obj 141 53 inlet;
#X connect 3 0 0 0;
#X connect 4 0 1 0;
#X connect 5 0 2 0;
#X connect 9 0 6 0;
#X connect 10 0 7 0;
#X connect 11 0 8 0;
#X restore 74 158 pd echo_signals;
#N canvas 337 827 450 300 onOff 0;
#X obj 52 73 inlet;
#X obj 54 168 outlet;
#X obj 50 106 sel 0;
#X msg 50 127 0;
#X msg 80 127 1;
#X connect 0 0 2 0;
#X connect 2 0 3 0;
#X connect 2 1 4 0;
#X connect 3 0 1 0;
#X connect 4 0 1 0;
#X restore 204 85 pd onOff;
#X obj 117 52 t f f;
#X obj 117 183 s set_echo_magnitude;
#X obj 161 208 s set_echo_time;
#X obj 117 26 r echo_magnitude_slider;
#X obj 161 132 r echo_time_slider;
#X obj 74 108 r echo_on_off_toggle;
#X obj 74 231 s set_echo_on_off;
#X obj 204 108 s set_echo_on_off;
#X connect 0 0 8 0;
#X connect 0 1 3 0;
#X connect 0 2 4 0;
#X connect 1 0 9 0;
#X connect 2 0 0 1;
#X connect 2 1 1 0;
#X connect 5 0 2 0;
#X connect 6 0 0 2;
#X connect 7 0 0 0;
#X restore 100 342 pd echo_links;
#N canvas 1168 952 644 260 filter_radio 0;
#X obj 210 126 s filter_x;
#X obj 89 126 s filter_x_persist;
#X obj 89 98 r \$0-filter_x_radio;
#X connect 2 0 1 0;
#X connect 2 0 0 0;
#X restore 26 317 pd filter_radio;
#N canvas 1286 1055 803 235 bp_node 0;
#X obj 82 118 bp_control;
#X obj 82 154 s filter_freq;
#X obj 169 154 s filter_mag;
#X obj 82 25 r \$0-filter_freq;
#X obj 190 25 r \$0-filter_mag;
#X obj 190 123 s \$0-filter_mag_dis;
#X obj 190 98 - 1;
#X obj 190 48 t f f;
#X connect 0 0 1 0;
#X connect 0 1 2 0;
#X connect 3 0 0 0;
#X connect 4 0 7 0;
#X connect 6 0 5 0;
#X connect 7 0 6 0;
#X connect 7 1 0 1;
#X restore 26 342 pd bp_node;
#X connect 9 0 12 0;
#X connect 10 0 11 0;
#X connect 13 0 14 0;
#X restore 1105 31 pd internal_gui_links;
#X obj 610 18 ADSR_T_Graph;
#X obj 716 18 r adsr_to_synth;
#X obj 368 208 frequency_modulator_gui;
#A saved 1 1;
#X obj 200 308 cnv 15 130 84 empty empty Echo 20 12 0 14 #e0c4fc #404040
0;
#X obj 307 325 tgl 15 1 echo_on_off_toggle set_echo_on_off empty 17
7 0 10 #fcfcfc #000000 #000000 0 1;
#X obj 205 340 hsl 100 15 0 0.9 0 0 echo_magnitude_slider set_echo_magnitude
empty -2 -8 0 10 #feffc6 #000000 #000000 0 1;
#X obj 205 371 hsl 100 15 50 5050 1 0 echo_time_slider set_echo_time
empty -2 -8 0 10 #feffc6 #000000 #000000 0 1;
#X text 309 369 ms;
#X text 310 338 %;
#X obj 368 18 ADSR_TV_gui;
#X obj 135 208 bng 15 250 50 0 btn_0_0 empty 0 17 7 0 10 #fcfcfc #000000
#000000;
#X text 28 398 QUIET!;
#X floatatom 52 283 6 0 0 0 - - - 0;
#X text 917 722 ^^^^;
#N canvas 182 182 450 300 tuning_sends 0;
#X obj 74 72 inlet;
#X obj 70 159 s tuning_one;
#X obj 150 159 s tuning_two;
#X connect 0 0 1 0;
#X connect 0 0 2 0;
#X restore 122 182 pd tuning_sends;
#N canvas 461 338 867 556 tuning_receivers 0;
#X obj 53 58 r fun_from_DAW;
#X obj 103 81 r freq_attack_from_DAW;
#X obj 162 104 r tpo_from_DAW;
#X msg 53 81 fun \$1;
#X obj 53 216 outlet;
#X msg 162 127 tpo \$1;
#X msg 103 104 slide \$1;
#X obj 212 127 r course_from_DAW;
#X msg 212 150 course \$1;
#X obj 281 150 r fine_from_DAW;
#X msg 281 173 fine \$1;
#X connect 0 0 3 0;
#X connect 1 0 6 0;
#X connect 2 0 5 0;
#X connect 3 0 4 0;
#X connect 5 0 4 0;
#X connect 6 0 4 0;
#X connect 7 0 8 0;
#X connect 8 0 4 0;
#X connect 9 0 10 0;
#X connect 10 0 4 0;
#X restore 192 48 pd tuning_receivers;
#N canvas 90 442 2351 544 waveform_receivers 0;
#X msg 461 284 curve \$1;
#X msg 531 284 dc \$1;
#X msg 311 284 phase \$1;
#X msg 581 284 lowpass \$1;
#X msg 651 284 highpass \$1;
#X msg 721 284 lensing \$1;
#X msg 791 284 center \$1;
#X msg 371 284 phase_diff \$1;
#X msg 861 284 square \$1;
#X msg 931 284 sine \$1;
#X msg 1001 284 distance \$1;
#X msg 1071 284 power \$1;
#X msg 1141 284 height \$1;
#X msg 1211 284 sinesum \$1;
#X msg 1281 284 period \$1;
#X msg 1351 284 period_mix \$1;
#X msg 1441 284 polarity \$1;
#X msg 1521 284 folding \$1;
#X msg 1591 284 ceiling \$1;
#X msg 1661 284 reverse \$1;
#X msg 1731 284 bitcrush \$1;
#X msg 1811 284 bitcrush_bits \$1;
#X msg 1921 284 normalize \$1;
#X msg 2011 284 remove_dc \$1;
#X obj 38 43 r w_00_from_DAW;
#X obj 138 43 r w_01_from_DAW;
#X obj 238 43 r w_02_from_DAW;
#X obj 338 43 r w_03_from_DAW;
#X obj 438 43 r w_04_from_DAW;
#X obj 538 43 r w_05_from_DAW;
#X obj 570 68 r w_06_from_DAW;
#X obj 671 68 r w_07_from_DAW;
#X obj 771 68 r w_08_from_DAW;
#X obj 871 68 r w_09_from_DAW;
#X obj 971 68 r w_10_from_DAW;
#X obj 1071 68 r w_11_from_DAW;
#X obj 1171 68 r w_12_from_DAW;
#X obj 1271 68 r w_13_from_DAW;
#X obj 1371 68 r w_14_from_DAW;
#X obj 1471 68 r w_15_from_DAW;
#X obj 1494 92 r w_16_from_DAW;
#X obj 1594 92 r w_17_from_DAW;
#X obj 1693 92 r w_18_from_DAW;
#X obj 1793 92 r w_19_from_DAW;
#X obj 1893 92 r w_20_from_DAW;
#X obj 1993 92 r w_21_from_DAW;
#X obj 2093 92 r w_22_from_DAW;
#X obj 2193 92 r w_23_from_DAW;
#X obj 1071 433 outlet;
#X connect 0 0 48 0;
#X connect 1 0 48 0;
#X connect 2 0 48 0;
#X connect 3 0 48 0;
#X connect 4 0 48 0;
#X connect 5 0 48 0;
#X connect 6 0 48 0;
#X connect 7 0 48 0;
#X connect 8 0 48 0;
#X connect 9 0 48 0;
#X connect 10 0 48 0;
#X connect 11 0 48 0;
#X connect 12 0 48 0;
#X connect 13 0 48 0;
#X connect 14 0 48 0;
#X connect 15 0 48 0;
#X connect 16 0 48 0;
#X connect 17 0 48 0;
#X connect 18 0 48 0;
#X connect 19 0 48 0;
#X connect 20 0 48 0;
#X connect 21 0 48 0;
#X connect 22 0 48 0;
#X connect 23 0 48 0;
#X connect 24 0 2 0;
#X connect 25 0 7 0;
#X connect 26 0 0 0;
#X connect 27 0 1 0;
#X connect 28 0 3 0;
#X connect 29 0 4 0;
#X connect 30 0 5 0;
#X connect 31 0 6 0;
#X connect 32 0 8 0;
#X connect 33 0 9 0;
#X connect 34 0 10 0;
#X connect 35 0 11 0;
#X connect 36 0 12 0;
#X connect 37 0 13 0;
#X connect 38 0 14 0;
#X connect 39 0 15 0;
#X connect 40 0 16 0;
#X connect 41 0 17 0;
#X connect 42 0 18 0;
#X connect 43 0 19 0;
#X connect 44 0 20 0;
#X connect 45 0 21 0;
#X connect 46 0 22 0;
#X connect 47 0 23 0;
#X restore 13 895 pd waveform_receivers;
#N canvas 877 656 828 665 sinesum_receivers 0;
#X obj 72 69 r s_00_from_DAW;
#X obj 92 89 r s_01_from_DAW;
#X obj 112 109 r s_02_from_DAW;
#X obj 132 129 r s_03_from_DAW;
#X obj 152 149 r s_04_from_DAW;
#X obj 172 169 r s_05_from_DAW;
#X obj 207 69 r s_06_from_DAW;
#X obj 228 89 r s_07_from_DAW;
#X obj 248 109 r s_08_from_DAW;
#X obj 268 129 r s_09_from_DAW;
#X obj 289 149 r s_10_from_DAW;
#X obj 307 169 r s_11_from_DAW;
#X obj 343 69 r s_12_from_DAW;
#X obj 363 89 r s_13_from_DAW;
#X obj 384 109 r s_14_from_DAW;
#X obj 403 129 r s_15_from_DAW;
#X obj 423 149 r s_16_from_DAW;
#X obj 444 169 r s_17_from_DAW;
#X obj 479 69 r s_18_from_DAW;
#X obj 500 89 r s_19_from_DAW;
#X obj 519 109 r s_20_from_DAW;
#X obj 539 129 r s_21_from_DAW;
#X obj 559 149 r s_22_from_DAW;
#X obj 580 169 r s_23_from_DAW;
#X msg 72 215 0 \$1;
#X msg 92 235 1 \$1;
#X msg 112 255 2 \$1;
#X msg 132 275 3 \$1;
#X msg 152 295 4 \$1;
#X msg 172 315 5 \$1;
#X msg 208 215 6 \$1;
#X msg 228 235 7 \$1;
#X msg 248 255 8 \$1;
#X msg 268 275 9 \$1;
#X msg 289 295 10 \$1;
#X msg 307 315 11 \$1;
#X msg 343 215 12 \$1;
#X msg 363 235 13 \$1;
#X msg 384 255 14 \$1;
#X msg 403 275 15 \$1;
#X msg 423 295 16 \$1;
#X msg 444 315 17 \$1;
#X msg 479 215 18 \$1;
#X msg 499 235 19 \$1;
#X msg 519 255 20 \$1;
#X msg 539 275 21 \$1;
#X msg 559 295 22 \$1;
#X msg 580 315 23 \$1;
#X obj 637 326 r sine_half_0_from_DAW;
#X obj 657 350 r sine_half_1_from_DAW;
#X obj 681 376 r sine_seq_from_DAW;
#X msg 609 375 half_0 \$1;
#X msg 609 401 half_1 \$1;
#X msg 609 428 seq \$1;
#X obj 177 502 unpack f f;
#X obj 234 526 + 0.1;
#X obj 177 553 pack f f;
#X obj 177 576 outlet;
#X connect 0 0 24 0;
#X connect 1 0 25 0;
#X connect 2 0 26 0;
#X connect 3 0 27 0;
#X connect 4 0 28 0;
#X connect 5 0 29 0;
#X connect 6 0 30 0;
#X connect 7 0 31 0;
#X connect 8 0 32 0;
#X connect 9 0 33 0;
#X connect 10 0 34 0;
#X connect 11 0 35 0;
#X connect 12 0 36 0;
#X connect 13 0 37 0;
#X connect 14 0 38 0;
#X connect 15 0 39 0;
#X connect 16 0 40 0;
#X connect 17 0 41 0;
#X connect 18 0 42 0;
#X connect 19 0 43 0;
#X connect 20 0 44 0;
#X connect 21 0 45 0;
#X connect 22 0 46 0;
#X connect 23 0 47 0;
#X connect 24 0 54 0;
#X connect 25 0 54 0;
#X connect 26 0 54 0;
#X connect 27 0 54 0;
#X connect 28 0 54 0;
#X connect 29 0 54 0;
#X connect 30 0 54 0;
#X connect 31 0 54 0;
#X connect 32 0 54 0;
#X connect 33 0 54 0;
#X connect 34 0 54 0;
#X connect 35 0 54 0;
#X connect 36 0 54 0;
#X connect 37 0 54 0;
#X connect 38 0 54 0;
#X connect 39 0 54 0;
#X connect 40 0 54 0;
#X connect 41 0 54 0;
#X connect 42 0 54 0;
#X connect 43 0 54 0;
#X connect 44 0 54 0;
#X connect 45 0 54 0;
#X connect 46 0 54 0;
#X connect 47 0 54 0;
#X connect 48 0 51 0;
#X connect 49 0 52 0;
#X connect 50 0 53 0;
#X connect 51 0 54 0;
#X connect 52 0 54 0;
#X connect 53 0 57 0;
#X connect 54 0 56 0;
#X connect 54 1 55 0;
#X connect 55 0 56 1;
#X connect 56 0 57 0;
#X restore 269 895 pd sinesum_receivers;
#X floatatom 1078 750 5 0 0 0 Param\ set \$0-param_set - 0;
#X floatatom 1078 733 5 0 0 0 Param\ change \$0-param_change - 0;
#X floatatom 1172 733 5 0 0 0 Param\ get camo_param_get_ID - 0;
#X floatatom 1172 750 5 0 0 0 Get\ value camo_param_get_value - 0;
#X floatatom 1028 804 5 0 0 0 TpO tpo_from_DAW - 0;
#X floatatom 1028 770 5 0 0 0 Fun fun_from_DAW - 0;
#X floatatom 1028 787 5 0 0 0 Att freq_attack_from_DAW - 0;
#X obj 1101 91 hradio 15 1 0 8 empty empty Test\\\ notes 0 -8 0 10
#fcfcfc #000000 #000000 0;
#X obj 1078 767 tgl 15 0 empty CamoIndexOutOfRange IndexOutOfRange
17 7 0 10 #fcfcfc #000000 #000000 0 1;
#X floatatom 1028 821 5 0 0 0 Phase w_00_from_DAW - 0;
#N canvas 52 52 2028 867 wb_settings 0;
#X obj 37 45 inlet;
#X obj 777 42 inlet;
#X obj 847 42 inlet;
#X obj 145 291 s \$0-param_persist_pair;
#X obj 145 214 pack f f;
#X obj 190 187 +;
#X obj 397 106 r waveform_persistence_slot;
#X obj 397 266 s post_waveform_persistence_slot;
#X obj 397 139 t f f;
#X obj 177 245 tgl 15 0 empty \$0-persistWaveformData empty 17 7 0
10 #fcfcfc #000000 #000000 0 1;
#X obj 145 260 spigot 0;
#X obj 190 139 clip 0 24;
#X obj 777 291 s \$0-param_persist_pair;
#X obj 777 214 pack f f;
#X obj 822 187 +;
#X obj 809 245 tgl 15 0 empty \$0-persistWaveformData empty 17 7 0
10 #fcfcfc #000000 #000000 0 1;
#X obj 777 260 spigot 0;
#X obj 397 206 t f f;
#X obj 397 172 + 24;
#X obj 397 239 + 27;
#X obj 822 128 clip 0 26;
#X obj 37 105 wavebranch_setting_encoder;
#X obj 83 45 r \$0-array_size_persist;
#X msg 83 68 array_size \$1;
#X connect 0 0 21 0;
#X connect 1 0 13 0;
#X connect 2 0 20 0;
#X connect 4 0 10 0;
#X connect 5 0 4 1;
#X connect 6 0 8 0;
#X connect 8 0 18 0;
#X connect 8 1 5 1;
#X connect 9 0 10 1;
#X connect 10 0 3 0;
#X connect 11 0 5 0;
#X connect 13 0 16 0;
#X connect 14 0 13 1;
#X connect 15 0 16 1;
#X connect 16 0 12 0;
#X connect 17 0 19 0;
#X connect 17 1 14 1;
#X connect 18 0 17 0;
#X connect 19 0 7 0;
#X connect 20 0 14 0;
#X connect 21 0 4 0;
#X connect 21 1 11 0;
#X connect 22 0 23 0;
#X connect 23 0 21 0;
#X restore 8 869 pd wb_settings;
#X f 131;
#X text 67 32 BPM;
#X obj 262 6 bng 15 250 50 0 minimaximize_ui_panel empty All\\\ Options
19 7 0 10 #fcfcfc #000000 #000000;
#X text 817 707 I'm a crocodile;
#N canvas 1321 723 450 300 testing_ground 0;
#X obj 45 76 tgl 15 0 empty empty empty 17 7 0 10 #fcfcfc #000000 #000000
0 1;
#X text 61 69 Mouse;
#N canvas 1261 781 292 257 mouseReceive 0;
#X obj 44 130 outlet;
#X obj 44 38 r gui;
#X obj 44 60 route mouse;
#X msg 81 104 0;
#X msg 44 104 1;
#X obj 44 82 sel 1 0, f 13;
#X connect 1 0 2 0;
#X connect 2 0 5 0;
#X connect 3 0 0 0;
#X connect 4 0 0 0;
#X connect 5 0 4 0;
#X connect 5 1 3 0;
#X restore 45 48 pd mouseReceive;
#X text 61 82 down;
#X text 48 103 Mouse stuff doesn't work ??? so the param.change thing
that checks if the mouse is down doesn't work either;
#X connect 2 0 0 0;
#X restore 1096 836 pd testing_ground;
#N canvas 1671 239 625 771 comment_space 0;
#X text 92 494 DAW settings are shared between instances so we should
use those for tone \, that way we can make sure multiple instances
sound good together;
#X text 95 396 The synch frequency radios could be more clear...;
#X text 95 357 Floatgrain implicitly introduces latency... maybe that
should be reflected in the name? maybe it already is...;
#X text 95 305 Velocity link to note-slide time would be good \, that
way we could slide softer notes and create tension for the more stacato
loud notes;
#X text 61 53 TODO:;
#X text 95 283 Remove pops and clicks going into the DAC object?;
#X text 62 220 MAYBE:;
#X text 95 239 Remove loadbangs and loadfloats on stuff that should
be linked to the DAW \, might make it less ambiguous which values get
loaded;
#X text 96 76 Preset settings aren't captured yet...;
#X text 135 541 Is this even true??;
#X text 95 100 Sinesum setting seems to be correct;
#X text 96 127 I think the stepwise loop adjustment setting is still
broken... fixing it might improve performance...;
#X text 64 475 Questionable:;
#X text 98 164 Wavefolding might be wrong \, it seems to run an abs
on minimum turning it into a copy of the maximum...;
#X restore 1101 812 pd comment_space;
#N canvas 1107 429 1287 615 WIP_and_old 0;
#X obj 71 204 bng 15 250 50 0 show_hide_waves_2 empty empty 17 7 0
10 #fcfcfc #000000 #000000;
#X text 87 203 Show/Hide WaveShaper;
#X obj 211 204 bng 15 250 50 0 show_hide_waves_2 empty empty 17 7 0
10 #fcfcfc #000000 #000000;
#X obj 49 129 bng 15 250 50 0 show_hide_waves empty empty 17 7 0 10
#fcfcfc #000000 #000000;
#X obj 49 204 bng 15 250 50 0 show_hide_waves empty empty 17 7 0 10
#fcfcfc #000000 #000000;
#X text 51 146 W;
#X text 51 156 A;
#X text 51 166 V;
#X text 51 176 E;
#X text 51 186 S;
#X obj 116 49 cnv 15 170 110 empty empty empty 20 12 0 14 #c4fcc4 #404040
0;
#X obj 125 85 cnv 15 152 74 empty empty empty 20 12 0 14 #c4c4fc #404040
0;
#X text 135 87 Camomile by;
#X text 136 100 Pierre Guillot;
#X text 125 55 Pure Data by;
#X text 126 68 Miller Puckette;
#X obj 133 117 cnv 15 136 42 empty empty empty 20 12 0 14 #fcfcc4 #404040
0;
#X text 142 130 Koen Riksen;
#X text 141 117 ToneBlock by;
#X obj 70 273 cnv 15 100 60 empty empty empty 20 12 0 14 #fce0c4 #404040
0;
#X obj 177 273 cnv 15 100 60 empty empty empty 20 12 0 14 #c4fcfc #404040
0;
#X obj 177 343 cnv 15 100 60 empty empty empty 20 12 0 14 #000000 #404040
0;
#X obj 70 343 cnv 15 100 60 empty empty empty 20 12 0 14 #e0c4fc #404040
0;
#X obj 312 50 cnv 15 792 400 empty empty empty 20 12 0 14 #fcc4c4 #404040
0;
#X restore 1164 703 pd WIP_and_old;
#X obj 122 66 tuning_gui;
#X obj 975 594 cnv 15 300 105 empty empty Programs 20 12 0 14 #e0c4fc
#404040 0;
#X obj 983 624 text define -k \$0-programs;
#A set empty 10 80 0.1 50 92 2 0 0 0 0 5 2 1 10 2 440 1 0 0 500 0 4
0 4 0 0 1 1 0.25 0.25 -0.5 2 1 0.5 \; empty 1 80 0.2 80 60 2 0 0 0
2 5 2 0.4 3 2 440 40 0 0.625 300 0 4 0 4 0 0 1 1 0.25 0.25 -0.5 2 1
0.5 \;;
#X obj 982 647 program.manager \$0-programs;
#X obj 982 670 s camomile;
#X text 1049 670 uncoupled for now;
#N canvas 26 26 837 420 program_temp 0;
#X text 389 26 ADSR;
#X obj 263 82 t b f;
#X obj 453 152 send camomile;
#X text 560 74 Sets the internal value, f 16;
#X text 554 131 Notifies the host that the internal value has changed
, f 17;
#X msg 453 131 program updated;
#X obj 351 82 t b f;
#X obj 290 103 value Attack;
#X obj 378 103 value Decay;
#X obj 431 82 t b f;
#X obj 521 82 t b f;
#X obj 458 103 value Sustain;
#X obj 548 103 value Release;
#X text 67 132 These probably update the presets \, may even write
to disk...;
#X connect 1 0 5 0;
#X connect 1 1 7 0;
#X connect 5 0 2 0;
#X connect 6 0 5 0;
#X connect 6 1 8 0;
#X connect 9 0 5 0;
#X connect 9 1 11 0;
#X connect 10 0 5 0;
#X connect 10 1 12 0;
#X restore 1154 602 pd program_temp;
#N canvas 52 52 450 300 rms_monitor 0;
#X obj 50 26 inlet~;
#X obj 50 62 env~ 2048 128;
#X obj 50 111 floatgrain 24;
#X obj 50 86 spigot 0, f 15;
#X obj 137 26 r \$0-monitor_amplitude;
#X obj 50 136 s \$0-rms_amplitude;
#X obj 179 156 s \$0-deci_l_view;
#X obj 287 156 s \$0-deci_r_view;
#X obj 188 105 - 100;
#X connect 0 0 1 0;
#X connect 1 0 3 0;
#X connect 2 0 5 0;
#X connect 3 0 2 0;
#X connect 3 0 8 0;
#X connect 4 0 3 1;
#X connect 8 0 6 0;
#X connect 8 0 7 0;
#X restore 1094 346 pd rms_monitor;
#X text 1185 346 grain 24;
#X obj 270 399 tgl 15 1 \$0-monitor_amplitude empty Monitor 17 7 0
10 #fcfcfc #000000 #000000 0 1;
#X obj 975 478 cnv 15 300 115 empty empty Array_Core 20 12 0 14 #c4fcfc
#404040 0;
#N canvas 1217 655 599 380 waveform_resolution_control 0;
#X obj 89 167 dynamic_array_size Wave 515;
#X obj 109 142 dynamic_array_window Wave 515;
#X obj 70 114 t b f f;
#X msg 70 262 gui resize;
#X obj 70 293 s camomile;
#X text 27 319 is this necessary??;
#X obj 70 12 r \$0-new_waveform_size;
#X floatatom 135 73 5 0 0 0 - - - 0;
#X text 172 63 test to see if there's a load trigger coming through
;
#X text 174 82 Good so far but we should also test with different default
sizes;
#X obj 70 198 t b b;
#X obj 70 55 f;
#X obj 179 293 outlet;
#X text 223 293 Bang to update manager;
#X connect 2 0 10 0;
#X connect 2 1 0 0;
#X connect 2 2 1 0;
#X connect 3 0 4 0;
#X connect 6 0 11 0;
#X connect 10 0 3 0;
#X connect 10 1 12 0;
#X connect 11 0 7 0;
#X connect 11 0 2 0;
#X restore 989 508 pd waveform_resolution_control;
#N canvas 1617 598 450 300 waveform_visibility 0;
#X obj 32 25 r daw_playing;
#X obj 59 238 dynamic_array_vis Wave 1;
#X obj 77 50 tgl 15 0 empty \$0-hide_array_toggle Hide\\\ while\\\ playing\\\ (recommended)
17 7 0 10 #fcfcfc #000000 #000000 0 1;
#X obj 32 119 -;
#X msg 32 96 1 \$1;
#X obj 79 92 tgl 15 0 empty \$0-show_array_toggle Show 17 7 0 10 #fcfcfc
#000000 #000000 0 1;
#X obj 32 185 &&;
#X obj 79 119 t b f;
#X obj 32 72 &&;
#X obj 32 155 f 1;
#X obj 32 208 t f f;
#X obj 32 262 s \$0-show_waveform;
#X connect 0 0 8 0;
#X connect 2 0 8 1;
#X connect 3 0 9 0;
#X connect 4 0 3 0;
#X connect 5 0 7 0;
#X connect 6 0 10 0;
#X connect 7 0 9 0;
#X connect 7 1 6 1;
#X connect 8 0 4 0;
#X connect 9 0 6 0;
#X connect 10 0 11 0;
#X connect 10 1 1 0;
#X restore 989 554 pd waveform_visibility;
#X obj 471 892 r \$0-wave_array_updated;
#N canvas 286 286 450 300 waveform_update_manager 0;
#X obj 16 30 inlet;
#X obj 56 30 loadbang;
#X obj 16 68 s \$0-wave_array_updated;
#X obj 16 151 s \$0-waveform_size_dis;
#X obj 16 125 array size Wave;
#X obj 16 98 r \$0-wave_array_updated;
#X text 14 10 Bangs tell the system to re-analyze the array;
#X connect 0 0 2 0;
#X connect 1 0 2 0;
#X connect 4 0 3 0;
#X connect 5 0 4 0;
#X restore 989 531 pd waveform_update_manager;
#X obj 815 452 hradio 15 1 0 5 \$0-array_size_radio_out \$0-array_size_radio_in
Array\\\ size 0 -8 0 10 #dfdfdf #000000 #000000 0;
#N canvas 1527 553 655 416 waveform_array_manager 0;
#N canvas 26 26 450 300 safe_array_sizes 0;
#X obj 57 81 i;
#X msg 57 107 2 \$1;
#X obj 57 133 pow;
#X obj 57 159 + 3;
#X obj 57 215 outlet;
#X obj 57 33 inlet;
#X connect 0 0 1 0;
#X connect 1 0 2 0;
#X connect 2 0 3 0;
#X connect 3 0 4 0;
#X connect 5 0 0 0;
#X restore 53 316 pd safe_array_sizes;
#X obj 53 344 s \$0-new_waveform_size;
#X msg 100 261 set \$1;
#X obj 53 291 change;
#X obj 53 261 sel 0;
#X obj 53 137 s \$0-loaded_array_size;
#X obj 53 212 r \$0-requested_array_size;
#X obj 100 237 r \$0-loaded_array_size;
#X obj 53 40 loadbang;
#X obj 53 66 array size Wave;
#X obj 53 89 - 3;
#X obj 53 112 log 2;
#N canvas 338 338 450 300 unfounded_clonedwriters_worries 0;
#X text 24 41 the clonedwriters might be an issue...;
#X text 50 58 Maybe we should have seperate clone objects for separate
powers of 2;
#X text 78 87 Needs more than a simple moses for routing though...
;
#X restore 257 301 pd unfounded_clonedwriters_worries;
#X obj 220 47 r \$0-loaded_array_size;
#X obj 220 211 s \$0-requested_array_size;
#X obj 220 118 r \$0-array_size_radio_out;
#X obj 220 93 s \$0-array_size_radio_in;
#N canvas 156 156 450 300 array_size_persist 0;
#X obj 234 31 inlet;
#X obj 261 99 outlet;
#X obj 291 68 r w_08_from_DAW;
#X obj 234 69 t f f;
#X obj 234 140 s \$0-array_size_persist;
#X connect 0 0 3 0;
#X connect 2 0 1 0;
#X connect 3 0 4 0;
#X connect 3 1 1 0;
#X restore 220 162 pd array_size_persist;
#X obj 220 186 + 4;
#X obj 220 141 + 1;
#X obj 220 70 - 5;
#X connect 0 0 1 0;
#X connect 2 0 3 0;
#X connect 3 0 0 0;
#X connect 4 1 3 0;
#X connect 6 0 4 0;
#X connect 7 0 2 0;
#X connect 8 0 9 0;
#X connect 9 0 10 0;
#X connect 10 0 11 0;
#X connect 11 0 5 0;
#X connect 13 0 20 0;
#X connect 15 0 19 0;
#X connect 17 0 18 0;
#X connect 18 0 14 0;
#X connect 19 0 17 0;
#X connect 20 0 16 0;
#X restore 1091 484 pd waveform_array_manager;
#X floatatom 863 467 5 0 0 0 Points \$0-waveform_size_dis - 0;
#X text 982 573 Phase seems to have some hardcoded sizes???;
#N canvas 711 277 1283 714 stuff_that_camomile_cant_do 0;
#X text 32 43 Camomile can't change the visibility of an array;
#X obj 35 117 cnv 15 106 155 empty empty Loudness 20 12 0 14 #fcc4c4
#000000 0;
#X obj 95 147 vu 15 120 \$0-deci_r_view R -1 -8 0 10 #404040 #000000
1 0;
#X obj 38 147 vu 15 120 \$0-deci_l_view L -1 -8 0 10 #404040 #000000
1 0;
#X text 34 271 Doesn't work in camomile?;
#N canvas 265 706 1235 761 wave_display 0;
#X obj 0 0 cnv 15 606 200 empty empty empty 20 12 0 14 #fce0c4 #404040
0;
#X floatatom 526 2 5 0 0 0 Points \$0-waveform_size_dis - 0;
#X obj 55 527 dynamic_canvas_manager wave_display 606 200;
#X obj 310 424 sel 0 1;
#X obj 310 368 r \$0-show_waveform;
#X msg 310 480 xOff \$1;
#X obj 348 452 f 0;
#X obj 310 452 f 606;
#X obj 606 0 cnv 15 606 200 empty empty empty 20 12 0 14 #fce0c4 #404040
0;
#X obj 349 298 tgl 15 1 \$0-hide_array_toggle empty Hide\\\ while\\\ playing\\\ (recommended)
17 7 0 10 #fcfcfc #000000 #000000 1 1;
#X obj 43 298 tgl 15 1 \$0-show_array_toggle empty Show\\\ waveform
17 7 0 10 #fcfcfc #000000 #000000 1 1;
#X obj 955 183 tgl 15 1 empty empty Hide\\\ while\\\ playing\\\ (recommended)
17 7 0 10 #fcfcfc #000000 #000000 1 1;
#X obj 649 183 tgl 15 1 empty empty Show\\\ waveform 17 7 0 10 #fcfcfc
#000000 #000000 1 1;
#X obj 349 183 tgl 15 1 empty empty Hide\\\ while\\\ playing\\\ (recommended)
17 7 0 10 #fcfcfc #000000 #000000 1 1;
#X obj 43 183 tgl 15 1 empty empty Show\\\ waveform 17 7 0 10 #fcfcfc
#000000 #000000 1 1;
#X msg 43 243 set \$1;
#X obj 43 213 t f f;
#X msg 349 243 set \$1;
#X obj 349 213 t f f;
#X msg 649 243 set \$1;
#X obj 649 213 t f f;
#X msg 955 243 set \$1;
#X obj 955 213 t f f;
#X floatatom 1132 2 5 0 0 0 Points \$0-waveform_size_dis - 0;
#N canvas 156 156 865 334 zoomed_text 0;
#X obj 125 60 cnv 15 260 40 empty empty Waveform\\\ hidden 24 18 0
24 #c6ffc7 #404040 0;
#X coords 0 0 1 1 515 164 2 0 0;
#X restore 649 19 pd zoomed_text;
#X obj 666 410 dynamic_canvas_manager zoomed_text 515 164;
#X text 298 393 disconnected;
#X connect 3 0 7 0;
#X connect 3 1 6 0;
#X connect 5 0 2 1;
#X connect 6 0 5 0;
#X connect 7 0 5 0;
#X connect 11 0 22 0;
#X connect 12 0 20 0;
#X connect 13 0 18 0;
#X connect 14 0 16 0;
#X connect 15 0 12 0;
#X connect 16 0 15 0;
#X connect 16 1 10 0;
#X connect 17 0 11 0;
#X connect 18 0 17 0;
#X connect 18 1 9 0;
#X connect 19 0 14 0;
#X connect 20 0 19 0;
#X connect 20 1 10 0;
#X connect 21 0 13 0;
#X connect 22 0 21 0;
#X connect 22 1 9 0;
#X coords 0 0 1 1 606 200 2 0 0;
#X restore 372 91 pd wave_display;
#X text 86 58 can't change the margin to hide objects;
#X obj 56 465 credits_display;
#X text 59 442 Canvases in subpatches aren't placed/sized correctly
;
#X restore 1067 788 pd stuff_that_camomile_cant_do;
#N canvas 529 242 1920 997 (subpatch) 0;
#X array Wave 131 float 1;
#A 0 0 0 0 0 0 0 0 0 0 0 0 0 0 0 0 0 0 0 0 0 0 0 0 0 0 0 0 0 0 0 0
0 0 0 0 0 0 0 0 0 0 0 0 0 0 0 0 0 0 0 0 0 0 0 0 0 0 0 0 0 0 0 0 0 0
0 0 0 0 0 0 0 0 0 0 0 0 0 0 0 0 0 0 0 0 0 0 0 0 0 0 0 0 0 0 0 0 0 0
0 0 0 0 0 0 0 0 0 0 0 0 0 0 0 0 0 0 0 0 0 0 0 0 0 0 0 0 0 0 0 0;
#X coords 0 1 130 -1 515 164 2 0 0;
#X restore 368 255 graph;
#X floatatom 851 238 5 0 0 0 Points \$0-waveform_size_dis - 0;
#N canvas 338 338 450 300 modulation_links 0;
#X obj 43 29 inlet;
#X obj 43 192 outlet;
#X msg 43 154 mod \$1;
#X msg 110 154 attack \$1;
#X obj 43 90 r modulation_from_DAW;
#X obj 110 120 r modulation_attack_from_DAW;
#X obj 43 56 s \$0-modulation;
#X connect 0 0 6 0;
#X connect 2 0 1 0;
#X connect 3 0 1 0;
#X connect 4 0 2 0;
#X connect 5 0 3 0;
#X restore 616 165 pd modulation_links;
#N canvas 1797 874 682 371 ADSR_links 0;
#X msg 26 186 a \$1;
#X msg 66 186 d \$1;
#X msg 106 186 s \$1;
#X msg 146 186 r \$1;
#X msg 207 186 at \$1;
#X msg 256 186 dt \$1;
#X msg 306 186 rt \$1;
#X msg 376 186 av \$1;
#X msg 426 186 dv \$1;
#X msg 476 186 sv \$1;
#X msg 526 186 rv \$1;
#X obj 26 282 outlet;
#X obj 14 69 r attack_from_DAW;
#X obj 24 89 r decay_from_DAW;
#X obj 34 109 r sustain_from_DAW;
#X obj 44 129 r release_from_DAW;
#X obj 149 69 r attack_T_from_DAW;
#X obj 164 89 r decay_T_from_DAW;
#X obj 179 129 r release_T_from_DAW;
#X obj 294 69 r attack_V_from_DAW;
#X obj 324 89 r decay_V_from_DAW;
#X obj 354 109 r sustain_V_from_DAW;
#X obj 384 129 r release_V_from_DAW;
#X obj 18 -3 inlet;
#X obj 18 27 s adsr_to_synth;
#X connect 0 0 11 0;
#X connect 1 0 11 0;
#X connect 2 0 11 0;
#X connect 3 0 11 0;
#X connect 4 0 11 0;
#X connect 5 0 11 0;
#X connect 6 0 11 0;
#X connect 7 0 11 0;
#X connect 8 0 11 0;
#X connect 9 0 11 0;
#X connect 10 0 11 0;
#X connect 12 0 0 0;
#X connect 13 0 1 0;
#X connect 14 0 2 0;
#X connect 15 0 3 0;
#X connect 16 0 4 0;
#X connect 17 0 5 0;
#X connect 18 0 6 0;
#X connect 19 0 7 0;
#X connect 20 0 8 0;
#X connect 21 0 9 0;
#X connect 22 0 10 0;
#X connect 23 0 24 0;
#X restore 616 143 pd ADSR_links;
#X text 206 323 Amount;
#X text 206 354 Delay;
#X text 267 324 On/Off;
#X floatatom 1028 838 5 0 0 0 ArrPow w_08_from_DAW - 0;
#X obj 812 750 cnv 15 150 110 empty empty empty 20 12 0 14 #c4fcc4
#404040 0;
#X obj 821 786 cnv 15 132 74 empty empty empty 20 12 0 14 #c4c4fc #404040
0;
#X text 832 787 Camomile by;
#X text 833 800 Pierre Guillot;
#X text 821 755 Pure Data by;
#X text 822 768 Miller Puckette;
#X obj 829 818 cnv 15 116 42 empty empty empty 20 12 0 14 #fcfcc4 #404040
0;
#X text 847 835 Koen Riksen;
#X text 846 822 ToneBlock by;
#X connect 19 0 21 0;
#X connect 19 1 21 1;
#X connect 21 0 40 0;
#X connect 21 1 40 1;
#X connect 22 0 21 2;
#X connect 22 1 21 3;
#X connect 22 2 21 4;
#X connect 33 0 36 0;
#X connect 33 1 37 0;
#X connect 36 0 32 0;
#X connect 36 0 122 0;
#X connect 37 0 32 1;
#X connect 37 0 122 0;
#X connect 38 0 36 1;
#X connect 38 0 37 1;
#X connect 40 0 49 0;
#X connect 40 1 49 1;
#X connect 41 0 40 2;
#X connect 41 1 40 3;
#X connect 44 0 19 0;
#X connect 49 0 33 0;
#X connect 49 1 33 1;
#X connect 75 0 108 0;
#X connect 75 1 108 1;
#X connect 75 2 108 2;
#X connect 76 0 75 3;
#X connect 77 0 75 2;
#X connect 81 0 80 0;
#X connect 82 0 137 0;
#X connect 82 1 137 0;
#X connect 89 0 138 0;
#X connect 95 0 115 0;
#X connect 96 0 75 0;
#X connect 97 0 75 1;
#X connect 105 0 19 1;
#X connect 115 0 94 0;
#X connect 126 0 129 0;
#X connect 128 0 77 0;
#X connect 137 0 82 0;
#X connect 138 0 89 0;
#X coords 0 0 1 1 356 420 2 0 0;
