#N canvas 387 181 2018 1045 10;
#X obj 0 0 cnv 15 356 420 empty empty empty 20 12 0 14 #c4fcfc #404040
0;
#X obj 0 0 cnv 15 254 180 empty empty Input 28 12 0 14 #b8d4fc #404040
0;
#X obj 0 181 cnv 15 356 239 empty empty Output 20 12 0 14 #b8d4fc #404040
0;
#X obj 0 101 cnv 15 100 80 empty empty Midi_In 20 12 0 14 #68fc6c #404040
0;
#X obj 101 56 cnv 15 194 142 empty empty Tuning 20 12 0 14 #c8fc6c
#404040 0;
#X obj 974 92 cnv 15 300 420 empty empty Audio_Core 20 12 0 14 #fcd4a8
#404040 0;
#X obj 356 0 cnv 15 606 420 empty empty empty 20 12 0 14 #fce0c4 #404040
0;
#X obj 1 420 cnv 15 961 440 empty empty empty 20 12 0 14 #fcc4c4 #404040
0;
#X obj 980 782 cnv 15 100 60 empty empty empty 20 12 0 14 #fce0c4 #404040
0;
#X obj 1087 782 cnv 15 100 60 empty empty empty 20 12 0 14 #c4fcfc
#404040 0;
#X obj 980 852 cnv 15 100 60 empty empty empty 20 12 0 14 #e0c4fc #404040
0;
#X obj 1087 852 cnv 15 100 60 empty empty empty 20 12 0 14 #000000
#404040 0;
#X obj 977 553 cnv 15 280 220 empty empty Debugging 20 12 0 14 #fcfcc4
#404040 0;
#X floatatom 52 240 4 0 0 0 - mid_voice_dis - 0;
#X floatatom 58 141 5 0 0 0 - mid_note_dis - 0;
#X floatatom 58 158 5 0 0 0 - mid_velocity_dis - 0;
#X text 18 240 Voice;
#X text 6 157 Velocity;
#X floatatom 52 260 6 0 0 0 - note_out_v - 0;
#X floatatom 133 76 5 -64 64 0 - course_from_DAW course_select 0;
#X obj 1341 378 hsl 240 22 0 1 0 1 vol_slider vol_from_daw empty -2
-8 0 10 #fcfcfc #000000 #000000 4900 1;
#X text 1337 364 Vol.;
#X obj 1334 525 tgl 15 0 empty empty empty 17 7 0 10 #fcfcfc #000000
#000000 0 1;
#X text 1350 518 Mouse;
#X obj 12 399 bng 15 250 50 0 be_quiet empty empty 17 7 0 10 #fcfcfc
#000000 #000000;
#N canvas 1261 781 292 257 mouseReceive 0;
#X obj 44 130 outlet;
#X obj 44 38 r gui;
#X obj 44 60 route mouse;
#X msg 81 104 0;
#X msg 44 104 1;
#X obj 44 82 sel 1 0, f 13;
#X connect 1 0 2 0;
#X connect 2 0 5 0;
#X connect 3 0 0 0;
#X connect 4 0 0 0;
#X connect 5 0 4 0;
#X connect 5 1 3 0;
#X restore 1334 497 pd mouseReceive;
#X text 1350 531 down;
#X floatatom 206 76 6 -1200 1200 0 - to_cent_dis cents_select 0;
#X text 172 77 Cents;
#X text 99 77 Notes;
#X obj 121 93 hsl 121 15 -1200 1200 0 0 cent_slider_s fine_from_DAW
empty -2 -8 0 10 #fcfcfc #000000 #000000 0 1;
#X obj 208 108 bng 15 250 50 0 offset_reset empty empty 17 7 0 10 #fcfcfc
#000000 #000000;
#X text 132 108 Reset offset;
#X floatatom 295 397 7 0 0 0 - rms_amplitude rms_vis 0;
#X text 213 397 RMS amplitude;
#X text 977 452 The phase input is for phase reset...;
#X text 977 436 tabosc4~ doesn't support floats for phase;
#N canvas 1034 377 820 815 synth 0;
#X obj 188 591 outlet~;
#X obj 240 591 outlet~;
#X obj 188 564 *~ 1;
#X obj 187 532 clone voice 32, f 47;
#X msg 59 514 all 0 0;
#X obj 59 490 bng 15 250 50 0 empty empty empty 17 7 0 10 #fcfcfc #000000
#000000;
#X text 77 488 Mute;
#X obj 466 482 r adsr_to_synth;
#X obj 187 347 pack f f f;
#X msg 330 132 \$1 1;
#X msg 380 132 \$1 0;
#X obj 160 284 - 1;
#X obj 330 74 t f f;
#X obj 160 226 poly 32 1, f 10;
#X text 240 226 Voice numbers don't match for on and off when voice
stealing is turned off!, f 76;
#X text 425 132 These can be replaced with the midi input;
#X obj 188 284 + 0;
#X obj 203 256 r course;
#X text 430 102 preset note length \, not ideal;
#N canvas 837 706 1359 300 ADSR_routing 0;
#X msg 55 169 all a \$1;
#X msg 115 169 all d \$1;
#X msg 175 169 all s \$1;
#X msg 235 169 all r \$1;
#X msg 298 169 all at \$1;
#X msg 358 169 all dt \$1;
#X msg 418 169 all rt \$1;
#X obj 55 242 outlet;
#X obj 55 67 inlet;
#X msg 488 169 all av \$1;
#X msg 548 169 all dv \$1;
#X msg 608 169 all sv \$1;
#X msg 668 169 all rv \$1;
#X obj 55 106 route a d s r at dt rt av dv sv rv, f 114;
#X connect 0 0 7 0;
#X connect 1 0 7 0;
#X connect 2 0 7 0;
#X connect 3 0 7 0;
#X connect 4 0 7 0;
#X connect 5 0 7 0;
#X connect 6 0 7 0;
#X connect 8 0 13 0;
#X connect 9 0 7 0;
#X connect 10 0 7 0;
#X connect 11 0 7 0;
#X connect 12 0 7 0;
#X connect 13 0 0 0;
#X connect 13 1 1 0;
#X connect 13 2 2 0;
#X connect 13 3 3 0;
#X connect 13 4 4 0;
#X connect 13 5 5 0;
#X connect 13 6 6 0;
#X connect 13 7 9 0;
#X connect 13 8 10 0;
#X connect 13 9 11 0;
#X connect 13 10 12 0;
#X restore 466 503 pd ADSR_routing;
#X obj 59 463 r be_quiet;
#X msg 58 564 all arr1 Wave;
#X msg 58 588 all arr2 Wave;
#X obj 73 541 loadbang;
#X obj 362 103 pipe 300;
#X obj 298 411 r tuning_one;
#N canvas 338 338 931 300 tuning_routing 0;
#X obj 55 242 outlet;
#X obj 55 67 inlet;
#X msg 52 173 all fun \$1;
#X msg 107 173 all tpo \$1;
#X obj 55 106 route fun tpo slide, f 29;
#X obj 258 241 outlet;
#X obj 258 66 inlet;
#X msg 255 172 all fun \$1;
#X msg 310 172 all tpo \$1;
#X obj 258 105 route fun tpo slide, f 29;
#X msg 371 172 all slide \$1;
#X msg 168 173 all slide \$1;
#X connect 1 0 4 0;
#X connect 2 0 0 0;
#X connect 3 0 0 0;
#X connect 4 0 2 0;
#X connect 4 1 3 0;
#X connect 4 2 11 0;
#X connect 6 0 9 0;
#X connect 7 0 5 0;
#X connect 8 0 5 0;
#X connect 9 0 7 0;
#X connect 9 1 8 0;
#X connect 9 2 10 0;
#X connect 10 0 5 0;
#X connect 11 0 0 0;
#X restore 298 460 pd tuning_routing;
#X obj 328 435 r tuning_two;
#N canvas 26 26 450 300 modulation_routing 0;
#X obj 95 133 route mod modulation attack speed;
#X obj 99 70 inlet;
#X obj 91 258 outlet;
#X msg 87 203 all mod \$1;
#X msg 168 203 all attack \$1;
#X connect 0 0 3 0;
#X connect 0 1 3 0;
#X connect 0 2 4 0;
#X connect 0 3 4 0;
#X connect 1 0 0 0;
#X connect 3 0 2 0;
#X connect 4 0 2 0;
#X restore 410 460 pd modulation_routing;
#X obj 410 435 r modulation;
#X obj 160 46 inlet;
#X obj 330 46 hradio 15 1 0 8 empty empty empty 0 -8 0 10 #fcfcfc #000000
#000000 0;
#X msg 160 93 stop;
#X obj 160 70 route stop;
#X obj 90 347 s mid_voice_dis;
#X obj 160 315 t f f;
#X text 364 552 Note off inlet is not needed;
#X obj 337 17 inlet;
#X connect 2 0 0 0;
#X connect 2 0 1 0;
#X connect 3 0 2 0;
#X connect 4 0 3 0;
#X connect 5 0 4 0;
#X connect 7 0 19 0;
#X connect 8 0 3 0;
#X connect 9 0 13 0;
#X connect 10 0 13 0;
#X connect 11 0 35 0;
#X connect 12 0 9 0;
#X connect 12 1 24 0;
#X connect 13 0 11 0;
#X connect 13 1 16 0;
#X connect 13 2 8 2;
#X connect 16 0 8 1;
#X connect 17 0 16 1;
#X connect 19 0 3 5;
#X connect 20 0 5 0;
#X connect 21 0 3 0;
#X connect 22 0 3 0;
#X connect 23 0 21 0;
#X connect 23 0 22 0;
#X connect 24 0 10 0;
#X connect 25 0 26 0;
#X connect 26 0 3 2;
#X connect 26 1 3 3;
#X connect 27 0 26 1;
#X connect 28 0 3 4;
#X connect 29 0 28 0;
#X connect 30 0 33 0;
#X connect 31 0 12 0;
#X connect 32 0 13 0;
#X connect 33 0 32 0;
#X connect 33 1 13 0;
#X connect 35 0 34 0;
#X connect 35 1 8 0;
#X connect 37 0 31 0;
#X restore 992 149 pd synth;
#N canvas 861 1068 450 300 midi_through 0;
#X obj 39 28 cnv 15 240 200 empty empty Midi_through 20 12 0 14 #c4fcc4
#404040 0;
#X obj 45 209 unpack f f f;
#X obj 45 131 bng 15 250 50 0 empty empty empty 17 7 0 10 #fcfcfc #000000
#000000;
#X text 63 132 Test midi out;
#X obj 218 208 noteout;
#X floatatom 144 111 5 0 0 0 - - - 0;
#X obj 45 187 pack f f f;
#X floatatom 95 111 5 0 0 0 - - - 0;
#X floatatom 45 111 5 0 0 0 - - - 0;
#X obj 45 166 f;
#X obj 45 58 loadbang;
#X msg 45 86 42;
#X msg 95 86 64;
#X msg 144 86 0;
#X obj 156 143 r velocity_through;
#X obj 158 171 r channel_through;
#X obj 183 115 r note_through;
#X obj 301 49 cnv 15 106 155 empty empty Loudness 20 12 0 14 #fcc4c4
#000000 0;
#X obj 361 79 vu 15 120 \$0-deci_r_view R -1 -8 0 10 #404040 #000000
1 0;
#X obj 304 79 vu 15 120 \$0-deci_l_view L -1 -8 0 10 #404040 #000000
1 0;
#X text 293 207 Doesn't work in camomile;
#X connect 1 0 4 0;
#X connect 1 1 4 1;
#X connect 1 2 4 2;
#X connect 2 0 9 0;
#X connect 5 0 6 2;
#X connect 6 0 1 0;
#X connect 7 0 6 1;
#X connect 8 0 9 1;
#X connect 9 0 6 0;
#X connect 10 0 11 0;
#X connect 10 0 12 0;
#X connect 10 0 13 0;
#X connect 11 0 8 0;
#X connect 12 0 7 0;
#X connect 13 0 5 0;
#X connect 14 0 4 1;
#X connect 15 0 4 2;
#X connect 16 0 4 0;
#X restore 1014 475 pd midi_through;
#X obj 1014 184 filterbox_stereo;
#N canvas 0 50 450 300 filter_settings 0;
#X obj 111 85 r filter_freq;
#X obj 135 105 r filter_mag;
#X obj 88 65 r filter_x;
#X obj 88 169 outlet;
#X obj 111 149 outlet;
#X obj 135 129 outlet;
#X connect 0 0 4 0;
#X connect 1 0 5 0;
#X connect 2 0 3 0;
#X restore 1060 149 pd filter_settings;
#X obj 10 304 cnv 15 180 84 empty empty Filter 20 12 0 14 #c4fcfc #404040
0;
#X obj 16 337 hsl 116 15 32 32000 1 0 empty daw_filter_freq Frequency
-2 -8 0 10 #fcfcc4 #000000 #000000 0 1;
#X obj 16 368 hsl 116 15 1 1201 1 0 empty daw_filter_mag Filter_Magnitude
-2 -8 0 10 #fcfcc4 #000000 #000000 0 1;
#X floatatom 137 338 8 0 0 0 - - - 0;
#X obj 109 320 hradio 15 1 0 3 filter_x_radio daw_filter_x empty 0
-8 0 10 #fcfcfc #000000 #000000 0;
#X floatatom 137 369 8 0 0 0 - - - 0;
#X obj 182 361 - 1;
#X text 107 306 hi;
#X text 122 306 lo;
#X text 139 306 bp;
#X obj 1014 416 dac~;
#N canvas 1365 863 502 300 echo_stereo 0;
#X obj 182 135 tgl 15 1 empty empty empty 17 7 0 10 #fcfcfc #000000
#000000 0 1;
#X obj 216 135 hsl 80 15 0 0.9 0 0 empty empty empty -2 -8 0 10 #fcfcfc
#000000 #000000 0 1;
#X obj 11 17 inlet~;
#X obj 132 17 inlet~;
#X obj 11 279 outlet~;
#X obj 132 279 outlet~;
#X text 257 115 Delay between 0-1000 ms;
#N canvas 0 50 641 455 echo_chamber2 0;
#X obj 172 88 inlet;
#X obj 112 88 inlet~;
#X obj 111 160 *~ 0.5;
#X obj 172 135 * 0.5;
#X obj 172 113 tgl 15 0 empty empty empty 17 7 0 10 #fcfcfc #000000
#000000 0 1;
#X obj 111 305 outlet~;
#X obj 231 88 inlet;
#X text 171 71 On/Off;
#X text 94 71 Signal in;
#X text 229 71 Echo Magnitude;
#X obj 331 88 inlet;
#X text 329 71 Reflection Time;
#X text 33 22 Creates an echo of the signal in (does not output the
signal in!);
#X obj 331 209 f 1000;
#X obj 28 125 r~ \$0-echo_b2;
#X obj 28 264 s~ \$0-echo_b2;
#X obj 112 226 delread~ \$0-echo_a2 1000;
#X obj 112 184 delwrite~ \$0-echo_a2 1000;
#X connect 0 0 4 0;
#X connect 1 0 2 0;
#X connect 2 0 17 0;
#X connect 3 0 2 1;
#X connect 4 0 3 0;
#X connect 6 0 3 1;
#X connect 10 0 13 0;
#X connect 13 0 16 0;
#X connect 14 0 2 0;
#X connect 16 0 5 0;
#X connect 16 0 15 0;
#X restore 151 210 pd echo_chamber2;
#N canvas 0 50 450 300 echo_chamber1 0;
#X obj 172 88 inlet;
#X obj 112 88 inlet~;
#X obj 111 160 *~ 0.5;
#X obj 172 135 * 0.5;
#X obj 172 113 tgl 15 0 empty empty empty 17 7 0 10 #fcfcfc #000000
#000000 0 1;
#X obj 111 305 outlet~;
#X obj 231 88 inlet;
#X text 171 71 On/Off;
#X text 94 71 Signal in;
#X text 229 71 Echo Magnitude;
#X text 33 22 Creates an echo of the signal in (does not output the
signal in!);
#X obj 341 88 inlet;
#X text 339 71 Reflection Time;
#X obj 341 209 f 1000;
#X obj 28 264 s~ \$0-echo_b;
#X obj 28 125 r~ \$0-echo_b;
#X obj 112 184 delwrite~ \$0-echo_a 1000;
#X obj 112 226 delread~ \$0-echo_a 1000;
#X connect 0 0 4 0;
#X connect 1 0 2 0;
#X connect 2 0 16 0;
#X connect 3 0 2 1;
#X connect 4 0 3 0;
#X connect 6 0 3 1;
#X connect 11 0 13 0;
#X connect 13 0 17 0;
#X connect 15 0 2 0;
#X connect 17 0 5 0;
#X connect 17 0 14 0;
#X restore 31 210 pd echo_chamber1;
#X obj 172 54 r echo_x;
#X obj 203 74 r echo_percent;
#X obj 244 94 r echo_ms;
#X obj 203 95 t f f;
#N canvas 337 827 450 300 onOff 0;
#X obj 52 73 inlet;
#X obj 54 168 outlet;
#X obj 50 106 sel 0;
#X msg 50 127 0;
#X msg 80 127 1;
#X connect 0 0 2 0;
#X connect 2 0 3 0;
#X connect 2 1 4 0;
#X connect 3 0 1 0;
#X connect 4 0 1 0;
#X restore 285 180 pd onOff;
#X connect 0 0 8 1;
#X connect 0 0 7 1;
#X connect 1 0 8 2;
#X connect 1 0 7 2;
#X connect 2 0 4 0;
#X connect 2 0 8 0;
#X connect 3 0 5 0;
#X connect 3 0 7 0;
#X connect 7 0 5 0;
#X connect 8 0 4 0;
#X connect 9 0 0 0;
#X connect 10 0 12 0;
#X connect 11 0 7 3;
#X connect 11 0 8 3;
#X connect 12 0 13 0;
#X connect 12 1 1 0;
#X connect 13 0 0 0;
#X restore 1014 269 pd echo_stereo;
#X text 1043 416 Speaker output;
#X text 1106 269 Echoes;
#X obj 1014 342 *~ 1;
#X obj 1095 342 *~ 1;
#X obj 1035 318 r vol_to_synth;
#X obj 1038 393 s rms_amplitude;
#X obj 1038 370 env~ 2048 128;
#X obj 93 325 s filter_freq_persist;
#X obj 99 332 s filter_mag_persist;
#X obj 339 210 vsl 15 201 0 100 0 0 empty rms_vis empty 0 -9 0 10 #fc90fc
#000000 #000000 0 1;
#X obj 1014 218 pan_pingpong~;
#N canvas 1813 758 521 399 pingpong_control 0;
#X obj 133 303 outlet~;
#X obj 202 303 outlet;
#X obj 224 34 r bar_start;
#X obj 202 278 r pingpong_percent;
#X obj 134 278 -~;
#X obj 38 11 r bpm_from_DAW;
#X obj 150 11 r numerator_from_DAW;
#X obj 38 34 bpmtoms;
#X obj 150 34 t b f;
#X msg 224 55 0;
#X obj 39 84 r daw_playing;
#X obj 150 81 / 1;
#X obj 38 54 ratio 1000;
#X obj 235 84 r pingpong_speed;
#X obj 150 138 * 1;
#X obj 235 107 t b f;
#X obj 150 113 f;
#X obj 225 162 r dawOffset;
#X obj 150 204 curvor~;
#X obj 216 143 r dawSynchCurve;
#X obj 39 105 sel 0;
#X floatatom 39 126 5 0 0 0 - - - 0;
#X obj 134 257 sig~ 0;
#X connect 2 0 9 0;
#X connect 3 0 1 0;
#X connect 4 0 0 0;
#X connect 5 0 7 0;
#X connect 6 0 8 0;
#X connect 7 0 12 0;
#X connect 8 0 11 0;
#X connect 8 1 11 1;
#X connect 9 0 18 1;
#X connect 10 0 20 0;
#X connect 11 0 16 0;
#X connect 12 0 11 0;
#X connect 13 0 15 0;
#X connect 14 0 18 0;
#X connect 15 0 16 0;
#X connect 15 1 14 1;
#X connect 16 0 14 0;
#X connect 17 0 18 3;
#X connect 18 0 4 1;
#X connect 19 0 18 2;
#X connect 20 0 21 0;
#X connect 21 0 18 0;
#X connect 22 0 4 0;
#X restore 1127 184 pd pingpong_control;
#X obj 138 235 hsl 190 15 0 100 0 1 pingpong_percent daw_autopan DAW_synched_panning_%
30 7 0 10 #c4fcfc #000000 #000000 0 1;
#X obj 135 250 hradio 15 1 0 13 pingpong_speed_r daw_autopan_speed
Frequency 9 7 0 10 #fcfcfc #000000 #000000 0;
#N canvas 1041 286 742 695 midi_in_core 0;
#X obj 453 339 notein, f 12;
#X obj 116 133 poly 12 1, f 11;
#X msg 371 494 stop;
#X obj 165 181 t f f;
#N canvas 1462 445 450 300 midi_wip 0;
#X obj 117 84 pgmin;
#X floatatom 149 111 0 0 0 0 - - - 0;
#X floatatom 117 111 0 0 0 0 - - - 0;
#X floatatom 80 112 0 0 0 0 - - - 0;
#X floatatom 34 112 5 0 0 0 - - - 0;
#X floatatom 234 111 0 0 0 0 - - - 0;
#X floatatom 188 111 0 0 0 0 - - - 0;
#X floatatom 304 132 0 0 0 0 - - - 0;
#X floatatom 267 153 0 0 0 0 - - - 0;
#X floatatom 341 109 2 0 0 0 - - - 0;
#X text 111 44 program change, f 7;
#X text 39 44 pitch bend, f 5;
#X obj 188 84 touchin;
#X obj 267 82 polytouchin;
#X text 360 110 channel;
#X text 181 44 channel aftertouch, f 10;
#X text 268 39 polyphonic aftertouch, f 10;
#X text 298 155 aftertouch value;
#X text 333 134 note;
#X obj 34 84 bendin, f 7;
#X text 89 85 *;
#X text 59 184 * Known bug: [bendin] and [bendout] are inconsistent.
While [bendin] outputs values from 0 to 16383 \, [bendout] takes values
from -8192 to 8191 - this won't change.;
#X obj 117 148 bng 15 250 50 0 empty empty empty 17 7 0 10 #fcfcfc
#000000 #000000;
#X obj 149 153 bng 15 250 50 0 empty empty empty 17 7 0 10 #fcfcfc
#000000 #000000;
#X connect 0 0 2 0;
#X connect 0 1 1 0;
#X connect 1 0 23 0;
#X connect 2 0 22 0;
#X connect 12 0 6 0;
#X connect 12 1 5 0;
#X connect 13 0 8 0;
#X connect 13 1 7 0;
#X connect 13 2 9 0;
#X connect 19 0 4 0;
#X connect 19 1 3 0;
#X restore 151 12 pd midi_wip;
#X obj 371 472 r stopPoly;
#X obj 116 157 - 1;
#X obj 274 181 t f f;
#X obj 301 258 s velocity_to_synth;
#X obj 487 429 s velocity_through;
#X obj 165 284 s mid_note_dis;
#X obj 274 284 s mid_velocity_dis;
#X obj 559 385 s channel_through;
#X obj 532 365 t f f;
#X obj 532 407 s mid_channel_dis;
#X obj 192 210 t f f;
#X obj 219 235 s note_select;
#X obj 192 258 s note_out_v;
#X text 4 133 voice \, pitch \, vel.;
#X obj 453 530 outlet;
#X obj 453 498 pack f f;
#X obj 487 365 t f f;
#X connect 0 0 20 0;
#X connect 0 1 21 0;
#X connect 0 2 13 0;
#X connect 1 0 6 0;
#X connect 1 2 7 0;
#X connect 2 0 19 0;
#X connect 3 0 10 0;
#X connect 3 1 15 0;
#X connect 5 0 2 0;
#X connect 7 0 11 0;
#X connect 7 1 8 0;
#X connect 13 0 14 0;
#X connect 13 1 12 0;
#X connect 15 0 17 0;
#X connect 15 1 16 0;
#X connect 20 0 19 0;
#X connect 21 0 9 0;
#X connect 21 1 20 1;
#X restore 992 123 pd midi_in_core;
#N canvas 1201 326 1057 661 receiver_core 0;
#X obj 644 591 / 100;
#N canvas 658 124 1245 972 ADSR_SIGNALS 0;
#X obj 103 843 outlet;
#X obj 153 843 outlet;
#X obj 203 843 outlet;
#X obj 253 843 outlet;
#X obj 665 427 cnv 15 450 200 empty empty empty 20 12 0 14 #e0e0e0
#404040 0;
#X obj 707 477 receive load;
#X text 707 450 Loads the internal value, f 15;
#X obj 707 579 value Attack;
#X obj 707 498 route Attack Decay Sustain Release;
#X obj 787 579 value Decay;
#X obj 861 579 value Sustain;
#X obj 948 579 value Release;
#X obj 707 538 t b f;
#X obj 787 538 t b f;
#X obj 861 538 t b f;
#X obj 948 538 t b f;
#X text 897 457 This block might be useless...;
#X obj 239 307 unpack f f f f;
#X text 260 291 ADSR in;
#X obj 239 210 inlet;
#X obj 798 64 r Attack;
#X obj 817 80 r Decay;
#X obj 839 96 r Sustain;
#X obj 864 112 r Release;
#X obj 580 70 r \$0-Attack;
#X obj 589 86 r \$0-Decay;
#X obj 601 102 r \$0-Sustain;
#X obj 616 118 r \$0-Release;
#N canvas 1627 652 517 300 receive_save 0;
#X obj 21 26 cnv 15 450 200 empty empty empty 20 12 0 14 #e0e0e0 #404040
0;
#X obj 60 61 receive save;
#X text 60 34 Saves the internal value, f 15;
#X obj 360 129 value Attack;
#X msg 360 150 save Attack \$1;
#X obj 60 98 t b b b b;
#X obj 267 129 value Decay;
#X msg 267 150 save Decay \$1;
#X obj 159 129 value Sustain;
#X msg 159 150 save Sustain \$1;
#X obj 52 129 value Release;
#X msg 52 150 save Release \$1;
#X text 260 62 This block might be useless...;
#X obj 52 201 outlet;
#X connect 1 0 5 0;
#X connect 3 0 4 0;
#X connect 4 0 13 0;
#X connect 5 0 10 0;
#X connect 5 1 8 0;
#X connect 5 2 6 0;
#X connect 5 3 3 0;
#X connect 6 0 7 0;
#X connect 7 0 13 0;
#X connect 8 0 9 0;
#X connect 9 0 13 0;
#X connect 10 0 11 0;
#X connect 11 0 13 0;
#X restore 968 476 pd receive_save;
#X obj 968 502 send camomile;
#X text 1056 501 uncoupled for now;
#X connect 5 0 8 0;
#X connect 7 0 0 0;
#X connect 8 0 12 0;
#X connect 8 1 13 0;
#X connect 8 2 14 0;
#X connect 8 3 15 0;
#X connect 9 0 1 0;
#X connect 10 0 2 0;
#X connect 11 0 3 0;
#X connect 12 0 7 0;
#X connect 12 1 7 0;
#X connect 13 0 9 0;
#X connect 13 1 9 0;
#X connect 14 0 10 0;
#X connect 14 1 10 0;
#X connect 15 0 11 0;
#X connect 15 1 11 0;
#X connect 17 0 0 0;
#X connect 17 1 1 0;
#X connect 17 2 2 0;
#X connect 17 3 3 0;
#X connect 19 0 17 0;
#X connect 20 0 0 0;
#X connect 21 0 1 0;
#X connect 22 0 2 0;
#X connect 23 0 3 0;
#X connect 24 0 0 0;
#X connect 25 0 1 0;
#X connect 26 0 2 0;
#X connect 27 0 3 0;
#X restore 742 619 pd ADSR_SIGNALS;
#X f 16;
#X msg 760 595 10 80 0.1 50;
#X obj 644 620 s vol_from_daw;
#X floatatom 312 443 5 0 0 0 - - - 0;
#X obj 360 27 loadbang;
#N canvas 708 587 1447 602 waveshaper_setting_receiving 0;
#X obj 169 40 inlet;
#X obj 778 450 outlet;
#X obj 169 74 unpack f f;
#X obj 823 30 inlet;
#X obj 169 97 - 0;
#X obj 169 120 pack f f;
#X text 861 31 Offset;
#X obj 823 450 outlet;
#X obj 169 146 route 0 1 2 3 4 5 6 7 8 9 10 11 12 13 14 15 16 17 18
19 20 21 22 23, f 91;
#X obj 169 334 unpack f f;
#X obj 169 357 - 0;
#X obj 169 380 pack f f;
#X obj 169 412 route 0 1 2 3 4 5 6 7 8 9 10 11 12 13 14 15 16 17 18
19 20 21 22 23 24 25 26, f 102;
#X obj 169 206 s w_00_from_DAW;
#X obj 189 226 s w_01_from_DAW;
#X obj 209 246 s w_02_from_DAW;
#X obj 229 266 s w_03_from_DAW;
#X obj 249 286 s w_04_from_DAW;
#X obj 269 306 s w_05_from_DAW;
#X obj 304 206 s w_06_from_DAW;
#X obj 325 226 s w_07_from_DAW;
#X obj 345 246 s w_08_from_DAW;
#X obj 365 266 s w_09_from_DAW;
#X obj 385 286 s w_10_from_DAW;
#X obj 405 306 s w_11_from_DAW;
#X obj 440 206 s w_12_from_DAW;
#X obj 460 226 s w_13_from_DAW;
#X obj 480 246 s w_14_from_DAW;
#X obj 500 266 s w_15_from_DAW;
#X obj 520 286 s w_16_from_DAW;
#X obj 540 306 s w_17_from_DAW;
#X obj 576 206 s w_18_from_DAW;
#X obj 596 226 s w_19_from_DAW;
#X obj 616 246 s w_20_from_DAW;
#X obj 636 266 s w_21_from_DAW;
#X obj 656 286 s w_22_from_DAW;
#X obj 676 306 s w_23_from_DAW;
#X obj 169 456 s s_00_from_DAW;
#X obj 189 476 s s_01_from_DAW;
#X obj 209 496 s s_02_from_DAW;
#X obj 229 516 s s_03_from_DAW;
#X obj 249 536 s s_04_from_DAW;
#X obj 269 556 s s_05_from_DAW;
#X obj 304 456 s s_06_from_DAW;
#X obj 325 476 s s_07_from_DAW;
#X obj 345 496 s s_08_from_DAW;
#X obj 365 516 s s_09_from_DAW;
#X obj 385 536 s s_10_from_DAW;
#X obj 404 556 s s_11_from_DAW;
#X obj 440 456 s s_12_from_DAW;
#X obj 460 476 s s_13_from_DAW;
#X obj 480 496 s s_14_from_DAW;
#X obj 500 516 s s_15_from_DAW;
#X obj 520 536 s s_16_from_DAW;
#X obj 541 556 s s_17_from_DAW;
#X obj 576 456 s s_18_from_DAW;
#X obj 597 476 s s_19_from_DAW;
#X obj 616 496 s s_20_from_DAW;
#X obj 636 516 s s_21_from_DAW;
#X obj 656 536 s s_22_from_DAW;
#X obj 677 556 s s_23_from_DAW;
#X obj 711 470 s sine_half_0_from_DAW;
#X obj 731 494 s sine_half_1_from_DAW;
#X obj 755 520 s sine_seq_from_DAW;
#X msg 823 112 24;
#X obj 823 53 t b f;
#X obj 823 162 t b f;
#X msg 823 232 27;
#X connect 0 0 2 0;
#X connect 2 0 4 0;
#X connect 2 1 5 1;
#X connect 3 0 65 0;
#X connect 4 0 5 0;
#X connect 5 0 8 0;
#X connect 8 0 13 0;
#X connect 8 1 14 0;
#X connect 8 2 15 0;
#X connect 8 3 16 0;
#X connect 8 4 17 0;
#X connect 8 5 18 0;
#X connect 8 6 19 0;
#X connect 8 7 20 0;
#X connect 8 8 21 0;
#X connect 8 9 22 0;
#X connect 8 10 23 0;
#X connect 8 11 24 0;
#X connect 8 12 25 0;
#X connect 8 13 26 0;
#X connect 8 14 27 0;
#X connect 8 15 28 0;
#X connect 8 16 29 0;
#X connect 8 17 30 0;
#X connect 8 18 31 0;
#X connect 8 19 32 0;
#X connect 8 20 33 0;
#X connect 8 21 34 0;
#X connect 8 22 35 0;
#X connect 8 23 36 0;
#X connect 8 24 9 0;
#X connect 9 0 10 0;
#X connect 9 1 11 1;
#X connect 10 0 11 0;
#X connect 11 0 12 0;
#X connect 12 0 37 0;
#X connect 12 1 38 0;
#X connect 12 2 39 0;
#X connect 12 3 40 0;
#X connect 12 4 41 0;
#X connect 12 5 42 0;
#X connect 12 6 43 0;
#X connect 12 7 44 0;
#X connect 12 8 45 0;
#X connect 12 9 46 0;
#X connect 12 10 47 0;
#X connect 12 11 48 0;
#X connect 12 12 49 0;
#X connect 12 13 50 0;
#X connect 12 14 51 0;
#X connect 12 15 52 0;
#X connect 12 16 53 0;
#X connect 12 17 54 0;
#X connect 12 18 55 0;
#X connect 12 19 56 0;
#X connect 12 20 57 0;
#X connect 12 21 58 0;
#X connect 12 22 59 0;
#X connect 12 23 60 0;
#X connect 12 24 61 0;
#X connect 12 25 62 0;
#X connect 12 26 63 0;
#X connect 12 27 1 0;
#X connect 64 0 66 0;
#X connect 65 0 64 0;
#X connect 65 1 4 1;
#X connect 66 0 67 0;
#X connect 66 1 10 1;
#X connect 67 0 7 0;
#X restore 147 171 pd waveshaper_setting_receiving;
#N canvas 796 705 1430 456 filter_and_echo_setting_receiving 0;
#X obj 437 16 inlet;
#X obj 572 186 outlet;
#X obj 552 211 s daw_echo_x;
#X obj 552 231 s daw_echo_percent;
#X obj 552 251 s daw_echo_ms;
#X obj 437 211 s daw_filter_x;
#X obj 437 231 s daw_filter_freq;
#X obj 437 251 s daw_filter_mag;
#X obj 359 118 loadbang;
#X obj 299 118 loadbang;
#X msg 299 139 440;
#X obj 437 50 unpack f f;
#X obj 513 16 inlet;
#X obj 437 73 - 0;
#X obj 437 96 pack f f;
#X text 551 17 Offset;
#X obj 631 186 outlet;
#X msg 359 138 2;
#X obj 437 162 route 0 1 2 3 4 5, f 23;
#X msg 614 97 6;
#X obj 513 39 t b f;
#X connect 0 0 11 0;
#X connect 8 0 17 0;
#X connect 9 0 10 0;
#X connect 11 0 13 0;
#X connect 11 1 14 1;
#X connect 12 0 20 0;
#X connect 13 0 14 0;
#X connect 14 0 18 0;
#X connect 18 0 5 0;
#X connect 18 1 6 0;
#X connect 18 2 7 0;
#X connect 18 3 2 0;
#X connect 18 4 3 0;
#X connect 18 5 4 0;
#X connect 18 6 1 0;
#X connect 19 0 16 0;
#X connect 20 0 19 0;
#X connect 20 1 13 1;
#X restore 147 282 pd filter_and_echo_setting_receiving;
#N canvas 1354 776 770 421 panning_setting_receiving 0;
#X obj 59 27 inlet;
#X obj 158 183 outlet;
#X obj 59 198 s daw_autopan;
#X obj 75 218 s daw_autopan_speed;
#X obj 92 248 s daw_sidechain;
#X obj 108 268 s daw_sidechain_speed;
#X obj 125 300 s daw_dawOffset;
#X obj 141 320 s daw_dawSynchCurve;
#X obj 59 149 route 0 1 2 3 4 5;
#X obj 59 61 unpack f f;
#X obj 135 27 inlet;
#X obj 59 84 - 0;
#X obj 59 107 pack f f;
#X text 173 28 Offset;
#X obj 225 183 outlet;
#X msg 204 91 6;
#X obj 135 50 t b f;
#X connect 0 0 9 0;
#X connect 8 0 2 0;
#X connect 8 1 3 0;
#X connect 8 2 4 0;
#X connect 8 3 5 0;
#X connect 8 4 6 0;
#X connect 8 5 7 0;
#X connect 8 6 1 0;
#X connect 9 0 11 0;
#X connect 9 1 12 1;
#X connect 10 0 16 0;
#X connect 11 0 12 0;
#X connect 12 0 8 0;
#X connect 15 0 14 0;
#X connect 16 0 15 0;
#X connect 16 1 11 1;
#X restore 147 361 pd panning_setting_receiving;
#N canvas 1043 682 1297 509 envelope_setting_receiving 0;
#X obj 170 66 inlet;
#X obj 335 236 outlet;
#X obj 170 100 unpack f f;
#X obj 246 66 inlet;
#X obj 170 123 - 0;
#X obj 170 146 pack f f;
#X text 284 67 Offset;
#X obj 394 236 outlet;
#X obj 170 212 route 0 1 2 3 4 5 6 7 8 9 10;
#X obj 95 358 s attack_from_DAW;
#X obj 105 378 s decay_from_DAW;
#X obj 115 398 s sustain_from_DAW;
#X obj 125 418 s release_from_DAW;
#X obj 230 358 s attack_T_from_DAW;
#X obj 245 378 s decay_T_from_DAW;
#X obj 260 418 s release_T_from_DAW;
#X obj 375 358 s attack_V_from_DAW;
#X obj 405 378 s decay_V_from_DAW;
#X obj 435 398 s sustain_V_from_DAW;
#X obj 465 418 s release_V_from_DAW;
#X msg 260 136 11;
#X obj 246 89 t b f;
#X connect 0 0 2 0;
#X connect 2 0 4 0;
#X connect 2 1 5 1;
#X connect 3 0 21 0;
#X connect 4 0 5 0;
#X connect 5 0 8 0;
#X connect 8 0 9 0;
#X connect 8 1 10 0;
#X connect 8 2 11 0;
#X connect 8 3 12 0;
#X connect 8 4 13 0;
#X connect 8 5 14 0;
#X connect 8 6 15 0;
#X connect 8 7 16 0;
#X connect 8 8 17 0;
#X connect 8 9 18 0;
#X connect 8 10 19 0;
#X connect 8 11 1 0;
#X connect 20 0 7 0;
#X connect 21 0 20 0;
#X connect 21 1 4 1;
#X restore 147 127 pd envelope_setting_receiving;
#N canvas 1137 713 1297 509 tuning_setting_receiving 0;
#X obj 170 66 inlet;
#X obj 335 236 outlet;
#X obj 170 100 unpack f f;
#X obj 246 66 inlet;
#X obj 170 123 - 0;
#X obj 170 146 pack f f;
#X text 284 67 Offset;
#X obj 394 236 outlet;
#X obj 170 212 route 0 1 2 3 4, f 28;
#X obj 269 270 s course_from_DAW;
#X obj 302 291 s fine_from_DAW;
#X obj 170 291 s fun_from_DAW;
#X obj 203 317 s freq_attack_from_DAW;
#X obj 236 348 s tpo_from_DAW;
#X msg 246 135 5;
#X obj 246 89 t b f;
#X connect 0 0 2 0;
#X connect 2 0 4 0;
#X connect 2 1 5 1;
#X connect 3 0 15 0;
#X connect 4 0 5 0;
#X connect 5 0 8 0;
#X connect 8 0 11 0;
#X connect 8 1 12 0;
#X connect 8 2 13 0;
#X connect 8 3 9 0;
#X connect 8 4 10 0;
#X connect 8 5 1 0;
#X connect 14 0 7 0;
#X connect 15 0 14 0;
#X connect 15 1 4 1;
#X restore 147 70 pd tuning_setting_receiving;
#N canvas 1050 505 1297 509 modulation_setting_receiving 0;
#X obj 170 66 inlet;
#X obj 335 236 outlet;
#X obj 170 100 unpack f f;
#X obj 246 66 inlet;
#X obj 170 123 - 0;
#X obj 170 146 pack f f;
#X text 284 67 Offset;
#X obj 394 236 outlet;
#X obj 170 212 route 0 1, f 28;
#X obj 170 249 s modulation_from_DAW;
#X obj 252 279 s modulation_attack_from_DAW;
#X msg 309 153 2;
#X obj 246 89 t b f;
#X connect 0 0 2 0;
#X connect 2 0 4 0;
#X connect 2 1 5 1;
#X connect 3 0 12 0;
#X connect 4 0 5 0;
#X connect 5 0 8 0;
#X connect 8 0 9 0;
#X connect 8 1 10 0;
#X connect 8 2 1 0;
#X connect 11 0 7 0;
#X connect 12 0 11 0;
#X connect 12 1 4 1;
#X restore 147 243 pd modulation_setting_receiving;
#X text 659 557 Old stuff:;
#X obj 147 454 unpack f f;
#X text 138 499 Probably print out if these get triggered by anything...
;
#X floatatom 147 477 5 0 0 0 - - - 0;
#X floatatom 204 477 5 0 0 0 - - - 0;
#X msg 360 52 1;
#X obj 312 387 - 6;
#X text 505 84 We seem to be reducing the index of the values we're
passing through... bad design?;
#X text 351 445 should be 0;
#X msg 537 154 6 22;
#X text 574 154 Attack;
#X msg 535 180 17 1;
#X text 570 181 Phase;
#X msg 541 258 41 1;
#X text 577 258 SinePartial 1;
#X msg 542 350 68 1;
#X text 579 350 Modulation;
#X msg 544 382 70 2;
#X text 579 382 Filter select;
#X msg 540 234 40 \$1;
#X obj 539 215 tgl 15 0 empty empty empty 17 7 0 10 #fcfcfc #000000
#000000 0 1;
#X text 579 234 remove DC;
#X obj 540 300 hradio 15 1 0 8 empty empty empty 0 -8 0 10 #fcfcfc
#000000 #000000 0;
#X msg 540 324 67 \$1;
#X text 582 326 Sine Seq;
#X msg 538 125 3 12;
#X text 572 127 TpO;
#X msg 626 153 9 120;
#X text 671 154 Release;
#X obj 147 26 param.get.multi 81 camo_multi;
#X connect 0 0 3 0;
#X connect 2 0 1 0;
#X connect 5 0 17 0;
#X connect 6 0 11 0;
#X connect 6 1 11 1;
#X connect 7 0 8 0;
#X connect 7 1 8 1;
#X connect 8 0 13 0;
#X connect 8 1 18 0;
#X connect 9 0 6 0;
#X connect 9 1 6 1;
#X connect 10 0 9 0;
#X connect 10 1 9 1;
#X connect 11 0 7 0;
#X connect 11 1 7 1;
#X connect 13 0 15 0;
#X connect 13 1 16 0;
#X connect 17 0 10 1;
#X connect 18 0 4 0;
#X connect 21 0 10 0;
#X connect 23 0 10 0;
#X connect 25 0 10 0;
#X connect 27 0 10 0;
#X connect 29 0 10 0;
#X connect 31 0 10 0;
#X connect 32 0 31 0;
#X connect 34 0 35 0;
#X connect 35 0 10 0;
#X connect 37 0 10 0;
#X connect 39 0 10 0;
#X connect 41 0 10 0;
#X restore 975 33 pd receiver_core;
#N canvas 1286 1055 361 241 bp_node 0;
#X obj 82 118 bp_control;
#X obj 72 144 s filter_freq;
#X obj 159 144 s filter_mag;
#X obj 81 85 inlet;
#X obj 141 85 inlet;
#X connect 0 0 1 0;
#X connect 0 1 2 0;
#X connect 3 0 0 0;
#X connect 4 0 0 1;
#X restore 159 314 pd bp_node;
#N canvas 1118 925 353 243 be_quiet 0;
#X obj 94 106 s stopPoly;
#X msg 67 106 0;
#X obj 67 140 s vol_from_daw;
#X obj 67 63 r be_quiet;
#X connect 1 0 2 0;
#X connect 3 0 1 0;
#X connect 3 0 0 0;
#X restore 1128 318 pd be_quiet;
#X obj 138 269 hsl 190 15 0 100 0 1 sidechain_percent daw_sidechain
DAW_synched_volume_% 30 7 0 10 #c4fcfc #000000 #000000 0 1;
#X obj 135 284 hradio 15 1 0 13 sidechain_speed_r daw_sidechain_speed
Frequency 9 7 0 10 #fcfcfc #000000 #000000 0;
#N canvas 1913 861 521 421 sidechain_and_control 0;
#N canvas 1480 858 536 367 sidechaining 0;
#X obj 63 37 inlet~;
#X obj 163 37 inlet~;
#X obj 267 37 inlet;
#X text 62 21 L;
#X text 164 21 R;
#X text 267 21 %;
#X obj 63 228 outlet~;
#X obj 163 228 outlet~;
#X text 216 21 Phase;
#X obj 218 37 inlet~;
#X obj 202 124 sig~ 1;
#X obj 202 155 -~;
#X obj 163 188 *~;
#X obj 79 124 sig~ 1;
#X obj 79 155 -~;
#X obj 63 188 *~;
#X obj 218 89 *~ 0;
#X obj 267 58 / 200;
#X obj 218 58 +~ 1;
#X text 304 59 2 to wrap phase;
#X connect 0 0 15 0;
#X connect 1 0 12 0;
#X connect 2 0 17 0;
#X connect 9 0 18 0;
#X connect 10 0 11 0;
#X connect 11 0 12 1;
#X connect 12 0 7 0;
#X connect 13 0 14 0;
#X connect 14 0 15 1;
#X connect 15 0 6 0;
#X connect 16 0 11 1;
#X connect 16 0 14 1;
#X connect 17 0 16 1;
#X connect 18 0 16 0;
#X restore 51 357 pd sidechaining;
#X obj 336 40 r bar_start;
#X obj 246 294 -~;
#X obj 246 273 sig~ 1;
#X obj 150 17 r bpm_from_DAW;
#X obj 262 17 r numerator_from_DAW;
#X obj 150 40 bpmtoms;
#X obj 262 40 t b f;
#X msg 336 61 0;
#X obj 151 90 r daw_playing;
#X obj 262 87 / 1;
#X obj 150 60 ratio 1000;
#X obj 262 144 * 1;
#X obj 347 113 t b f;
#X obj 262 119 f;
#X obj 168 343 r sidechain_percent;
#X obj 51 381 outlet~;
#X obj 137 381 outlet~;
#X obj 52 17 inlet~;
#X obj 81 17 inlet~;
#X obj 347 90 r sidechain_speed;
#X obj 327 174 r dawOffset;
#X obj 262 200 curvor~;
#X obj 314 154 r dawSynchCurve;
#X obj 151 111 sel 0;
#X floatatom 151 132 5 0 0 0 - - - 0;
#X connect 0 0 16 0;
#X connect 0 1 17 0;
#X connect 1 0 8 0;
#X connect 2 0 0 2;
#X connect 3 0 2 0;
#X connect 4 0 6 0;
#X connect 5 0 7 0;
#X connect 6 0 11 0;
#X connect 7 0 10 0;
#X connect 7 1 10 1;
#X connect 8 0 22 1;
#X connect 9 0 24 0;
#X connect 10 0 14 0;
#X connect 11 0 10 0;
#X connect 12 0 22 0;
#X connect 13 0 14 0;
#X connect 13 1 12 1;
#X connect 14 0 12 0;
#X connect 15 0 0 3;
#X connect 18 0 0 0;
#X connect 19 0 0 1;
#X connect 20 0 13 0;
#X connect 21 0 22 3;
#X connect 22 0 2 1;
#X connect 23 0 22 2;
#X connect 24 0 25 0;
#X connect 25 0 22 0;
#X restore 1014 244 pd sidechain_and_control;
#X obj 12 205 hsl 121 15 0 1 0 0 dawOffset daw_dawOffset Synch_Phase
18 7 0 10 #c4fccc #000000 #000000 0 1;
#X obj 290 205 bng 15 250 50 0 btn_1_2 empty 1/2 17 7 0 10 #fcfcfc
#000000 #000000;
#X obj 208 205 bng 15 250 50 0 btn_1_4 empty 1/4 17 7 0 10 #fcfcfc
#000000 #000000;
#X obj 168 205 bng 15 250 50 0 btn_1_8 empty 1/8 17 7 0 10 #fcfcfc
#000000 #000000;
#X obj 209 220 bng 15 250 50 0 btn_3_4 empty 3/4 17 7 0 10 #fcfcfc
#000000 #000000;
#X obj 250 205 bng 15 250 50 0 btn_3_8 empty 3/8 17 7 0 10 #fcfcfc
#000000 #000000;
#X obj 168 220 bng 15 250 50 0 btn_5_8 empty 5/8 17 7 0 10 #fcfcfc
#000000 #000000;
#X obj 250 220 bng 15 250 50 0 btn_7_8 empty 7/8 17 7 0 10 #fcfcfc
#000000 #000000;
#X obj 12 220 hsl 121 15 0 1 0 0 dawSynchCurve daw_dawSynchCurve Synch_Curve
18 7 0 10 #c4fccc #000000 #000000 0 1;
#X text 1165 244 AutoVol;
#X text 1098 218 AutoPan;
#X obj 6 19 tgl 15 0 empty daw_playing DAW_Playing 18 8 0 10 #fcfcfc
#000000 #000000 0 1;
#X obj 6 34 tgl 15 0 empty daw_recording DAW_Recording 18 8 0 10 #fcfcfc
#000000 #000000 0 1;
#X obj 6 49 tgl 15 0 empty daw_looping DAW_Looping 18 8 0 10 #fcfcfc
#000000 #000000 0 1;
#X floatatom 223 15 4 0 0 0 - numerator_from_DAW - 0;
#X floatatom 223 32 4 0 0 0 - denumerator_from_DAW - 0;
#X floatatom 95 9 7 0 0 0 - bpm_from_DAW - 0;
#X text 165 25 Time Sig.;
#X floatatom 58 124 4 0 0 0 - mid_channel_dis - 0;
#X text 12 124 Channel;
#X text 24 261 Note;
#X text 30 141 Note;
#N canvas 1564 701 450 300 canvas_control 0;
#N canvas 271 835 450 300 gui_resizer 0;
#X obj 6 29 r new_gui_size;
#X obj 116 29 r new_gui_width;
#X obj 236 29 r new_gui_height;
#X obj 158 72 t b f;
#X obj 116 129 t b a;
#X msg 116 209 gui resize;
#X obj 116 230 s camomile;
#X text 284 202 last two numbers are canvas offset;
#X text 284 187 \$1 and \$2 canvas width and height;
#X obj 116 104 pack 356 420;
#X msg 143 152 \; pd-Toneblock.pd donecanvasdialog 1 -1 1 0 1 1 1 \$1
\$2 0 0;
#X connect 0 0 4 0;
#X connect 1 0 9 0;
#X connect 2 0 3 0;
#X connect 3 0 9 0;
#X connect 3 1 9 1;
#X connect 4 0 5 0;
#X connect 4 1 10 0;
#X connect 5 0 6 0;
#X connect 9 0 4 0;
#X restore 79 177 pd gui_resizer;
#X obj 31 151 s new_gui_size;
#X obj 141 151 s new_gui_width;
#X obj 261 151 s new_gui_height;
#X obj 141 63 tgl 15 0 empty empty empty 17 7 0 10 #fcfcfc #000000
#000000 0 1;
#X obj 141 83 sel 0 1;
#X obj 141 41 r show_hide_waves;
#X msg 31 129 893 520;
#X obj 141 104 t b b;
#X obj 261 63 tgl 15 0 empty empty empty 17 7 0 10 #fcfcfc #000000
#000000 0 1;
#X obj 261 83 sel 0 1;
#X obj 261 41 r show_hide_waves_2;
#X msg 195 104 0;
#X msg 141 129 356;
#X msg 301 129 860;
#X msg 261 129 420;
#X msg 191 129 963;
#X obj 25 9 r minimaximize_ui_panel;
#X obj 25 36 tgl 15 0 empty empty empty 17 7 0 10 #fcfcfc #000000 #000000
0 1;
#X connect 4 0 5 0;
#X connect 5 0 8 0;
#X connect 5 1 16 0;
#X connect 6 0 4 0;
#X connect 7 0 1 0;
#X connect 8 0 13 0;
#X connect 8 1 12 0;
#X connect 9 0 10 0;
#X connect 10 0 15 0;
#X connect 10 1 14 0;
#X connect 11 0 9 0;
#X connect 12 0 9 0;
#X connect 13 0 2 0;
#X connect 14 0 3 0;
#X connect 15 0 3 0;
#X connect 16 0 2 0;
#X connect 17 0 18 0;
#X connect 18 0 4 0;
#X connect 18 0 9 0;
#X restore 1046 524 pd canvas_control;
#X obj 1109 10 text define -k \$0-programs;
#A set empty 10 80 0.1 50 92 2 0 0 0 0 5 2 1 10 2 440 1 0 0 500 0 4
0 4 0 0 1 1 0.25 0.25 -0.5 2 1 0.5 \; empty 1 80 0.2 80 60 2 0 0 0
2 5 2 0.4 3 2 440 40 0 0.625 300 0 4 0 4 0 0 1 1 0.25 0.25 -0.5 2 1
0.5 \;;
#X obj 1108 33 program.manager \$0-programs;
#N canvas 182 182 450 300 credits 0;
#X obj 31 80 cnv 15 170 110 empty empty empty 20 12 0 14 #c4fcc4 #404040
0;
#X obj 40 116 cnv 15 152 74 empty empty empty 20 12 0 14 #c4c4fc #404040
0;
#X text 50 118 Camomile by;
#X text 51 131 Pierre Guillot;
#X text 40 86 Pure Data by;
#X text 41 99 Miller Puckette;
#X obj 48 148 cnv 15 136 42 empty empty empty 20 12 0 14 #fcfcc4 #404040
0;
#X text 57 161 Koen Riksen;
#X text 56 148 ToneBlock by;
#X restore 1188 524 pd credits;
#X obj 1358 680 bng 15 250 50 0 show_hide_waves_2 empty empty 17 7
0 10 #fcfcfc #000000 #000000;
#X text 917 711 vvvv;
#X text 923 699 0 0;
#X text 1331 417 DAW settings are shared between instances so we should
use those for tone \, that way we can make sure multiple instances
sound good together;
#X obj 531 895 loadbang;
#X obj 8 429 wavebranch;
#X obj 668 895 r \$0-array_name_sines;
#X text 1374 679 Show/Hide WaveShaper;
#X obj 1498 680 bng 15 250 50 0 show_hide_waves_2 empty empty 17 7
0 10 #fcfcfc #000000 #000000;
#X msg 531 916 symbol Wave;
#N canvas 2736 676 1744 726 persister_core 0;
#X obj 75 470 * 100;
#X obj 75 446 r vol_persist;
#X obj 98 82 unpack f f;
#X obj 149 110 t f f;
#X obj 176 134 s \$0-param_change;
#X obj 98 135 pack f \$1;
#X text 164 81 param number;
#X text 40 82 new value;
#X obj 98 164 s \$0-param_set;
#X obj 199 349 s camomile;
#X msg 98 248 param set \$2 \$1;
#X obj 199 183 r \$0-param_change;
#N canvas 1796 736 304 393 param.change 0;
#X obj 55 43 r gui;
#X obj 55 65 route mouse;
#X msg 43 265 param change \$1 \$2;
#X obj 92 159 t b f, f 8;
#X obj 55 131 t b f, f 16;
#X obj 16 183 t b f;
#X msg 92 109 0;
#X msg 55 109 1;
#N canvas 0 23 156 140 once 0;
#X obj 15 84 t f b, f 8;
#X obj 78 84 f 0;
#X obj 15 19 inlet;
#X obj 60 19 inlet;
#X obj 15 106 outlet;
#X obj 60 41 f 1;
#X obj 15 62 spigot 0;
#X connect 0 0 4 0;
#X connect 0 1 1 0;
#X connect 1 0 6 1;
#X connect 2 0 6 0;
#X connect 3 0 5 0;
#X connect 5 0 6 1;
#X connect 6 0 0 0;
#X restore 16 159 pd once;
#N canvas 0 23 156 140 once 0;
#X obj 89 69 f 0;
#X obj 15 19 inlet;
#X obj 60 19 inlet;
#X obj 15 106 outlet;
#X obj 60 41 f 1;
#X obj 15 62 spigot 0;
#X obj 15 84 t b b, f 8;
#X connect 0 0 5 1;
#X connect 1 0 5 0;
#X connect 2 0 4 0;
#X connect 4 0 5 1;
#X connect 5 0 6 0;
#X connect 6 0 3 0;
#X connect 6 1 0 0;
#X restore 92 211 pd once;
#X obj 55 87 sel 1 0, f 13;
#X obj 16 18 inlet;
#X obj 43 289 outlet;
#X obj 43 242 pack f 1, f 18;
#X connect 0 0 1 0;
#X connect 1 0 10 0;
#X connect 2 0 12 0;
#X connect 3 0 9 0;
#X connect 3 1 13 1;
#X connect 4 0 8 1;
#X connect 4 1 13 1;
#X connect 5 0 9 1;
#X connect 5 1 13 0;
#X connect 6 0 3 0;
#X connect 7 0 4 0;
#X connect 8 0 5 0;
#X connect 9 0 13 0;
#X connect 10 0 7 0;
#X connect 10 1 6 0;
#X connect 11 0 8 0;
#X connect 13 0 2 0;
#X restore 199 237 pd param.change;
#X obj 98 217 r \$0-param_set;
#X obj 98 53 r \$0-param_persist_pair;
#X text 254 412 OLD below here;
#X obj 328 52 loadbang;
#N canvas -42 389 835 499 ADSR_persistence_stackable 0;
#N canvas 130 130 1258 849 ADSR_Setting_manager 0;
#X obj 51 129 pair 0;
#X obj 101 129 pair 1;
#X obj 151 129 pair 2;
#X obj 202 129 pair 3;
#X obj 252 129 pair 4;
#X obj 303 129 pair 5;
#X obj 353 129 pair 6;
#X obj 51 415 outlet;
#X obj 594 419 outlet;
#X obj 51 41 inlet;
#X obj 51 91 route a d s r at dt rt av dv sv rv, f 93;
#X obj 404 129 pair 7;
#X obj 454 129 pair 8;
#X obj 505 129 pair 9;
#X obj 555 129 pair 10;
#X connect 0 0 7 0;
#X connect 0 1 8 0;
#X connect 1 0 7 0;
#X connect 1 1 8 0;
#X connect 2 0 7 0;
#X connect 2 1 8 0;
#X connect 3 0 7 0;
#X connect 3 1 8 0;
#X connect 4 0 7 0;
#X connect 4 1 8 0;
#X connect 5 0 7 0;
#X connect 5 1 8 0;
#X connect 6 0 7 0;
#X connect 6 1 8 0;
#X connect 9 0 10 0;
#X connect 10 0 0 0;
#X connect 10 1 1 0;
#X connect 10 2 2 0;
#X connect 10 3 3 0;
#X connect 10 4 4 0;
#X connect 10 5 5 0;
#X connect 10 6 6 0;
#X connect 10 7 11 0;
#X connect 10 8 12 0;
#X connect 10 9 13 0;
#X connect 10 10 14 0;
#X connect 11 0 7 0;
#X connect 11 1 8 0;
#X connect 12 0 7 0;
#X connect 12 1 8 0;
#X connect 13 0 7 0;
#X connect 13 1 8 0;
#X connect 14 0 7 0;
#X connect 14 1 8 0;
#X restore 102 123 pd ADSR_Setting_manager;
#X obj 102 92 r adsr_to_synth;
#X obj 102 273 s \$0-param_persist_pair;
#X obj 102 205 pack f f;
#X text 177 179 Setting ID offset for persistence;
#X obj 518 159 t f f;
#X obj 147 178 +;
#X obj 518 182 + 11;
#X obj 518 43 inlet;
#X obj 518 322 outlet;
#X obj 147 153 clip 0 10;
#X obj 134 229 tgl 15 0 empty \$0-persistEnvelopeData empty 17 7 0
10 #fcfcfc #000000 #000000 0 1;
#X obj 102 244 spigot 0;
#X connect 0 0 3 0;
#X connect 0 1 10 0;
#X connect 1 0 0 0;
#X connect 3 0 12 0;
#X connect 5 0 7 0;
#X connect 5 1 6 1;
#X connect 6 0 3 1;
#X connect 7 0 9 0;
#X connect 8 0 5 0;
#X connect 10 0 6 0;
#X connect 11 0 12 1;
#X connect 12 0 2 0;
#X restore 328 137 pd ADSR_persistence_stackable;
#X text 384 549 ADSR;
#X obj 258 605 t b f;
#X obj 448 675 send camomile;
#X text 555 597 Sets the internal value, f 16;
#X text 549 654 Notifies the host that the internal value has changed
, f 17;
#X msg 448 654 program updated;
#X obj 346 605 t b f;
#X obj 285 626 value Attack;
#X obj 373 626 value Decay;
#X obj 426 605 t b f;
#X obj 516 605 t b f;
#X obj 453 626 value Sustain;
#X obj 543 626 value Release;
#X text 62 655 These probably update the presets \, may even write
to disk...;
#X floatatom 252 207 5 0 0 0 - - - 0;
#X text 649 297 Make sure there's also a change somewhere in the persist
chain so we don't repeat setting and/or getting;
#X text 628 267 Floatgrain on the pack inlets?? May be a good idea...
(NOT HERE \, BEFORE THEY GET SENT HERE);
#X text 393 64 The next open setting slot goes into each stage and
comes out incremented by the number of settings in that stage.;
#X obj 328 170 s waveform_persistence_slot;
#X obj 328 193 r post_waveform_persistence_slot;
#X floatatom 328 256 5 0 0 0 - - - 0;
#N canvas 889 527 847 456 Tuning_persistence_stackable 0;
#X obj 227 38 r tuning_one;
#X obj 311 38 r tuning_two;
#N canvas 1500 781 693 469 tuning_one_Setting_manager 0;
#X obj 70 36 inlet;
#X obj 53 167 pair 0;
#X obj 102 167 pair 1;
#X obj 151 167 pair 2;
#X obj 53 230 outlet;
#X obj 184 230 outlet;
#X obj 53 89 route fun slide tpo, f 25;
#X obj 53 131 change;
#X obj 102 131 change;
#X obj 151 131 change;
#X connect 0 0 6 0;
#X connect 1 0 4 0;
#X connect 1 1 5 0;
#X connect 2 0 4 0;
#X connect 2 1 5 0;
#X connect 3 0 4 0;
#X connect 3 1 5 0;
#X connect 6 0 7 0;
#X connect 6 1 8 0;
#X connect 6 2 9 0;
#X connect 7 0 1 0;
#X connect 8 0 2 0;
#X connect 9 0 3 0;
#X restore 227 68 pd tuning_one_Setting_manager;
#X obj 227 295 s \$0-param_persist_pair;
#X obj 227 228 pack f f;
#X text 302 202 Setting ID offset for persistence;
#X obj 573 183 t f f;
#X obj 272 201 +;
#X obj 573 14 inlet;
#X obj 573 305 outlet;
#X obj 573 212 + 5;
#X obj 35 66 t f f;
#X obj 62 89 s course;
#X obj 84 66 t f f;
#X obj 118 89 s fine_cents;
#X obj 129 38 r cents_select;
#X obj 35 38 r course_select;
#X obj 35 111 pair 3;
#X obj 84 111 pair 4;
#X obj 272 171 clip 0 4;
#X obj 259 255 tgl 15 0 empty \$0-persistTuningData empty 17 7 0 10
#fcfcfc #000000 #000000 0 1;
#X obj 227 270 spigot 0;
#X connect 0 0 2 0;
#X connect 2 0 4 0;
#X connect 2 1 19 0;
#X connect 4 0 21 0;
#X connect 6 0 10 0;
#X connect 6 1 7 1;
#X connect 7 0 4 1;
#X connect 8 0 6 0;
#X connect 10 0 9 0;
#X connect 11 0 17 0;
#X connect 11 1 12 0;
#X connect 13 0 18 0;
#X connect 13 1 14 0;
#X connect 15 0 13 0;
#X connect 16 0 11 0;
#X connect 17 0 4 0;
#X connect 17 1 19 0;
#X connect 18 0 4 0;
#X connect 18 1 19 0;
#X connect 19 0 7 0;
#X connect 20 0 21 1;
#X connect 21 0 3 0;
#X restore 328 106 pd Tuning_persistence_stackable;
#N canvas 992 325 1227 487 effects_persistence_stackable 0;
#X obj 102 282 s \$0-param_persist_pair;
#X obj 102 205 pack f f;
#X text 177 179 Setting ID offset for persistence;
#X obj 518 159 t f f;
#X obj 147 178 +;
#X obj 518 43 inlet;
#X obj 518 322 outlet;
#N canvas 2751 766 1258 849 effects_Setting_manager 0;
#X obj 51 129 pair 0;
#X obj 101 129 pair 1;
#X obj 151 129 pair 2;
#X obj 202 129 pair 3;
#X obj 252 129 pair 4;
#X obj 303 129 pair 5;
#X obj 353 129 pair 6;
#X obj 51 415 outlet;
#X obj 754 419 outlet;
#X obj 404 129 pair 7;
#X obj 454 129 pair 8;
#X obj 505 129 pair 9;
#X obj 555 129 pair 10;
#X obj 343 55 r echo_x;
#X obj 353 75 r echo_percent;
#X obj 363 95 r echo_ms;
#X obj 192 14 r filter_x_persist;
#X obj 202 34 r filter_freq_persist;
#X obj 212 54 r filter_mag_persist;
#X obj 485 13 r pingpong_speed_r;
#X obj 453 33 r pingpong_percent;
#X obj 587 48 r sidechain_speed_r;
#X obj 555 68 r sidechain_percent;
#X obj 660 96 r dawOffset;
#X obj 692 76 r dawSynchCurve;
#X obj 51 24 r modulation;
#X obj 51 47 route mod attack;
#X obj 610 129 pair 11;
#X obj 660 129 pair 12;
#X obj 715 129 pair 13;
#X connect 0 0 7 0;
#X connect 0 1 8 0;
#X connect 1 0 7 0;
#X connect 1 1 8 0;
#X connect 2 0 7 0;
#X connect 2 1 8 0;
#X connect 3 0 7 0;
#X connect 3 1 8 0;
#X connect 4 0 7 0;
#X connect 4 1 8 0;
#X connect 5 0 7 0;
#X connect 5 1 8 0;
#X connect 6 0 7 0;
#X connect 6 1 8 0;
#X connect 9 0 7 0;
#X connect 9 1 8 0;
#X connect 10 0 7 0;
#X connect 10 1 8 0;
#X connect 11 0 7 0;
#X connect 11 1 8 0;
#X connect 12 0 7 0;
#X connect 12 1 8 0;
#X connect 13 0 5 0;
#X connect 14 0 6 0;
#X connect 15 0 9 0;
#X connect 16 0 2 0;
#X connect 17 0 3 0;
#X connect 18 0 4 0;
#X connect 19 0 11 0;
#X connect 20 0 10 0;
#X connect 21 0 27 0;
#X connect 22 0 12 0;
#X connect 23 0 28 0;
#X connect 24 0 29 0;
#X connect 25 0 26 0;
#X connect 26 0 0 0;
#X connect 26 1 1 0;
#X connect 27 0 7 0;
#X connect 27 1 8 0;
#X connect 28 0 7 0;
#X connect 28 1 8 0;
#X connect 29 0 7 0;
#X connect 29 1 8 0;
#X restore 102 113 pd effects_Setting_manager;
#X obj 518 182 + 14;
#X obj 147 151 clip 0 13;
#X obj 134 229 tgl 15 0 empty \$0-persistEffectData empty 17 7 0 10
#fcfcfc #000000 #000000 0 1;
#X obj 102 244 spigot 0;
#X connect 1 0 11 0;
#X connect 3 0 8 0;
#X connect 3 1 4 1;
#X connect 4 0 1 1;
#X connect 5 0 3 0;
#X connect 7 0 1 0;
#X connect 7 1 9 0;
#X connect 8 0 6 0;
#X connect 9 0 4 0;
#X connect 10 0 11 1;
#X connect 11 0 0 0;
#X restore 328 217 pd effects_persistence_stackable;
#X msg 328 77 1;
#X obj 498 171 tgl 15 1 \$0-persistWaveformData empty Persist\\\ Waveform\\\ Data
17 7 0 10 #fcfcfc #000000 #000000 1 1;
#X obj 199 322 spigot 1;
#X obj 244 295 <= 81;
#X obj 284 295 > 81;
#X obj 199 206 t f f f;
#X obj 284 321 s CamoIndexOutOfRange;
#X obj 523 108 tgl 15 1 \$0-persistTuningData empty Persist\\\ Tuning\\\ Data
17 7 0 10 #fcfcfc #000000 #000000 1 1;
#X obj 511 138 tgl 15 1 \$0-persistEnvelopeData empty Persist\\\ Envelope\\\ Data
17 7 0 10 #fcfcfc #000000 #000000 1 1;
#X obj 528 219 tgl 15 1 \$0-persistEffectData empty Persist\\\ Effect\\\ Data
17 7 0 10 #fcfcfc #000000 #000000 1 1;
#X obj 43 275 unpack f f;
#X floatatom 43 298 5 0 0 0 - - - 0;
#X floatatom 100 298 5 0 0 0 - - - 0;
#X connect 1 0 0 0;
#X connect 2 0 5 0;
#X connect 2 1 3 0;
#X connect 3 0 5 1;
#X connect 3 1 4 0;
#X connect 5 0 8 0;
#X connect 10 0 43 0;
#X connect 11 0 32 0;
#X connect 11 0 46 0;
#X connect 12 0 43 0;
#X connect 13 0 10 0;
#X connect 13 0 51 0;
#X connect 14 0 2 0;
#X connect 16 0 41 0;
#X connect 17 0 36 0;
#X connect 19 0 23 0;
#X connect 19 1 25 0;
#X connect 23 0 20 0;
#X connect 24 0 23 0;
#X connect 24 1 26 0;
#X connect 27 0 23 0;
#X connect 27 1 29 0;
#X connect 28 0 23 0;
#X connect 28 1 30 0;
#X connect 37 0 40 0;
#X connect 39 0 17 0;
#X connect 40 0 38 0;
#X connect 41 0 39 0;
#X connect 43 0 9 0;
#X connect 44 0 43 1;
#X connect 45 0 47 0;
#X connect 46 0 12 0;
#X connect 46 1 44 0;
#X connect 46 2 45 0;
#X connect 51 0 52 0;
#X connect 51 1 53 0;
#X restore 975 56 pd persister_core;
#N canvas 2294 582 1920 997 (subpatch) 0;
#X array Wave 515 float 1;
#A 0 0.916122 0.916092 0.916092 0.916031 0.916 0.915909 0.915848 0.915726
0.915634 0.915482 0.915359 0.915176 0.915024 0.91481 0.914627 0.914383
0.914169 0.913895 0.913651 0.913345 0.913071 0.912735 0.91243 0.912064
0.911728 0.911331 0.910965 0.910538 0.910141 0.909683 0.909256 0.908768
0.90831 0.907791 0.907303 0.906754 0.906235 0.905655 0.905106 0.904495
0.903915 0.903275 0.902664 0.902023 0.901352 0.900681 0.899979 0.899277
0.898544 0.897812 0.897049 0.896286 0.895493 0.894699 0.893875 0.893051
0.892197 0.891342 0.890457 0.889572 0.888687 0.887741 0.886826 0.88588
0.884903 0.883926 0.882919 0.881912 0.880875 0.879837 0.878769 0.877701
0.876633 0.875534 0.874405 0.873276 0.872116 0.870956 0.869766 0.868576
0.867386 0.866165 0.864914 0.863663 0.862381 0.861099 0.859818 0.858505
0.857162 0.85582 0.854477 0.853104 0.8517 0.850296 0.848892 0.847458
0.845993 0.844528 0.843063 0.841568 0.840042 0.838547 0.83699 0.835434
0.833878 0.832291 0.830704 0.829086 0.827438 0.82579 0.824142 0.822464
0.820786 0.819077 0.817368 0.815628 0.813889 0.812119 0.810349 0.808548
0.806747 0.804916 0.803085 0.801224 0.799362 0.797501 0.795578 0.793686
0.791763 0.78981 0.787857 0.785904 0.78392 0.781906 0.779892 0.777878
0.775833 0.773758 0.771683 0.769608 0.767502 0.765396 0.76326 0.761093
0.758957 0.75676 0.754593 0.752365 0.750168 0.74791 0.745682 0.743393
0.741135 0.738846 0.736526 0.734207 0.731857 0.729507 0.727158 0.724777
0.722366 0.719955 0.717545 0.715103 0.712662 0.71019 0.707718 0.705215
0.702713 0.70018 0.697647 0.695084 0.69252 0.689926 0.687332 0.684738
0.682083 0.679459 0.676804 0.674149 0.671463 0.668747 0.666031 0.663315
0.660568 0.657822 0.655045 0.652267 0.64946 0.646652 0.643845 0.641006
0.638138 0.635269 0.632401 0.629501 0.626572 0.623642 0.620712 0.617752
0.614792 0.611801 0.60881 0.60582 0.602768 0.599747 0.596695 0.593613
0.59053 0.587448 0.584335 0.581223 0.578079 0.574936 0.571762 0.568588
0.565384 0.56218 0.558975 0.55574 0.552505 0.54924 0.545944 0.542679
0.539352 0.536057 0.5327 0.529373 0.526016 0.522629 0.519241 0.515854
0.512436 0.509018 0.505569 0.502121 0.498642 0.495163 0.491684 0.488174
0.484634 0.481094 0.477554 0.473984 0.470413 0.466812 0.463211 0.45961
0.455978 0.452316 0.448654 0.444992 0.441299 0.437607 0.433914 0.430191
0.426437 0.422684 0.41893 0.415146 0.411362 0.407547 0.403732 0.399887
0.396042 0.392197 0.388321 0.384445 0.380539 0.376633 0.372696 0.368759
0.364792 0.360855 0.356857 0.352859 0.348862 0.344864 0.340836 0.336777
0.332718 0.328659 0.32457 0.32048 0.31636 0.312241 0.308121 0.30397
0.29982 0.295639 0.291458 0.287247 0.283035 0.278824 0.274582 0.27034
0.266068 0.261795 0.257492 0.253189 0.248886 0.244553 0.240219 0.235855
0.231491 0.227127 0.222733 0.218338 0.213913 0.209488 0.205063 0.200607
0.196121 0.191666 0.187149 0.182663 0.178146 0.17363 0.169083 0.164536
0.159958 0.15538 0.150803 0.146194 0.141586 0.136948 0.132309 0.12767
0.123001 0.118332 0.113632 0.108932 0.104233 0.0995026 0.0947723 0.0900116
0.0852509 0.0804901 0.0756989 0.0709076 0.0660858 0.061264 0.0564423
0.05159 0.0467377 0.0418549 0.036972 0.0320892 0.0271759 0.0222626
0.0173492 0.0124054 0.00746155 0.00248718 -0.00248718 -0.00749207 -0.0124664
-0.0175018 -0.0225067 -0.0275421 -0.0325775 -0.0376434 -0.0427094 -0.0478058
-0.0529022 -0.0579987 -0.0630951 -0.068222 -0.0733795 -0.078537 -0.0836945
-0.0888519 -0.0940399 -0.0992279 -0.104446 -0.109665 -0.114883 -0.120132
-0.125381 -0.130661 -0.135941 -0.14122 -0.1465 -0.15181 -0.15715 -0.16246
-0.167801 -0.173172 -0.178513 -0.183914 -0.189285 -0.194687 -0.200089
-0.205521 -0.210953 -0.216385 -0.221848 -0.22731 -0.232773 -0.238266
-0.243759 -0.249252 -0.254776 -0.2603 -0.265854 -0.271408 -0.276962
-0.282516 -0.288101 -0.293716 -0.299301 -0.304916 -0.310532 -0.316177
-0.321823 -0.327469 -0.333145 -0.338821 -0.344528 -0.350204 -0.355911
-0.361649 -0.367355 -0.373123 -0.37886 -0.384628 -0.390396 -0.396164
-0.401962 -0.407761 -0.413589 -0.419388 -0.425217 -0.431076 -0.436935
-0.442795 -0.448654 -0.454544 -0.460434 -0.466324 -0.472244 -0.478165
-0.484116 -0.490036 -0.495987 -0.501968 -0.507919 -0.513901 -0.519913
-0.525894 -0.531906 -0.537949 -0.543961 -0.550003 -0.556046 -0.562119
-0.568192 -0.574265 -0.580368 -0.586441 -0.592575 -0.598679 -0.604813
-0.610947 -0.617081 -0.623245 -0.62941 -0.635574 -0.641769 -0.647964
-0.65416 -0.660355 -0.66658 -0.672806 -0.679062 -0.685287 -0.691544
-0.69783 -0.704086 -0.710373 -0.71666 -0.722977 -0.729294 -0.735611
-0.741928 -0.748276 -0.754623 -0.760971 -0.767349 -0.773727 -0.780106
-0.786484 -0.792892 -0.799301 -0.80571 -0.812149 -0.818558 -0.825027
-0.831467 -0.837936 -0.844406 -0.850876 -0.857346 -0.863846 -0.870346
-0.876877 -0.883377 -0.889908 -0.896439 -0.903 -0.909561 -0.916122
0.916122 0.916092 0.916092;
#X coords 0 1 514 -1 515 164 2 0 0;
#X restore 368 250 graph;
#N canvas 709 232 1095 981 internal_gui_links 0;
#X obj -2 0 cnv 15 356 420 empty empty empty 20 12 0 14 #c4fcfc #404040
0;
#X obj -2 0 cnv 15 254 180 empty empty Input 28 12 0 14 #b8d4fc #404040
0;
#X obj 98 100 cnv 15 154 80 empty empty Tuning 20 12 0 14 #c8fc6c #404040
0;
#N canvas 1143 969 341 363 fine_to_course 0;
#X obj 47 72 sel -1200 1200;
#X obj 47 99 t b b;
#X obj 87 99 t b b;
#X obj 87 182 f;
#X obj 47 213 - 1;
#X obj 87 213 + 1;
#X obj 47 48 r cent_slider_s;
#X obj 114 130 s cent_slider_reset;
#X obj 128 99 s to_cent_dis;
#X obj 47 182 f;
#X obj 102 146 r course_from_DAW;
#X obj 47 252 s course_from_DAW;
#X connect 0 0 1 0;
#X connect 0 1 2 0;
#X connect 0 2 8 0;
#X connect 1 0 9 0;
#X connect 1 1 7 0;
#X connect 2 0 3 0;
#X connect 2 1 7 0;
#X connect 3 0 5 0;
#X connect 4 0 11 0;
#X connect 5 0 11 0;
#X connect 6 0 0 0;
#X connect 9 0 4 0;
#X connect 10 0 3 1;
#X connect 10 0 9 1;
#X restore 123 129 pd fine_to_course;
#N canvas 920 957 425 267 offset_resets 0;
#X msg 103 95 0;
#X obj 103 60 r cent_slider_reset;
#X msg 138 95 0;
#X obj 51 60 loadbang;
#X obj 138 121 s course_from_DAW;
#X obj 37 121 s fine_from_DAW;
#X obj 221 60 r offset_reset;
#X connect 0 0 5 0;
#X connect 1 0 0 0;
#X connect 2 0 4 0;
#X connect 3 0 0 0;
#X connect 3 0 2 0;
#X connect 6 0 0 0;
#X connect 6 0 2 0;
#X restore 123 151 pd offset_resets;
#X obj 355 0 cnv 15 536 420 empty empty Waveform 20 12 0 14 #fce0c4
#404040 0;
#X obj 0 421 cnv 15 891 440 empty empty empty 20 12 0 14 #fcc4c4 #404040
0;
#N canvas 1148 370 741 462 playhead 0;
#N canvas 1192 671 599 300 daw_playhead_sends 0;
#X obj 35 52 inlet;
#X obj 35 111 route playing recording looping edittime framerate bpm
lastbar timesig position, f 79;
#X obj 109 144 unpack f f f;
#X obj 371 144 unpack f f;
#X obj 447 144 unpack f f f;
#X obj 269 171 s numerator_from_DAW;
#X obj 173 171 s bpm_from_DAW;
#X obj 35 171 s daw_playing;
#X obj 399 171 s denumerator_from_DAW;
#X obj 87 201 s daw_recording;
#X obj 109 231 s daw_looping;
#X obj 203 201 s framerate_from_DAW;
#X connect 0 0 1 0;
#X connect 1 0 7 0;
#X connect 1 1 9 0;
#X connect 1 2 2 0;
#X connect 1 4 11 0;
#X connect 1 5 6 0;
#X connect 1 7 3 0;
#X connect 1 8 4 0;
#X connect 2 0 10 0;
#X connect 3 0 5 0;
#X connect 3 1 8 0;
#X restore 34 328 pd daw_playhead_sends;
#X obj 34 264 r playhead;
#X obj 52 50 tgl 15 0 empty \$0-playing Playing 0 -7 0 10 #fcfcfc #000000
#000000 0 1;
#X obj 52 80 tgl 15 0 empty \$0-recording Recording 0 -7 0 10 #fcfcfc
#000000 #000000 0 1;
#X obj 171 328 unpack f f f;
#X obj 52 110 tgl 15 0 empty \$0-looping Looping 0 -7 0 10 #fcfcfc
#000000 #000000 0 1;
#X floatatom 52 130 8 0 0 0 - \$0-looping-start - 0;
#X floatatom 52 150 8 0 0 0 - \$0-looping-end - 0;
#X obj 205 370 s \$0-looping-start;
#X obj 240 349 s \$0-looping-end;
#X obj 224 397 s \$0-edittime;
#X floatatom 52 183 5 0 0 2 - \$0-edittime - 0;
#X text 51 168 Edit Time;
#X floatatom 52 216 5 0 0 2 - \$0-framerate - 0;
#X text 51 201 Frame Rate;
#X obj 328 325 s \$0-bpm;
#X floatatom 185 50 5 0 0 2 - \$0-bpm - 0;
#X text 184 35 BPM;
#X obj 391 325 s \$0-lastbar;
#X floatatom 185 80 5 0 0 2 - \$0-lastbar - 0;
#X floatatom 185 113 5 0 0 2 - \$0-numerator - 0;
#X text 184 96 Time Signature;
#X floatatom 185 133 5 0 0 2 - \$0-denumerator - 0;
#X text 221 114 Numerator;
#X text 221 134 Denumerator;
#X text 184 65 Last Bar (PPQ);
#X text 183 156 Play Head Position;
#X floatatom 185 176 8 0 0 2 - \$0-pos-ppq - 0;
#X floatatom 185 196 8 0 0 2 - \$0-pos-samples - 0;
#X floatatom 185 216 8 0 0 2 - \$0-pos-seconds - 0;
#X text 238 177 PPQ;
#X text 238 197 Samples;
#X text 238 217 Seconds;
#X obj 67 297 route playing recording looping edittime framerate bpm
lastbar timesig position, f 79;
#X obj 485 325 unpack f f f;
#X obj 485 391 s \$0-pos-ppq;
#X obj 519 371 s \$0-pos-samples;
#X obj 554 350 s \$0-pos-seconds;
#X text 107 130 Start (PPQ);
#X text 107 150 End (PPQ);
#X text 314 135 Remaining PPQ in the bar, f 12;
#X text 314 85 PPQ position in the bar, f 12;
#X floatatom 316 115 8 0 0 2 - \$0-pos-ppq-bar - 0;
#X floatatom 316 175 8 0 0 2 - \$0-rem-ppq-bar - 0;
#X obj 481 122 r \$0-lastbar;
#X obj 466 99 r \$0-pos-ppq;
#X obj 466 144 -;
#X obj 568 137 / 4;
#X obj 553 159 *;
#X obj 466 200 swap, f 15;
#X obj 466 221 -, f 15;
#X obj 476 180 s \$0-pos-ppq-bar;
#X obj 466 242 s \$0-rem-ppq-bar;
#X obj 581 242 s bar_start;
#X obj 581 221 sel 0;
#X obj 553 98 r numerator_from_DAW;
#X obj 568 116 r denumerator_from_DAW;
#X connect 1 0 0 0;
#X connect 1 0 33 0;
#X connect 4 1 8 0;
#X connect 4 2 9 0;
#X connect 33 2 4 0;
#X connect 33 3 10 0;
#X connect 33 5 15 0;
#X connect 33 6 18 0;
#X connect 33 8 34 0;
#X connect 34 0 35 0;
#X connect 34 1 36 0;
#X connect 34 2 37 0;
#X connect 44 0 46 1;
#X connect 45 0 46 0;
#X connect 46 0 49 0;
#X connect 46 0 51 0;
#X connect 46 0 54 0;
#X connect 47 0 48 1;
#X connect 48 0 49 1;
#X connect 49 0 50 0;
#X connect 49 1 50 1;
#X connect 50 0 52 0;
#X connect 54 0 53 0;
#X connect 55 0 48 0;
#X connect 56 0 47 0;
#X restore 14 37 pd playhead;
#X obj -3 201 cnv 15 356 219 empty empty Output 20 12 0 14 #b8d4fc
#404040 0;
#N canvas 1710 850 450 300 pingpong_radio_guts 0;
#X obj 61 131 pow;
#X msg 61 110 2;
#X obj 61 89 t b f;
#X obj 61 67 + 1;
#X obj 61 152 / 32;
#X obj 61 42 r pingpong_speed_r;
#X obj 61 173 s pingpong_speed;
#X connect 0 0 4 0;
#X connect 1 0 0 0;
#X connect 2 0 1 0;
#X connect 2 1 0 1;
#X connect 3 0 2 0;
#X connect 4 0 6 0;
#X connect 5 0 3 0;
#X restore 205 342 pd pingpong_radio_guts;
#N canvas 1469 1112 450 300 sidechain_radio_guts 0;
#X obj 61 131 pow;
#X msg 61 110 2;
#X obj 61 89 t b f;
#X obj 61 67 + 1;
#X obj 61 152 / 32;
#X obj 61 42 r sidechain_speed_r;
#X obj 61 173 s sidechain_speed;
#X connect 0 0 4 0;
#X connect 1 0 0 0;
#X connect 2 0 1 0;
#X connect 2 1 0 1;
#X connect 3 0 2 0;
#X connect 4 0 6 0;
#X connect 5 0 3 0;
#X restore 204 263 pd sidechain_radio_guts;
#X obj 205 364 loadfloat 4;
#X obj 204 285 loadfloat 4;
#X obj 204 307 s daw_sidechain_speed;
#X obj 205 388 s daw_autopan_speed;
#N canvas 837 1004 450 300 synch_buttons_out 0;
#X obj 162 210 outlet;
#X msg 63 105 0.5;
#X obj 63 82 r btn_1_2;
#X obj 63 132 r btn_1_4;
#X obj 63 182 r btn_1_8;
#X msg 63 155 0.25;
#X msg 63 205 0.125;
#X obj 143 82 r btn_3_4;
#X msg 143 105 0.75;
#X obj 143 132 r btn_3_8;
#X msg 143 155 0.375;
#X obj 223 82 r btn_5_8;
#X obj 223 132 r btn_7_8;
#X msg 223 155 0.875;
#X msg 223 105 0.625;
#X obj 217 187 loadfloat 0;
#X obj 291 131 r btn_0_0;
#X msg 291 154 0;
#X connect 1 0 0 0;
#X connect 2 0 1 0;
#X connect 3 0 5 0;
#X connect 4 0 6 0;
#X connect 5 0 0 0;
#X connect 6 0 0 0;
#X connect 7 0 8 0;
#X connect 8 0 0 0;
#X connect 9 0 10 0;
#X connect 10 0 0 0;
#X connect 11 0 14 0;
#X connect 12 0 13 0;
#X connect 13 0 0 0;
#X connect 14 0 0 0;
#X connect 15 0 0 0;
#X connect 16 0 17 0;
#X connect 17 0 0 0;
#X restore 204 208 pd synch_buttons_out;
#X obj 204 233 s daw_dawOffset;
#N canvas 1007 997 383 217 vol_send 0;
#X obj 54 87 s vol_persist;
#X obj 113 64 t f f;
#X obj 140 137 s vol_to_synth;
#X obj 113 41 r vol_slider;
#X obj 140 111 sqrt;
#X connect 1 0 0 0;
#X connect 1 1 4 0;
#X connect 3 0 1 0;
#X connect 4 0 2 0;
#X restore 31 337 pd vol_send;
#N canvas 104 104 450 300 echo_links 0;
#N canvas -4 657 450 300 echo_signals 0;
#X obj 41 249 outlet;
#X obj 91 249 outlet;
#X obj 141 249 outlet;
#X obj 41 189 r daw_echo_x;
#X obj 91 209 r daw_echo_percent;
#X obj 141 229 r daw_echo_ms;
#X obj 41 72 s echo_x;
#X obj 91 91 s echo_percent;
#X obj 141 110 s echo_ms;
#X obj 41 53 inlet;
#X obj 91 53 inlet;
#X obj 141 53 inlet;
#X connect 3 0 0 0;
#X connect 4 0 1 0;
#X connect 5 0 2 0;
#X connect 9 0 6 0;
#X connect 10 0 7 0;
#X connect 11 0 8 0;
#X restore 74 158 pd echo_signals;
#N canvas 337 827 450 300 onOff 0;
#X obj 52 73 inlet;
#X obj 54 168 outlet;
#X obj 50 106 sel 0;
#X msg 50 127 0;
#X msg 80 127 1;
#X connect 0 0 2 0;
#X connect 2 0 3 0;
#X connect 2 1 4 0;
#X connect 3 0 1 0;
#X connect 4 0 1 0;
#X restore 204 85 pd onOff;
#X obj 117 52 t f f;
#X obj 117 183 s set_echo_magnitude;
#X obj 161 208 s set_echo_time;
#X obj 117 26 r echo_magnitude_slider;
#X obj 161 132 r echo_time_slider;
#X obj 74 108 r echo_on_off_toggle;
#X obj 74 231 s set_echo_on_off;
#X obj 204 108 s set_echo_on_off;
#X connect 0 0 8 0;
#X connect 0 1 3 0;
#X connect 0 2 4 0;
#X connect 1 0 9 0;
#X connect 2 0 0 1;
#X connect 2 1 1 0;
#X connect 5 0 2 0;
#X connect 6 0 0 2;
#X connect 7 0 0 0;
#X restore 30 281 pd echo_links;
#N canvas 1168 952 403 260 filter_radio 0;
#X obj 210 126 s filter_x;
#X obj 89 126 s filter_x_persist;
#X obj 89 98 r filter_x_radio;
#X connect 2 0 1 0;
#X connect 2 0 0 0;
#X restore 29 237 pd filter_radio;
#X connect 11 0 14 0;
#X connect 12 0 13 0;
#X connect 15 0 16 0;
#X restore 975 10 pd internal_gui_links;
#X obj 610 23 ADSR_T_Graph;
#X obj 716 23 r adsr_to_synth;
#X obj 623 160 frequency_modulator_gui;
#A saved 0 1700.79;
#X obj 895 228 s modulation;
#X obj 112 129 minimal_tuning_gui;
#X obj 200 305 cnv 15 130 84 empty empty empty 20 12 0 14 #e0c4fc #404040
0;
#X obj 242 315 tgl 15 1 echo_on_off_toggle set_echo_on_off empty 17
7 0 10 #fcfcfc #000000 #000000 0 1;
#X obj 205 340 hsl 100 15 0 0.9 0 0 echo_magnitude_slider set_echo_magnitude
empty -2 -8 0 10 #dfdfdf #000000 #000000 0 1;
#X obj 205 360 hsl 100 15 50 5050 1 0 echo_time_slider set_echo_time
empty -2 -8 0 10 #dfdfdf #000000 #000000 0 1;
#X text 309 358 ms;
#X text 310 338 %;
#X text 210 314 Echo;
#X text 1586 379 Did we get rid of the volume setting?;
#X obj 368 23 ADSR_TV_gui;
#X obj 638 87 s adsr_to_synth;
#X text 1334 339 The synch frequency radios could be more clear...
;
#X obj 135 205 bng 15 250 50 0 btn_0_0 empty 0 17 7 0 10 #fcfcfc #000000
#000000;
#X text 28 398 QUIET!;
#X floatatom 52 280 6 0 0 0 - - - 0;
#X text 917 722 ^^^^;
#X text 1334 300 Floatgrain implicitly introduces latency... maybe
that should be reflected in the name? maybe it already is...;
#N canvas 182 182 450 300 tuning_sends 0;
#X obj 74 72 inlet;
#X obj 70 159 s tuning_one;
#X obj 150 159 s tuning_two;
#X connect 0 0 1 0;
#X connect 0 0 2 0;
#X restore 204 160 pd tuning_sends;
#X text 1334 248 Velocity link to note-slide time would be good \,
that way we could slide softer notes and create tension for the more
stacato loud notes;
#X text 1300 46 TODO:;
#X text 1334 226 Remove pops and clicks going into the DAC object?
;
#X text 1301 163 MAYBE:;
#X text 1334 182 Remove loadbangs and loadfloats on stuff that should
be linked to the DAW \, might make it less ambiguous which values get
loaded;
#N canvas 461 338 327 300 tuning_receivers 0;
#X obj 53 58 r fun_from_DAW;
#X obj 103 81 r freq_attack_from_DAW;
#X obj 152 104 r tpo_from_DAW;
#X msg 53 81 fun \$1;
#X obj 53 216 outlet;
#X msg 152 127 tpo \$1;
#X msg 103 104 slide \$1;
#X connect 0 0 3 0;
#X connect 1 0 6 0;
#X connect 2 0 5 0;
#X connect 3 0 4 0;
#X connect 5 0 4 0;
#X connect 6 0 4 0;
#X restore 180 142 pd tuning_receivers;
#N canvas 26 26 450 300 modulation_receivers 0;
#X obj 51 211 outlet;
#X msg 51 164 mod \$1;
#X msg 118 164 attack \$1;
#X obj 51 90 r modulation_from_DAW;
#X obj 118 130 r modulation_attack_from_DAW;
#X connect 1 0 0 0;
#X connect 2 0 0 0;
#X connect 3 0 1 0;
#X connect 4 0 2 0;
#X restore 829 210 pd modulation_receivers;
#N canvas 1797 874 623 300 ADSR_receivers 0;
#X msg 26 146 a \$1;
#X msg 66 146 d \$1;
#X msg 106 146 s \$1;
#X msg 146 146 r \$1;
#X msg 207 146 at \$1;
#X msg 256 146 dt \$1;
#X msg 306 146 rt \$1;
#X msg 376 146 av \$1;
#X msg 426 146 dv \$1;
#X msg 476 146 sv \$1;
#X msg 526 146 rv \$1;
#X obj 26 242 outlet;
#X obj 14 29 r attack_from_DAW;
#X obj 24 49 r decay_from_DAW;
#X obj 34 69 r sustain_from_DAW;
#X obj 44 89 r release_from_DAW;
#X obj 149 29 r attack_T_from_DAW;
#X obj 164 49 r decay_T_from_DAW;
#X obj 179 89 r release_T_from_DAW;
#X obj 294 29 r attack_V_from_DAW;
#X obj 324 49 r decay_V_from_DAW;
#X obj 354 69 r sustain_V_from_DAW;
#X obj 384 89 r release_V_from_DAW;
#X connect 0 0 11 0;
#X connect 1 0 11 0;
#X connect 2 0 11 0;
#X connect 3 0 11 0;
#X connect 4 0 11 0;
#X connect 5 0 11 0;
#X connect 6 0 11 0;
#X connect 7 0 11 0;
#X connect 8 0 11 0;
#X connect 9 0 11 0;
#X connect 10 0 11 0;
#X connect 12 0 0 0;
#X connect 13 0 1 0;
#X connect 14 0 2 0;
#X connect 15 0 3 0;
#X connect 16 0 4 0;
#X connect 17 0 5 0;
#X connect 18 0 6 0;
#X connect 19 0 7 0;
#X connect 20 0 8 0;
#X connect 21 0 9 0;
#X connect 22 0 10 0;
#X restore 626 69 pd ADSR_receivers;
#N canvas 90 442 2351 544 waveform_receivers 0;
#X msg 461 284 curve \$1;
#X msg 531 284 dc \$1;
#X msg 311 284 phase \$1;
#X msg 581 284 lowpass \$1;
#X msg 651 284 highpass \$1;
#X msg 721 284 lensing \$1;
#X msg 791 284 center \$1;
#X msg 371 284 phase_diff \$1;
#X msg 861 284 square \$1;
#X msg 931 284 sine \$1;
#X msg 1001 284 distance \$1;
#X msg 1071 284 power \$1;
#X msg 1141 284 height \$1;
#X msg 1211 284 sinesum \$1;
#X msg 1281 284 period \$1;
#X msg 1351 284 period_mix \$1;
#X msg 1441 284 polarity \$1;
#X msg 1521 284 folding \$1;
#X msg 1591 284 ceiling \$1;
#X msg 1661 284 reverse \$1;
#X msg 1731 284 bitcrush \$1;
#X msg 1811 284 bitcrush_bits \$1;
#X msg 1921 284 normalize \$1;
#X msg 2011 284 remove_dc \$1;
#X obj 38 43 r w_00_from_DAW;
#X obj 138 43 r w_01_from_DAW;
#X obj 238 43 r w_02_from_DAW;
#X obj 338 43 r w_03_from_DAW;
#X obj 438 43 r w_04_from_DAW;
#X obj 538 43 r w_05_from_DAW;
#X obj 570 68 r w_06_from_DAW;
#X obj 671 68 r w_07_from_DAW;
#X obj 771 68 r w_08_from_DAW;
#X obj 871 68 r w_09_from_DAW;
#X obj 971 68 r w_10_from_DAW;
#X obj 1071 68 r w_11_from_DAW;
#X obj 1171 68 r w_12_from_DAW;
#X obj 1271 68 r w_13_from_DAW;
#X obj 1371 68 r w_14_from_DAW;
#X obj 1471 68 r w_15_from_DAW;
#X obj 1494 92 r w_16_from_DAW;
#X obj 1594 92 r w_17_from_DAW;
#X obj 1693 92 r w_18_from_DAW;
#X obj 1793 92 r w_19_from_DAW;
#X obj 1893 92 r w_20_from_DAW;
#X obj 1993 92 r w_21_from_DAW;
#X obj 2093 92 r w_22_from_DAW;
#X obj 2193 92 r w_23_from_DAW;
#X obj 1071 433 outlet;
#X connect 0 0 48 0;
#X connect 1 0 48 0;
#X connect 2 0 48 0;
#X connect 3 0 48 0;
#X connect 4 0 48 0;
#X connect 5 0 48 0;
#X connect 6 0 48 0;
#X connect 7 0 48 0;
#X connect 8 0 48 0;
#X connect 9 0 48 0;
#X connect 10 0 48 0;
#X connect 11 0 48 0;
#X connect 12 0 48 0;
#X connect 13 0 48 0;
#X connect 14 0 48 0;
#X connect 15 0 48 0;
#X connect 16 0 48 0;
#X connect 17 0 48 0;
#X connect 18 0 48 0;
#X connect 19 0 48 0;
#X connect 20 0 48 0;
#X connect 21 0 48 0;
#X connect 22 0 48 0;
#X connect 23 0 48 0;
#X connect 24 0 2 0;
#X connect 25 0 7 0;
#X connect 26 0 0 0;
#X connect 27 0 1 0;
#X connect 28 0 3 0;
#X connect 29 0 4 0;
#X connect 30 0 5 0;
#X connect 31 0 6 0;
#X connect 32 0 8 0;
#X connect 33 0 9 0;
#X connect 34 0 10 0;
#X connect 35 0 11 0;
#X connect 36 0 12 0;
#X connect 37 0 13 0;
#X connect 38 0 14 0;
#X connect 39 0 15 0;
#X connect 40 0 16 0;
#X connect 41 0 17 0;
#X connect 42 0 18 0;
#X connect 43 0 19 0;
#X connect 44 0 20 0;
#X connect 45 0 21 0;
#X connect 46 0 22 0;
#X connect 47 0 23 0;
#X restore 13 895 pd waveform_receivers;
#N canvas 877 656 828 665 sinesum_receivers 0;
#X obj 72 69 r s_00_from_DAW;
#X obj 92 89 r s_01_from_DAW;
#X obj 112 109 r s_02_from_DAW;
#X obj 132 129 r s_03_from_DAW;
#X obj 152 149 r s_04_from_DAW;
#X obj 172 169 r s_05_from_DAW;
#X obj 207 69 r s_06_from_DAW;
#X obj 228 89 r s_07_from_DAW;
#X obj 248 109 r s_08_from_DAW;
#X obj 268 129 r s_09_from_DAW;
#X obj 289 149 r s_10_from_DAW;
#X obj 307 169 r s_11_from_DAW;
#X obj 343 69 r s_12_from_DAW;
#X obj 363 89 r s_13_from_DAW;
#X obj 384 109 r s_14_from_DAW;
#X obj 403 129 r s_15_from_DAW;
#X obj 423 149 r s_16_from_DAW;
#X obj 444 169 r s_17_from_DAW;
#X obj 479 69 r s_18_from_DAW;
#X obj 500 89 r s_19_from_DAW;
#X obj 519 109 r s_20_from_DAW;
#X obj 539 129 r s_21_from_DAW;
#X obj 559 149 r s_22_from_DAW;
#X obj 580 169 r s_23_from_DAW;
#X msg 72 215 0 \$1;
#X msg 92 235 1 \$1;
#X msg 112 255 2 \$1;
#X msg 132 275 3 \$1;
#X msg 152 295 4 \$1;
#X msg 172 315 5 \$1;
#X msg 208 215 6 \$1;
#X msg 228 235 7 \$1;
#X msg 248 255 8 \$1;
#X msg 268 275 9 \$1;
#X msg 289 295 10 \$1;
#X msg 307 315 11 \$1;
#X msg 343 215 12 \$1;
#X msg 363 235 13 \$1;
#X msg 384 255 14 \$1;
#X msg 403 275 15 \$1;
#X msg 423 295 16 \$1;
#X msg 444 315 17 \$1;
#X msg 479 215 18 \$1;
#X msg 499 235 19 \$1;
#X msg 519 255 20 \$1;
#X msg 539 275 21 \$1;
#X msg 559 295 22 \$1;
#X msg 580 315 23 \$1;
#X obj 637 326 r sine_half_0_from_DAW;
#X obj 657 350 r sine_half_1_from_DAW;
#X obj 681 376 r sine_seq_from_DAW;
#X msg 609 375 half_0 \$1;
#X msg 609 401 half_1 \$1;
#X msg 609 428 seq \$1;
#X obj 177 502 unpack f f;
#X obj 234 526 + 0.1;
#X obj 177 553 pack f f;
#X obj 177 576 outlet;
#X connect 0 0 24 0;
#X connect 1 0 25 0;
#X connect 2 0 26 0;
#X connect 3 0 27 0;
#X connect 4 0 28 0;
#X connect 5 0 29 0;
#X connect 6 0 30 0;
#X connect 7 0 31 0;
#X connect 8 0 32 0;
#X connect 9 0 33 0;
#X connect 10 0 34 0;
#X connect 11 0 35 0;
#X connect 12 0 36 0;
#X connect 13 0 37 0;
#X connect 14 0 38 0;
#X connect 15 0 39 0;
#X connect 16 0 40 0;
#X connect 17 0 41 0;
#X connect 18 0 42 0;
#X connect 19 0 43 0;
#X connect 20 0 44 0;
#X connect 21 0 45 0;
#X connect 22 0 46 0;
#X connect 23 0 47 0;
#X connect 24 0 54 0;
#X connect 25 0 54 0;
#X connect 26 0 54 0;
#X connect 27 0 54 0;
#X connect 28 0 54 0;
#X connect 29 0 54 0;
#X connect 30 0 54 0;
#X connect 31 0 54 0;
#X connect 32 0 54 0;
#X connect 33 0 54 0;
#X connect 34 0 54 0;
#X connect 35 0 54 0;
#X connect 36 0 54 0;
#X connect 37 0 54 0;
#X connect 38 0 54 0;
#X connect 39 0 54 0;
#X connect 40 0 54 0;
#X connect 41 0 54 0;
#X connect 42 0 54 0;
#X connect 43 0 54 0;
#X connect 44 0 54 0;
#X connect 45 0 54 0;
#X connect 46 0 54 0;
#X connect 47 0 54 0;
#X connect 48 0 51 0;
#X connect 49 0 52 0;
#X connect 50 0 53 0;
#X connect 51 0 54 0;
#X connect 52 0 54 0;
#X connect 53 0 57 0;
#X connect 54 0 56 0;
#X connect 54 1 55 0;
#X connect 55 0 56 1;
#X connect 56 0 57 0;
#X restore 269 895 pd sinesum_receivers;
#X text 1335 69 Preset settings aren't captured yet...;
#X obj 812 750 credits_display;
#X text 1374 464 Is this even true??;
#X floatatom 1080 603 5 0 0 0 Param\ set \$0-param_set - 0;
#X floatatom 1080 586 5 0 0 0 Param\ change \$0-param_change - 0;
#X floatatom 1174 586 5 0 0 0 Param\ get camo_param_get_ID - 0;
#X floatatom 1174 603 5 0 0 0 Get\ value camo_param_get_value - 0;
#X floatatom 1030 657 5 0 0 0 TpO tpo_from_DAW - 0;
#X text 1334 93 Sinesum setting seems to be correct;
#X text 1335 119 Somehow the wave settings don't trigger the DAW at
all...;
#X floatatom 1030 623 5 0 0 0 Fun fun_from_DAW - 0;
#X floatatom 1030 640 5 0 0 0 Att freq_attack_from_DAW - 0;
#X obj 1101 126 hradio 15 1 0 8 empty empty empty 0 -8 0 10 #fcfcfc
#000000 #000000 0;
#X obj 1108 56 s camomile;
#X text 1175 56 uncoupled for now;
#X obj 1080 620 tgl 15 0 empty CamoIndexOutOfRange IndexOutOfRange
17 7 0 10 #fcfcfc #000000 #000000 0 1;
#X floatatom 1030 678 5 0 0 0 Phase w_00_from_DAW - 0;
#X text 1337 552 Mouse stuff doesn't work ??? so the param.change thing
that checks if the mouse is down doesn't work either;
#N canvas 52 52 2028 867 wb_settings 0;
#X obj 37 45 inlet;
#X obj 777 42 inlet;
#X obj 847 42 inlet;
#X obj 145 291 s \$0-param_persist_pair;
#X obj 145 214 pack f f;
#X obj 190 187 +;
#X obj 397 106 r waveform_persistence_slot;
#X obj 397 266 s post_waveform_persistence_slot;
#X obj 397 139 t f f;
#X obj 177 245 tgl 15 0 empty \$0-persistWaveformData empty 17 7 0
10 #fcfcfc #000000 #000000 0 1;
#X obj 145 260 spigot 0;
#X obj 190 139 clip 0 24;
#X obj 777 291 s \$0-param_persist_pair;
#X obj 777 214 pack f f;
#X obj 822 187 +;
#X obj 809 245 tgl 15 0 empty \$0-persistWaveformData empty 17 7 0
10 #fcfcfc #000000 #000000 0 1;
#X obj 777 260 spigot 0;
#X obj 397 206 t f f;
#X obj 397 172 + 24;
#X obj 397 239 + 27;
#X obj 822 128 clip 0 26;
#X obj 37 105 wavebranch_setting_encoder;
#X connect 0 0 21 0;
#X connect 1 0 13 0;
#X connect 2 0 20 0;
#X connect 4 0 10 0;
#X connect 5 0 4 1;
#X connect 6 0 8 0;
#X connect 8 0 18 0;
#X connect 8 1 5 1;
#X connect 9 0 10 1;
#X connect 10 0 3 0;
#X connect 11 0 5 0;
#X connect 13 0 16 0;
#X connect 14 0 13 1;
#X connect 15 0 16 1;
#X connect 16 0 12 0;
#X connect 17 0 19 0;
#X connect 17 1 14 1;
#X connect 18 0 17 0;
#X connect 19 0 7 0;
#X connect 20 0 14 0;
#X connect 21 0 4 0;
#X connect 21 1 11 0;
#X restore 8 869 pd wb_settings;
#X f 131;
#X text 141 9 BPM;
#X obj 262 6 bng 15 250 50 0 minimaximize_ui_panel empty All\\\ Options
19 7 0 10 #fcfcfc #000000 #000000;
#X text 817 707 I'm a crocodile;
#X obj 1336 605 bng 15 250 50 0 show_hide_waves empty empty 17 7 0
10 #fcfcfc #000000 #000000;
#X obj 1336 680 bng 15 250 50 0 show_hide_waves empty empty 17 7 0
10 #fcfcfc #000000 #000000;
#X text 1338 622 W;
#X text 1338 632 A;
#X text 1338 642 V;
#X text 1338 652 E;
#X text 1338 662 S;
#X connect 25 0 22 0;
#X connect 37 0 39 0;
#X connect 37 1 39 1;
#X connect 39 0 63 0;
#X connect 39 1 63 1;
#X connect 40 0 39 2;
#X connect 40 1 39 3;
#X connect 40 2 39 4;
#X connect 42 0 44 0;
#X connect 42 0 60 0;
#X connect 42 0 69 0;
#X connect 43 0 47 0;
#X connect 43 0 61 0;
#X connect 43 0 69 1;
#X connect 47 0 46 0;
#X connect 52 0 55 0;
#X connect 52 1 56 0;
#X connect 55 0 51 0;
#X connect 55 0 59 0;
#X connect 56 0 51 1;
#X connect 56 0 59 0;
#X connect 57 0 55 1;
#X connect 57 0 56 1;
#X connect 59 0 58 0;
#X connect 63 0 73 0;
#X connect 63 1 73 1;
#X connect 64 0 63 2;
#X connect 64 1 63 3;
#X connect 67 0 37 0;
#X connect 73 0 52 0;
#X connect 73 1 52 1;
#X connect 104 0 109 0;
#X connect 105 0 163 0;
#X connect 105 1 163 1;
#X connect 105 2 163 2;
#X connect 106 0 105 3;
#X connect 109 0 105 2;
#X connect 114 0 113 0;
#X connect 115 0 116 0;
#X connect 115 1 116 0;
#X connect 117 0 134 0;
#X connect 126 0 127 0;
#X connect 140 0 117 0;
#X connect 141 0 115 0;
#X connect 142 0 126 0;
#X connect 143 0 105 0;
#X connect 144 0 105 1;
#X connect 157 0 37 1;
#X coords 0 0 1 1 356 420 1 0 0;
