#N canvas 1242 374 948 622 12;
#X obj 0 20 frequency_picker;
#X text 117 0 Tones/Oct.;
#X floatatom 191 0 4 1 128 0 - \$0-set_tpo \$0-tpo 12;
#X obj 3 105 hsl 165 15 1 2001 1 0 empty empty empty 18 7 0 12 #fcfcfc
#000000 #000000 0 1;
#X obj 106 130 - 1;
#X obj 77 281 outlet;
#X msg 22 233 fun \$1;
#X msg 77 233 tpo \$1;
#X msg 138 233 slide \$1;
#X obj 31 -59 f 440;
#X obj 75 -59 f 12;
#X obj -4 -179 inlet;
#X text 359 278 Koen Riksen 2022;
#X obj -7 -59 f 18;
#X obj -7 -32 + 1;
#X floatatom 53 41 5 -64 64 0 - \$0-set_course \$0-course 0;
#X floatatom 142 41 6 -1200 1200 0 - \$0-cent_dis \$0-cents_select
0;
#X obj 3 61 hsl 181 15 -1200 1200 0 0 \$0-fine \$0-set_fine empty -2
-8 0 10 #fcfcfc #000000 #000000 0 1;
#X obj 110 76 bng 15 250 50 0 \$0-offset_reset empty Reset\\\ offset
17 7 0 12 #fcfcfc #000000 #000000;
#X obj 203 -129 bng 15 250 50 0 empty empty empty 17 7 0 10 #fcfcfc
#000000 #000000;
#X floatatom 170 100 7 0 0 0 - - - 0;
#X obj 233 111 * 100;
#X obj 233 134 i;
#X obj 233 157 * 0.01;
#X obj 106 166 t f f;
#X obj 75 -32 s \$0-set_tpo;
#X obj 77 206 r \$0-tpo;
#X text 1 85 Slide time:;
#X text 2 42 Course;
#X obj -4 -154 route fun tpo slide course fine bang;
#X text 1 -1 Fundamental:;
#X obj 175 -32 s \$0-set_course;
#X obj 295 -32 s \$0-set_fine;
#X obj 235 207 r \$0-course;
#X obj 335 207 r \$0-fine;
#X obj 175 -59 f 0;
#X obj 295 -58 f 0;
#X msg 235 233 course \$1;
#X msg 335 233 fine \$1;
#X obj 442 -54 sel -1200 1200;
#X obj 442 -17 t b b;
#X obj 489 -17 t b b;
#X obj 489 66 f;
#X obj 442 97 - 1;
#X obj 489 97 + 1;
#X obj 442 66 f;
#X msg 652 100 0;
#X msg 687 100 0;
#X obj 203 -111 t b b b b b;
#X obj 562 136 s \$0-set_fine;
#X obj 687 135 s \$0-set_course;
#X obj 527 30 r \$0-set_course;
#X obj 442 136 s \$0-set_course;
#X obj 537 3 s \$0-cent_dis;
#X obj 562 69 r \$0-cents_select;
#X msg 537 -26 set \$1;
#X obj 442 -88 r \$0-fine;
#X text 105 42 Fine;
#X obj 687 69 r \$0-offset_reset;
#X connect 0 0 5 0;
#X connect 0 0 6 0;
#X connect 3 0 4 0;
#X connect 4 0 24 0;
#X connect 6 0 5 0;
#X connect 7 0 5 0;
#X connect 8 0 5 0;
#X connect 9 0 0 0;
#X connect 10 0 25 0;
#X connect 11 0 29 0;
#X connect 13 0 14 0;
#X connect 14 0 3 0;
#X connect 19 0 48 0;
#X connect 21 0 22 0;
#X connect 22 0 23 0;
#X connect 23 0 20 0;
#X connect 24 0 21 0;
#X connect 24 1 8 0;
#X connect 26 0 7 0;
#X connect 29 0 9 0;
#X connect 29 1 10 0;
#X connect 29 2 13 0;
#X connect 29 3 35 0;
#X connect 29 4 36 0;
#X connect 29 5 19 0;
#X connect 33 0 37 0;
#X connect 34 0 38 0;
#X connect 35 0 31 0;
#X connect 36 0 32 0;
#X connect 37 0 5 0;
#X connect 38 0 5 0;
#X connect 39 0 40 0;
#X connect 39 1 41 0;
#X connect 39 2 55 0;
#X connect 40 0 45 0;
#X connect 40 1 46 0;
#X connect 41 0 42 0;
#X connect 41 1 46 0;
#X connect 42 0 44 0;
#X connect 43 0 52 0;
#X connect 44 0 52 0;
#X connect 45 0 43 0;
#X connect 46 0 49 0;
#X connect 47 0 50 0;
#X connect 48 0 13 0;
#X connect 48 1 9 0;
#X connect 48 2 10 0;
#X connect 48 3 35 0;
#X connect 48 4 36 0;
#X connect 51 0 42 1;
#X connect 51 0 45 1;
#X connect 54 0 49 0;
#X connect 55 0 53 0;
#X connect 56 0 39 0;
#X connect 58 0 46 0;
#X connect 58 0 47 0;
#X coords 0 -1 1 1 222 120 2 0 0;
