#N canvas 429 742 1015 559 12;
#X obj 0 0 frequency_picker;
#X text 61 51 Tones/Oct.;
#X floatatom 135 51 5 1 128 0 - - - 12;
#X obj 42 21 hsl 128 15 1 2001 1 0 empty empty Millis:18 18 7 0 12
#fcfcfc #000000 #000000 0 1;
#X msg 185 19 label Millis:\$1;
#X text 0 17 Slide;
#X obj 268 90 - 1;
#X obj 45 54 tgl 15 0 empty empty empty 17 7 0 10 #fcfcfc #000000 #000000
0 1;
#X text 0 51 Chrom.;
#X obj 0 171 outlet;
#X msg 22 133 fun \$1;
#X msg 77 133 tpo \$1;
#X msg 268 133 slide \$1;
#X msg 198 133 chrom \$1;
#X msg 133 133 mode \$1;
#X obj 39 36 hradio 15 1 0 7 empty empty empty 0 -8 0 10 #fcfcfc #000000
#000000 0;
#X text 7 34 Mode;
#X obj -11 -139 loadbang;
#X obj 91 -79 f 440;
#X obj 23 -79 f 19;
#X obj 61 -79 f 2;
#X obj -11 -113 t b b b b b;
#X obj 135 -79 f 12;
#X obj -11 -79 f 0;
#X obj 103 -134 inlet;
#X text 191 169 Koen Riksen 2022;
#X connect 0 0 9 0;
#X connect 0 0 10 0;
#X connect 2 0 11 0;
#X connect 3 0 6 0;
#X connect 4 0 3 0;
#X connect 6 0 4 0;
#X connect 6 0 12 0;
#X connect 7 0 13 0;
#X connect 10 0 9 0;
#X connect 11 0 9 0;
#X connect 12 0 9 0;
#X connect 13 0 9 0;
#X connect 15 0 14 0;
#X connect 17 0 21 0;
#X connect 18 0 0 0;
#X connect 19 0 3 0;
#X connect 20 0 15 0;
#X connect 21 0 23 0;
#X connect 21 1 19 0;
#X connect 21 2 20 0;
#X connect 21 3 18 0;
#X connect 21 4 22 0;
#X connect 22 0 2 0;
#X connect 23 0 7 0;
#X connect 24 0 21 0;
#X coords 0 -1 1 1 172 71 1 0 0;
