#N canvas 338 338 450 300 12;
#X obj 90 18 inlet;
#X obj 215 113 + 1;
#X obj 169 113 t f f;
#X obj 169 89 f 0;
#X msg 240 137 0;
#X obj 169 161 t b b f;
#X obj 55 258 outlet;
#X obj 215 258 outlet;
#X obj 55 224 list split 1;
#X obj 55 200 list store;
#X msg 187 61 \$1;
#X obj 169 137 moses \$1;
#X obj 90 44 t b a b;
#X connect 0 0 12 0;
#X connect 1 0 3 1;
#X connect 2 0 11 0;
#X connect 2 1 1 0;
#X connect 3 0 2 0;
#X connect 4 0 3 1;
#X connect 5 0 3 0;
#X connect 5 1 9 0;
#X connect 5 2 7 0;
#X connect 8 0 6 0;
#X connect 8 1 9 1;
#X connect 9 0 8 0;
#X connect 9 1 10 0;
#X connect 10 0 3 1;
#X connect 11 0 5 0;
#X connect 11 1 4 0;
#X connect 12 0 3 0;
#X connect 12 1 9 1;
#X connect 12 2 4 0;
