#N canvas 409 168 1920 997 12;
#X obj 115 58 inlet;
#X text 302 130 Carrier;
#X text 595 98 Modulator;
#X obj 276 58 inlet;
#X msg 276 324 0;
#X obj 809 114 inlet;
#X text 853 114 ADSR_T;
#X obj 357 84 inlet;
#X text 401 84 Tuning;
#X obj 197 400 outlet~;
#X text 98 34 Note on;
#X text 277 34 Note off;
#X obj 646 114 inlet;
#X text 688 114 Modulation;
#X obj 487 54 inlet;
#X text 531 54 Mod. Tuning;
#X text 356 60 Note #;
#X text 486 30 Note #;
#X obj 115 124 unpack f f;
#X obj 115 150 t b f;
#X obj 164 150 f;
#X text 41 124 note & vel;
#X obj 164 187 sel 0;
#X msg 291 247 set \$1;
#X obj 357 247 tabosc4~;
#X obj 537 247 tabosc4~;
#X obj 357 298 mix~;
#X obj 357 216 frequency_modulator_stereo;
#X obj 115 88 route list arr1 arr2;
#X text 472 363 Koen Riksen 2022;
#X obj 291 220 symbol;
#X msg 471 273 set \$1;
#X obj 471 246 symbol;
#X obj 357 128 minimal_tuning_interval;
#X obj 487 98 minimal_tuning;
#X obj 196 363 ADSR_TV_guts 80 120 0.9 69 1 1.6 3, f 35;
#X text 202 437 The hardcoded 0 for note off might be bad, f 43;
#X connect 0 0 28 0;
#X connect 3 0 4 0;
#X connect 4 0 35 1;
#X connect 5 0 35 3;
#X connect 7 0 33 0;
#X connect 12 0 27 3;
#X connect 12 0 27 4;
#X connect 14 0 34 0;
#X connect 18 0 19 0;
#X connect 18 1 20 1;
#X connect 19 0 20 0;
#X connect 19 1 33 0;
#X connect 20 0 22 0;
#X connect 22 0 4 0;
#X connect 22 1 35 0;
#X connect 23 0 24 0;
#X connect 24 0 26 0;
#X connect 25 0 26 2;
#X connect 26 0 35 2;
#X connect 27 0 24 0;
#X connect 27 1 25 0;
#X connect 28 0 18 0;
#X connect 28 1 30 0;
#X connect 28 2 32 0;
#X connect 28 3 35 0;
#X connect 30 0 23 0;
#X connect 31 0 25 0;
#X connect 32 0 31 0;
#X connect 33 0 27 0;
#X connect 33 1 27 1;
#X connect 34 0 27 2;
#X connect 35 0 9 0;
