#N canvas 78 78 450 437 12;
#X obj 89 35 inlet;
#X obj 89 375 outlet;
#X obj 153 35 inlet;
#X obj 153 61 route bits float;
#X obj 89 61 * 0.5;
#X obj 89 87 + 0.5;
#X obj 89 323 - 0.5;
#X obj 89 349 * 2;
#X obj 128 188 i;
#X obj 153 87 t f f;
#X obj 89 113 t f f;
#X obj 128 152 * \$1;
#X obj 128 224 / \$1;
#X obj 89 279 mix, f 11;
#X connect 0 0 4 0;
#X connect 2 0 3 0;
#X connect 3 0 9 0;
#X connect 3 1 13 2;
#X connect 4 0 5 0;
#X connect 5 0 10 0;
#X connect 6 0 7 0;
#X connect 7 0 1 0;
#X connect 8 0 12 0;
#X connect 9 0 11 1;
#X connect 9 1 12 1;
#X connect 10 0 13 0;
#X connect 10 1 11 0;
#X connect 11 0 8 0;
#X connect 12 0 13 1;
#X connect 13 0 6 0;
