#N canvas 260 260 2156 854 12;
#X obj 83 72 inlet;
#X obj 83 707 outlet;
#X text 135 707 Changed values only;
#X obj 1739 706 outlet;
#X text 1787 706 Changed setting ID;
#X text 266 89 Pair each setting with an ID \, even though its a little
late for that...;
#X obj 643 321 pair 8;
#X obj 713 321 pair 9;
#X obj 783 321 pair 10;
#X obj 853 321 pair 11;
#X obj 923 321 pair 12;
#X obj 993 321 pair 13;
#X obj 1063 321 pair 14;
#X obj 1133 321 pair 15;
#X obj 1203 321 pair 16;
#X obj 1273 321 pair 17;
#X obj 1343 321 pair 18;
#X obj 1413 321 pair 19;
#X obj 1483 321 pair 20;
#X obj 1553 321 pair 21;
#X obj 1623 321 pair 22;
#X obj 1693 321 pair 23;
#X obj 223 321 pair 0;
#X obj 573 321 pair 1;
#X obj 83 321 pair 2;
#X obj 153 321 pair 3;
#X obj 293 321 pair 4;
#X obj 363 321 pair 5;
#X obj 433 321 pair 6;
#X obj 503 321 pair 7;
#X obj 83 148 route curve dc phase lowpass highpass lensing center
phase_diff array_size sine distance power height sinesum period period_mix
polarity folding ceiling reverse bitcrush bitcrush_bits normalize remove_dc
, f 240;
#X connect 0 0 30 0;
#X connect 6 0 1 0;
#X connect 6 1 3 0;
#X connect 7 0 1 0;
#X connect 7 1 3 0;
#X connect 8 0 1 0;
#X connect 8 1 3 0;
#X connect 9 0 1 0;
#X connect 9 1 3 0;
#X connect 10 0 1 0;
#X connect 10 1 3 0;
#X connect 11 0 1 0;
#X connect 11 1 3 0;
#X connect 12 0 1 0;
#X connect 12 1 3 0;
#X connect 13 0 1 0;
#X connect 13 1 3 0;
#X connect 14 0 1 0;
#X connect 14 1 3 0;
#X connect 15 0 1 0;
#X connect 15 1 3 0;
#X connect 16 0 1 0;
#X connect 16 1 3 0;
#X connect 17 0 1 0;
#X connect 17 1 3 0;
#X connect 18 0 1 0;
#X connect 18 1 3 0;
#X connect 19 0 1 0;
#X connect 19 1 3 0;
#X connect 20 0 1 0;
#X connect 20 1 3 0;
#X connect 21 0 1 0;
#X connect 21 1 3 0;
#X connect 22 0 1 0;
#X connect 22 1 3 0;
#X connect 23 0 1 0;
#X connect 23 1 3 0;
#X connect 24 0 1 0;
#X connect 24 1 3 0;
#X connect 25 0 1 0;
#X connect 25 1 3 0;
#X connect 26 0 1 0;
#X connect 26 1 3 0;
#X connect 27 0 1 0;
#X connect 27 1 3 0;
#X connect 28 0 1 0;
#X connect 28 1 3 0;
#X connect 29 0 1 0;
#X connect 29 1 3 0;
#X connect 30 0 24 0;
#X connect 30 1 25 0;
#X connect 30 2 22 0;
#X connect 30 3 26 0;
#X connect 30 4 27 0;
#X connect 30 5 28 0;
#X connect 30 6 29 0;
#X connect 30 7 23 0;
#X connect 30 8 6 0;
#X connect 30 9 7 0;
#X connect 30 10 8 0;
#X connect 30 11 9 0;
#X connect 30 12 10 0;
#X connect 30 13 11 0;
#X connect 30 14 12 0;
#X connect 30 15 13 0;
#X connect 30 16 14 0;
#X connect 30 17 15 0;
#X connect 30 18 16 0;
#X connect 30 19 17 0;
#X connect 30 20 18 0;
#X connect 30 21 19 0;
#X connect 30 22 20 0;
#X connect 30 23 21 0;
