#N canvas 520 125 1044 1211 10;
#X obj 345 1158 outlet;
#X obj 124 1158 outlet;
#X text 167 1158 Outlets go to tabwrite inlets;
#X text 69 14 Args;
#X obj 680 16 inlet;
#X text 718 16 #OfPointsInArray;
#X obj 124 740 * 1;
#X obj 124 766 wavecenterfocus;
#X obj 124 897 highlowsplit;
#X obj 30 16 inlet;
#N canvas 932 505 584 597 dual_curvor 0;
#X obj 80 30 inlet;
#X obj 169 30 inlet;
#X obj 235 30 inlet;
#X text 234 15 Phase;
#X text 168 16 Curve;
#X obj 182 453 outlet;
#X text 79 16 Point;
#X obj 204 263 curvor;
#X obj 204 225 *;
#X obj 237 141 pi;
#X obj 237 120 loadbang;
#X obj 264 187 * 2;
#X obj 269 103 bng 15 250 50 0 empty empty empty 17 7 0 10 #fcfcfc
#000000 #000000;
#X obj 237 225 * 1.5;
#X obj 315 30 inlet;
#X text 312 15 Angulation;
#X obj 80 51 t f f;
#X obj 80 263 curvor;
#X text 122 263 Wave function;
#X obj 169 51 t f f;
#X obj 235 51 t f f;
#X obj 80 338 * 4;
#X obj 80 317 - 0.75;
#X obj 80 295 bounce;
#X obj 435 30 inlet;
#X obj 182 430 + 0;
#X text 432 15 Height;
#X obj 237 164 t f f;
#X obj 182 409 mix, f 8;
#X connect 0 0 16 0;
#X connect 1 0 19 0;
#X connect 2 0 20 0;
#X connect 7 0 28 1;
#X connect 8 0 7 0;
#X connect 9 0 27 0;
#X connect 10 0 9 0;
#X connect 11 0 8 1;
#X connect 12 0 9 0;
#X connect 13 0 7 2;
#X connect 14 0 28 2;
#X connect 16 0 17 0;
#X connect 16 1 8 0;
#X connect 17 0 23 0;
#X connect 19 0 17 1;
#X connect 19 1 7 1;
#X connect 20 0 17 2;
#X connect 20 1 7 2;
#X connect 21 0 28 0;
#X connect 22 0 21 0;
#X connect 23 0 22 0;
#X connect 24 0 25 1;
#X connect 25 0 5 0;
#X connect 27 0 13 0;
#X connect 27 1 11 0;
#X connect 28 0 25 0;
#X restore 124 535 pd dual_curvor;
#N canvas 1479 649 774 505 loopthrougharraypoints 0;
#X obj 390 400 pipe 0;
#X text 474 334 Looping mechanism;
#X obj 112 49 inlet;
#X text 151 49 Start;
#X obj 384 47 inlet;
#X text 423 48 array size;
#X obj 139 450 outlet;
#X text 183 450 Point;
#X obj 112 180 t f f;
#X obj 223 450 outlet;
#X text 270 450 Done;
#X obj 438 352 r wave_point_loop_delay;
#X obj 441 399 + 1;
#X obj 223 220 route 514;
#X obj 274 197 - 1;
#X msg 112 124 0;
#X obj 192 48 inlet;
#X text 231 48 Steps;
#X obj 192 71 t b f;
#X obj 192 94 f 515;
#X obj 192 117 /;
#X obj 423 280 >;
#X obj 274 246 t f f;
#X obj 112 147 t f f;
#X obj 438 234 f;
#X obj 192 140 t f f;
#X obj 480 234 + 515;
#X obj 423 303 sel 1;
#X obj 423 326 t b b;
#X obj 465 279 f;
#X obj 438 257 t f f;
#X obj 423 376 f;
#X obj 390 423 t b f;
#X msg 390 446 0;
#X obj 384 70 t f f f;
#X connect 0 0 12 0;
#X connect 0 0 32 0;
#X connect 2 0 15 0;
#X connect 4 0 34 0;
#X connect 8 0 13 0;
#X connect 8 1 6 0;
#X connect 11 0 31 1;
#X connect 12 0 8 0;
#X connect 13 0 9 0;
#X connect 13 1 22 0;
#X connect 14 0 13 1;
#X connect 15 0 23 0;
#X connect 16 0 18 0;
#X connect 18 0 19 0;
#X connect 18 1 20 1;
#X connect 19 0 20 0;
#X connect 20 0 25 0;
#X connect 21 0 27 0;
#X connect 22 0 0 0;
#X connect 22 1 21 0;
#X connect 23 0 8 0;
#X connect 23 1 24 0;
#X connect 24 0 30 0;
#X connect 25 0 26 1;
#X connect 26 0 29 1;
#X connect 27 0 28 0;
#X connect 28 0 31 0;
#X connect 28 1 29 0;
#X connect 29 0 24 0;
#X connect 30 0 26 0;
#X connect 30 1 21 1;
#X connect 31 0 0 1;
#X connect 32 0 33 0;
#X connect 33 0 0 1;
#X connect 34 0 19 1;
#X connect 34 1 14 0;
#X restore 124 265 pd loopthrougharraypoints;
#X obj 535 1158 outlet;
#X text 578 1159 Done;
#X obj 124 801 wavecenterdistance;
#X text 241 802 Worth doubling up on \, maybe even in the same object
;
#N canvas 1029 564 450 300 powercurve 0;
#X obj 49 34 inlet;
#X obj 159 34 inlet;
#X obj 49 226 outlet;
#X obj 49 175 pow;
#X obj 49 155 pack f 1;
#X obj 159 55 sqrt;
#X obj 159 76 * 3;
#X obj 159 97 + 1;
#X text 104 157 power stage;
#X connect 0 0 4 0;
#X connect 1 0 5 0;
#X connect 3 0 2 0;
#X connect 4 0 3 0;
#X connect 5 0 6 0;
#X connect 6 0 7 0;
#X connect 7 0 4 1;
#X restore 124 428 pd powercurve;
#X obj 154 218 r \$0-regen_wave;
#X obj 124 220 bng 15 250 50 0 empty empty empty 17 7 0 10 #fcfcfc
#000000 #000000;
#N canvas 1785 689 450 376 sinesum_mix 0;
#X obj 41 46 inlet;
#X obj 41 107 t f f;
#X obj 68 261 + 0;
#X obj 114 46 inlet;
#X text 112 29 array point;
#X obj 199 46 inlet;
#X text 237 45 Mix;
#X obj 41 321 outlet;
#X text 36 30 Signal;
#X obj 68 192 *;
#X obj 83 171 -;
#X msg 83 150 1 \$1;
#X obj 199 107 t f f;
#X msg 299 145 set \$1;
#X obj 299 56 inlet;
#X text 300 37 Array name;
#X obj 114 202 tabread branchwave_temp2;
#X text 142 73 Add 1 to read 1-512 \, starts the sine wave at 0, f
26;
#X obj 114 73 + 1;
#X obj 41 290 mix, f 9;
#X connect 0 0 1 0;
#X connect 1 0 19 0;
#X connect 1 1 9 0;
#X connect 2 0 19 1;
#X connect 3 0 18 0;
#X connect 5 0 12 0;
#X connect 9 0 2 0;
#X connect 10 0 9 1;
#X connect 11 0 10 0;
#X connect 12 0 19 2;
#X connect 12 1 11 0;
#X connect 13 0 16 0;
#X connect 14 0 13 0;
#X connect 16 0 2 1;
#X connect 18 0 16 0;
#X connect 19 0 7 0;
#X restore 124 683 pd sinesum_mix;
#X obj 144 452 r \$0-curve;
#X obj 164 473 r \$0-dc;
#X obj 158 870 r \$0-lowpass;
#X obj 244 870 r \$0-highpass;
#X obj 139 715 r \$0-lensing;
#X obj 211 742 r \$0-center;
#X obj 184 493 r \$0-sine;
#X obj 229 776 r \$0-distance;
#X obj 212 428 r \$0-power;
#X obj 205 513 r \$0-height;
#X obj 707 61 s \$0-points_in_array;
#X obj 271 287 s \$0-wave_complete;
#X obj 535 946 r \$0-wave_complete;
#X obj 271 243 r \$0-points_in_array;
#X obj 151 309 s \$0-current_array_point;
#X obj 124 287 t f f;
#X obj 178 640 r \$0-sinesum_mix;
#X obj 30 180 s \$0-regen_wave;
#X obj 154 200 r waveshaper_regenerate_request;
#N canvas 862 660 1469 679 wave_shaper_internal_sends 0;
#X obj 96 13 inlet;
#X obj 22 224 t b f;
#X obj 71 224 t b f;
#X obj 121 224 t b f;
#X obj 171 224 t b f;
#X obj 221 224 t b f;
#X obj 271 224 t b f;
#X obj 321 224 t b f;
#X obj 371 224 t b f;
#X obj 421 224 t b f;
#X obj 470 224 t b f;
#X obj 520 224 t b f;
#X obj 570 224 t b f;
#X obj 620 224 t b f;
#X obj 71 258 s \$0-regen_wave;
#X obj 171 258 s \$0-regen_wave;
#X obj 271 258 s \$0-regen_wave;
#X obj 371 258 s \$0-regen_wave;
#X obj 470 258 s \$0-regen_wave;
#X obj 570 258 s \$0-regen_wave;
#X obj 28 287 s \$0-curve;
#X obj 98 287 s \$0-dc;
#X obj 148 287 s \$0-phase;
#X obj 218 287 s \$0-lowpass;
#X obj 248 307 s \$0-highpass;
#X obj 298 287 s \$0-lensing;
#X obj 348 307 s \$0-center;
#X obj 448 407 s \$0-square;
#X obj 497 307 s \$0-sine;
#X obj 547 287 s \$0-distance;
#X obj 597 307 s \$0-power;
#X obj 647 287 s \$0-height;
#X obj 697 307 s \$0-sinesum_mix;
#X obj 670 224 t b f;
#X obj 670 258 s \$0-regen_wave;
#X obj 747 287 s \$0-period;
#X obj 770 224 t b f;
#X obj 820 224 t b f;
#X obj 770 258 s \$0-regen_wave;
#X obj 797 307 s \$0-polarity;
#X obj 847 287 s \$0-folding;
#X obj 1171 224 s \$0-regen_wave;
#X obj 870 224 t b f;
#X obj 897 347 s \$0-ceiling;
#X obj 947 287 s \$0-reverse_loop;
#X obj 920 224 t b f;
#X obj 870 258 s \$0-regen_wave;
#X obj 1071 224 s \$0-normalize;
#X obj 95 344 r \$0-ceiling;
#X obj 122 397 t f f;
#X msg 122 420 0 \$1;
#X obj 122 443 -;
#X obj 122 471 s \$0-clipmin;
#X obj 202 471 s \$0-clipmax;
#X obj 1121 249 s \$0-remove_dc;
#X obj 123 102 s \$0-period_mix;
#X obj 720 224 t b f;
#X obj 96 42 route period_mix;
#X obj 96 68 t b f;
#X obj 22 102 s \$0-regen_wave;
#X obj 95 370 t b f;
#X obj 128 552 ||;
#X obj 128 504 r \$0-normalize;
#X obj 143 527 r \$0-remove_dc;
#X obj 95 577 spigot;
#X obj 95 606 s \$0-regen_wave;
#X text 254 523 this would work but we need to regen way more often...
;
#X text 409 431 deprecated sends \, can be reused;
#X obj 398 287 s \$0-phase_diff;
#X obj 997 308 s \$0-bitcrush;
#X obj 1047 331 s \$0-bitcrush_bits;
#X obj 22 143 route curve dc phase lowpass highpass lensing center
phase_diff square sine distance power height sinesum period polarity
folding ceiling reverse bitcrush bitcrush_bits normalize remove_dc
, f 192;
#X obj 970 224 t b f;
#X obj 1020 224 t b f;
#X obj 970 258 s \$0-regen_wave;
#X obj 22 172 change -999;
#X obj 71 192 change -999;
#X obj 121 172 change -999;
#X obj 171 192 change -999;
#X obj 221 172 change -999;
#X obj 271 192 change -999;
#X obj 321 172 change -999;
#X obj 371 192 change -999;
#X obj 421 172 change -999;
#X obj 471 192 change -999;
#X obj 521 172 change -999;
#X obj 571 192 change -999;
#X obj 621 172 change -999;
#X obj 671 192 change -999;
#X obj 721 172 change -999;
#X obj 771 192 change -999;
#X obj 821 172 change -999;
#X obj 871 192 change -999;
#X obj 921 172 change -999;
#X obj 971 192 change -999;
#X obj 1021 172 change -999;
#X connect 0 0 57 0;
#X connect 1 0 14 0;
#X connect 1 1 20 0;
#X connect 2 0 14 0;
#X connect 2 1 21 0;
#X connect 3 0 14 0;
#X connect 3 1 22 0;
#X connect 4 0 15 0;
#X connect 4 1 23 0;
#X connect 5 0 15 0;
#X connect 5 1 24 0;
#X connect 6 0 16 0;
#X connect 6 1 25 0;
#X connect 7 0 16 0;
#X connect 7 1 26 0;
#X connect 8 0 17 0;
#X connect 8 1 68 0;
#X connect 9 0 17 0;
#X connect 9 1 27 0;
#X connect 10 0 18 0;
#X connect 10 1 28 0;
#X connect 11 0 18 0;
#X connect 11 1 29 0;
#X connect 12 0 19 0;
#X connect 12 1 30 0;
#X connect 13 0 19 0;
#X connect 13 1 31 0;
#X connect 33 0 34 0;
#X connect 33 1 32 0;
#X connect 36 0 38 0;
#X connect 36 1 39 0;
#X connect 37 0 38 0;
#X connect 37 1 40 0;
#X connect 42 0 46 0;
#X connect 42 1 43 0;
#X connect 45 0 46 0;
#X connect 45 1 44 0;
#X connect 48 0 60 0;
#X connect 49 0 50 0;
#X connect 49 1 53 0;
#X connect 50 0 51 0;
#X connect 51 0 52 0;
#X connect 56 0 34 0;
#X connect 56 1 35 0;
#X connect 57 0 58 0;
#X connect 57 1 71 0;
#X connect 58 0 59 0;
#X connect 58 1 55 0;
#X connect 60 1 49 0;
#X connect 61 0 64 1;
#X connect 62 0 61 0;
#X connect 63 0 61 1;
#X connect 64 0 65 0;
#X connect 71 0 75 0;
#X connect 71 1 76 0;
#X connect 71 2 77 0;
#X connect 71 3 78 0;
#X connect 71 4 79 0;
#X connect 71 5 80 0;
#X connect 71 6 81 0;
#X connect 71 7 82 0;
#X connect 71 8 83 0;
#X connect 71 9 84 0;
#X connect 71 10 85 0;
#X connect 71 11 86 0;
#X connect 71 12 87 0;
#X connect 71 13 88 0;
#X connect 71 14 89 0;
#X connect 71 15 90 0;
#X connect 71 16 91 0;
#X connect 71 17 92 0;
#X connect 71 18 93 0;
#X connect 71 19 94 0;
#X connect 71 20 95 0;
#X connect 71 21 47 0;
#X connect 71 22 54 0;
#X connect 71 23 41 0;
#X connect 72 0 74 0;
#X connect 72 1 69 0;
#X connect 73 0 74 0;
#X connect 73 1 70 0;
#X connect 75 0 1 0;
#X connect 76 0 2 0;
#X connect 77 0 3 0;
#X connect 78 0 4 0;
#X connect 79 0 5 0;
#X connect 80 0 6 0;
#X connect 81 0 7 0;
#X connect 82 0 8 0;
#X connect 83 0 9 0;
#X connect 84 0 10 0;
#X connect 85 0 11 0;
#X connect 86 0 12 0;
#X connect 87 0 13 0;
#X connect 88 0 33 0;
#X connect 89 0 56 0;
#X connect 90 0 36 0;
#X connect 91 0 37 0;
#X connect 92 0 42 0;
#X connect 93 0 45 0;
#X connect 94 0 72 0;
#X connect 95 0 73 0;
#X restore 129 67 pd wave_shaper_internal_sends;
#N canvas 1294 588 931 690 wave_shaper_presets 0;
#X obj 143 35 inlet;
#X text 94 130 Sine;
#X text 100 178 Saw;
#X text 54 381 Opera house;
#X obj 396 609 outlet;
#X text 85 428 Fabric;
#X text 69 277 Triangle;
#X msg 122 130 1 0 0 1 1 1 0 0 0 0 0 0 0 1 0 0.5 0 0 0 8 1 0 1 1,
f 38;
#X msg 122 178 1 0 1.25 1 1 1 0 0 0 0 0 0 0 0 0 0.5 0 0 0 8 1 0 1 1
, f 41;
#X msg 121 276 1 0 0.69 1 1 1 0 0 0 0 0 0 0 0 -1.24945 0.5 0 1.70457
0 8 1 0 1 1, f 53;
#X msg 124 379 1 0 0.965 1 1 1 0 0 0 0 0 0 0 0.574627 1.9685 1 0 0
0 8 1.24 0 1 1, f 51;
#X msg 125 426 1 0 1 1 1 1 0 0 0 0 0 0 0 0.873134 1.9685 1 0 8.31496
0 8 1 0 1 1, f 54;
#X msg 124 469 1 0 0.670551 1 1 1 0 0 0 0 0.905276 0 0 0.798507 -1.24913
0.5 0 1.70457 0.668898 8 1 0 1 1, f 72;
#X text 72 475 Colorado;
#X obj 143 61 route saw sine square triangle opera_house fabric colorado
;
#X connect 0 0 14 0;
#X connect 7 0 4 0;
#X connect 8 0 4 0;
#X connect 9 0 4 0;
#X connect 10 0 4 0;
#X connect 11 0 4 0;
#X connect 12 0 4 0;
#X connect 14 0 8 0;
#X connect 14 1 7 0;
#X connect 14 3 9 0;
#X connect 14 4 10 0;
#X connect 14 5 11 0;
#X connect 14 6 12 0;
#X restore 79 90 pd wave_shaper_presets;
#N canvas 939 515 1091 362 wave_shaper_settings_unpack 0;
#X obj 35 53 inlet;
#X obj 56 129 s \$0-dc;
#X obj 78 149 s \$0-phase;
#X obj 100 169 s \$0-lowpass;
#X obj 122 189 s \$0-highpass;
#X obj 144 109 s \$0-lensing;
#X obj 166 129 s \$0-center;
#X obj 35 109 s \$0-curve;
#X obj 210 289 s \$0-square;
#X obj 232 109 s \$0-sine;
#X obj 254 129 s \$0-distance;
#X obj 276 149 s \$0-power;
#X obj 298 169 s \$0-height;
#X obj 320 109 s \$0-sinesum_mix;
#X obj 342 130 s \$0-period;
#X obj 384 149 s \$0-polarity;
#X obj 408 169 s \$0-folding;
#X obj 365 200 s \$0-period_mix;
#X obj 472 148 s \$0-ceiling;
#X obj 494 128 s \$0-reverse_loop;
#X obj 519 168 s \$0-normalize;
#X obj 542 193 s \$0-remove_dc;
#X text 193 313 deprecated;
#X obj 188 169 s \$0-phase_diff;
#X obj 35 85 unpack f f f f f f f f f f f f f f f f f f f f f f f f
, f 85;
#X obj 426 226 s \$0-bitcrush;
#X obj 444 246 s \$0-bitcrush_bits;
#X connect 0 0 24 0;
#X connect 24 0 7 0;
#X connect 24 1 1 0;
#X connect 24 2 2 0;
#X connect 24 3 3 0;
#X connect 24 4 4 0;
#X connect 24 5 5 0;
#X connect 24 6 6 0;
#X connect 24 7 23 0;
#X connect 24 8 8 0;
#X connect 24 9 9 0;
#X connect 24 10 10 0;
#X connect 24 11 11 0;
#X connect 24 12 12 0;
#X connect 24 13 13 0;
#X connect 24 14 14 0;
#X connect 24 15 17 0;
#X connect 24 16 15 0;
#X connect 24 17 16 0;
#X connect 24 18 25 0;
#X connect 24 19 26 0;
#X connect 24 20 18 0;
#X connect 24 21 19 0;
#X connect 24 22 20 0;
#X connect 24 23 21 0;
#X restore 49 159 pd wave_shaper_settings_unpack;
#X text 154 186 from outside \, so no dollar sign;
#X obj 124 992 * 1;
#X obj 139 943 bintopol;
#X obj 139 923 r \$0-polarity;
#X obj 139 964 * -1;
#X obj 345 948 r \$0-current_array_point;
#X obj 510 187 s wave_point_loop_delay;
#X obj 205 661 r \$0-array_name_sines;
#X obj 864 61 s \$0-array_name_sines;
#X obj 837 16 inlet;
#X obj 30 43 route list preset;
#X text 874 15 Mix in Array name;
#X obj 688 1162 outlet;
#X text 730 1162 Preset values;
#X obj 30 115 t b a a;
#X obj 124 1014 clip -1 1;
#X obj 528 327 bng 15 250 50 0 empty empty empty 17 7 0 10 #fcfcfc
#000000 #000000;
#N canvas 1170 553 1056 596 preset_capture 0;
#X obj 78 250 outlet;
#X obj 47 58 inlet;
#X msg 47 175 1;
#X obj 47 150 bng 15 250 50 0 empty empty empty 17 7 0 10 #fcfcfc #000000
#000000;
#X obj 101 41 r \$0-curve;
#X obj 122 61 r \$0-dc;
#X obj 144 81 r \$0-phase;
#X obj 166 101 r \$0-lowpass;
#X obj 188 121 r \$0-highpass;
#X obj 220 41 r \$0-lensing;
#X obj 242 61 r \$0-center;
#X obj 286 321 r \$0-square;
#X obj 316 41 r \$0-sine;
#X obj 338 61 r \$0-distance;
#X obj 360 81 r \$0-power;
#X obj 382 101 r \$0-height;
#X obj 411 11 r \$0-sinesum_mix;
#X obj 433 31 r \$0-period;
#X obj 468 71 r \$0-polarity;
#X obj 491 91 r \$0-folding;
#X obj 452 51 r \$0-period_mix;
#X obj 554 21 r \$0-ceiling;
#X obj 577 41 r \$0-reverse_loop;
#X obj 596 70 r \$0-normalize;
#X obj 618 95 r \$0-remove_dc;
#X text 274 343 Deprecated;
#X obj 264 81 r \$0-phase_diff;
#X obj 512 113 r \$0-bitcrush;
#X obj 535 135 r \$0-bitcrush_bits;
#X obj 78 193 pack f f f f f f f f f f f f f f f f f f f f f f f f
f, f 92;
#X msg 78 216 set \$2 \$3 \$4 \$5 \$6 \$7 \$8 \$9 \$10 \$11 \$12 \$13
\$14 \$15 \$16 \$17 \$18 \$19 \$20 \$21 \$22 \$23 \$24 \$25, f 76
;
#X connect 1 0 3 0;
#X connect 2 0 29 0;
#X connect 3 0 2 0;
#X connect 4 0 29 1;
#X connect 5 0 29 2;
#X connect 6 0 29 3;
#X connect 7 0 29 4;
#X connect 8 0 29 5;
#X connect 9 0 29 6;
#X connect 10 0 29 7;
#X connect 11 0 29 9;
#X connect 12 0 29 10;
#X connect 13 0 29 11;
#X connect 14 0 29 12;
#X connect 15 0 29 13;
#X connect 16 0 29 14;
#X connect 17 0 29 15;
#X connect 18 0 29 17;
#X connect 19 0 29 18;
#X connect 20 0 29 16;
#X connect 21 0 29 21;
#X connect 22 0 29 22;
#X connect 23 0 29 23;
#X connect 24 0 29 24;
#X connect 26 0 29 8;
#X connect 27 0 29 19;
#X connect 28 0 29 20;
#X connect 29 0 30 0;
#X connect 30 0 0 0;
#X restore 528 356 pd preset_capture;
#X msg 545 401 1 0 0.670551 1 1 1 0 0 0 0 0.905276 0 0 0.798507 -1.24913
0.5 0 1.70457 0.668898 8 1 0 1 1, f 72;
#X obj 124 241 floatgrain 16;
#X obj 205 353 r \$0-points_in_array;
#N canvas 542 324 1397 967 point_phase 0;
#X obj 87 53 inlet;
#X obj 87 716 outlet;
#X obj 87 509 - 0;
#X obj 178 263 - 3;
#X obj 102 385 * 512;
#X obj 27 324 mod 512;
#X obj 228 53 inlet;
#X text 265 194 array size;
#X obj 142 53 inlet;
#X obj 228 196 t f f;
#X text 177 53 invert;
#X text 53 54 point;
#N canvas 2749 806 731 652 invert_mechanism 0;
#X obj 264 40 inlet;
#X text 303 41 array size;
#X obj 237 190 f 515;
#X obj 131 40 inlet;
#X text 168 40 invert;
#X obj 131 108 unpack f f;
#X obj 174 190 f 0;
#X obj 128 231 range_invert 0 0;
#X obj 128 283 outlet;
#X text 172 283 Point;
#X obj 264 64 f 515;
#X obj 131 63 route list bang;
#X obj 73 40 inlet;
#X text 39 41 Point;
#X obj 218 108 sel 0 1;
#X msg 218 133 0;
#X obj 218 156 t f f;
#X obj 259 156 t b b;
#X obj 218 86 f 0;
#X connect 0 0 10 0;
#X connect 2 0 7 2;
#X connect 3 0 11 0;
#X connect 5 0 6 1;
#X connect 5 1 2 1;
#X connect 6 0 7 1;
#X connect 7 0 8 0;
#X connect 10 0 2 1;
#X connect 11 0 5 0;
#X connect 11 1 18 0;
#X connect 11 2 18 0;
#X connect 12 0 7 0;
#X connect 14 0 15 0;
#X connect 14 1 17 0;
#X connect 15 0 16 0;
#X connect 16 0 7 1;
#X connect 16 1 7 2;
#X connect 17 0 6 0;
#X connect 17 1 2 0;
#X connect 18 0 14 0;
#X restore 87 223 pd invert_mechanism;
#X obj 187 716 outlet;
#X obj 87 454 t f f;
#X obj 87 636 / 512;
#X text 35 717 Relative;
#X text 229 716 Absolute;
#X obj 87 678 * 1;
#X obj 399 121 route float;
#X text 140 609 Guard points are copied from the first 3 points;
#X obj 187 578 * 1;
#N canvas 1097 282 1080 688 period_effector 0;
#X obj 165 116 inlet;
#X msg 95 304 2 \$1;
#X obj 95 326 pow;
#X obj 95 374 t f f;
#X obj 195 410 pow 0;
#X msg 238 317 1 \$1;
#X obj 238 340 -;
#X obj 211 286 t f f;
#X obj 165 199 route list float;
#X obj 165 262 unpack f f;
#X obj 95 410 pow 1;
#X obj 165 147 route mix;
#X obj 216 172 route float;
#X obj 95 452 outlet;
#X obj 195 456 outlet;
#X obj 138 172 t b a;
#X obj 95 349 f 1;
#X connect 0 0 11 0;
#X connect 1 0 2 0;
#X connect 2 0 16 0;
#X connect 3 0 10 0;
#X connect 3 1 4 0;
#X connect 4 0 14 0;
#X connect 5 0 6 0;
#X connect 6 0 4 1;
#X connect 7 0 10 1;
#X connect 7 1 5 0;
#X connect 8 0 9 0;
#X connect 8 1 7 0;
#X connect 9 0 10 1;
#X connect 9 1 4 1;
#X connect 10 0 13 0;
#X connect 11 0 15 0;
#X connect 11 1 12 0;
#X connect 12 0 1 0;
#X connect 15 0 16 0;
#X connect 15 1 8 0;
#X connect 16 0 3 0;
#X restore 342 514 pd period_effector;
#X obj 87 609 mod 512;
#X text 235 649 Guard points are copied from points 512 \, 1 and 2
;
#X obj 187 649 mod 512;
#X obj 102 482 - 512;
#X obj 208 385 * 2;
#X text 235 385 Maximum phase compensation;
#X obj 228 97 route phase phase_diff period;
#X obj 187 509 - 0;
#X text 241 481 Ensure positive values \, negative values cause bugs!
;
#X obj 202 482 - 512;
#X obj 208 408 t f f;
#X obj 285 158 +;
#X obj 228 120 t f f;
#X obj 142 385 * 512;
#X obj 178 291 t f f f f f f;
#X obj 293 131 t b f;
#X obj 142 131 t f f;
#X obj 653 134 cnv 15 300 600 empty empty Debugging 20 12 0 14 #e0e0e0
#404040 0;
#X obj 688 271 unpack f f;
#X obj 688 226 route list bang;
#X obj 775 271 sel 0 1;
#X msg 775 296 0;
#X obj 775 249 f 0;
#X msg 806 296 -1;
#X obj 714 627 domain_capture;
#X obj 798 656 unpack f f;
#X floatatom 798 679 5 0 0 0 - - - 0;
#X floatatom 854 676 5 0 0 0 - - - 0;
#X obj 749 598 bng 15 250 50 0 empty empty empty 17 7 0 10 #fcfcfc
#000000 #000000;
#X text 673 329 When the period is < 1 and the phase is inverted the
values probably get multiplied wrong. This happens because different
ends of the point range inherently have different multiplication products
, f 42;
#X text 691 422 This probably happens for all non-integer periods,
f 39;
#X text 711 458 wouldn't happen if the values coming from the invert_mechanism
didn't go through a mod \, right?, f 36;
#X text 12 306 old \, redundant;
#X text 663 521 moving up the last [* 1] above the mod breaks the fabric
preset \, doesn't really fix anything either..., f 46;
#X connect 0 0 12 0;
#X connect 2 0 23 0;
#X connect 3 0 37 0;
#X connect 4 0 26 0;
#X connect 5 0 14 0;
#X connect 6 0 29 0;
#X connect 8 0 39 0;
#X connect 9 0 12 2;
#X connect 9 1 3 0;
#X connect 12 0 14 0;
#X connect 14 0 2 0;
#X connect 14 1 30 0;
#X connect 15 0 18 0;
#X connect 18 0 1 0;
#X connect 19 0 9 0;
#X connect 21 0 25 0;
#X connect 22 0 18 1;
#X connect 22 1 21 1;
#X connect 23 0 15 0;
#X connect 25 0 13 0;
#X connect 26 0 2 1;
#X connect 27 0 33 0;
#X connect 29 0 35 0;
#X connect 29 1 34 0;
#X connect 29 2 22 0;
#X connect 29 3 19 0;
#X connect 30 0 21 0;
#X connect 32 0 30 1;
#X connect 33 0 26 1;
#X connect 33 1 32 1;
#X connect 34 0 36 0;
#X connect 35 0 4 0;
#X connect 35 1 38 0;
#X connect 36 0 32 0;
#X connect 37 0 5 1;
#X connect 37 1 4 1;
#X connect 37 2 27 0;
#X connect 37 3 23 1;
#X connect 37 3 25 1;
#X connect 37 4 15 1;
#X connect 37 5 36 1;
#X connect 38 0 34 0;
#X connect 38 1 34 1;
#X connect 39 0 12 1;
#X connect 39 1 42 0;
#X connect 42 0 41 0;
#X connect 42 1 45 0;
#X connect 42 2 45 0;
#X connect 43 0 44 0;
#X connect 43 1 46 0;
#X connect 45 0 43 0;
#X connect 47 1 48 0;
#X connect 48 0 49 0;
#X connect 48 1 50 0;
#X connect 51 0 47 1;
#X restore 124 375 pd point_phase;
#X obj 205 398 s \$0-phased_array_point;
#X obj 151 620 r \$0-phased_array_point;
#X obj 124 846 clip -1 1;
#X obj 404 15 inlet;
#X text 442 16 Settings;
#X obj 404 66 i 16;
#X obj 404 43 route writecycle cyclesteps;
#X obj 483 66 i 1;
#X obj 510 141 f;
#X obj 510 115 t b f;
#X obj 510 164 / 1;
#X obj 483 89 t f f;
#X obj 404 89 t f f;
#X obj 124 1130 domain_capture 0 0;
#X msg 249 1135 reset;
#X obj 249 1112 t b b;
#X obj 535 971 t a b;
#X obj 410 1158 outlet;
#X obj 164 331 r \$0-reverse_loop;
#X obj 410 1130 pack f f;
#X text 464 1129 normal and offset;
#X obj 468 1007 r \$0-normalize;
#X obj 186 846 r \$0-clipmin;
#X obj 186 826 r \$0-clipmax;
#X obj 186 1014 r \$0-clipmin;
#X obj 186 994 r \$0-clipmax;
#N canvas 1647 627 828 498 normal_and_offset 0;
#X obj 116 88 unpack f f;
#X msg 173 242 1 \$1;
#X obj 173 265 -;
#X obj 158 289 min;
#X obj 116 265 + 1;
#X msg 158 317 1 \$1;
#X obj 158 340 -;
#X msg 158 363 1 \$1;
#X obj 158 386 /;
#X text 76 445 Normal factor;
#X obj 116 19 inlet;
#X obj 158 445 outlet;
#X text 94 88 min;
#X text 182 89 max;
#X obj 419 445 outlet;
#X obj 448 231 +;
#X text 462 445 Offset;
#X obj 438 331 t f f f;
#X obj 448 254 * -0.5;
#X obj 116 184 + 0;
#X obj 173 184 + 0;
#X obj 419 23 inlet;
#X text 458 23 remove DC setting;
#X obj 419 76 sel 0 1;
#X msg 380 76 0;
#X obj 380 99 t f f f;
#X obj 438 307 spigot 1;
#X obj 438 277 f;
#X obj 419 47 t f f;
#X obj 239 23 inlet;
#X text 278 23 normalize setting;
#X obj 158 412 factor_bypass2;
#X obj 116 42 t a a;
#X obj 448 139 unpack f f;
#X text 426 139 min;
#X text 514 140 max;
#X connect 0 0 19 0;
#X connect 0 1 20 0;
#X connect 1 0 2 0;
#X connect 2 0 3 1;
#X connect 3 0 5 0;
#X connect 4 0 3 0;
#X connect 5 0 6 0;
#X connect 6 0 7 0;
#X connect 7 0 8 0;
#X connect 8 0 31 0;
#X connect 10 0 32 0;
#X connect 15 0 18 0;
#X connect 17 0 14 0;
#X connect 17 1 19 1;
#X connect 17 2 20 1;
#X connect 18 0 27 0;
#X connect 19 0 4 0;
#X connect 20 0 1 0;
#X connect 21 0 28 0;
#X connect 23 0 24 0;
#X connect 23 1 27 0;
#X connect 24 0 25 0;
#X connect 25 0 19 1;
#X connect 25 1 20 1;
#X connect 25 2 14 0;
#X connect 26 0 17 0;
#X connect 27 0 26 0;
#X connect 28 0 23 0;
#X connect 28 1 26 1;
#X connect 29 0 31 1;
#X connect 31 0 11 0;
#X connect 32 0 0 0;
#X connect 32 1 33 0;
#X connect 33 0 15 0;
#X connect 33 1 15 1;
#X restore 410 1079 pd normal_and_offset;
#X obj 500 1030 r \$0-remove_dc;
#X obj 124 595 wavefolding;
#X obj 187 571 r \$0-folding;
#X obj 424 353 r \$0-period;
#X msg 424 376 period \$1;
#X obj 355 353 r \$0-phase;
#X msg 355 376 phase \$1;
#X msg 424 420 period mix \$1;
#X obj 424 397 r \$0-period_mix;
#X obj 500 1054 t b f;
#X obj 410 1104 f 1;
#X obj 837 37 t b a;
#X obj 837 85 s \$0-regen_wave;
#X obj 688 946 r \$0-list_out;
#X obj 69 138 s \$0-list_out;
#X obj 392 301 r \$0-phase_diff;
#X msg 392 324 phase_diff \$1;
#X obj 124 1077 wavecrush 8;
#X msg 220 1073 bits \$1;
#X obj 132 1048 r \$0-bitcrush;
#X obj 220 1048 r \$0-bitcrush_bits;
#X text 48 376 See notes ->;
#X obj 680 37 t b f;
#X obj 680 85 s \$0-regen_wave;
#X connect 4 0 113 0;
#X connect 6 0 7 0;
#X connect 7 0 14 0;
#X connect 8 0 43 0;
#X connect 9 0 52 0;
#X connect 10 0 92 0;
#X connect 11 0 35 0;
#X connect 11 1 31 0;
#X connect 14 0 66 0;
#X connect 16 0 10 0;
#X connect 17 0 18 0;
#X connect 18 0 61 0;
#X connect 19 0 6 0;
#X connect 20 0 10 1;
#X connect 21 0 10 2;
#X connect 22 0 8 1;
#X connect 23 0 8 2;
#X connect 24 0 6 1;
#X connect 25 0 7 1;
#X connect 26 0 10 3;
#X connect 27 0 14 1;
#X connect 28 0 16 1;
#X connect 29 0 10 4;
#X connect 32 0 80 0;
#X connect 33 0 11 2;
#X connect 35 0 63 0;
#X connect 35 1 34 0;
#X connect 36 0 19 2;
#X connect 38 0 18 0;
#X connect 40 0 56 0;
#X connect 43 0 57 0;
#X connect 44 0 46 0;
#X connect 45 0 44 0;
#X connect 46 0 43 1;
#X connect 47 0 0 0;
#X connect 49 0 19 3;
#X connect 51 0 102 0;
#X connect 52 0 56 0;
#X connect 52 1 40 0;
#X connect 52 2 39 0;
#X connect 56 0 37 0;
#X connect 56 1 41 0;
#X connect 56 2 105 0;
#X connect 57 0 108 0;
#X connect 58 0 59 0;
#X connect 59 0 60 0;
#X connect 61 0 11 0;
#X connect 62 0 63 2;
#X connect 63 0 16 0;
#X connect 63 1 64 0;
#X connect 65 0 19 1;
#X connect 66 0 8 0;
#X connect 67 0 70 0;
#X connect 69 0 76 0;
#X connect 70 0 69 0;
#X connect 70 1 71 0;
#X connect 71 0 75 0;
#X connect 72 0 74 0;
#X connect 73 0 72 0;
#X connect 73 1 74 1;
#X connect 74 0 48 0;
#X connect 75 0 11 1;
#X connect 75 1 73 0;
#X connect 76 0 61 1;
#X connect 76 1 72 0;
#X connect 77 0 1 0;
#X connect 77 1 90 0;
#X connect 78 0 77 1;
#X connect 79 0 78 0;
#X connect 79 1 77 1;
#X connect 80 0 12 0;
#X connect 80 1 79 0;
#X connect 82 0 63 1;
#X connect 83 0 81 0;
#X connect 85 0 90 1;
#X connect 86 0 66 1;
#X connect 87 0 66 2;
#X connect 88 0 57 1;
#X connect 89 0 57 2;
#X connect 90 0 101 0;
#X connect 90 1 83 1;
#X connect 91 0 100 0;
#X connect 92 0 19 0;
#X connect 93 0 92 1;
#X connect 94 0 95 0;
#X connect 95 0 63 2;
#X connect 96 0 97 0;
#X connect 97 0 63 2;
#X connect 98 0 63 2;
#X connect 99 0 98 0;
#X connect 100 0 101 0;
#X connect 100 1 90 2;
#X connect 101 0 83 0;
#X connect 102 0 103 0;
#X connect 102 1 50 0;
#X connect 104 0 54 0;
#X connect 106 0 107 0;
#X connect 107 0 63 2;
#X connect 108 0 77 0;
#X connect 109 0 108 1;
#X connect 110 0 108 1;
#X connect 111 0 109 0;
#X connect 113 0 114 0;
#X connect 113 1 30 0;
