#N canvas 189 92 1337 1194 12;
#X obj 601 304 clone tabwriter.cl 35;
#X obj 51 60 inlet;
#X obj 554 60 inlet;
#X obj 597 60 inlet;
#X text 744 43 array;
#X obj 744 60 inlet;
#X obj 238 60 inlet;
#X text 236 44 Point #;
#X text 49 44 Signal;
#X text 597 44 steps;
#X obj 441 60 inlet;
#X text 435 44 factor;
#X text 553 44 time;
#X obj 441 304 spigot 0;
#X obj 834 60 inlet;
#X obj 441 444 spigot 0;
#X obj 441 573 spigot 0;
#X obj 441 706 spigot 0;
#X obj 554 213 t a a a a a;
#X obj 654 213 t a a a a a;
#X msg 507 182 all \$1 \$2;
#X msg 441 152 all \$1;
#X obj 866 113 t f f f f;
#X obj 441 242 t a a;
#X obj 441 331 t a a;
#X obj 441 467 t a a;
#X obj 441 596 t a a;
#X obj 441 729 t a a;
#X msg 554 152 all \$1;
#X msg 654 184 all \$1;
#X obj 554 94 t f f;
#X obj 586 126 / 3;
#X text 613 126 convert steps to grain time;
#X obj 597 94 t b f;
#X msg 744 184 all set \$1;
#X obj 744 213 t a a a a a;
#X text 834 43 array size expressed as a power of 2;
#X text 758 294 minimum amount of writers \, it's 32 and another 3
to accomodate waveform guard points.;
#X obj 441 122 route_by_type;
#N canvas 78 78 450 300 writers_help 0;
#X text 63 64 Signal;
#X text 108 64 Factor;
#X text 159 64 time;
#X text 194 64 grain;
#X text 66 44 Inlets:;
#X text 235 64 arrayname;
#X restore 758 334 pd writers_help;
#X obj 270 172 mosmin 35;
#X obj 270 215 mosmin 32;
#X obj 270 257 mosmin 64;
#X obj 263 296 mosmin 128;
#X obj 263 336 mosmin 256;
#X msg 601 270 this \$1;
#X msg 658 270 set \$1;
#X msg 458 362 this \$1;
#X msg 515 362 set \$1;
#X msg 458 495 this \$1;
#X msg 515 495 set \$1;
#X msg 456 625 this \$1;
#X msg 513 625 set \$1;
#X msg 456 767 this \$1;
#X msg 513 767 set \$1;
#X obj 238 97 t f f;
#N canvas 937 675 450 300 group_selection 0;
#X obj 49 40 inlet;
#X obj 49 226 outlet;
#X obj 49 113 log 2;
#X obj 49 139 i;
#X obj 49 85 - 3;
#X text 117 165 min and max writer group pow;
#X obj 141 40 inlet;
#X text 215 102 min and max pow of 2;
#X obj 49 165 clip 4 9;
#X obj 141 102 clip 4 24;
#X connect 0 0 4 0;
#X connect 2 0 3 0;
#X connect 3 0 8 0;
#X connect 4 0 2 0;
#X connect 6 0 9 0;
#X connect 8 0 1 0;
#X connect 9 0 8 2;
#X restore 99 173 pd group_selection;
#X obj 51 211 f;
#X obj 51 237 pack f f;
#X obj 51 173 t b f;
#X obj 51 273 route 4 5 6 7 8 9;
#X obj 99 200 change;
#X obj 834 87 t f f;
#X obj 486 281 >= 6;
#X obj 486 421 >= 7;
#X obj 486 551 >= 8;
#X obj 486 683 >= 9;
#X obj 458 394 clone tabwriter.cl 32 35;
#X obj 458 524 clone tabwriter.cl 64 67;
#X obj 456 654 clone tabwriter.cl 128 131;
#X obj 456 796 clone tabwriter.cl 256 259;
#X connect 1 0 59 0;
#X connect 2 0 30 0;
#X connect 3 0 33 0;
#X connect 5 0 34 0;
#X connect 6 0 55 0;
#X connect 10 0 38 0;
#X connect 13 0 24 0;
#X connect 14 0 62 0;
#X connect 15 0 25 0;
#X connect 16 0 26 0;
#X connect 17 0 27 0;
#X connect 18 0 70 2;
#X connect 18 1 69 2;
#X connect 18 2 68 2;
#X connect 18 3 67 2;
#X connect 18 4 0 2;
#X connect 19 0 70 3;
#X connect 19 1 69 3;
#X connect 19 2 68 3;
#X connect 19 3 67 3;
#X connect 19 4 0 3;
#X connect 20 0 23 0;
#X connect 21 0 23 0;
#X connect 22 0 66 0;
#X connect 22 1 65 0;
#X connect 22 2 64 0;
#X connect 22 3 63 0;
#X connect 23 0 13 0;
#X connect 23 1 0 1;
#X connect 24 0 15 0;
#X connect 24 1 67 1;
#X connect 25 0 16 0;
#X connect 25 1 68 1;
#X connect 26 0 17 0;
#X connect 26 1 69 1;
#X connect 27 1 70 1;
#X connect 28 0 18 0;
#X connect 29 0 19 0;
#X connect 30 0 28 0;
#X connect 30 1 31 0;
#X connect 31 0 29 0;
#X connect 33 0 31 0;
#X connect 33 1 31 1;
#X connect 34 0 35 0;
#X connect 35 0 70 4;
#X connect 35 1 69 4;
#X connect 35 2 68 4;
#X connect 35 3 67 4;
#X connect 35 4 0 4;
#X connect 38 0 21 0;
#X connect 38 3 20 0;
#X connect 40 0 46 0;
#X connect 40 1 41 0;
#X connect 41 0 48 0;
#X connect 41 1 42 0;
#X connect 42 0 50 0;
#X connect 42 1 43 0;
#X connect 43 0 52 0;
#X connect 43 1 44 0;
#X connect 44 0 54 0;
#X connect 45 0 0 0;
#X connect 46 0 0 0;
#X connect 47 0 67 0;
#X connect 48 0 67 0;
#X connect 49 0 68 0;
#X connect 50 0 68 0;
#X connect 51 0 69 0;
#X connect 52 0 69 0;
#X connect 53 0 70 0;
#X connect 54 0 70 0;
#X connect 55 0 56 0;
#X connect 55 1 40 0;
#X connect 56 0 61 0;
#X connect 57 0 58 0;
#X connect 58 0 60 0;
#X connect 59 0 57 0;
#X connect 59 1 58 1;
#X connect 60 0 45 0;
#X connect 60 1 47 0;
#X connect 60 2 49 0;
#X connect 60 3 51 0;
#X connect 60 4 53 0;
#X connect 61 0 57 1;
#X connect 62 0 56 1;
#X connect 62 1 22 0;
#X connect 63 0 13 1;
#X connect 64 0 15 1;
#X connect 65 0 16 1;
#X connect 66 0 17 1;
