#N canvas 1696 354 783 746 12;
#X obj 182 312 * 1;
#X obj 200 282 pow;
#X obj 182 21 inlet;
#X obj 182 696 outlet;
#X obj 263 41 inlet;
#X obj 364 146 t b f;
#X obj 330 172 unpack f f;
#X obj 330 224 pack f f;
#X obj 330 198 f 2;
#X obj 383 198 f 0;
#X text 405 145 Folding amount (power of 2);
#X text 136 21 Points;
#X text 234 696 Folded points;
#X obj 182 364 + 1;
#X obj 182 389 / 2;
#X obj 182 633 * 2;
#X obj 182 658 - 1;
#X obj 182 415 t f f;
#X obj 293 451 mod 2;
#X obj 293 476 change;
#X obj 212 606 -;
#X obj 182 497 swap;
#X obj 182 555 route 0 1;
#X obj 182 524 pack f f;
#X msg 212 581 1 \$1;
#X text 77 343 Bouncing stuff;
#X text 25 486 not sure if that's what it actually is, f 21;
#X obj 263 78 route wrap;
#X obj 330 117 route list float;
#X text 54 463 Anti-aliasing ->, f 17;
#X obj 347 399 route list float;
#X obj 182 462 floatmod 1 16;
#X connect 0 0 13 0;
#X connect 1 0 0 1;
#X connect 2 0 0 0;
#X connect 4 0 27 0;
#X connect 5 0 8 0;
#X connect 5 1 9 0;
#X connect 6 0 8 0;
#X connect 6 1 9 0;
#X connect 7 0 1 0;
#X connect 8 0 7 0;
#X connect 9 0 7 1;
#X connect 13 0 14 0;
#X connect 14 0 17 0;
#X connect 15 0 16 0;
#X connect 16 0 3 0;
#X connect 17 0 31 0;
#X connect 17 1 18 0;
#X connect 18 0 19 0;
#X connect 19 0 21 1;
#X connect 20 0 15 0;
#X connect 21 0 23 0;
#X connect 21 1 23 1;
#X connect 22 0 15 0;
#X connect 22 1 24 0;
#X connect 23 0 22 0;
#X connect 24 0 20 0;
#X connect 27 0 30 0;
#X connect 27 1 28 0;
#X connect 28 0 6 0;
#X connect 28 1 5 0;
#X connect 30 1 31 1;
#X connect 31 0 21 0;
