#N canvas 579 325 1625 932 10;
#N canvas 297 465 1386 789 wavetree_controls 0;
#X obj 527 138 outlet;
#X obj 176 158 hsl 128 15 0.1 10 1 0 \$0-lensing \$0-set_lensing empty
-2 -8 0 10 #fcfcfc #000000 #000000 0 1;
#X obj 14 298 hsl 128 15 0 2 0 0 \$0-phase \$0-set_phase empty -2 -8
0 10 #fcfcfc #000000 #000000 0 1;
#X text 12 282 Phase;
#X text 174 142 Lensing;
#X obj 177 54 hsl 128 15 0 2 0 0 \$0-curve \$0-set_curve empty -2 -8
0 10 #fcfcfc #000000 #000000 0 1;
#X text 175 37 Curve;
#X floatatom 247 141 7 0 0 0 - \$0-lensing_counter - 0;
#X obj 177 262 hsl 128 15 1 10 0 0 \$0-highp \$0-set_highpass empty
-2 -8 0 10 #ffffff #000000 #000000 0 1;
#X floatatom 248 245 7 0 0 0 - \$0-highp_counter - 0;
#X floatatom 85 281 7 0 0 0 - \$0-phase_counter - 0;
#X floatatom 247 37 7 0 0 0 - \$0-curve_counter - 0;
#X obj 291 39 bng 15 250 50 0 \$0-curve_reset empty empty 17 7 0 10
#fcfcfc #000000 #000000;
#X obj 129 283 bng 15 250 50 0 \$0-phase_reset empty empty 17 7 0 10
#fcfcfc #000000 #000000;
#X obj 291 143 bng 15 250 50 0 \$0-lensing_reset empty empty 17 7 0
10 #fcfcfc #000000 #000000;
#X obj 292 247 bng 15 250 50 0 \$0-highp_reset empty empty 17 7 0 10
#fcfcfc #000000 #000000;
#X obj 316 130 bng 15 250 50 0 \$0-preset_saw empty Saw 17 7 0 10 #fcfcfc
#000000 #000000;
#X obj 177 296 hsl 128 15 1 100 1 0 \$0-lowp \$0-set_lowpass empty
-2 -8 0 10 #ffffff #000000 #000000 0 1;
#X text 175 280 Lowpass;
#X floatatom 248 279 7 0 0 0 - \$0-lowp_counter - 0;
#X obj 292 281 bng 15 250 50 0 \$0-lowp_reset empty empty 17 7 0 10
#fcfcfc #000000 #000000;
#X text 174 246 Highpass;
#X obj 176 125 hsl 128 15 -3.1415 3.1415 0 0 \$0-dc \$0-set_dc empty
-2 -8 0 10 #fcfcfc #000000 #000000 0 1;
#X floatatom 247 108 7 0 0 0 - \$0-dc_counter - 0;
#X obj 291 110 bng 15 250 50 0 \$0-dc_reset empty empty 17 7 0 10 #fcfcfc
#000000 #000000;
#X obj 14 192 hsl 128 15 0 1 0 0 \$0-center \$0-set_center empty -2
-8 0 10 #fcfcfc #000000 #000000 0 1;
#X floatatom 85 175 7 0 0 0 - \$0-center_counter - 0;
#X obj 129 177 bng 15 250 50 0 \$0-center_reset empty empty 17 7 0
10 #fcfcfc #000000 #000000;
#X text 12 176 Center;
#X obj 177 20 hsl 128 15 0 1 0 0 \$0-sine \$0-set_sine empty -2 -8
0 10 #fcfcfc #000000 #000000 0 1;
#X floatatom 248 3 7 0 0 0 - \$0-sine_counter - 0;
#X obj 292 5 bng 15 250 50 0 \$0-sine_reset empty empty 17 7 0 10 #fcfcfc
#000000 #000000;
#X obj 177 226 hsl 128 15 -1 1 0 0 \$0-height \$0-set_height empty
-2 -8 0 10 #fcfcfc #000000 #000000 0 1;
#X floatatom 248 209 7 0 0 0 - \$0-height_counter - 0;
#X obj 292 211 bng 15 250 50 0 \$0-height_reset empty empty 17 7 0
10 #fcfcfc #000000 #000000;
#X obj 176 192 hsl 128 15 0 1 0 0 \$0-distance \$0-set_distance empty
-2 -8 0 10 #fcfcfc #000000 #000000 0 1;
#X floatatom 247 175 7 0 0 0 - \$0-distance_counter - 0;
#X obj 291 177 bng 15 250 50 0 \$0-distance_reset empty empty 17 7
0 10 #fcfcfc #000000 #000000;
#X obj 14 55 hsl 128 15 0 1 0 0 \$0-power \$0-set_power empty -2 -8
0 10 #fcfcfc #000000 #000000 0 1;
#X floatatom 85 38 7 0 0 0 - \$0-power_counter - 0;
#X obj 129 40 bng 15 250 50 0 \$0-power_reset empty empty 17 7 0 10
#fcfcfc #000000 #000000;
#X text 174 175 Distance;
#X text 175 210 Height;
#X text 12 39 Power;
#X text 174 109 Voltage;
#X obj 14 125 hsl 128 15 -2 2 0 0 \$0-period \$0-set_period empty -2
-8 0 10 #fcfcfc #000000 #000000 0 1;
#X floatatom 85 108 7 0 0 0 - \$0-period_counter - 0;
#X obj 129 110 bng 15 250 50 0 \$0-period_reset empty empty 17 7 0
10 #fcfcfc #000000 #000000;
#X text 12 109 Period;
#X text 12 4 Saw / Sine;
#X obj 14 20 hsl 128 15 0.166667 1 0 0 empty empty empty -2 -8 0 10
#fcfcfc #000000 #000000 0 1;
#N canvas 1392 653 523 461 sine_curve_link 0;
#X obj 122 264 hsl 128 15 -1 1 0 0 empty empty empty -2 -8 0 10 #fcfcfc
#000000 #000000 0 1;
#X obj 263 264 hsl 128 15 -1 1 0 0 empty empty empty -2 -8 0 10 #fcfcfc
#000000 #000000 0 1;
#X obj 119 211 sin;
#X obj 260 191 cos;
#X obj 122 106 hsl 123 15 0 0.833333 0 0 empty empty empty -2 -8 0
10 #fcfcfc #000000 #000000 0 0;
#X obj 260 233 / 2;
#X obj 119 294 * 2;
#X msg 81 78 1 \$1;
#X obj 81 105 -;
#X obj 81 19 inlet;
#X obj 119 349 outlet;
#X obj 260 348 outlet;
#X obj 275 116 loadbang;
#X obj 275 137 pi;
#X obj 260 170 *;
#X obj 119 190 *;
#X obj 260 212 + 1;
#X obj 260 294 moses 0.07;
#X msg 260 315 0;
#X obj 119 126 t f f;
#X obj 119 147 pipe 40;
#X connect 0 0 6 0;
#X connect 1 0 17 0;
#X connect 2 0 0 0;
#X connect 3 0 16 0;
#X connect 4 0 19 0;
#X connect 5 0 1 0;
#X connect 6 0 10 0;
#X connect 7 0 8 0;
#X connect 8 0 4 0;
#X connect 9 0 7 0;
#X connect 12 0 13 0;
#X connect 13 0 14 1;
#X connect 13 0 15 1;
#X connect 14 0 3 0;
#X connect 15 0 2 0;
#X connect 16 0 5 0;
#X connect 17 0 18 0;
#X connect 17 1 11 0;
#X connect 18 0 11 0;
#X connect 19 0 20 0;
#X connect 19 1 14 0;
#X connect 20 0 15 0;
#X restore 76 -43 pd sine_curve_link;
#X obj 346 83 tgl 20 0 \$0-show_hide_right empty PartialControl 22
11 0 12 #c6ffc7 #000000 #000000 0 1;
#X obj 329 23 hsl 135 20 0 1 0 0 \$0-sinesum_mix \$0-disp_sinesum_mix
Sinesum 44 11 0 14 #c6ffc7 #000000 #000000 0 1;
#X obj 326 63 hradio 20 1 0 7 \$0-sinesum_preset \$0-set_sinesum_preset
empty 0 -8 0 10 #c6ffc7 #000000 #000000 0;
#X text 334 5 Mix;
#X obj 386 110 bng 15 250 50 0 \$0-preset_opera_house empty empty 17
7 0 10 #fcfcfc #000000 #000000;
#X text 403 109 Opera house;
#X text 175 4 Sine;
#X text 333 45 Preset;
#X obj 316 110 bng 15 250 50 0 \$0-preset_sine empty Sine 17 7 0 10
#fcfcfc #000000 #000000;
#X obj 326 313 tgl 20 0 \$0-polarity_flip_request \$0-disp_polarity
Flip 24 11 0 12 #dfdfdf #000000 #000000 0 1;
#X obj 14 226 hsl 128 15 0 12 0 0 \$0-folding \$0-set_folding empty
-2 -8 0 10 #fcfcfc #000000 #000000 0 1;
#X text 12 210 Folding;
#X obj 129 211 bng 15 250 50 0 \$0-folding_reset empty empty 17 7 0
10 #fcfcfc #000000 #000000;
#X floatatom 85 209 7 0 0 0 - \$0-folding_counter - 0;
#N canvas 1110 314 1399 676 preset_unpack 0;
#X msg 45 107 set \$1;
#X msg 95 107 set \$1;
#X msg 145 296 set \$1;
#X msg 195 107 set \$1;
#X msg 245 107 set \$1;
#X msg 296 107 set \$1;
#X msg 346 107 set \$1;
#X msg 396 107 set \$1;
#X msg 446 107 set \$1;
#X msg 496 107 set \$1;
#X msg 547 107 set \$1;
#X msg 597 107 set \$1;
#X msg 647 107 set \$1;
#X msg 697 107 set \$1;
#X msg 748 107 set \$1;
#X msg 848 107 set \$1;
#X msg 898 107 set \$1;
#X obj 195 162 s \$0-disp_lowpass;
#X obj 245 192 s \$0-disp_highpass;
#X obj 446 133 s \$0-disp_square;
#X obj 848 162 s \$0-disp_polarity;
#X obj 697 132 s \$0-disp_sinesum_mix;
#X obj 748 162 s \$0-set_period;
#X obj 597 132 s \$0-set_power;
#X obj 647 192 s \$0-set_height;
#X obj 547 162 s \$0-set_distance;
#X obj 496 192 s \$0-set_sine;
#X obj 346 162 s \$0-set_center;
#X obj 296 132 s \$0-set_lensing;
#X obj 95 162 s \$0-set_dc;
#X obj 145 321 s \$0-set_phase;
#X obj 45 132 s \$0-set_curve;
#X obj 898 132 s \$0-set_folding;
#X obj 160 192 r \$0-reverse;
#X msg 160 242 -1;
#X obj 145 269 * 1;
#X obj 160 219 sel 1 0;
#X msg 189 242 1;
#X msg 797 197 set \$1;
#X obj 797 222 s \$0-set_periodmix;
#X msg 1049 107 set \$1;
#X obj 1049 132 s \$0-set_ceiling;
#X obj 45 32 r \$0-ui_settings;
#X msg 1099 107 set \$1;
#X obj 1099 162 s \$0-set_reverse;
#X msg 1149 107 set \$1;
#X msg 1200 107 set \$1;
#X obj 1149 192 s \$0-set_norm;
#X obj 1200 222 s \$0-set_remove_dc_off;
#X obj 396 222 s \$0-set_phasediff;
#X obj 948 227 s \$0-set_bitcrush;
#X obj 999 203 s \$0-set_bitcrush_bits;
#X msg 948 107 set \$1;
#X obj 45 59 unpack f f f f f f f f f f f f f f f f f f f f f f f f
, f 193;
#X obj 999 154 - 8;
#X connect 0 0 31 0;
#X connect 1 0 29 0;
#X connect 2 0 30 0;
#X connect 3 0 17 0;
#X connect 4 0 18 0;
#X connect 5 0 28 0;
#X connect 6 0 27 0;
#X connect 7 0 49 0;
#X connect 8 0 19 0;
#X connect 9 0 26 0;
#X connect 10 0 25 0;
#X connect 11 0 23 0;
#X connect 12 0 24 0;
#X connect 13 0 21 0;
#X connect 14 0 22 0;
#X connect 15 0 20 0;
#X connect 16 0 32 0;
#X connect 33 0 36 0;
#X connect 34 0 35 1;
#X connect 35 0 2 0;
#X connect 36 0 34 0;
#X connect 36 1 37 0;
#X connect 37 0 35 1;
#X connect 38 0 39 0;
#X connect 40 0 41 0;
#X connect 42 0 53 0;
#X connect 43 0 44 0;
#X connect 45 0 47 0;
#X connect 46 0 48 0;
#X connect 52 0 50 0;
#X connect 53 0 0 0;
#X connect 53 1 1 0;
#X connect 53 2 35 0;
#X connect 53 3 3 0;
#X connect 53 4 4 0;
#X connect 53 5 5 0;
#X connect 53 6 6 0;
#X connect 53 7 7 0;
#X connect 53 8 8 0;
#X connect 53 9 9 0;
#X connect 53 10 10 0;
#X connect 53 11 11 0;
#X connect 53 12 12 0;
#X connect 53 13 13 0;
#X connect 53 14 14 0;
#X connect 53 15 38 0;
#X connect 53 16 15 0;
#X connect 53 17 16 0;
#X connect 53 18 52 0;
#X connect 53 19 54 0;
#X connect 53 20 40 0;
#X connect 53 21 43 0;
#X connect 53 22 45 0;
#X connect 53 23 46 0;
#X connect 54 0 51 0;
#X restore 658 14 pd preset_unpack;
#X obj 326 273 tgl 20 0 \$0-norm_request \$0-set_norm Normalize 24
11 0 12 #dfdfdf #000000 #000000 0 1;
#X obj 386 130 bng 15 250 50 0 \$0-preset_fabric empty Fabric 17 7
0 10 #fcfcfc #000000 #000000;
#X obj 329 252 hsl 128 15 0.1 10 1 0 \$0-ceiling \$0-set_ceiling empty
-2 -8 0 10 #fcfcfc #000000 #000000 0 1;
#X text 327 236 ceiling;
#X floatatom 400 235 7 0 0 0 - \$0-ceiling_counter - 0;
#X obj 444 237 bng 15 250 50 0 \$0-ceiling_reset empty empty 17 7 0
10 #fcfcfc #000000 #000000;
#X obj 527 102 r \$0-out;
#N canvas 353 279 2063 968 control_links 0;
#X obj 1817 428 s \$0-set_ceiling;
#X obj 1780 316 r \$0-ceiling;
#X obj 1780 383 t f f;
#X msg 1807 453 ceiling \$1;
#X obj 1780 476 s \$0-ceiling_counter;
#X obj 1817 383 r \$0-ceiling_reset;
#X obj 1306 383 t f f;
#X msg 1333 452 period \$1;
#X obj 1306 347 clip -2 2;
#X obj 1306 316 r \$0-period;
#X obj 1343 383 r \$0-period_reset;
#X obj 1343 428 s \$0-set_period;
#X obj 1306 476 s \$0-period_counter;
#X obj 1306 500 r \$0-set_period;
#X obj 1780 501 r \$0-set_ceiling;
#X obj 1002 385 t f f;
#X msg 1029 454 power \$1;
#X obj 1002 347 clip 0 1;
#X obj 1002 316 r \$0-power;
#X obj 1047 385 r \$0-power_reset;
#X obj 1047 430 s \$0-set_power;
#X obj 1002 477 s \$0-power_counter;
#X obj 1002 501 r \$0-set_power;
#X obj 1807 535 s \$0-out;
#X obj 1333 535 s \$0-out;
#X obj 1029 535 s \$0-out;
#X obj 1152 347 clip -1 1;
#X obj 1152 316 r \$0-height;
#X obj 1152 385 t f f;
#X obj 1179 535 s \$0-out;
#X msg 1179 454 height \$1;
#X obj 1197 385 r \$0-height_reset;
#X obj 1197 430 s \$0-set_height;
#X obj 1152 477 s \$0-height_counter;
#X obj 1152 501 r \$0-set_height;
#X msg 704 453 sine \$1;
#X msg 858 453 distance \$1;
#X obj 677 347 clip 0 1;
#X obj 831 347 clip 0 1, f 13;
#X obj 831 385 t f f;
#X obj 858 535 s \$0-out;
#X obj 677 385 t f f;
#X obj 704 535 s \$0-out;
#X obj 831 316 r \$0-distance;
#X obj 677 316 r \$0-sine;
#X obj 876 385 r \$0-distance_reset;
#X obj 876 430 s \$0-set_distance;
#X obj 831 477 s \$0-distance_counter;
#X obj 831 501 r \$0-set_distance;
#X obj 677 501 r \$0-set_sine;
#X obj 677 477 s \$0-sine_counter;
#X obj 722 430 s \$0-set_sine;
#X obj 722 385 r \$0-sine_reset;
#X msg 378 452 lensing \$1;
#X msg 544 452 center \$1;
#X obj 351 347 clip 0.1 10;
#X obj 517 347 clip 0 1, f 12;
#X obj 351 385 t f f;
#X obj 378 535 s \$0-out;
#X obj 517 385 t f f;
#X obj 544 535 s \$0-out;
#X obj 351 316 r \$0-lensing;
#X obj 517 316 r \$0-center;
#X obj 396 385 r \$0-lensing_reset;
#X obj 396 430 s \$0-set_lensing;
#X obj 351 477 s \$0-lensing_counter;
#X obj 351 501 r \$0-set_lensing;
#X obj 562 385 r \$0-center_reset;
#X obj 562 430 s \$0-set_center;
#X obj 517 477 s \$0-center_counter;
#X obj 517 501 r \$0-set_center;
#X msg 237 453 dc \$1;
#X obj 210 347 clip -3.1415 3.1415, f 12;
#X obj 210 316 r \$0-dc;
#X obj 210 385 t f f;
#X obj 237 535 s \$0-out;
#X obj 255 385 r \$0-dc_reset;
#X obj 255 430 s \$0-set_dc;
#X obj 210 501 r \$0-set_dc;
#X obj 210 477 s \$0-dc_counter;
#X msg 77 453 curve \$1;
#X obj 50 347 clip 0 2;
#X obj 50 385 t f f;
#X obj 77 535 s \$0-out;
#X obj 95 385 r \$0-curve_reset;
#X obj 95 430 s \$0-set_curve;
#X obj 50 477 s \$0-curve_counter;
#X obj 50 501 r \$0-set_curve;
#X obj 50 316 r \$0-curve;
#X msg 60 81 sinesum \$1;
#X msg 303 81 polarity \$1;
#X obj 303 57 r \$0-polarity_flip_request;
#X obj 174 57 r \$0-sinesum_preset;
#X msg 174 81 sinesum_id \$1;
#X obj 60 57 r \$0-sinesum_mix;
#X obj 60 145 s \$0-out;
#X obj 303 145 s \$0-out;
#X obj 610 57 r \$0-norm_request;
#X msg 715 144 normalize \$1;
#X obj 610 81 route bang, f 18;
#X msg 610 144 normalize bang;
#X obj 610 185 s \$0-out;
#X msg 809 144 set \$1;
#X msg 809 167 1;
#X obj 840 167 loadbang;
#X obj 264 634 r \$0-preset_saw;
#X msg 264 705 preset saw;
#X obj 625 634 r \$0-preset_opera_house;
#X msg 625 705 preset opera_house;
#X obj 50 634 r \$0-preset_sine;
#X msg 50 705 preset sine;
#X obj 840 634 r \$0-preset_fabric;
#X msg 840 705 preset fabric;
#X obj 840 658 t a b;
#X msg 867 682 2;
#X obj 896 682 s \$0-set_sinesum_preset;
#X obj 625 658 t a b;
#X obj 681 682 s \$0-set_sinesum_preset;
#X msg 652 682 0;
#X obj 50 657 t a b;
#X obj 106 680 s \$0-set_sinesum_preset;
#X msg 77 680 0;
#X obj 50 738 s \$0-out;
#X obj 264 738 s \$0-out;
#X obj 625 738 s \$0-out;
#X obj 840 738 s \$0-out;
#X obj 1624 384 t f f;
#X obj 1651 535 s \$0-out;
#X obj 1624 316 r \$0-folding;
#X obj 1661 384 r \$0-folding_reset;
#X obj 1661 429 s \$0-set_folding;
#X msg 1651 454 folding \$1;
#X obj 1624 476 s \$0-folding_counter;
#X obj 1624 501 r \$0-set_folding;
#X obj 965 51 r \$0-remove_dc_off;
#X msg 965 76 remove_dc \$1;
#X obj 965 145 s \$0-out;
#X obj 1456 383 t f f;
#X obj 1483 535 s \$0-out;
#X obj 1456 316 r \$0-periodmix;
#X obj 1493 383 r \$0-periodmix_reset;
#X obj 1493 428 s \$0-set_periodmix;
#X obj 1456 476 s \$0-periodmix_counter;
#X obj 1456 500 r \$0-set_periodmix;
#X obj 1456 347 clip 0 1;
#X msg 1483 452 period_mix \$1;
#X msg 947 168 1;
#X obj 978 168 loadbang;
#X obj 947 191 s \$0-set_remove_dc_off;
#X obj 380 738 s \$0-out;
#X obj 380 634 r \$0-preset_triangle;
#X msg 380 705 preset triangle;
#N canvas 1072 23 967 602 phase_and_reversal 0;
#X obj 204 297 t f f;
#X obj 231 498 s \$0-out;
#X msg 231 475 phase \$1;
#X obj 177 178 r \$0-phase;
#X obj 177 91 r \$0-phase_reset;
#X obj 177 141 s \$0-set_phase;
#X obj 204 429 s \$0-phase_counter;
#X obj 60 178 r \$0-set_phase;
#X obj 353 498 s \$0-out;
#X obj 326 178 r \$0-reverse;
#X msg 353 475 reverse \$1;
#X obj 326 202 t f f;
#X msg 272 318 -1;
#X obj 204 375 * 1;
#X obj 204 263 * 1;
#X obj 272 285 sel 1 0;
#X msg 301 318 1;
#X obj 111 429 s \$0-set_phase;
#X obj 60 201 route set;
#X obj 516 275 t f f;
#X obj 543 427 s \$0-out;
#X obj 516 198 r \$0-phasediff;
#X obj 516 392 r \$0-set_phasediff;
#X obj 516 368 s \$0-phasediff_counter;
#X msg 543 344 phase_diff \$1;
#X obj 553 320 s \$0-set_phasediff;
#X obj 553 275 r \$0-phasediff_reset;
#X obj 516 239 clip -1 1;
#X obj 643 105 f 0;
#X obj 703 105 + 1;
#X obj 643 76 metro 20;
#X obj 643 32 tgl 15 0 empty empty empty 17 7 0 10 #fcfcfc #000000
#000000 0 1;
#X obj 643 131 t f f;
#X msg 661 32 0;
#X obj 643 157 / 360;
#X obj 743 105 % 360;
#X obj 715 61 hsl 128 15 100 5 0 0 empty empty empty -2 -8 0 10 #fcfcfc
#000000 #000000 0 1;
#X msg 712 34 20;
#X obj 643 202 floatgrain 16;
#X obj 177 346 -;
#X msg 177 323 2 \$1;
#X obj 162 377 f 1;
#X obj 60 234 t f f;
#X obj 177 232 t f f;
#X obj 245 250 t b f;
#X obj 177 117 f 1;
#X obj 553 299 f 0;
#X text 656 178 disconnected for debugging;
#X connect 0 0 13 0;
#X connect 0 1 2 0;
#X connect 2 0 1 0;
#X connect 3 0 43 0;
#X connect 4 0 45 0;
#X connect 7 0 18 0;
#X connect 9 0 11 0;
#X connect 10 0 8 0;
#X connect 11 0 44 0;
#X connect 11 1 10 0;
#X connect 12 0 14 1;
#X connect 12 0 13 1;
#X connect 13 0 6 0;
#X connect 14 0 0 0;
#X connect 15 0 12 0;
#X connect 15 1 16 0;
#X connect 16 0 14 1;
#X connect 16 0 13 1;
#X connect 18 0 42 0;
#X connect 18 1 6 0;
#X connect 19 0 23 0;
#X connect 19 1 24 0;
#X connect 21 0 27 0;
#X connect 22 0 23 0;
#X connect 24 0 20 0;
#X connect 26 0 46 0;
#X connect 27 0 19 0;
#X connect 28 0 32 0;
#X connect 29 0 35 0;
#X connect 30 0 28 0;
#X connect 31 0 30 0;
#X connect 32 0 34 0;
#X connect 32 1 29 0;
#X connect 33 0 28 1;
#X connect 35 0 28 1;
#X connect 36 0 30 1;
#X connect 37 0 36 0;
#X connect 38 0 27 0;
#X connect 39 0 41 1;
#X connect 40 0 39 0;
#X connect 41 0 17 0;
#X connect 42 0 6 0;
#X connect 42 1 40 0;
#X connect 43 0 40 0;
#X connect 43 1 14 0;
#X connect 44 0 41 0;
#X connect 44 1 15 0;
#X connect 45 0 5 0;
#X connect 46 0 25 0;
#X restore 472 57 pd phase_and_reversal;
#X obj 809 190 s \$0-set_norm;
#X obj 1288 118 t f f;
#X obj 1315 270 s \$0-out;
#X obj 1288 51 r \$0-lowp;
#X obj 1288 82 clip 1 100;
#X obj 1325 118 r \$0-lowp_reset;
#X obj 1288 211 s \$0-lowp_counter;
#X msg 1315 187 lowpass \$1;
#X obj 1325 163 s \$0-set_lowpass;
#X obj 1458 118 t f f;
#X obj 1485 270 s \$0-out;
#X obj 1495 163 s \$0-set_highpass;
#X obj 1458 51 r \$0-highp;
#X obj 1495 118 r \$0-highp_reset;
#X obj 1458 211 s \$0-highp_counter;
#X obj 1458 235 r \$0-set_highpass;
#X obj 1288 235 r \$0-set_lowpass;
#X msg 1485 187 highpass \$1;
#X obj 1458 82 clip 1 10;
#X obj 1384 668 t f f;
#X obj 1384 630 clip 0 1;
#X obj 1411 818 s \$0-out;
#X obj 1384 599 r \$0-bitcrush;
#X obj 1429 658 r \$0-bitcrush_reset;
#X obj 1429 713 s \$0-set_bitcrush;
#X msg 1411 737 bitcrush \$1;
#X obj 1384 760 s \$0-bitcrush_counter;
#X obj 1306 714 r \$0-set_bitcrush;
#X obj 1564 668 t f f;
#X obj 1591 818 s \$0-out;
#X obj 1564 599 r \$0-bitcrush_bits;
#X obj 1609 713 s \$0-set_bitcrush_bits;
#X msg 1591 737 bitcrush_bits \$1;
#X obj 1564 784 r \$0-set_bitcrush_bits;
#X obj 1544 727 + 8;
#X obj 1578 705 + 8;
#X obj 1054 656 t a b;
#X msg 1081 680 2;
#X obj 1110 680 s \$0-set_sinesum_preset;
#X obj 1054 736 s \$0-out;
#X obj 1054 632 r \$0-preset_colorado;
#X msg 1054 703 preset colorado;
#X obj 1306 761 route float;
#X msg 1564 759 label \$1-Bits;
#X obj 1780 349 clip 0.1 10;
#X obj 715 111 t a a;
#X obj 95 409 f 1;
#X obj 256 409 f 0;
#X obj 396 409 f 1;
#X obj 562 409 f 0;
#X obj 722 409 f 0;
#X obj 876 409 f 0;
#X obj 1047 409 f 0;
#X obj 1197 409 f 0;
#X obj 1343 407 f 0;
#X obj 1493 407 f 0.5;
#X obj 1661 408 f 0;
#X obj 1817 407 f 1;
#X obj 1609 692 f 0;
#X obj 1429 692 f 0;
#X obj 1325 142 f 1;
#X obj 1495 142 f 1;
#X connect 1 0 197 0;
#X connect 2 0 4 0;
#X connect 2 1 3 0;
#X connect 3 0 23 0;
#X connect 5 0 210 0;
#X connect 6 0 12 0;
#X connect 6 1 7 0;
#X connect 7 0 24 0;
#X connect 8 0 6 0;
#X connect 9 0 8 0;
#X connect 10 0 207 0;
#X connect 13 0 12 0;
#X connect 14 0 4 0;
#X connect 15 0 21 0;
#X connect 15 1 16 0;
#X connect 16 0 25 0;
#X connect 17 0 15 0;
#X connect 18 0 17 0;
#X connect 19 0 205 0;
#X connect 22 0 21 0;
#X connect 26 0 28 0;
#X connect 27 0 26 0;
#X connect 28 0 33 0;
#X connect 28 1 30 0;
#X connect 30 0 29 0;
#X connect 31 0 206 0;
#X connect 34 0 33 0;
#X connect 35 0 42 0;
#X connect 36 0 40 0;
#X connect 37 0 41 0;
#X connect 38 0 39 0;
#X connect 39 0 47 0;
#X connect 39 1 36 0;
#X connect 41 0 50 0;
#X connect 41 1 35 0;
#X connect 43 0 38 0;
#X connect 44 0 37 0;
#X connect 45 0 204 0;
#X connect 48 0 47 0;
#X connect 49 0 50 0;
#X connect 52 0 203 0;
#X connect 53 0 58 0;
#X connect 54 0 60 0;
#X connect 55 0 57 0;
#X connect 56 0 59 0;
#X connect 57 0 65 0;
#X connect 57 1 53 0;
#X connect 59 0 69 0;
#X connect 59 1 54 0;
#X connect 61 0 55 0;
#X connect 62 0 56 0;
#X connect 63 0 201 0;
#X connect 66 0 65 0;
#X connect 67 0 202 0;
#X connect 70 0 69 0;
#X connect 71 0 75 0;
#X connect 72 0 74 0;
#X connect 73 0 72 0;
#X connect 74 0 79 0;
#X connect 74 1 71 0;
#X connect 76 0 200 0;
#X connect 78 0 79 0;
#X connect 80 0 83 0;
#X connect 81 0 82 0;
#X connect 82 0 86 0;
#X connect 82 1 80 0;
#X connect 84 0 199 0;
#X connect 87 0 86 0;
#X connect 88 0 81 0;
#X connect 89 0 95 0;
#X connect 90 0 96 0;
#X connect 91 0 90 0;
#X connect 92 0 93 0;
#X connect 93 0 95 0;
#X connect 94 0 89 0;
#X connect 97 0 99 0;
#X connect 98 0 101 0;
#X connect 99 0 100 0;
#X connect 99 1 198 0;
#X connect 100 0 101 0;
#X connect 102 0 103 0;
#X connect 103 0 153 0;
#X connect 105 0 106 0;
#X connect 106 0 123 0;
#X connect 107 0 116 0;
#X connect 108 0 124 0;
#X connect 109 0 119 0;
#X connect 110 0 122 0;
#X connect 111 0 113 0;
#X connect 112 0 125 0;
#X connect 113 0 112 0;
#X connect 113 1 114 0;
#X connect 114 0 115 0;
#X connect 116 0 108 0;
#X connect 116 1 118 0;
#X connect 118 0 117 0;
#X connect 119 0 110 0;
#X connect 119 1 121 0;
#X connect 121 0 120 0;
#X connect 126 0 132 0;
#X connect 126 1 131 0;
#X connect 128 0 126 0;
#X connect 129 0 209 0;
#X connect 131 0 127 0;
#X connect 133 0 132 0;
#X connect 134 0 135 0;
#X connect 135 0 136 0;
#X connect 137 0 142 0;
#X connect 137 1 145 0;
#X connect 139 0 144 0;
#X connect 140 0 208 0;
#X connect 143 0 142 0;
#X connect 144 0 137 0;
#X connect 145 0 138 0;
#X connect 146 0 148 0;
#X connect 150 0 151 0;
#X connect 151 0 149 0;
#X connect 154 0 159 0;
#X connect 154 1 160 0;
#X connect 156 0 157 0;
#X connect 157 0 154 0;
#X connect 158 0 213 0;
#X connect 160 0 155 0;
#X connect 162 0 167 0;
#X connect 162 1 170 0;
#X connect 165 0 171 0;
#X connect 166 0 214 0;
#X connect 168 0 167 0;
#X connect 169 0 159 0;
#X connect 170 0 163 0;
#X connect 171 0 162 0;
#X connect 172 0 179 0;
#X connect 172 1 178 0;
#X connect 173 0 172 0;
#X connect 175 0 173 0;
#X connect 176 0 211 0;
#X connect 176 0 212 0;
#X connect 178 0 174 0;
#X connect 180 0 195 0;
#X connect 181 0 187 0;
#X connect 181 1 188 0;
#X connect 183 0 181 0;
#X connect 185 0 182 0;
#X connect 186 0 187 0;
#X connect 187 0 196 0;
#X connect 188 0 185 0;
#X connect 189 0 194 0;
#X connect 189 1 190 0;
#X connect 190 0 191 0;
#X connect 193 0 189 0;
#X connect 194 0 192 0;
#X connect 195 0 179 0;
#X connect 196 0 177 0;
#X connect 197 0 2 0;
#X connect 198 0 98 0;
#X connect 198 1 102 0;
#X connect 199 0 85 0;
#X connect 200 0 77 0;
#X connect 201 0 64 0;
#X connect 202 0 68 0;
#X connect 203 0 51 0;
#X connect 204 0 46 0;
#X connect 205 0 20 0;
#X connect 206 0 32 0;
#X connect 207 0 11 0;
#X connect 208 0 141 0;
#X connect 209 0 130 0;
#X connect 210 0 0 0;
#X connect 211 0 184 0;
#X connect 212 0 177 0;
#X connect 213 0 161 0;
#X connect 214 0 164 0;
#X restore 658 41 pd control_links;
#X obj 388 313 tgl 20 0 \$0-reverse \$0-set_reverse Reverse 24 11 0
12 #dfdfdf #000000 #000000 0 1;
#X obj 326 293 tgl 20 0 \$0-remove_dc_off \$0-set_remove_dc_off Remove\\\ DC\\\ offset
24 11 0 12 #dfdfdf #000000 #000000 0 1;
#X obj 29 145 hsl 128 15 0 1 0 0 \$0-periodmix \$0-set_periodmix empty
-2 -8 0 10 #fcfcfc #000000 #000000 0 1;
#X obj 144 130 bng 15 250 50 0 \$0-periodmix_reset empty empty 17 7
0 10 #fcfcfc #000000 #000000;
#X obj 658 -38 inlet;
#X obj 658 -14 s \$0-ui_settings;
#X obj 778 -38 inlet;
#X obj 778 -14 s \$0-wave_gap;
#X floatatom 248 316 10 0 0 0 - \$0-wave_gap - 0;
#X text 166 316 Mind the gap:;
#X obj 316 150 bng 15 250 50 0 \$0-preset_triangle empty Triangle 17
7 0 10 #fcfcfc #000000 #000000;
#X obj 29 318 hsl 128 15 -1 1 0 0 \$0-phasediff \$0-set_phasediff empty
-2 -8 0 10 #fcfcfc #000000 #000000 0 1;
#X obj 144 303 bng 15 250 50 0 \$0-phasediff_reset empty empty 17 7
0 10 #fcfcfc #000000 #000000;
#X obj 329 192 hsl 128 15 0 1 0 0 \$0-bitcrush \$0-set_bitcrush 8-Bits
-2 -7 0 12 #c7c6ff #000000 #000000 0 1;
#X floatatom 400 175 7 0 0 0 - \$0-bitcrush_counter - 0;
#X obj 444 177 bng 15 250 50 0 \$0-bitcrush_reset empty empty 17 7
0 10 #fcfcfc #000000 #000000;
#X obj 324 207 hradio 15 1 0 9 \$0-bitcrush_bits \$0-set_bitcrush_bits
empty 0 -8 0 10 #c7c6ff #000000 #000000 0;
#X obj 386 150 bng 15 250 50 0 \$0-preset_colorado empty Colorado 17
7 0 10 #fcfcfc #000000 #000000;
#N canvas 882 491 1513 494 setting_routing 0;
#X obj 35 119 route curve dc phase lowpass highpass lensing center
phase_diff square sine distance power height sinesum period period_mix
polarity folding ceiling reverse bitcrush bitcrush_bits normalize remove_dc
, f 201;
#X obj 35 67 inlet;
#X obj 185 219 s \$0-disp_lowpass;
#X obj 235 249 s \$0-disp_highpass;
#X obj 436 190 s \$0-disp_square;
#X obj 837 219 s \$0-disp_polarity;
#X obj 686 189 s \$0-disp_sinesum_mix;
#X obj 736 219 s \$0-set_period;
#X obj 586 189 s \$0-set_power;
#X obj 636 249 s \$0-set_height;
#X obj 536 219 s \$0-set_distance;
#X obj 486 249 s \$0-set_sine;
#X obj 335 219 s \$0-set_center;
#X obj 285 189 s \$0-set_lensing;
#X obj 85 219 s \$0-set_dc;
#X obj 136 378 s \$0-set_phase;
#X obj 35 189 s \$0-set_curve;
#X obj 887 189 s \$0-set_folding;
#X obj 151 249 r \$0-reverse;
#X msg 151 299 -1;
#X obj 136 326 * 1;
#X obj 151 276 sel 1 0;
#X msg 180 299 1;
#X obj 786 279 s \$0-set_periodmix;
#X obj 1039 189 s \$0-set_ceiling;
#X obj 1089 219 s \$0-set_reverse;
#X obj 1137 249 s \$0-set_norm;
#X obj 1187 279 s \$0-set_remove_dc_off;
#X obj 385 279 s \$0-set_phasediff;
#X obj 938 284 s \$0-set_bitcrush;
#X obj 989 260 s \$0-set_bitcrush_bits;
#X obj 989 211 - 8;
#X obj 1238 160 outlet;
#X connect 0 0 16 0;
#X connect 0 1 14 0;
#X connect 0 2 20 0;
#X connect 0 3 2 0;
#X connect 0 4 3 0;
#X connect 0 5 13 0;
#X connect 0 6 12 0;
#X connect 0 7 28 0;
#X connect 0 8 4 0;
#X connect 0 9 11 0;
#X connect 0 10 10 0;
#X connect 0 11 8 0;
#X connect 0 12 9 0;
#X connect 0 13 6 0;
#X connect 0 14 7 0;
#X connect 0 15 23 0;
#X connect 0 16 5 0;
#X connect 0 17 17 0;
#X connect 0 18 24 0;
#X connect 0 19 25 0;
#X connect 0 20 29 0;
#X connect 0 21 31 0;
#X connect 0 22 26 0;
#X connect 0 23 27 0;
#X connect 0 24 32 0;
#X connect 1 0 0 0;
#X connect 18 0 21 0;
#X connect 19 0 20 1;
#X connect 20 0 15 0;
#X connect 21 0 19 0;
#X connect 21 1 22 0;
#X connect 22 0 20 1;
#X connect 31 0 30 0;
#X restore 528 -14 pd setting_routing;
#X obj 528 -37 inlet;
#X connect 50 0 51 0;
#X connect 51 0 5 0;
#X connect 51 1 29 0;
#X connect 73 0 0 0;
#X connect 79 0 80 0;
#X connect 81 0 82 0;
#X connect 94 0 93 0;
#X coords 0 -1 1 1 480 340 2 0 0;
#X restore 0 0 pd wavetree_controls;
#N canvas 286 286 450 250 (subpatch) 0;
#X array \$0-waveTreeLeaf 131 float 1;
#A 0 -0.111875 0 0.111875 0.222271 0.329736 0.43287 0.530352 0.620962
0.703602 0.777319 0.841313 0.894961 0.937817 0.969623 0.990311 1 0.998993
0.987767 0.966962 0.937365 0.899894 0.855577 0.805528 0.750928 0.692995
0.632965 0.572063 0.511479 0.452346 0.39572 0.342556 0.293694 0.249843
0.211573 0.179299 0.153284 0.133633 0.120296 0.113073 0.111625 0.115479
0.124048 0.136646 0.152505 0.170794 0.190645 0.211168 0.231478 0.250711
0.26805 0.282742 0.294113 0.301586 0.304693 0.303085 0.29654 0.284967
0.268404 0.247021 0.221111 0.191082 0.157449 0.120815 0.0818636 0.0413327
2.24151e-06 -0.0413283 -0.0818593 -0.120811 -0.157445 -0.191079 -0.221108
-0.247019 -0.268402 -0.284965 -0.296539 -0.303085 -0.304693 -0.301586
-0.294114 -0.282744 -0.268052 -0.250713 -0.23148 -0.21117 -0.190647
-0.170796 -0.152506 -0.136648 -0.124049 -0.115479 -0.111625 -0.113073
-0.120295 -0.133631 -0.153281 -0.179296 -0.211569 -0.249839 -0.293689
-0.34255 -0.395714 -0.45234 -0.511472 -0.572056 -0.632959 -0.692989
-0.750922 -0.805523 -0.855572 -0.89989 -0.937361 -0.966959 -0.987765
-0.998992 -1 -0.990312 -0.969626 -0.937821 -0.894966 -0.84132 -0.777326
-0.703611 -0.620971 -0.530362 -0.432881 -0.329747 -0.222283 -0.111887
-1.21223e-05 0.111863;
#X coords 0 1 130 -1 312 125 1 0 0;
#X restore 480 0 graph;
#N canvas 811 679 905 536 canvas_control 0;
#X obj 141 63 tgl 15 0 empty empty empty 17 7 0 10 #fcfcfc #000000
#000000 0 1;
#X obj 141 83 sel 0 1;
#X obj 141 104 t b b;
#X obj 281 63 tgl 15 0 empty empty empty 17 7 0 10 #fcfcfc #000000
#000000 0 1;
#X obj 281 83 sel 0 1;
#X msg 321 129 810;
#X text 432 112 width of graph is approximately 2*pi*amplitude;
#X text 432 97 height of graph is 2.4*amplitude;
#X text 434 130 515 / 2*pi = right amplitude display height;
#X obj 183 237 t b f;
#X obj 141 294 t b a;
#X msg 141 374 gui resize;
#X obj 141 395 s camomile;
#X text 309 367 last two numbers are canvas offset;
#X text 309 352 \$1 and \$2 canvas width and height;
#X obj 31 220 unpack;
#X obj 141 41 r \$0-show_hide_right;
#X obj 281 41 r \$0-show_hide_bottom;
#X obj 141 151 s \$0-new_gui_width;
#X obj 141 194 r \$0-new_gui_width;
#X obj 281 151 s \$0-new_gui_height;
#X obj 281 194 r \$0-new_gui_height;
#X obj 31 151 s \$0-new_gui_size;
#X obj 31 194 r \$0-new_gui_size;
#X msg 168 317 \; pd-wavebranch.pd donecanvasdialog 1 -1 2 0 1 1 1
\$1 \$2 0 0;
#X text 308 382 third arg is graph on parent \, 1 is on \, 2 is hide
args;
#X text 43 451 donecanvasdialog <xunit> <yunits> <gopmode> <xfrom>
<yfrom> <xto> <yto> <width> <height> <xoffset> <yoffset> 1, f 128
;
#X msg 141 129 480;
#X msg 31 129 792 400;
#X msg 191 129 792;
#X msg 281 129 400;
#X obj 141 269 pack 480 400;
#X connect 0 0 1 0;
#X connect 1 0 2 0;
#X connect 1 1 29 0;
#X connect 2 0 27 0;
#X connect 3 0 4 0;
#X connect 4 0 30 0;
#X connect 4 1 5 0;
#X connect 5 0 20 0;
#X connect 9 0 31 0;
#X connect 9 1 31 1;
#X connect 10 0 11 0;
#X connect 10 1 24 0;
#X connect 11 0 12 0;
#X connect 15 0 31 0;
#X connect 15 1 31 1;
#X connect 16 0 0 0;
#X connect 17 0 3 0;
#X connect 19 0 31 0;
#X connect 21 0 9 0;
#X connect 23 0 15 0;
#X connect 27 0 18 0;
#X connect 28 0 22 0;
#X connect 29 0 18 0;
#X connect 30 0 20 0;
#X connect 31 0 10 0;
#X restore 554 419 pd canvas_control;
#N canvas 1242 245 1053 944 sine_partial_controls_individual 1;
#X obj 0 23 hradio 13 1 0 24 empty empty Partials 16 -8 0 14 #c6ffc7
#000000 #000000 0;
#X obj 3 36 hsl 307 20 0.1 100.1 1 0 empty empty empty -2 -8 0 10 #c6ffc7
#000000 #000000 0 1;
#X obj 0 399 s get_sine_partial;
#X obj 39 293 s sine_factor_slider_out;
#X obj 242 318 r sine_factor_slider_out;
#X obj 27 422 s sine_partial_radio_out;
#X obj 0 -25 r sine_radio_in;
#X obj 242 372 min 100;
#X obj 293 4 bng 15 250 50 0 \$0-sinesum_reset empty Reset -34 8 0
10 #fcfcfc #000000 #000000;
#X obj 623 403 s sinefactor_partial;
#N canvas 707 621 1737 920 partial_presets 0;
#X text 90 58 Sawtooth Wave;
#X text 482 54 Square Wave;
#X text 325 283 (Harmonic Primes);
#X text 311 116 (All Harmonics);
#X text 665 103 (Odd Harmonics);
#X text 477 217 Scrooge McDuck \, The Golden Beak;
#X text 91 227 Donald Duck \, The Invincible Junglenaut;
#X text 644 275 (Harmonic Prime Squares);
#X text 506 398 Ankylosaur;
#X text 92 400 Stegasaur;
#X msg 460 420 -0.0548246 0.925926 -0.0694444 0.862069 -0.094697 0.806452
-0.14881 0.757576 -0.347222 0.714286 1.04167 0.675676 0.208333 0.641026
0.115741 0.609756 0.0801282 0.581395 0.0612745 0.555556 0.0496032 0.531915
0.0416667;
#X msg 70 420 -0.05 0.0322581 -0.0625 0.0163934 -0.0833333 0.010989
-0.125 0.00826446 -0.25 0.00662252 0 0.00552486 0.25 0.00473934 0.125
0.00414938 0.0833333 0.00369004 0.0625 0.00332226 0.05 0.00302115 0.0416667
;
#X msg 70 250 0.5 0.333 0 0.2 0 0.1428 0 0 0 0.0909 0 0.0769 0 0 0
0.0588 0 0.0526 0 0 0 0.0434 0 0 0 0.03703;
#X msg 459 240 0.25 0.111 0 0.04 0 0.0204 0 0 0 0.0083 0 0.0059 0 0
0 0.00345 0 0.00276 0 0 0 0.00188 0 0 0 0.00137;
#X msg 73 81 0.5 0.333 0.25 0.2 0.166 0.1428 0.125 0.111 0.1 0.0909
0.0808 0.0769;
#X obj 114 586 outlet;
#X obj 280 -6 inlet;
#X msg 460 79 0 0.333 0 0.2 0 0.1428 0 0.111 0 0.0909 0 0.0769;
#X obj 280 18 sel 0 1 2 3 4 5;
#X msg 867 79 0;
#X text 867 50 Pure sine;
#X connect 10 0 15 0;
#X connect 11 0 15 0;
#X connect 12 0 15 0;
#X connect 13 0 15 0;
#X connect 14 0 15 0;
#X connect 16 0 18 0;
#X connect 17 0 15 0;
#X connect 18 0 14 0;
#X connect 18 1 17 0;
#X connect 18 2 12 0;
#X connect 18 3 13 0;
#X connect 18 4 11 0;
#X connect 18 5 10 0;
#X connect 18 6 19 0;
#X connect 19 0 15 0;
#X restore 571 248 pd partial_presets;
#X obj 409 -61 inlet;
#X obj 544 32 route preset;
#X obj 544 431 s sinesum_updated;
#X obj 12 236 t b f;
#X obj 544 191 % 7;
#X obj 544 168 + 6;
#X obj 242 446 pack f f;
#X obj 242 467 s sinefactor_partial;
#X obj 287 422 r sine_partial_radio_out;
#X obj 242 397 floatgrain 16;
#N canvas 104 104 450 300 partial_unstacking 0;
#X obj 61 58 inlet;
#X obj 61 143 pack f f;
#X obj 61 101 unstack 24;
#X obj 61 122 * 100;
#X obj 61 186 outlet;
#X connect 0 0 2 0;
#X connect 1 0 4 0;
#X connect 2 0 3 0;
#X connect 2 1 1 1;
#X connect 3 0 1 0;
#X restore 571 351 pd partial_unstacking;
#X obj 12 315 s sinesum_updated;
#X msg 571 403 \$2 \$1;
#X obj 0 376 t f f;
#X text 179 422 --->;
#X obj 3 90 hsl 307 20 0.1 10.1 1 0 \$0-odd_partial_slider \$0-set_odd_partial_slider
Odd\\\ Partials 16 -8 0 12 #fcfcfc #000000 #000000 0 1;
#X obj 3 130 hsl 307 20 0.1 10.1 1 0 \$0-even_partial_slider \$0-set_even_partial_slider
Even\\\ Partials 16 -8 0 12 #fcfcfc #000000 #000000 0 1;
#X msg 50 590 half_0 \$1;
#X msg 119 616 half_1 \$1;
#X obj 50 495 r \$0-odd_partial_slider;
#X obj 119 540 r \$0-even_partial_slider;
#X obj 50 667 t b a;
#X obj 50 719 s sinesum_updated;
#X obj 77 694 outlet;
#X obj 50 567 - 0.1;
#X obj 119 590 - 0.1;
#X msg 194 622 half_chrom \$1;
#X text 322 180 7 is pretty cool;
#X obj 0 176 hradio 26 1 0 12 \$0-p_seq_phase \$0-set_p_seq_phase Partial-sequence\\\ phase
16 -8 0 14 #fcfcfc #000000 #000000 0;
#X obj 194 590 r \$0-p_seq_phase;
#X obj 50 519 floatgrain 16;
#X obj 119 566 floatgrain 16;
#X obj 632 94 unpack f f;
#X obj 409 -2 route half_0 half_1 seq;
#X obj 242 345 redef 0 0.001;
#X obj 620 628 r sine_factor_slider_out;
#X obj 620 676 pack f f;
#X obj 665 652 r sine_partial_radio_out;
#X obj 590 720 outlet;
#X obj 39 262 - 0.1;
#X obj 571 375 t a a a;
#X obj 571 278 t a a;
#X obj 598 303 list length;
#X obj 598 325 s \$0-sinesum_reset;
#X obj 544 213 t b f;
#X obj 613 224 s sinesum_updated;
#X obj 613 197 floatgrain 8;
#X msg 632 143 set \$1;
#X obj 632 119 floatgrain 8;
#X obj 26 470 r \$0-odd_partial_out;
#X obj 140 519 r \$0-even_partial_out;
#N canvas 1324 775 777 435 odd_and_even_setting 0;
#X obj 49 16 inlet;
#X obj 274 54 t f f;
#X obj 274 128 s \$0-set_even_partial_slider;
#X msg 274 102 set \$1;
#X obj 49 57 t f f;
#X msg 49 103 set \$1;
#X obj 49 129 s \$0-set_odd_partial_slider;
#X obj 76 80 s \$0-odd_partial_out;
#X obj 301 77 s \$0-even_partial_out;
#X obj 274 16 inlet;
#X connect 0 0 4 0;
#X connect 1 0 3 0;
#X connect 1 1 8 0;
#X connect 3 0 2 0;
#X connect 4 0 5 0;
#X connect 4 1 7 0;
#X connect 5 0 6 0;
#X connect 9 0 1 0;
#X restore 392 32 pd odd_and_even_setting;
#X obj 415 62 s \$0-set_p_seq_phase;
#N canvas 1424 570 968 484 reset_triggers 0;
#X msg 69 157 set \$1;
#X obj 69 109 r sine_partial;
#N canvas 260 260 882 598 reset_partials 0;
#X obj 102 19 inlet;
#X obj 84 246 pack f f;
#X obj 84 269 s sinefactor_partial;
#X obj 175 176 + 1;
#X obj 129 176 t f f;
#X obj 129 153 f 0;
#X obj 129 200 moses 24;
#X msg 190 201 0;
#X msg 84 200 0;
#X obj 129 223 t b b f;
#X obj 102 71 t b b;
#X msg 51 246 1 0;
#X obj 102 45 route bang float;
#X obj 148 71 t b f;
#X connect 0 0 12 0;
#X connect 1 0 2 0;
#X connect 3 0 5 1;
#X connect 4 0 6 0;
#X connect 4 1 3 0;
#X connect 5 0 4 0;
#X connect 6 0 9 0;
#X connect 6 1 7 0;
#X connect 7 0 5 1;
#X connect 8 0 1 0;
#X connect 9 0 5 0;
#X connect 9 1 8 0;
#X connect 9 2 1 1;
#X connect 10 0 11 0;
#X connect 10 1 5 0;
#X connect 11 0 2 0;
#X connect 12 0 10 0;
#X connect 12 1 13 0;
#X connect 13 0 5 0;
#X connect 13 1 5 1;
#X restore 227 212 pd reset_partials;
#X obj 28 109 route;
#X msg 210 109 1;
#X obj 210 29 r \$0-sinesum_reset;
#X obj 55 84 r sine_partial_radio_out;
#X msg 244 109 0;
#X obj 285 165 s \$0-set_odd_partial_slider;
#X obj 304 140 s \$0-set_even_partial_slider;
#X obj 210 84 t b b b b;
#X msg 285 109 0.1;
#X obj 244 132 t f f;
#X obj 69 132 + 0.1;
#X obj 244 189 s \$0-set_p_seq_phase;
#X obj 271 309 outlet;
#X text 316 309 Partial radio;
#X obj 28 18 inlet;
#X text 68 17 Slider update triggers;
#X obj 69 309 outlet;
#X text 114 309 Partial slider;
#X obj 298 288 s sine_partial_radio_out;
#X obj 271 238 t f f;
#X msg 271 261 set \$1;
#X connect 0 0 19 0;
#X connect 1 0 13 0;
#X connect 3 0 13 0;
#X connect 4 0 13 0;
#X connect 5 0 10 0;
#X connect 6 0 3 1;
#X connect 7 0 12 0;
#X connect 10 0 4 0;
#X connect 10 1 2 0;
#X connect 10 2 7 0;
#X connect 10 3 11 0;
#X connect 11 0 8 0;
#X connect 11 0 9 0;
#X connect 12 0 14 0;
#X connect 12 1 22 0;
#X connect 13 0 0 0;
#X connect 17 0 3 0;
#X connect 22 0 23 0;
#X connect 22 1 21 0;
#X connect 23 0 15 0;
#X restore 199 227 pd reset_triggers;
#X obj 712 94 s sinefactor_partial;
#X obj 613 58 t b a a;
#X msg 689 166 set \$1;
#X obj 689 142 floatgrain 8;
#X msg 751 50 \$2 \$1;
#X connect 0 0 24 0;
#X connect 1 0 14 0;
#X connect 4 0 45 0;
#X connect 6 0 0 0;
#X connect 7 0 20 0;
#X connect 10 0 52 0;
#X connect 11 0 44 0;
#X connect 12 0 16 0;
#X connect 12 1 66 0;
#X connect 14 0 22 0;
#X connect 14 1 50 0;
#X connect 15 0 55 0;
#X connect 16 0 15 0;
#X connect 17 0 18 0;
#X connect 19 0 17 1;
#X connect 20 0 17 0;
#X connect 21 0 51 0;
#X connect 23 0 64 0;
#X connect 24 0 2 0;
#X connect 24 1 5 0;
#X connect 28 0 32 0;
#X connect 29 0 32 0;
#X connect 30 0 41 0;
#X connect 31 0 42 0;
#X connect 32 0 33 0;
#X connect 32 1 34 0;
#X connect 35 0 28 0;
#X connect 36 0 29 0;
#X connect 37 0 32 0;
#X connect 40 0 37 0;
#X connect 41 0 35 0;
#X connect 42 0 36 0;
#X connect 43 0 59 0;
#X connect 43 1 68 0;
#X connect 44 0 62 0;
#X connect 44 1 62 1;
#X connect 44 2 63 0;
#X connect 44 3 12 0;
#X connect 45 0 7 0;
#X connect 46 0 47 0;
#X connect 47 0 49 0;
#X connect 48 0 47 1;
#X connect 50 0 3 0;
#X connect 51 0 23 0;
#X connect 51 1 49 0;
#X connect 51 2 9 0;
#X connect 52 0 21 0;
#X connect 52 1 53 0;
#X connect 53 0 54 0;
#X connect 55 0 13 0;
#X connect 55 1 10 0;
#X connect 57 0 56 0;
#X connect 58 0 0 0;
#X connect 59 0 58 0;
#X connect 60 0 35 0;
#X connect 61 0 36 0;
#X connect 64 0 1 0;
#X connect 64 1 0 0;
#X connect 66 0 57 0;
#X connect 66 1 43 0;
#X connect 66 2 69 0;
#X connect 67 0 1 0;
#X connect 68 0 67 0;
#X connect 69 0 65 0;
#X coords 0 -1 1 1 312 215 2 0 0;
#X restore 480 125 pd sine_partial_controls_individual;
#X obj 627 -97 loadbang;
#X obj 627 -55 s \$0-array_name_sines;
#X obj 586 -119 inlet;
#X text 623 -119 Arrayname for sines;
#X obj 432 -119 inlet;
#X text 469 -119 Arrayname;
#X obj 432 -91 s \$0-array_name_main;
#N canvas 752 390 974 796 wave_writer 0;
#X msg 400 464 \; \$1 normalize 1;
#X obj 400 443 symbol;
#X obj 379 347 r \$0-array_name_main;
#X obj 406 419 t s s;
#X obj 62 35 inlet;
#N canvas 0 50 450 250 (subpatch) 0;
#X array branchwave_temp 515 float 2;
#X coords 0 1 515 -1 200 140 1 0 0;
#X restore 77 521 graph;
#X obj 122 278 r \$0-array_name_sines;
#N canvas 0 50 450 250 (subpatch) 0;
#X array branchwave_temp2 515 float 3;
#A 0 0 0 0 0 0 0 0 0 0 0 0 0 0 0 0 0 0 0 0 0 0 0 0 0 0 0 0 0 0 0 0
0 0 0 0 0 0 0 0 0 0 0 0 0 0 0 0 0 0 0 0 0 0 0 0 0 0 0 0 0 0 0 0 0 0
0 0 0 0 0 0 0 0 0 0 0 0 0 0 0 0 0 0 0 0 0 0 0 0 0 0 0 0 0 0 0 0 0 0
0 0 0 0 0 0 0 0 0 0 0 0 0 0 0 0 0 0 0 0 0 0 0 0 0 0 0 0 0 0 0 0 0 0
0 0 0 0 0 0 0 0 0 0 0 0 0 0 0 0 0 0 0 0 0 0 0 0 0 0 0 0 0 0 0 0 0 0
0 0 0 0 0 0 0 0 0 0 0 0 0 0 0 0 0 0 0 0 0 0 0 0 0 0 0 0 0 0 0 0 0 0
0 0 0 0 0 0 0 0 0 0 0 0 0 0 0 0 0 0 0 0 0 0 0 0 0 0 0 0 0 0 0 0 0 0
0 0 0 0 0 0 0 0 0 0 0 0 0 0 0 0 0 0 0 0 0 0 0 0 0 0 0 0 0 0 0 0 0 0
0 0 0 0 0 0 0 0 0 0 0 0 0 0 0 0 0 0 0 0 0 0 0 0 0 0 0 0 0 0 0 0 0 0
0 0 0 0 0 0 0 0 0 0 0 0 0 0 0 0 0 0 0 0 0 0 0 0 0 0 0 0 0 0 0 0 0 0
0 0 0 0 0 0 0 0 0 0 0 0 0 0 0 0 0 0 0 0 0 0 0 0 0 0 0 0 0 0 0 0 0 0
0 0 0 0 0 0 0 0 0 0 0 0 0 0 0 0 0 0 0 0 0 0 0 0 0 0 0 0 0 0 0 0 0 0
0 0 0 0 0 0 0 0 0 0 0 0 0 0 0 0 0 0 0 0 0 0 0 0 0 0 0 0 0 0 0 0 0 0
0 0 0 0 0 0 0 0 0 0 0 0 0 0 0 0 0 0 0 0 0 0 0 0 0 0 0 0 0 0 0 0 0 0
0 0 0 0 0 0 0 0 0 0 0 0 0 0 0 0 0 0 0 0 0 0 0 0 0 0 0 0 0 0 0 0 0 0
0 0 0 0 0 0 0 0;
#X coords 0 1 515 -1 200 140 1 0 0;
#X restore 319 523 graph;
#X obj 301 443 makefilename %s;
#X obj 239 34 inlet;
#X obj 432 34 inlet;
#X obj 341 275 s \$0-preset_ui_settings;
#X obj 188 251 wave_shaper, f 26;
#X text 432 17 steps;
#X text 216 17 line time;
#X text 62 18 Shaper args;
#X obj 101 110 route normalize;
#X obj 101 133 route bang;
#X text 529 236 First point and the last two points are guard points!
;
#X text 547 257 The 2^n waveform points start at 1;
#X obj 239 61 route writecycle pointslide, f 28;
#X msg 239 145 writecycle \$1;
#X obj 432 124 route cyclesteps pointsteps;
#X msg 432 147 cyclesteps \$1;
#X obj 132 166 t f f;
#X msg 132 210 normalize \$1;
#X obj 122 299 t a a;
#N canvas 2832 830 450 707 analytics 0;
#X obj 99 64 inlet;
#X text 5 64 Bang to analyze;
#X obj 309 64 inlet;
#X text 346 64 Array size;
#X obj 173 419 s \$0-mind_the_gap;
#X obj 309 87 - 3;
#X obj 131 152 f 512;
#X obj 99 108 t b b;
#X msg 99 152 1;
#X obj 188 62 inlet;
#X text 226 64 Array name;
#X obj 188 267 tabread branchwave_temp;
#X msg 188 244 set \$1;
#X obj 173 296 -;
#X obj 173 213 tabread branchwave_temp;
#X msg 173 190 set \$1;
#X floatatom 223 337 18 0 0 0 - - - 0;
#X obj 173 392 i;
#X floatatom 301 372 5 0 0 0 - - - 0;
#N canvas 234 234 450 300 strange_log_calculation 0;
#X obj 107 92 log 2;
#X msg 107 115 1 \$1;
#X obj 107 138 /;
#X obj 107 161 * -100;
#X obj 107 23 inlet;
#X obj 107 224 outlet;
#X connect 0 0 1 0;
#X connect 1 0 2 0;
#X connect 2 0 3 0;
#X connect 3 0 5 0;
#X connect 4 0 0 0;
#X restore 173 354 pd strange_log_calculation;
#X connect 0 0 7 0;
#X connect 2 0 5 0;
#X connect 5 0 6 1;
#X connect 6 0 11 0;
#X connect 7 0 8 0;
#X connect 7 1 6 0;
#X connect 8 0 14 0;
#X connect 9 0 12 0;
#X connect 9 0 15 0;
#X connect 11 0 13 1;
#X connect 12 0 11 0;
#X connect 13 0 16 0;
#X connect 13 0 19 0;
#X connect 14 0 13 0;
#X connect 15 0 14 0;
#X connect 17 0 4 0;
#X connect 19 0 17 0;
#X connect 19 0 18 0;
#X restore 302 406 pd analytics;
#X obj 371 222 t f f;
#X obj 302 380 pipe 36;
#X obj 239 124 addlet 20, f 14;
#X obj 62 412 s sine_partial;
#X text 324 670 Backup array for the sinesum shaper;
#X text 84 670 Backup array for the clonedwriters;
#N canvas 208 208 570 300 sineshaper_routing 0;
#X obj 41 65 inlet;
#X obj 41 211 outlet;
#X obj 470 211 outlet;
#X msg 184 152 half_0 \$1;
#X msg 255 152 half_1 \$1;
#X msg 327 152 half_chrom \$1;
#X msg 398 181 points \$1;
#X obj 41 125 route get_sine_partial sine_partial half_0 half_1 half_chrom
sine_points, f 72;
#X connect 0 0 7 0;
#X connect 3 0 1 0;
#X connect 4 0 1 0;
#X connect 5 0 1 0;
#X connect 6 0 1 0;
#X connect 7 0 1 0;
#X connect 7 1 1 0;
#X connect 7 2 3 0;
#X connect 7 3 4 0;
#X connect 7 4 5 0;
#X connect 7 5 6 0;
#X connect 7 6 2 0;
#X restore 62 77 pd sineshaper_routing;
#X obj 239 84 t f f;
#X text 535 439 The clonedwriters should probably be named after those
famous fountains \, lol;
#X obj 371 197 r \$0-array_size_main;
#X obj 379 370 t s s;
#X obj 62 380 sinesum_shaper branchwave_temp2 512 1;
#X obj 209 466 wave_writer_515, f 19;
#X obj 209 489 r \$0-array_size_main_log2;
#X connect 1 0 0 0;
#X connect 2 0 38 0;
#X connect 3 0 8 0;
#X connect 3 1 1 1;
#X connect 4 0 34 0;
#X connect 6 0 26 0;
#X connect 8 0 40 5;
#X connect 9 0 20 0;
#X connect 10 0 22 0;
#X connect 12 0 40 0;
#X connect 12 1 40 1;
#X connect 12 2 40 2;
#X connect 12 3 29 0;
#X connect 12 4 11 0;
#X connect 16 0 17 0;
#X connect 16 1 12 0;
#X connect 17 0 1 0;
#X connect 17 1 24 0;
#X connect 20 0 35 0;
#X connect 20 1 30 1;
#X connect 21 0 12 1;
#X connect 22 0 23 0;
#X connect 22 1 40 4;
#X connect 23 0 12 1;
#X connect 24 0 25 0;
#X connect 24 1 39 1;
#X connect 25 0 12 0;
#X connect 26 0 12 3;
#X connect 26 1 39 3;
#X connect 28 0 27 2;
#X connect 28 1 12 2;
#X connect 29 0 27 0;
#X connect 30 0 21 0;
#X connect 30 1 29 1;
#X connect 30 2 40 3;
#X connect 34 0 39 0;
#X connect 34 1 16 0;
#X connect 35 0 39 2;
#X connect 35 1 30 0;
#X connect 37 0 28 0;
#X connect 38 0 27 1;
#X connect 38 1 3 0;
#X connect 39 0 31 0;
#X connect 41 0 40 6;
#X restore 229 503 pd wave_writer;
#X text 665 419 Scroll up for inlets;
#X obj 627 -75 makefilename \$0-waveTreeLeaf;
#X floatatom 399 376 5 1 60 0 - \$0-set_pointsteps \$0-pointsteps 12
;
#X text 365 377 Steps;
#X obj 368 361 hsl 100 15 1 1001 1 0 \$0-pointslide \$0-set_pointslide
32ms. 2 8 0 12 #fcfcfc #000000 #000000 0 1;
#X text 337 342 Point adjustment:;
#X text 337 360 Time;
#N canvas 880 315 450 300 point_adjustment 0;
#X obj 71 268 outlet;
#X obj 121 268 outlet;
#X obj 71 177 t f f;
#X obj 98 203 / 10;
#X text 202 126 steps;
#X text 192 65 point slide time;
#X obj 119 127 loadfloat 10;
#X obj 119 153 s \$0-set_pointsteps;
#X obj 119 177 r \$0-pointsteps;
#X obj 71 65 s \$0-set_pointslide;
#X obj 71 88 r \$0-pointslide;
#X obj 71 112 - 1;
#X obj 71 42 + 1;
#X obj 286 97 i;
#X msg 286 120 label \$1ms.;
#X obj 108 4 bng 15 250 50 0 empty empty empty 17 7 0 10 #fcfcfc #000000
#000000;
#X msg 71 243 pointslide \$1;
#X msg 171 243 pointsteps \$1;
#X obj 71 19 loadfloat 32;
#X connect 2 0 16 0;
#X connect 2 1 3 0;
#X connect 3 0 17 0;
#X connect 6 0 7 0;
#X connect 8 0 3 1;
#X connect 10 0 11 0;
#X connect 11 0 2 0;
#X connect 11 0 13 0;
#X connect 12 0 9 0;
#X connect 13 0 14 0;
#X connect 14 0 9 0;
#X connect 15 0 18 0;
#X connect 16 0 0 0;
#X connect 17 0 1 0;
#X connect 18 0 12 0;
#X restore 269 445 pd point_adjustment;
#X obj 168 361 hsl 100 15 1 121 1 0 \$0-writecycle_time \$0-set_writecycle_time
42ms. 2 8 0 12 #fcfcfc #000000 #000000 0 1;
#X text 137 360 Time;
#N canvas 1043 367 943 727 writecycle_adjustment 0;
#X obj 71 459 outlet;
#X obj 225 461 outlet;
#X obj 71 112 - 1;
#X obj 71 42 + 1;
#X obj 286 97 i;
#X msg 286 120 label \$1ms.;
#X obj 108 4 bng 15 250 50 0 empty empty empty 17 7 0 10 #fcfcfc #000000
#000000;
#X obj 71 88 r \$0-writecycle_time;
#X obj 71 65 s \$0-set_writecycle_time;
#X text 222 65 cycle time;
#X msg 71 423 writecycle \$1;
#X obj 198 193 s \$0-set_cyclesteps;
#X obj 198 217 r \$0-cyclesteps;
#X msg 225 425 cyclesteps \$1;
#X msg 198 281 2 \$1;
#X obj 198 304 pow 1;
#X text 272 167 2^n steps;
#X obj 340 231 r \$0-stepwisecycle;
#X obj 340 314 sel 1 0;
#X obj 198 336 t f f;
#X obj 183 362 f;
#X msg 286 362 1;
#X obj 225 402 f 1;
#X obj 225 362 spigot 1;
#X obj 340 287 t f f;
#X obj 198 167 loadfloat 9;
#X obj 340 155 loadfloat 0;
#X msg 340 178 set \$1;
#X obj 340 259 f;
#X obj 340 201 s \$0-set_stepwisecycle;
#X obj 71 19 loadfloat 42;
#X connect 2 0 4 0;
#X connect 2 0 10 0;
#X connect 3 0 8 0;
#X connect 4 0 5 0;
#X connect 5 0 8 0;
#X connect 6 0 30 0;
#X connect 7 0 2 0;
#X connect 10 0 0 0;
#X connect 12 0 14 0;
#X connect 13 0 1 0;
#X connect 14 0 15 0;
#X connect 15 0 19 0;
#X connect 17 0 28 0;
#X connect 18 0 20 0;
#X connect 18 1 21 0;
#X connect 19 0 20 1;
#X connect 19 1 23 0;
#X connect 20 0 22 0;
#X connect 21 0 22 0;
#X connect 22 0 13 0;
#X connect 23 0 22 0;
#X connect 24 0 18 0;
#X connect 24 1 23 1;
#X connect 25 0 11 0;
#X connect 26 0 27 0;
#X connect 27 0 29 0;
#X connect 28 0 24 0;
#X connect 30 0 3 0;
#X restore 289 473 pd writecycle_adjustment;
#X text 137 342 Loop adjustment:;
#X obj 254 376 tgl 15 0 \$0-stepwisecycle \$0-set_stepwisecycle Stepwise
17 7 0 10 #fcfcfc #000000 #000000 0 1;
#X floatatom 217 376 5 1 9 0 - \$0-set_cyclesteps \$0-cyclesteps 12
;
#X text 165 377 Steps 2^;
#X obj 212 -32 r \$0-preset_ui_settings;
#X obj 366 -32 r \$0-mind_the_gap;
#N canvas 338 338 450 300 sinesum_ui_link 0;
#X obj 57 240 outlet;
#X obj 57 57 r sinesum_updated;
#X obj 132 141 r get_sine_partial;
#X obj 102 88 r sinefactor_partial;
#X msg 132 165 get_sine_partial \$1;
#X msg 102 112 sine_partial \$1 \$2;
#X obj 269 165 r \$0-new_sinesum_calc_size;
#X msg 269 188 sine_points \$1;
#X connect 1 0 0 0;
#X connect 2 0 4 0;
#X connect 3 0 5 0;
#X connect 4 0 0 0;
#X connect 5 0 0 0;
#X connect 6 0 7 0;
#X connect 7 0 0 0;
#X restore 229 420 pd sinesum_ui_link;
#N canvas 52 52 450 300 cross_ui_messaging 0;
#X obj 133 185 outlet;
#X obj 40 71 inlet;
#X obj 40 148 route sinesum_id;
#X obj 40 214 s \$0-sinesum_preset_id;
#X connect 1 0 2 0;
#X connect 2 0 3 0;
#X connect 2 1 0 0;
#X restore 15 420 pd cross_ui_messaging;
#N canvas 78 78 450 300 cross_ui_receiver 0;
#X obj 120 53 r \$0-sinesum_preset_id;
#X msg 120 76 preset \$1;
#X obj 72 163 outlet;
#X connect 0 0 1 0;
#X connect 1 0 2 0;
#X restore 804 107 pd cross_ui_receiver;
#X obj 143 475 t a a;
#X obj 143 560 outlet;
#X obj 633 560 outlet;
#X obj 480 433 t a a;
#N canvas 1705 507 450 300 sinesum_setting_manager 0;
#X obj 44 36 inlet;
#X obj 44 209 outlet;
#X obj 278 209 outlet;
#X obj 221 110 unpack f f;
#X obj 44 69 route half_0 half_1 half_chrom;
#X obj 278 155 + 3;
#X obj 44 110 pair 1;
#X obj 103 110 pair 2;
#X obj 162 110 pair 0;
#X connect 0 0 4 0;
#X connect 3 0 1 0;
#X connect 3 1 5 0;
#X connect 4 0 6 0;
#X connect 4 1 7 0;
#X connect 4 2 8 0;
#X connect 4 3 3 0;
#X connect 5 0 2 0;
#X connect 6 0 1 0;
#X connect 6 1 2 0;
#X connect 7 0 1 0;
#X connect 7 1 2 0;
#X connect 8 0 1 0;
#X connect 8 1 2 0;
#X restore 480 500 pd sinesum_setting_manager;
#X obj 25 -119 inlet;
#X text 62 -118 Settings;
#X obj 275 -119 inlet;
#X text 312 -118 Sine ettings;
#X obj 480 560 outlet;
#N canvas 910 452 794 519 sinesum_array_resolution 0;
#N canvas 1422 770 692 384 array_markers 0;
#X obj 189 149 / 60;
#X msg 189 173 xticks 0 \$1 5;
#X obj 189 24 inlet;
#X text 182 5 Array name;
#X obj 189 284 s;
#X obj 69 284 s;
#X msg 69 173 yticks 0 1 1;
#X obj 189 118 array size branchwave_temp;
#X obj 358 24 inlet;
#X text 351 5 Size update;
#X obj 358 118 spigot 0;
#X msg 403 102 1;
#X obj 189 50 t b b s s s b;
#X text 366 70 can't update untill we set the array name;
#X connect 0 0 1 0;
#X connect 1 0 5 0;
#X connect 1 0 4 0;
#X connect 2 0 12 0;
#X connect 6 0 5 0;
#X connect 6 0 4 0;
#X connect 7 0 0 0;
#X connect 8 0 10 0;
#X connect 10 0 0 0;
#X connect 11 0 10 1;
#X connect 12 0 7 0;
#X connect 12 1 6 0;
#X connect 12 2 5 1;
#X connect 12 3 4 1;
#X connect 12 4 7 1;
#X connect 12 5 11 0;
#X restore 44 375 pd array_markers;
#X obj 44 351 r \$0-array_name_sines;
#X obj 137 64 r \$0-array_size_main;
#X obj 176 351 dynamic_array_window \$0-waveTreeLeaf 515;
#X obj 156 375 dynamic_array_size \$0-waveTreeLeaf 515;
#X obj 137 98 f 515;
#X obj 137 121 change 515;
#X obj 137 327 t f f f;
#X obj 137 167 t f f;
#X obj 137 245 s \$0-new_sinesum_array_size;
#X obj 137 273 r \$0-new_sinesum_array_size;
#X obj 314 245 s \$0-new_sinesum_calc_size;
#X obj 314 217 - 3;
#X connect 1 0 0 0;
#X connect 2 0 5 0;
#X connect 5 0 6 0;
#X connect 6 0 8 0;
#X connect 7 0 0 1;
#X connect 7 1 4 0;
#X connect 7 2 3 0;
#X connect 8 0 9 0;
#X connect 8 1 12 0;
#X connect 10 0 7 0;
#X connect 12 0 11 0;
#X restore 627 -32 pd sinesum_array_resolution;
#N canvas 338 338 450 300 size_distribution 0;
#X obj 39 21 r \$0-array_name_main;
#X obj 39 68 array size;
#X obj 39 91 s \$0-array_size_main;
#X obj 39 44 t b s;
#X obj 39 123 r \$0-array_size_main;
#X obj 39 146 - 3;
#X obj 39 169 log 2;
#X obj 39 192 i;
#X obj 39 217 s \$0-array_size_main_log2;
#X connect 0 0 3 0;
#X connect 1 0 2 0;
#X connect 3 0 1 0;
#X connect 3 1 1 1;
#X connect 4 0 5 0;
#X connect 5 0 6 0;
#X connect 6 0 7 0;
#X connect 7 0 8 0;
#X restore 432 -68 pd size_distribution;
#X connect 0 0 30 0;
#X connect 3 0 35 0;
#X connect 3 1 36 0;
#X connect 4 0 13 0;
#X connect 6 0 5 0;
#X connect 8 0 10 0;
#X connect 13 0 5 0;
#X connect 19 0 11 1;
#X connect 19 1 11 2;
#X connect 22 0 11 1;
#X connect 22 1 11 2;
#X connect 27 0 0 1;
#X connect 28 0 0 2;
#X connect 29 0 11 0;
#X connect 30 0 32 0;
#X connect 31 0 3 0;
#X connect 32 0 33 0;
#X connect 32 1 11 0;
#X connect 35 0 36 0;
#X connect 35 1 11 0;
#X connect 36 0 41 0;
#X connect 36 1 34 0;
#X connect 37 0 0 0;
#X connect 39 0 3 0;
#X coords 0 0 1 1 792 400 2 0 0;
