#N canvas 782 502 1579 793 10;
#X obj 75 32 inlet;
#X obj 75 123 t f f;
#X obj 75 454 outlet;
#X obj 132 32 inlet;
#X obj 75 414 * 1;
#X obj 132 65 t f f;
#X obj 370 145 sqrt;
#X obj 102 219 moses 0;
#X obj 102 317 f;
#X text 157 219 Split to accomodate pow function;
#X text 132 317 Rejoin after pow function;
#X obj 102 280 expr -1*pow(-1*$f1 \, $f2);
#X obj 265 280 expr pow($f1 \, $f2);
#X obj 370 196 /;
#X msg 370 173 0.25 \$1;
#X obj 75 393 mix, f 10;
#X connect 0 0 1 0;
#X connect 1 0 15 0;
#X connect 1 1 7 0;
#X connect 3 0 5 0;
#X connect 4 0 2 0;
#X connect 5 0 15 2;
#X connect 5 1 6 0;
#X connect 6 0 14 0;
#X connect 7 0 11 0;
#X connect 7 1 12 0;
#X connect 8 0 15 1;
#X connect 11 0 8 0;
#X connect 12 0 8 0;
#X connect 13 0 12 1;
#X connect 13 0 11 1;
#X connect 14 0 13 0;
#X connect 15 0 4 0;
