#N canvas 667 888 450 300 10;
#X obj 103 157 focusonhalf;
#X obj 75 32 inlet;
#X obj 75 123 t f f;
#X obj 75 254 outlet;
#X obj 132 32 inlet;
#X obj 75 214 * 1;
#X obj 75 193 angulate;
#X obj 132 65 t f f;
#X obj 166 103 sqrt;
#X obj 166 126 * 4;
#X connect 0 0 6 1;
#X connect 1 0 2 0;
#X connect 2 0 6 0;
#X connect 2 1 0 0;
#X connect 4 0 7 0;
#X connect 5 0 3 0;
#X connect 6 0 5 0;
#X connect 7 0 6 2;
#X connect 7 1 8 0;
#X connect 8 0 9 0;
#X connect 9 0 0 1;
