#N canvas 1708 906 450 300 10;
#X obj 75 32 inlet;
#X obj 75 93 t f f;
#X obj 75 224 outlet;
#X obj 120 72 inlet;
#X obj 75 53 t f f;
#X obj 102 127 destabalize;
#X obj 75 163 angulate;
#X connect 0 0 4 0;
#X connect 1 0 6 0;
#X connect 1 1 5 0;
#X connect 3 0 6 2;
#X connect 4 0 1 0;
#X connect 5 0 6 1;
#X connect 6 0 2 0;
